<?xml version="1.0" standalone="no"?><!-- Generator: Gravit.io --><svg xmlns="http://www.w3.org/2000/svg" xmlns:xlink="http://www.w3.org/1999/xlink" style="isolation:isolate" viewBox="916 -25 1500 1500" width="1500" height="1500"><circle vector-effect="non-scaling-stroke" cx="1666" cy="725" r="750" fill="rgb(255,255,255)"/><clipPath id="_clipPath_OPEv8NU0IHDae5VD7ltaJIMod79gIZyD"><circle vector-effect="non-scaling-stroke" cx="1666" cy="725" r="750" fill="rgb(255,255,255)"/></clipPath><g clip-path="url(#_clipPath_OPEv8NU0IHDae5VD7ltaJIMod79gIZyD)"><g><path d=" M 1172.056 539.846 C 1172.056 509.016 1180.235 473.783 1192.819 445.47 C 1204.144 417.157 1223.019 385.07 1245.669 366.195 C 1253.848 359.903 1263.286 356.128 1273.982 359.903 C 1290.969 365.566 1302.294 388.216 1306.699 407.091 C 1306.069 420.932 1304.811 434.145 1304.811 450.504 C 1304.811 456.795 1314.249 458.683 1317.395 453.02 C 1319.911 448.616 1321.17 445.47 1321.799 439.808 C 1323.686 427.854 1323.057 416.528 1319.911 405.203 C 1323.057 381.295 1325.574 356.757 1329.349 333.478 C 1329.349 322.782 1317.395 322.782 1316.136 331.591 C 1313.619 346.691 1311.732 361.791 1309.844 376.891 C 1302.924 363.678 1292.857 351.095 1278.386 346.691 C 1263.286 341.028 1249.444 344.803 1236.861 356.128 C 1211.694 376.891 1191.561 409.607 1178.348 439.808 C 1166.394 470.008 1156.956 507.129 1156.956 539.846 C 1156.956 612.829 1185.898 656.242 1228.682 679.522 C 1270.836 703.43 1327.461 705.947 1382.199 693.992 C 1417.433 686.442 1452.037 673.23 1482.237 656.242 C 1449.52 668.196 1413.657 677.634 1376.536 683.297 C 1325.574 690.847 1274.611 688.959 1236.861 668.196 C 1197.223 647.434 1172.056 607.796 1172.056 539.846 L 1172.056 539.846 Z " fill="rgb(64,58,58)"/><path d=" M 1501.368 573.192 C 1501.368 564.383 1496.964 556.204 1491.301 549.283 C 1486.268 542.992 1478.718 537.329 1471.168 534.183 C 1466.763 532.296 1461.73 531.667 1457.326 534.183 C 1456.068 529.779 1451.663 526.633 1446.63 529.779 C 1442.855 532.296 1439.08 535.442 1434.676 539.846 C 1423.98 550.542 1413.913 566.271 1412.026 582.629 C 1410.767 592.067 1412.655 601.504 1419.576 607.796 C 1425.238 615.346 1433.417 618.492 1442.855 619.121 C 1459.213 621.008 1476.201 614.717 1488.155 604.021 C 1496.964 595.842 1503.255 585.146 1501.368 573.192 Z  M 1479.976 595.842 C 1469.28 605.279 1454.18 609.683 1444.113 609.054 C 1438.451 607.797 1432.788 605.279 1429.642 600.246 C 1425.867 594.583 1425.238 590.179 1425.867 584.517 C 1427.126 575.708 1431.53 566.271 1435.305 559.979 C 1440.338 554.317 1444.742 548.654 1449.776 543.621 C 1450.405 546.767 1451.663 547.396 1453.551 549.283 C 1459.213 552.429 1462.988 546.767 1462.988 545.508 C 1463.618 545.508 1465.505 545.508 1467.393 546.766 C 1472.426 548.653 1478.088 553.057 1480.605 558.091 C 1484.38 562.495 1487.526 568.157 1488.155 573.82 C 1489.413 581.37 1485.638 590.178 1479.976 595.841 L 1479.976 595.842 Z " fill="rgb(64,58,58)"/><path d=" M 1659.329 607.796 C 1643.599 607.796 1627.241 605.279 1619.062 592.696 C 1611.512 580.742 1613.399 561.867 1617.174 547.396 C 1619.691 537.958 1622.837 530.408 1622.837 530.408 C 1627.241 522.858 1621.579 516.566 1613.399 520.341 C 1608.366 522.229 1602.703 526.633 1596.412 531.667 C 1581.941 542.992 1575.649 550.542 1569.987 558.092 C 1561.178 568.158 1552.999 578.854 1546.078 588.921 L 1546.078 573.821 C 1545.449 563.754 1544.191 546.767 1542.303 536.071 C 1540.416 527.892 1527.203 530.408 1529.091 539.846 C 1530.978 549.283 1532.236 564.383 1532.236 573.821 C 1532.866 585.146 1532.236 597.729 1532.236 609.683 C 1532.236 616.604 1540.416 619.121 1544.191 613.458 C 1544.191 613.458 1551.741 603.392 1552.999 601.504 C 1560.549 590.179 1569.987 576.967 1578.166 565.642 C 1585.087 556.833 1594.524 546.767 1605.849 537.958 C 1602.703 547.396 1600.816 556.833 1600.816 566.271 C 1600.187 587.033 1607.737 607.167 1627.241 613.458 C 1637.937 617.233 1649.262 617.233 1660.587 617.233 C 1673.8 615.346 1688.9 611.571 1700.854 607.167 C 1688.9 607.167 1673.8 609.054 1659.329 607.797 L 1659.329 607.796 Z " fill="rgb(64,58,58)"/><path d=" M 1731.025 530.408 C 1728.508 448.616 1732.283 434.145 1732.283 427.854 C 1732.912 420.303 1719.699 418.416 1719.07 427.854 C 1715.295 451.133 1717.183 507.129 1717.183 531.667 C 1710.262 531.667 1702.712 531.667 1695.162 529.779 C 1690.758 528.521 1683.837 526.633 1681.32 522.229 C 1679.433 520.341 1679.433 514.679 1673.77 515.308 C 1669.995 515.308 1666.849 519.083 1666.849 522.858 C 1668.107 526.633 1669.995 531.667 1673.77 534.183 C 1678.174 539.846 1685.724 541.733 1693.274 543.621 C 1700.824 545.508 1709.633 545.508 1717.812 544.878 C 1719.07 565.641 1721.587 609.053 1721.587 609.053 C 1719.699 610.941 1719.699 613.458 1720.958 615.345 C 1721.587 619.12 1725.362 621.008 1729.137 620.379 C 1732.912 619.121 1734.17 614.716 1734.799 609.682 C 1734.799 602.132 1732.912 595.841 1731.024 543.62 C 1758.708 539.845 1787.65 529.778 1806.525 519.082 C 1766.887 526.632 1754.933 528.52 1731.024 530.407 L 1731.025 530.408 Z " fill="rgb(64,58,58)"/><path d=" M 1894.894 609.054 C 1879.794 609.684 1864.694 610.942 1849.594 610.942 C 1840.156 610.942 1826.943 610.942 1817.506 609.054 C 1821.91 607.167 1825.685 605.279 1829.46 603.392 C 1844.56 596.471 1857.144 585.146 1867.21 571.933 C 1874.131 562.496 1880.423 546.767 1877.906 535.442 C 1876.019 526.004 1868.469 520.341 1857.773 520.97 C 1844.56 522.228 1828.831 532.296 1819.393 542.992 C 1810.585 552.429 1804.293 562.496 1799.26 573.821 C 1796.743 581.371 1793.597 590.808 1793.597 599.617 C 1793.597 605.279 1795.485 610.942 1800.518 614.717 C 1811.843 622.896 1835.123 622.267 1849.594 621.008 C 1864.694 620.379 1880.423 617.233 1895.523 614.717 C 1910.623 612.829 1925.723 609.054 1940.194 605.908 C 1925.094 607.166 1909.994 607.796 1894.894 609.054 Z  M 1812.473 579.483 C 1816.248 571.304 1823.168 560.608 1829.46 553.058 C 1840.785 541.104 1853.369 536.071 1859.031 535.442 C 1862.806 534.184 1864.694 536.072 1864.694 537.958 C 1866.581 545.508 1860.919 558.721 1855.885 565.642 C 1848.335 577.596 1838.269 588.292 1825.056 594.583 C 1820.023 597.729 1813.731 600.246 1808.068 603.392 C 1806.81 596.471 1809.956 586.404 1812.473 579.483 L 1812.473 579.483 Z " fill="rgb(64,58,58)"/><path d=" M 2056.246 607.796 C 2040.517 607.796 2024.159 605.279 2015.979 592.696 C 2008.429 580.742 2010.317 561.867 2014.092 547.396 C 2016.609 537.958 2019.754 530.408 2019.754 530.408 C 2024.159 522.858 2018.497 516.566 2010.317 520.341 C 2005.284 522.229 1999.621 526.633 1993.329 531.667 C 1978.858 542.992 1972.567 550.542 1966.904 558.092 C 1958.096 568.158 1949.917 578.854 1942.996 588.921 L 1942.996 573.821 C 1942.366 563.754 1941.108 546.767 1939.221 536.071 C 1937.333 527.892 1924.121 530.408 1926.008 539.846 C 1927.896 549.283 1929.154 564.383 1929.154 573.821 C 1929.784 585.146 1929.154 597.729 1929.154 609.683 C 1929.154 616.604 1937.333 619.121 1941.108 613.458 C 1941.108 613.458 1948.658 603.392 1949.917 601.504 C 1957.467 590.179 1966.904 576.967 1975.083 565.642 C 1982.004 556.833 1991.442 546.767 2002.767 537.958 C 1999.621 547.396 1997.734 556.833 1997.734 566.271 C 1997.104 587.033 2004.654 607.167 2024.159 613.458 C 2034.854 617.233 2046.18 617.233 2057.505 617.233 C 2070.717 615.346 2085.817 611.571 2097.772 607.167 C 2085.817 607.167 2070.717 609.054 2056.246 607.797 L 2056.246 607.796 Z " fill="rgb(64,58,58)"/><path d=" M 2127.942 530.408 C 2125.425 448.616 2129.2 434.145 2129.2 427.854 C 2129.83 420.303 2116.616 418.416 2115.987 427.854 C 2112.212 451.133 2114.1 507.129 2114.1 531.667 C 2107.179 531.667 2099.629 531.667 2092.079 529.779 C 2087.675 528.521 2080.754 526.633 2078.237 522.229 C 2076.35 520.341 2076.35 514.679 2070.687 515.308 C 2066.912 515.308 2063.766 519.083 2063.766 522.858 C 2065.024 526.633 2066.912 531.667 2070.687 534.183 C 2075.091 539.846 2082.641 541.733 2090.191 543.621 C 2097.741 545.508 2106.55 545.508 2114.729 544.878 C 2115.987 565.641 2118.504 609.053 2118.504 609.053 C 2116.616 610.941 2116.616 613.458 2117.874 615.345 C 2118.504 619.12 2122.278 621.008 2126.053 620.379 C 2129.828 619.121 2131.087 614.716 2131.716 609.682 C 2131.716 602.132 2129.828 595.841 2127.941 543.62 C 2155.624 539.845 2184.566 529.778 2203.441 519.082 C 2163.803 526.632 2151.849 528.52 2127.941 530.407 L 2127.942 530.408 Z " fill="rgb(64,58,58)"/></g><g><path d=" M 1450.413 831.642 C 1449.78 818.43 1440.346 808.992 1427.763 803.329 C 1407 792.634 1376.8 790.117 1353.521 790.117 C 1300.67 788.859 1237.124 797.667 1185.532 809.621 C 1155.961 816.542 1108.774 829.755 1084.236 846.742 C 1076.686 852.405 1068.507 860.584 1071.023 870.022 C 1072.282 878.83 1086.123 875.684 1083.607 867.505 C 1082.349 860.584 1094.932 853.034 1099.336 850.517 C 1121.986 837.305 1161.624 826.609 1187.42 820.946 C 1237.124 809.621 1300.67 801.442 1353.521 803.33 C 1374.283 803.33 1403.225 805.846 1422.1 815.284 C 1433.425 820.946 1437.2 827.867 1437.2 833.53 C 1438.459 843.597 1429.65 856.809 1422.1 865.618 C 1395.046 898.334 1339.05 935.455 1302.558 958.105 C 1302.558 939.86 1301.3 924.76 1302.558 912.805 C 1303.191 885.122 1306.333 880.718 1306.333 880.718 C 1310.737 873.167 1299.412 865.618 1295.008 873.167 C 1291.862 876.942 1289.345 884.492 1288.087 912.805 C 1288.087 927.905 1288.087 945.522 1289.345 966.285 C 1272.357 976.98 1252.224 987.047 1236.495 997.743 C 1229.574 1000.259 1235.237 1009.697 1240.899 1007.181 C 1257.258 998.372 1271.099 990.822 1289.974 979.497 C 1291.233 1001.518 1293.12 1022.281 1295.007 1039.268 C 1298.782 1069.468 1301.299 1073.243 1303.186 1073.873 C 1308.219 1081.423 1318.287 1073.873 1313.882 1066.322 C 1312.624 1065.689 1310.736 1060.03 1308.22 1034.235 C 1306.332 1014.73 1304.445 992.08 1303.187 971.947 C 1342.825 948.667 1403.225 909.659 1432.796 873.796 C 1442.233 862.471 1452.3 846.742 1450.413 831.642 L 1450.413 831.642 Z " fill="rgb(64,58,58)"/><path d=" M 1549.428 1058.143 C 1538.733 1058.143 1523.632 1056.255 1517.97 1046.818 C 1515.453 1043.044 1514.195 1032.347 1519.858 1021.022 C 1526.779 1015.36 1531.183 1009.697 1534.958 1002.147 C 1536.846 999.631 1536.846 995.856 1534.325 993.968 C 1532.437 990.822 1527.404 990.193 1523.629 992.71 C 1519.854 995.856 1516.079 999.631 1512.304 1005.293 C 1509.787 1009.068 1506.641 1013.472 1504.754 1019.135 C 1497.203 1027.944 1483.362 1037.381 1473.924 1043.043 C 1464.487 1047.448 1455.049 1051.222 1444.353 1054.368 C 1441.837 1054.368 1434.287 1055.002 1432.399 1052.481 C 1431.141 1050.593 1430.511 1045.56 1432.399 1039.268 C 1438.062 1027.943 1453.162 1015.36 1463.228 1007.18 C 1470.779 1001.518 1480.216 994.597 1489.024 990.822 C 1490.912 990.822 1499.091 988.305 1499.091 990.822 C 1499.091 992.08 1498.458 994.597 1498.458 995.856 C 1494.683 1000.26 1500.974 1007.181 1506.008 1002.147 C 1507.896 1001.514 1510.412 997.743 1511.671 992.08 C 1512.304 984.53 1507.896 977.609 1499.087 975.722 C 1485.246 975.089 1466.37 987.047 1455.045 996.485 C 1442.462 1005.922 1426.733 1020.393 1419.812 1034.235 C 1417.295 1043.043 1416.037 1054.368 1422.958 1060.66 C 1428.621 1067.581 1438.058 1067.581 1447.496 1065.693 C 1458.821 1062.547 1468.887 1058.142 1478.325 1052.48 C 1487.134 1047.446 1495.313 1041.784 1502.233 1036.122 C 1502.233 1043.043 1504.75 1049.334 1508.525 1054.368 C 1517.333 1066.322 1534.321 1067.58 1549.421 1066.322 C 1568.296 1065.689 1589.688 1060.03 1607.933 1054.997 C 1590.946 1056.885 1566.408 1058.772 1549.421 1058.143 L 1549.428 1058.143 Z " fill="rgb(64,58,58)"/><path d=" M 1694.649 967.543 C 1685.211 964.397 1675.774 963.768 1666.336 965.655 C 1651.236 968.172 1639.911 976.98 1630.473 990.193 C 1622.923 1000.259 1617.261 1013.472 1613.486 1026.685 C 1609.711 1039.268 1605.935 1051.222 1604.677 1054.368 C 1604.044 1049.335 1602.161 1043.043 1600.902 1039.268 C 1599.015 1026.055 1597.128 1009.068 1596.498 1000.259 C 1595.24 990.822 1582.027 992.08 1583.286 1001.518 C 1583.919 1010.955 1585.802 1026.684 1587.69 1041.155 C 1590.836 1054.997 1593.352 1064.435 1597.127 1067.58 C 1600.274 1070.097 1605.936 1070.097 1609.711 1068.214 C 1614.115 1065.697 1617.261 1060.663 1619.148 1056.259 C 1621.036 1049.339 1622.923 1041.159 1625.44 1030.463 C 1629.215 1019.138 1634.249 1007.184 1641.799 997.746 C 1649.349 987.051 1656.899 979.501 1668.853 976.984 C 1676.404 975.096 1685.212 975.096 1692.762 975.726 C 1697.166 975.726 1699.053 969.434 1694.649 967.547 L 1694.649 967.543 Z " fill="rgb(64,58,58)"/><path d=" M 1744.245 979.497 C 1741.728 897.705 1745.503 883.234 1745.503 876.942 C 1746.136 869.392 1732.92 867.505 1732.291 876.942 C 1728.516 900.222 1730.403 956.218 1730.403 980.755 C 1723.482 980.755 1715.932 980.755 1708.382 978.868 C 1703.978 977.609 1697.057 975.721 1694.54 971.317 C 1692.652 969.429 1692.652 963.767 1686.99 964.396 C 1683.215 964.396 1680.069 968.171 1680.069 971.947 C 1681.327 975.721 1683.215 980.755 1686.99 983.272 C 1691.394 988.934 1698.944 990.822 1706.494 992.709 C 1714.044 994.597 1722.852 994.597 1731.032 993.968 C 1732.29 1014.73 1734.806 1058.143 1734.806 1058.143 C 1732.919 1060.031 1732.919 1062.547 1734.173 1064.434 C 1734.806 1068.209 1738.578 1070.097 1742.352 1069.468 C 1746.127 1068.21 1747.385 1063.805 1748.015 1058.772 C 1748.015 1051.222 1746.127 1044.93 1744.24 992.709 C 1771.924 988.935 1800.865 978.868 1819.74 968.172 C 1780.103 975.722 1768.149 977.609 1744.24 979.497 L 1744.245 979.497 Z " fill="rgb(64,58,58)"/><path d=" M 1950.269 1056.885 C 1934.539 1056.885 1918.181 1054.368 1910.002 1041.785 C 1902.451 1029.831 1904.339 1010.956 1908.114 996.485 C 1910.63 987.047 1913.776 979.497 1913.776 979.497 C 1918.181 971.947 1912.518 965.655 1904.339 969.43 C 1899.305 971.318 1893.643 975.722 1887.351 980.755 C 1872.88 992.08 1866.589 999.63 1860.926 1007.181 C 1852.118 1017.247 1843.939 1027.943 1837.018 1038.01 L 1837.018 1022.91 C 1836.385 1012.843 1835.13 995.855 1833.243 985.16 C 1831.355 976.981 1818.143 979.497 1820.03 988.934 C 1821.918 998.372 1823.176 1013.472 1823.176 1022.909 C 1823.81 1034.234 1823.176 1046.818 1823.176 1058.772 C 1823.176 1065.693 1831.355 1068.21 1835.131 1062.547 C 1835.131 1062.547 1842.681 1052.48 1843.939 1050.593 C 1851.49 1039.267 1860.927 1026.055 1869.106 1014.73 C 1876.027 1005.921 1885.464 995.855 1896.789 987.046 C 1893.643 996.484 1891.757 1005.921 1891.757 1015.359 C 1891.123 1036.122 1898.677 1056.255 1918.182 1062.547 C 1928.877 1066.321 1940.203 1066.321 1951.528 1066.321 C 1964.74 1064.434 1979.84 1060.659 1991.794 1056.255 C 1979.84 1056.255 1964.74 1058.143 1950.269 1056.888 L 1950.269 1056.885 Z " fill="rgb(64,58,58)"/><path d=" M 2066.635 1058.143 C 2051.535 1058.776 2036.435 1060.031 2021.335 1060.031 C 2011.898 1060.031 1998.685 1060.031 1989.248 1058.143 C 1993.652 1056.255 1997.427 1054.369 2001.202 1052.481 C 2016.302 1045.56 2028.885 1034.235 2038.952 1021.022 C 2045.873 1011.585 2052.165 995.855 2049.648 984.53 C 2047.76 975.093 2040.21 969.43 2029.514 970.059 C 2016.302 971.318 2000.573 981.385 1991.135 992.08 C 1982.326 1001.518 1976.035 1011.585 1971.002 1022.91 C 1968.485 1030.46 1965.339 1039.897 1965.339 1048.706 C 1965.339 1054.368 1967.227 1060.031 1972.26 1063.806 C 1983.585 1071.985 2006.864 1071.356 2021.335 1070.098 C 2036.435 1069.465 2052.164 1066.323 2067.265 1063.806 C 2082.365 1061.918 2097.465 1058.143 2111.936 1054.997 C 2096.836 1056.255 2081.735 1056.885 2066.635 1058.143 L 2066.635 1058.143 Z  M 1984.214 1028.572 C 1987.989 1020.393 1994.91 1009.697 2001.202 1002.147 C 2012.527 990.193 2025.11 985.16 2030.773 984.53 C 2034.547 983.272 2036.435 985.164 2036.435 987.047 C 2038.323 994.597 2032.661 1007.809 2027.627 1014.73 C 2020.076 1026.685 2010.01 1037.38 1996.797 1043.672 C 1991.764 1046.818 1985.472 1049.335 1979.81 1052.481 C 1978.551 1045.56 1981.698 1035.493 1984.214 1028.572 L 1984.214 1028.572 Z " fill="rgb(64,58,58)"/><path d=" M 2200.934 967.543 C 2191.496 964.397 2182.059 963.768 2172.621 965.655 C 2157.521 968.172 2146.196 976.98 2136.758 990.193 C 2129.208 1000.259 2123.546 1013.472 2119.771 1026.685 C 2115.996 1039.268 2112.221 1051.222 2110.962 1054.368 C 2110.329 1049.335 2108.446 1043.043 2107.188 1039.268 C 2105.3 1026.055 2103.413 1009.068 2102.783 1000.259 C 2101.525 990.822 2088.312 992.08 2089.571 1001.518 C 2090.204 1010.955 2092.087 1026.684 2093.975 1041.155 C 2097.121 1054.997 2099.638 1064.435 2103.413 1067.58 C 2106.559 1070.097 2112.221 1070.097 2115.996 1068.214 C 2120.4 1065.697 2123.546 1060.663 2125.433 1056.259 C 2127.321 1049.339 2129.208 1041.159 2131.726 1030.463 C 2135.5 1019.138 2140.534 1007.184 2148.084 997.746 C 2155.634 987.051 2163.184 979.501 2175.138 976.984 C 2182.689 975.096 2191.497 975.096 2199.047 975.726 C 2203.451 975.726 2205.339 969.434 2200.935 967.547 L 2200.934 967.543 Z " fill="rgb(64,58,58)"/></g></g></svg>