<svg xmlns="http://www.w3.org/2000/svg" style="isolation:isolate" viewBox="20 24.495 35.871 48.111"><path fill="#32292F" d="M41.309 24.496c-2.715.031-5.368.635-7.937 1.463-.803.259-1.565.601-2.348.903-.743.349-1.505.671-2.228 1.048-2.734 1.429-5.665 3.394-7.209 5.838-.415.656-.66 1.38-.99 2.071-.174.778-.438 1.546-.523 2.335-.416 3.864.978 7.745 2.81 11.232.515.98 1.124 1.923 1.686 2.884 2.699 4.199 6.045 8.058 9.476 11.84l.805-.211c-3.439-3.774-6.795-7.627-9.494-11.823-.56-.959-1.168-1.899-1.681-2.878-1.825-3.476-3.206-7.345-2.776-11.196.088-.785.353-1.548.53-2.323.333-.685.58-1.406.997-2.058 1.552-2.432 4.48-4.385 7.212-5.804.724-.376 1.486-.695 2.229-1.043.677-.258 3.021-1.198 3.962-1.423 3.231-.775 6.561-.783 9.77.067 1.918.738 2.491.829 4.13 1.982 2.483 1.747 3.866 4.165 4.623 6.777.15.693.343 1.383.451 2.082.638 4.11-.039 8.275-1.19 12.272-.301.843-.569 1.695-.901 2.529-1.354 3.399-3.207 6.669-5.469 9.699-.882 1.067-1.783 2.14-2.83 3.098.113-.002.225-.008.338-.008.136-.001.272.005.408.011 1.091-.998 2.029-2.113 2.944-3.23 2.244-3.038 4.082-6.312 5.429-9.711.331-.836.599-1.688.898-2.532 1.147-4.007 1.831-8.183 1.197-12.302-.108-.702-.301-1.393-.451-2.089-.757-2.626-2.144-5.058-4.631-6.82-1.641-1.163-2.224-1.259-4.143-2.006-.786-.168-1.56-.389-2.359-.502-.918-.13-1.83-.183-2.735-.172zm-5.226 40.868l-.72.521h1.123l1.976-.002h2.2a5.767 5.767 0 0 1 1.932.244c.373.142.671.316.695.737-.03.438-.249.797-.538 1.112l-.101.077c-.16.068-.267.102-.451.163-.569.18-1.16.273-1.749.356-.063.008-.126.011-.19.019-.196-.209-.418-.391-.699-.497-.325-.116-.646-.218-.993-.137-.433.09-1.04.261-1.157.7.079.243.383.326.593.418.51.153 1.035.108 1.557.042.061.07.133.129.187.209a.365.365 0 0 1 .015.362c-.088.034-.174.062-.233.085-.854.39-1.087.453-.504.731.335.188.683.347 1.008.553.262.194.546.41.556.759.053.009.028.05-.022.103a6.024 6.024 0 0 1-.541.15l-.704.536c.214-.046.43-.092.638-.163.514-.187 1.259-.449 1.418-1.036-.039-.374-.307-.615-.6-.828-.324-.212-.676-.37-1.012-.563-.024-.013-.033-.012-.054-.022.241-.098.475-.221.687-.434.177-.166.232-.369.152-.584.32-.056.638-.122.949-.216.75-.237 1.477-.597 2.065-1.127.286-.339.499-.721.51-1.176-.049-.452-.342-.668-.752-.828a5.574 5.574 0 0 0-1.95-.262h-2.197l-1.976-.002h-1.119.001zm2.597 3.188c.044.013.09.02.135.035-.027-.006-.054-.006-.081-.013-.011-.006-.04-.016-.054-.022z"/></svg>