<svg xmlns="http://www.w3.org/2000/svg" style="isolation:isolate;" viewBox="506.057 146.678 353.885 474.643">
<style>
  .path {
    stroke-dasharray: 261 263;
    stroke-dashoffset: 1600;
    animation: dash 3s cubic-bezier(0.86, 0, 0.07, 1) 200ms;
    transition: opacity 0.02s cubic-bezier(0.895, 0.03, 0.685, 0.22);
  }

  @keyframes dash {
    0% {
      stroke-dashoffset: 1200;
      stroke: #FEFCAD;
      stroke-opacity: 0;
      fill: none;
    }
    25% {
      stroke-opacity: 1;
    }
    75% {
      stroke-dashoffset: 0;
      stroke: none;
      stroke-opacity: 0;
      fill: #463E43;
    }
    100% {
      opacity: 0;
    }
  }

</style>
  <g>
    <path class="path" fill='none' stroke='none' stroke-width='6' stroke-opacity='0' d="M 716.285 146.692 C 689.5 146.998 663.326 152.957 637.981 161.126 C 630.059 163.681 622.541 167.055 614.816 170.035 C 607.486 173.478 599.969 176.654 592.836 180.374 C 565.863 194.472 536.946 213.858 521.714 237.97 C 517.619 244.442 515.202 251.585 511.947 258.402 C 510.23 266.077 507.626 273.654 506.787 281.438 C 502.683 319.559 516.436 357.848 534.51 392.25 C 539.59 401.918 545.599 411.221 551.143 420.702 C 577.771 462.129 610.781 500.2 644.631 537.512 L 652.572 535.431 C 618.644 498.198 585.535 460.185 558.907 418.789 C 553.383 409.327 547.384 400.054 542.323 390.395 C 524.318 356.102 510.694 317.931 514.936 279.939 C 515.804 272.194 518.419 264.666 520.165 257.021 C 523.45 250.263 525.887 243.149 530.001 236.717 C 545.313 212.723 574.199 193.456 601.152 179.456 C 608.295 175.747 615.813 172.6 623.143 169.166 C 629.822 166.621 652.947 157.347 662.231 155.128 C 694.107 147.482 726.96 147.403 758.619 155.789 C 777.541 163.069 783.194 163.967 799.364 175.342 C 823.861 192.578 837.505 216.433 844.973 242.202 C 846.453 249.039 848.357 255.847 849.423 262.743 C 855.717 303.291 849.038 344.381 837.683 383.815 C 834.713 392.131 832.069 400.537 828.794 408.765 C 815.436 442.298 797.154 474.559 774.838 504.452 C 766.137 514.979 757.248 525.565 746.918 535.016 C 748.033 534.997 749.138 534.937 750.253 534.937 C 751.595 534.928 752.936 534.987 754.278 535.046 C 765.041 525.2 774.296 514.2 783.323 503.18 C 805.461 473.208 823.594 440.907 836.884 407.374 C 840.149 399.126 842.793 390.721 845.743 382.394 C 857.059 342.862 863.807 301.663 857.552 261.026 C 856.487 254.1 854.583 247.283 853.103 240.417 C 845.634 214.509 831.951 190.516 807.415 173.132 C 791.225 161.659 785.473 160.712 766.541 153.342 C 758.787 151.684 751.151 149.504 743.268 148.389 C 734.211 147.107 725.214 146.584 716.285 146.692 Z"/>
    <path class="path" fill='none' stroke='none' stroke-width='6' stroke-opacity='0' d="M 664.727 549.884 L 657.624 555.024 L 668.703 555.024 L 688.198 555.004 L 709.902 555.004 C 716.346 554.72 722.791 555.534 728.963 557.412 C 732.643 558.812 735.582 560.529 735.819 564.683 C 735.523 569.004 733.363 572.546 730.512 575.653 L 729.515 576.413 C 727.937 577.084 726.881 577.419 725.066 578.021 C 719.452 579.797 713.621 580.714 707.811 581.533 C 707.189 581.612 706.567 581.642 705.936 581.721 C 704.002 579.659 701.812 577.863 699.04 576.817 C 695.834 575.673 692.667 574.667 689.243 575.466 C 684.971 576.354 678.983 578.041 677.829 582.372 C 678.608 584.769 681.607 585.588 683.679 586.496 C 688.711 588.005 693.89 587.561 699.04 586.91 C 699.642 587.601 700.352 588.183 700.885 588.972 C 701.563 590.052 701.619 591.411 701.033 592.543 C 700.165 592.879 699.316 593.155 698.734 593.382 C 690.309 597.23 688.01 597.851 693.762 600.594 C 697.067 602.448 700.5 604.017 703.706 606.049 C 706.291 607.963 709.093 610.094 709.192 613.538 C 709.715 613.626 709.468 614.031 708.975 614.554 C 707.22 615.13 705.439 615.623 703.637 616.034 L 696.692 621.322 C 698.803 620.868 700.934 620.414 702.986 619.713 C 708.057 617.869 715.407 615.284 716.976 609.493 C 716.591 605.803 713.947 603.425 711.056 601.324 C 707.86 599.232 704.387 597.673 701.072 595.769 C 700.835 595.641 700.747 595.651 700.54 595.552 C 702.917 594.585 705.226 593.372 707.317 591.271 C 709.063 589.633 709.606 587.63 708.817 585.509 C 711.974 584.957 715.111 584.305 718.179 583.378 C 725.579 581.04 732.751 577.488 738.552 572.259 C 741.374 568.915 743.475 565.146 743.584 560.657 C 743.1 556.198 740.21 554.067 736.165 552.489 C 729.956 550.493 723.442 549.618 716.926 549.904 L 695.251 549.904 L 675.757 549.884 L 664.717 549.884 L 664.727 549.884 L 664.727 549.884 Z"/>
  </g>
</svg>
