<svg xmlns="http://www.w3.org/2000/svg" viewBox="0 0 169.513 56.092">
  <path fill="#463E43" d="M25.476 55.87c-.121-.121-.007-.637.255-1.146 1.054-2.048 2.68-7.274 3.36-10.804 1.657-8.581.432-17.066-3.307-22.91l-1.254-1.96H12.376c-7.722 0-12.234-.129-12.372-.353-.144-.232 4.087-.353 12.428-.353h12.646l1.117 1.853c3.398 5.634 4.15 8.637 4.135 16.492-.012 5.537-.11 6.541-.954 9.737-.517 1.96-1.407 4.738-1.977 6.174l-1.036 2.61 3.908.1c2.15.055 4.11.023 4.355-.07.246-.095.775-.815 1.176-1.6l.728-1.429h-3.182c-1.75 0-3.182-.12-3.182-.267 0-.147.406-2.07.903-4.275 1.723-7.648 1.712-16.258-.027-21.439-.941-2.803-2.29-5.392-3.204-6.15a4.36 4.36 0 0 1-.879-1.09c-.327-.61-.1-.646 4.097-.646h4.442l1.185 2.6c.651 1.43 1.623 3.93 2.158 5.556 1.743 5.293 1.522 14.692-.53 22.51l-.664 2.525 2.507-.103 2.507-.103.48-1.587c.94-3.11 1.464-6.936 1.477-10.763l.012-3.883 3.969.12c2.663.08 4.839-.06 6.614-.43 3.108-.647 8.35-3.136 10.512-4.993.834-.716 1.563-1.243 1.62-1.172.058.072.468.79.91 1.594.444.805 1.2 1.674 1.679 1.93 1.435.769 1.954-.303 1.772-3.658-.164-3.014.193-3.553.817-1.235.84 3.12 2.201 4.85 3.82 4.85 1.654 0 1.886-1.89.756-6.173-.359-1.358-.548-2.567-.421-2.686.127-.119.763-.394 1.414-.611 1.144-.383 1.23-.344 2.646 1.22 1.217 1.343 1.685 1.62 2.786 1.651 1.933.054 2.255-.429 1.778-2.663-.217-1.017-.5-2.117-.63-2.443-.172-.433.068-.75.884-1.173.616-.318 1.055-.644.976-.723-.256-.256-2.5.593-5.213 1.973-1.455.74-3.52 1.687-4.586 2.106-2.3.902-4.733 2.33-10.25 6.015-4.636 3.095-8.418 4.566-14.217 5.53-2.835.471-3.834.502-5.42.17-2.379-.5-2.922-.92-2.922-2.261 0-2.378-2.455-8.165-5.13-12.096l-.957-1.405.995-.712c2.683-1.917 6.231-5.318 9.208-8.825C53.463 2.607 55.22.895 56.842.423 57.788.147 61.192 0 66.618 0c9.955 0 10.603.162 14.87 3.71 3.41 2.834 7.076 8.127 6.752 9.747-.177.886.052 1.156 2.484 2.932l2.678 1.955h38.055c25.136 0 38.056.12 38.056.353 0 .233-12.973.353-38.214.353H93.085l-2.89-2.117c-3.32-2.432-4.415-2.725-3.935-1.051.318 1.109.35 1.26.35 1.624 0 .12.245.016.543-.231.451-.374.901-.277 2.645.574 3.047 1.485 2.655 2.077-.709 1.071l-1.578-.472-.98.98c-.944.944-.965 1.041-.576 2.724.221.96.296 2.167.166 2.685-.53 2.114-3.838 1.93-5.817-.323-1.096-1.248-1.622-1.45-2.435-.934-.364.231-.347.726.083 2.553.624 2.647.695 5.029.18 5.993-.263.49-.734.68-1.676.671-1.457-.012-2.348-.554-3.309-2.012l-.643-.975-.002.891c-.003 1.258-.949 2.46-1.935 2.46-.903 0-2.827-1.701-3.179-2.81-.2-.632-.346-.586-1.874.59-2.261 1.74-6.773 3.792-9.84 4.476-1.492.333-4.149.566-6.44.566h-3.898v3.64c0 4.033-.378 6.642-1.48 10.207l-.735 2.381H37.308l-.445 1.073c-.244.59-.751 1.463-1.126 1.94l-.683.868h-4.678c-2.573 0-4.778-.1-4.9-.221zm11.874-6.217c1.048-3.655 1.685-7.93 1.885-12.635.268-6.32-.348-9.279-3.321-15.94l-.905-2.028h-6.996l.86 1.147c4.456 5.935 5.534 16.124 2.932 27.699l-.811 3.61H36.819zM54.455 32.95c4.916-1.097 7.46-2.224 12.261-5.432 4.522-3.021 15.922-8.959 17.778-9.259.784-.126.81-.174.227-.433-.437-.194-1.162-.044-2.177.45-1.723.837-2.062.662-2.643-1.366-.474-1.654-.103-2.69 1.116-3.116.891-.31.991-.464.68-1.045-.32-.599-.548-.641-1.87-.35-3.015.664-6.534 2.214-10.748 4.734l-1.127.674-.99-.733c-.544-.403-1.419-1.368-1.945-2.144-.891-1.316-1.235-1.5-5.115-2.73-2.288-.727-4.358-1.576-4.6-1.888-.617-.794-.551-3.647.106-4.585 1.16-1.657 1.505-1.629 7.74.623 6.039 2.18 7.108 2.36 10.586 1.782 2.635-.439 7.052.828 7.618 2.185.278.667.802 1.078 1.684 1.322.705.195 1.963.746 2.796 1.226 2.224 1.279 2.264.42.137-2.886-2.012-3.126-3.266-4.48-6.15-6.639C76.429.801 75.563.643 65.699.771l-8.6.11-1.431.95c-.788.52-2.433 2.188-3.656 3.703-4.822 5.975-8.997 10.23-12.315 12.555l-.773.541 1.849 3.072c1.98 3.289 3.845 8.1 3.852 9.939.002.62.203 1.249.446 1.399 1.39.86 5.286.823 9.384-.091zM82.59 17.422c.66-.314 1.606-.493 2.1-.398.798.152.888.067.793-.753-.233-2.006-4.53-2.701-4.81-.777-.132.9.195 2.498.511 2.498.113 0 .745-.257 1.406-.57zM70.794 15.29c2.906-1.677 7.949-3.636 9.378-3.645.437-.002.794-.133.794-.29 0-.75-1.09-1.453-3.248-2.094-2.053-.61-2.63-.65-4.372-.302l-2.006.402 2.608.915c1.435.503 2.608 1.104 2.608 1.334 0 .231-.926.796-2.057 1.256l-2.058.836-6.922-2.571c-3.808-1.414-6.986-2.76-7.062-2.989-.137-.41 3.376-.306 6.634.196 1.901.293 1.246-.037-3.487-1.755l-4.365-1.586-.837.836c-.84.842-1.152 3-.566 3.922.143.224 2.274 1.063 4.737 1.864 3.453 1.124 4.53 1.621 4.706 2.174.216.682 2.182 3.14 2.51 3.14.087 0 1.439-.74 3.005-1.643zm15.464-1.374c0-.256-2.87-1.552-3.46-1.562-.74-.012-.111.675 1.105 1.208 1.165.51 2.355.69 2.355.354zM74.31 12.198l1.187-.502-1.058-.412c-4.278-1.666-5.867-2.047-9.349-2.24l-3.704-.206 5.115 1.906c5.631 2.1 6.083 2.184 7.809 1.454z"/>
</svg>
