<svg xmlns="http://www.w3.org/2000/svg" viewBox="0 0 156 156" style="isolation:isolate">
  <path fill="#463E43" d="M0 156.211c0-.228 4.41-.352 12.524-.352 6.888 0 12.523-.067 12.523-.148 0-.699-.578-1.263-1.292-1.263-1.262 0-2.395-2.655-2.096-4.909.158-1.192.066-1.847-.338-2.425-.798-1.138-.734-2.769.155-3.972l.77-1.042-.767-1.037-.767-1.037.717-2.05c.394-1.127.886-3.351 1.093-4.943.208-1.592.702-3.53 1.098-4.307.849-1.664.693-2.726.212-5.047-.438-1.046-.442-1.544-.034-3.482.567-2.69 1.633-5.483 3.02-7.914 1.661-2.911 2.567-3.537 6.692-4.63 1.065-.282 3.412-1.212 5.216-2.066 3.042-1.441 3.331-1.67 3.985-3.148.637-1.441.665-1.821.29-3.973-.31-1.782-.625-2.546-1.256-3.042-1.829-1.439-2.789-4.69-1.73-5.86.439-.485.411-.831-.214-2.674-.395-1.164-.796-2.989-.891-4.056-.332-3.735 2.554-7.326 6.905-8.593 1.069-.312 1.678-.701 1.761-1.125.07-.357.014-2.752-.123-5.323l-.251-4.674-1.111-.239c-7.491-1.613-8.461-12.237-1.388-15.201.625-.262 2.014-.476 3.087-.476h1.952V42.97h-8.467v-3.725c0-6.333-.074-6.19 6.537-12.679 3.163-3.105 6.002-6.153 6.309-6.774 1.116-2.252.455-5.212-1.479-6.625-.659-.482-1.681-.74-3.293-.831-4.117-.233-6.7 1.555-7.814 5.41-.281.97-.614 1.746-.74 1.723-.127-.022-2.412-.147-5.079-.277-2.666-.13-5.542-.331-6.391-.447l-1.543-.21.197-1.659c.69-5.827 5.165-12.328 10.188-14.801 4.804-2.365 12.62-2.761 18.111-.917 4.949 1.661 8.106 4.344 10.176 8.651 1.061 2.206 1.069 2.425 1.21 6.832-.035 3.949-.168 4.758-1.086 6.626-1.426 2.905-3.279 5.064-7.507 8.751-4.137 3.606-4.743 4.577-4.743 7.589v1.952h-2.117v3.388c0 3.238.041 3.422.926 4.118 2.203 1.733 3.223 6.195 2.056 8.997-.532 1.275-2.84 3.958-3.406 3.958-.155 0-.281-3-.281-6.665 0-5.599.162-7.226-.494-7.273-.832.023-.565 1.776-.565 13.067v12.865l.794.008c1.103.011 3.482 1.153 4.288 2.059.37.416.937.756 1.261.756.743 0 1.961 1.282 2.453 2.58.5 1.32.48 5.636-.034 7.352-.36 1.202-.333 1.428.225 1.835 1.005.736.606 4.159-.637 5.457-.639.667-1.063 1.647-1.325 3.068-.588 3.178-2.301 6.078-4.614 7.81-1.706 1.277-3.589 1-6.102-.898l-1.931-1.458-.309 1.15c-.657 2.444 1.374 6.033 4.068 7.189 1.476.633 3.406.619 4.668-.033 1.603-.829 3.5-3.324 4.148-5.456.327-1.079.623-2.008.657-2.064.035-.057.601.215 1.26.604 1.816 1.071 8.136 3.776 10.277 4.399 2.313.672 4.901 2.581 5.641 4.161.301.643.891 3.391 1.31 6.108.419 2.716 1.397 7.161 2.172 9.878 1.329 4.653 1.397 5.117 1.173 8.03-.2 2.596-.141 3.238.367 4.013.332.508.685 1.818.785 2.911l.18 1.989-1.573 1.935c-2.137 2.63-2.391 3.192-2.391 5.287 0 .996-.164 2.117-.365 2.493l-.365.682h40.053c26.466 0 40.052.12 40.052.353 0 .233-14 .352-41.295.352-27.441 0-41.223-.118-41.078-.352.12-.194.438-.353.706-.353.85 0 1.587-1.5 1.587-3.231 0-2.207.332-2.977 2.257-5.233 1.357-1.589 1.622-2.136 1.616-3.333-.004-.788-.337-2.147-.739-3.02-.622-1.352-.698-2.005-.513-4.41.225-2.943.043-3.986-1.732-9.877-.468-1.553-1.188-5.114-1.601-7.916-.412-2.801-.973-5.525-1.246-6.053-.834-1.612-2.965-3.065-5.871-4.002-1.521-.491-4.41-1.668-6.419-2.616l-3.652-1.722-.752 1.814c-1.975 4.765-5.745 6.872-9.494 5.307-3.627-1.516-5.655-5.729-4.315-8.965.527-1.273.739-1.314 1.626-.312 1.07 1.208 3.727 2.769 4.71 2.768 2.564-.004 5.585-3.86 6.341-8.093.276-1.542.653-2.616.96-2.734.794-.305 1.538-2.054 1.538-3.618 0-1.152-.126-1.429-.648-1.429s-.797-.6-1.405-3.062c-.415-1.685-.9-3.207-1.076-3.383-.192-.192-.871.045-1.694.589-1.965 1.3-4.207 1.635-7.169 1.071-1.343-.256-2.766-.639-3.163-.851-.645-.346-.721-.284-.723.596-.001.541-.32 1.459-.708 2.041-.477.715-.638 1.373-.499 2.029.277 1.298-.051 1.225-.773-.171-.33-.638-.606-2.032-.627-3.164-.029-1.626.112-2.171.718-2.778 1.119-1.122 3.373-1.242 6.841-.365 1.62.41 3.221.745 3.557.745.946 0 2.587-1.567 3.302-3.153.355-.788.756-1.433.89-1.433.206 0 1.256 3.221 2.357 7.232.227.827.313.427.392-1.83.126-3.547-.461-5.257-1.929-5.626-.546-.137-1.43-.686-1.964-1.22-.913-.913-1.96-1.379-4.234-1.882l-.97-.215V47.909h-1.955c-4.225 0-7.217 3.021-7.217 7.285 0 3.374 2.109 6.024 5.474 6.879.967.245 1.811.48 1.876.521.065.041.206 2.707.314 5.924.174 5.215.134 5.849-.371 5.849-1.236 0-4.02 1.198-5.408 2.328-2.135 1.737-3.084 3.904-2.849 6.501.103 1.136.607 2.982 1.12 4.102l.932 2.037-.769.58c-1.113.839-.678 2.706 1.066 4.577 1.193 1.279 1.412 1.79 1.781 4.164.402 2.58.383 2.782-.405 4.29-.704 1.349-1.219 1.778-3.47 2.891-1.453.719-4.203 1.811-6.11 2.427-1.907.616-3.94 1.518-4.518 2.004-1.966 1.654-4.891 8.583-4.891 11.585 0 1.083.083 4.116.439 4.116.219-.156-.047-2.5.439-2.56.147-.237 8.602-.358 25.017-.358 23.573 0 24.824.031 25.379.645.524.578.584 2.157.584 15.275 0 10.909-.108 14.738-.423 15.053-.322.322-6.444.424-25.4.424-13.737 0-24.977.109-24.977.242s.345.609.767 1.058l.767.816H13.467c-8.743 0-13.467-.123-13.467-.352v-.001zm24.666-15.257c-.02-8.711.411-17.184-.034-13.954-.111.541-.192 1.184-.538 2.4-.299.679-.749 2.664-1 4.41-.252 1.746-.721 3.794-1.043 4.551-.563 1.323-.557 1.415.147 2.367.916 1.239.922 1.797.027 2.607-.849.768-.928 2.524-.163 3.616.399.569.483 1.226.317 2.474-.285 2.153.513 4.317 1.592 4.317h.723l-.028-12.788zm50.744-2.117l-.092-14.905-24.959-.09-24.959-.091v29.991h50.102l-.092-14.905zM42.195 85.744c.258-.34.474-1.213.48-1.94.013-1.502.115-1.54 1.997-.749 1.837.773 5.266 1.15 6.973.766.765-.171 2.102-.792 2.971-1.379 1.23-.83 1.647-.703 1.876-.341 4.164 12.524.376-.371-.086-1.695l-.391-1.122-.615 1.157c-.723 1.362-2.607 2.745-3.739 2.745-.439 0-1.804-.315-3.034-.701-4.719-1.479-7.352-.601-7.352 2.449 0 1.564.208 1.748.92.81zm12.433-28.276c.835-2.785.133-5.989-1.661-7.586l-.756-.672.014 5.964.015 5.964.992-1.159c.545-.638 1.174-1.767 1.396-2.511zM51.539 46.75l-.033-5.897h1.058c1.026 0 1.058-.051 1.066-1.676.011-2.448 1.012-4.305 3.389-6.286 4.463-3.722 7.518-7.084 8.695-9.569.99-2.09 1.153-2.843 1.258-5.816.191-5.419-1.109-8.873-4.551-12.093C55.976-.615 41.978-.96 35.313 4.745c-3.038 2.6-5.885 7.663-6.544 11.635l-.241 1.455 1.17.203c.643.112 3.341.311 5.995.443l4.824.24.378-1.403c.564-2.095 2.211-4.133 4.066-5.031 2.143-1.038 6.316-.934 7.828.195 1.885 1.408 2.421 2.492 2.421 4.902 0 2.923-.781 4.017-6.713 9.402-5.966 5.417-6.304 6.01-6.465 11.322l-.125 4.133 4.182.1 4.182.1.096 2.293c.012 1.543-.085 2.534.407 2.621q.809.15.765-.605z"/>
</svg>
