<svg xmlns="http://www.w3.org/2000/svg" viewBox="0 0 157.164 104.757">
  <path fill="#463E43" d="M0 104.394c0-.227 3.69-.353 10.367-.353h10.367l.204-1.499c.113-.825.311-2.823.442-4.441l.236-2.943-1.483.757c-3.208 1.636-6.885 1.258-9.007-.927-1.553-1.6-2.511-4.143-3.03-8.045-.501-3.762-.169-5.335 1.82-8.614 1.481-2.44 1.458-2.267.8-5.91-.17-.934.013-1.346 1.156-2.611l1.357-1.503.052-3.387c.16-10.554.87-14.83 2.754-16.6.697-.655 6.037-2.477 7.28-2.484.314-.002 1.027 1.705 1.027 2.458 0 .56-.774 1.756-2.959 4.574-.255.33.025.268.803-.176 2.784-1.591 3.14-4.19 1.154-8.434-1.244-2.66-1.379-3.753-.56-4.571 1.422-1.423 3.843-.143 5.279 2.79.89 1.821.976 1.893 1.697 1.43.418-.27 1.782-.751 3.031-1.072 3.035-.777 4.517-1.577 6.775-3.653l1.89-1.738-.045-3.3c-.057-4.149-.445-5.242-1.863-5.242-2.57 0-4.68-6.596-2.852-8.92.675-.858.684-1.002.181-3.134-.717-3.042-.697-7.434.04-8.989.355-.746 1.106-1.487 1.941-1.913.75-.382 1.363-.875 1.363-1.095 0-.956 1.994-2.905 3.843-3.756C45.612.378 46.75.15 49.353.033 54.488-.2 57.92.796 60.341 3.218c2.139 2.138 2.524 3.602 2.95 11.218.585 10.437.464 15.257-.444 17.768-.412 1.139-1.207 2.815-1.766 3.724l-1.018 1.654.648 1.262c1.461 2.85 8.564 8.142 15.719 11.713 6.482 3.235 7.477 4.89 6.413 10.664-.363 1.969-.342 2.318.176 2.89.728.804.76 2.176.071 3.086-.685.906-.668 1.716.066 3.083.45.839.668 2.445.848 6.245.134 2.813.43 6.3.658 7.75.701 4.449-.404 12.89-2.131 16.276-.548 1.074-.601 1.513-.291 2.402l.379 1.088 41.505.057c35.807.049 39.326.097 25.63.348-8.731.16-27.622.254-41.98.208l-26.106-.083-.114-.998c-.089-.77-.25-.945-.706-.765-3.326 1.308-3.534 1.324-14.878 1.147l-11.113-.173-8.467-2.14c-4.656-1.178-9.374-2.32-10.484-2.54-1.11-.219-2.338-.665-2.73-.992l-.712-.595.518-3.351c.769-4.963.99-4.548-2.346-4.396-2.673.123-2.96.212-4.034 1.252-.728.706-1.363 1.04-1.716.905-.47-.18-.488-.33-.115-.928.245-.393.543-.714.662-.714.12 0 .637-.39 1.15-.865.7-.648.934-1.207.934-2.229 0-1.458.916-4.98 1.437-5.525.637-.667.665.105.112 3.09-.729 3.928-.6 4.277 1.47 3.993 3.059-.419 3.745-1.221 4.5-5.264l.513-2.743-1.517-.889c-.834-.489-2.014-1.032-2.621-1.206-.973-.279-1.141-.22-1.41.489-.17.442-.809 1.227-1.423 1.744-2.506 2.109-6.092.691-7.973-3.152-1.202-2.458-1.524-6.652-.875-11.385.23-1.675.454-5.36.497-8.189l.078-5.143 1.496-1.879c2.89-3.63 2.465-4.652-1.57-3.777-3.136.68-4.066 1.387-4.904 3.728-.66 1.84-1.355 9.627-1.265 14.155l.06 2.999-1.416 1.714c-1.589 1.921-1.63 2.1-.89 3.87.619 1.482.432 2.146-1.467 5.223-1.588 2.573-1.922 4.326-1.49 7.826.885 7.16 3.752 10.169 8.7 9.13 1.083-.226 2.558-.802 3.279-1.28.72-.476 1.376-.8 1.456-.72.207.207-.685 9.966-.95 10.395-.3.484-21.344.486-21.344.002zm78.575-1.515c2.093-.627 2.41-1.028 1.686-2.134-.698-1.064-.49-1.983.84-3.733 1.295-1.7 1.254-4.208-.106-6.528l-.99-1.69.92-1.818c.668-1.321.92-2.364.92-3.812 0-1.806-.167-2.243-1.764-4.631-.97-1.45-1.764-3.02-1.764-3.489 0-.468.445-1.556.989-2.419a216.13 216.13 0 0 0 1.255-2.01c.67-1.106-.645-.16-4.549 3.273-2.322 2.042-4.804 3.972-5.516 4.289l-1.294.575-.415 2.923c-.228 1.607-.321 3.075-.206 3.26.115.186 1.003.529 1.973.762 2.154.516 5.605 2.689 6.688 4.21 1.021 1.435 1.157 3.296.253 3.481-1.863.382-3.897-1.154-6.424-4.853-1.437-2.103-1.749-2.382-2.289-2.045-.587.367-.59.467-.047 1.65.318.694 1.486 2.27 2.596 3.501 2.353 2.612 3.458 4.694 3.458 6.515 0 1.033-.135 1.3-.658 1.3-1.699 0-3.655-2.802-4.814-6.895-.443-1.565-.924-2.388-1.883-3.222-1.178-1.025-1.248-1.187-.818-1.894.841-1.384.13-1.56-7.102-1.748l-6.774-.176-1.94-1.223c-2.143-1.35-2.435-1.378-9.005-.892l-3.538.261-1.137-.957c-.844-.71-1.137-.817-1.137-.413 0 1.38-.836 4.2-1.564 5.273-.68 1.002-.734 1.281-.35 1.807.25.342.388.805.307 1.029-.082.223-.363 1.876-.625 3.673-.342 2.347-.368 3.355-.092 3.578.211.17 1.337.498 2.5.727 1.165.23 5.53 1.294 9.702 2.367 4.172 1.072 8.934 2.07 10.584 2.218 5.252.47 20.463.408 22.13-.09zm4.17-5.005c1.26-4.244 1.74-12.417.923-15.705-.217-.873-.402-3.413-.411-5.644-.014-3.264-.153-4.358-.715-5.595-.831-1.833-.895-3.327-.168-3.93.692-.575.67-1.573-.06-2.687-.523-.799-.539-1.196-.144-3.626.508-3.128.165-5.104-1.131-6.53-.43-.472-2.57-1.757-4.756-2.856-2.185-1.098-5.44-2.977-7.232-4.174a417.807 417.807 0 0 0-3.755-2.49c-.273-.172.028.34.669 1.138 1.339 1.665 1.17 2.174-1.026 3.102l-1.263.534 1.059.548c1.81.938 2.293 1.55 2.286 2.896-.01 2.09-1.634 4.628-10.993 17.177-3.743 5.018-6.35 9.1-6.811 10.657-.296 1.001-.961.84-1.282-.31-.132-.47-.258-.618-.28-.326-.022.29-.135.886-.252 1.322-.158.59-.062.794.37.794.32 0 1.781.635 3.246 1.411l2.663 1.411h5.802c4.36 0 6.118.132 7.07.53 1.717.717 1.934.67 1.483-.32-.8-1.754 1.628-15.056 3.377-18.507.804-1.588 1.44-2.164 2.39-2.164.674 0-.348 3.222-3.553 11.201-1.03 2.566-.423 2.446 3.2-.636 1.609-1.37 3.847-3.274 4.972-4.234 3.23-2.752 4.089-2.078 1.843 1.447-1.5 2.354-1.53 3.011-.215 4.826 2.889 3.988 3.326 6.602 1.654 9.902l-.946 1.866.67.955c1.816 2.588 1.852 5.513.097 7.899-1.203 1.636-1.304 2.052-.656 2.7.583.583 1.178-.237 1.874-2.582zm-9.323-2.212c-.386-.758-1.426-2.16-2.309-3.114l-1.606-1.736.965 2.802c.651 1.89 1.366 3.21 2.194 4.057l1.229 1.255.115-.943c.063-.519-.201-1.564-.588-2.321zm4.19-3.097c0-.76-1.161-2.658-2.117-3.462-1.376-1.158-3.791-2.436-4.29-2.27-.447.149 2.454 4.123 3.761 5.152.868.682 2.645 1.072 2.645.58zm-9.415-3.958c-.364-1.023-.497-1.167-.864-.94-.211.13-.11.484.256.887.752.832.89.844.608.053zm-24.452-6.085c0-.194-.596-.357-1.323-.361-.728-.005-2.025-.17-2.882-.368-2.017-.465-3.055-.138-1.793.566 1.026.571 5.998.706 5.998.163zm3.09-4.263c-.16-1.692-2.727-7.156-5.096-10.852-1.086-1.693-4.35-8.02-5.672-10.99l-.392-.883.042 1.059c.023.582.193 1.26.378 1.505.485.643.416 3.151-.104 3.777-.298.36-.364 1.052-.202 2.128.217 1.447.146 1.685-.768 2.56-.554.532-1.511 1.233-2.127 1.56-.695.369-1.208.97-1.354 1.587-.13.547-.529 1.318-.888 1.715-.573.633-.61.978-.31 2.822.188 1.156.253 2.38.145 2.72-.112.352.004.678.269.755 2.241.654 3.975 1.49 4.92 2.372.664.621 1.342.966 1.659.844.295-.113 1.659-.034 3.032.176 1.372.21 3.29.499 4.26.643l1.763.262.3-1.071c.164-.59.23-1.8.145-2.69zm-18.64 1.939c.597-.503 1.086-1.138 1.086-1.412 0-.669-1.666-.646-2.344.032-.802.802-1.184.64-1.184-.506 0-.718-.212-1.101-.693-1.254-1.269-.403-3.517-3.37-4.255-5.614l-.706-2.151.11 3.175c.095 2.722.259 3.45 1.151 5.105 1.828 3.39 4.642 4.47 6.835 2.625zm21.718-2.528c.58-1.115 2.891-4.488 5.137-7.495 2.247-3.008 4.61-6.24 5.254-7.185.643-.944 1.968-2.77 2.943-4.057 2.103-2.774 3.057-4.738 3.068-6.312.007-1.067-.16-1.232-2.286-2.28-2.444-1.206-2.842-1.686-1.4-1.686 1.116 0 3.34-.906 3.34-1.361 0-.302-2.616-3.838-3.17-4.283-.12-.097-.682-.794-1.25-1.55l-1.031-1.372-.619 3.768c-.844 5.14-2.722 10.588-5.247 15.215-4.514 8.275-5.02 9.54-5.297 13.22-.275 3.673-.562 4.938-1.12 4.938-.242 0-.296-1.335-.161-3.968.112-2.183.068-4.287-.098-4.675-.47-1.1-.415 8.17.058 9.749.224.75.502 1.363.617 1.363.115 0 .683-.913 1.262-2.029zm-20.28-1.998c0-1.052-.1-2.174-.223-2.495-.384-1-1.535 1.177-1.538 2.907-.002 1.364.077 1.5.88 1.5.832 0 .881-.109.881-1.912zm-2.58.787c-.113-.282-.197-.198-.214.213-.015.372.068.58.185.463.118-.117.13-.422.028-.676zm.45-3.701c.024-.706 1.08-1.525 1.966-1.525.683 0 .914-.264 1.218-1.392.375-1.392 1.092-2.137 3.145-3.266.943-.518 1.093-.797 1.093-2.028 0-1.602-.018-1.615-1.34-.946-1.558.788-3.379.991-4.108.458-.623-.455-.615-.5.184-1.06.53-.371 1.538-.585 2.757-.585 2.397 0 3.213-.636 3.213-2.504 0-1.584-.286-1.828-1.636-1.402-.555.176-1.923.4-3.039.5-1.556.138-2.028.069-2.028-.297 0-.566 1.591-1.12 4.145-1.445 1.73-.22 1.852-.299 1.852-1.209 0-.535-.305-1.348-.677-1.806l-.678-.833-1.127.661c-1.307.767-5.632 1.251-5.632.63 0-.648 2.17-1.565 4.234-1.788 1.683-.181 1.955-.316 2.055-1.023.064-.448-.152-1.222-.478-1.72-.535-.817-.756-.887-2.232-.71-.901.107-1.944.314-2.317.458-.574.222-.632.158-.374-.416.167-.373.368-1.6.446-2.725.247-3.569-2.159-7.35-4.33-6.805-1.21.304-1.154 1.42.2 4.086 2.045 4.023 1.728 7.194-.881 8.806-.674.417-1.34 1.107-1.48 1.533-.256.785-.518 6.446-.583 12.595-.043 4.112.769 6.285 3.181 8.509l1.595 1.47.82-1.903c.452-1.047.828-2.09.836-2.318zm17.884-10.189c-1.786-4.035-4.21-11.317-4.832-14.52-.234-1.206-.358-3.602-.276-5.324l.15-3.13-1.563 1.193c-1.854 1.416-3.17 2-5.86 2.602-2.448.548-2.905 1.018-.623.642 2.543-.419 2.542-.42 2.542.863 0 .92.197 1.267.899 1.587.494.225 1.208.41 1.587.41 1.535 0 .139 1.46-1.869 1.954-.533.131-.97.452-.97.712 0 .79 2.36 7.051 3.885 10.305.79 1.683 2.443 4.732 3.676 6.774 1.233 2.043 2.774 4.798 3.426 6.123l1.184 2.409.098-4.546.098-4.547zm26.368 7.306c1.375-3.571 1.646-4.99.72-3.764-.84 1.112-2.871 7.982-2.131 7.21.077-.081.712-1.632 1.41-3.446zm-21-4.843c.948-1.925 2.314-4.532 3.036-5.793 2.789-4.874 5.07-11.911 5.66-17.463l.225-2.117-.769 1.235c-1.108 1.78-2.747 3.41-4.661 4.64-2.064 1.323-3.71 4.399-4.153 7.757-.163 1.234-.694 3.831-1.18 5.771-1.397 5.575-1.433 5.966-.73 7.923.349.97.683 1.714.742 1.655.06-.06.883-1.683 1.83-3.608zm-19.13-1.84c-.36-.076-.81.015-.997.203-.221.221.01.27.654.139.739-.15.827-.24.342-.342zm15.908-1.396c1.497-7.368 1.623-8.669 1.035-10.69-.366-1.26-.985-2.342-1.777-3.11l-1.216-1.178-1.973 1.49c-1.086.82-1.974 1.573-1.974 1.675 0 .668 1.747 5.823 3.077 9.08.872 2.134 1.665 4.078 1.762 4.32.347.873.66.407 1.066-1.587zM31.662 53.8c.435-.435-.148-.427-1.676.022l-1.587.467 1.528-.141c.84-.078 1.621-.234 1.735-.348zm2.71-2.234c-.857-2.625-.734-3.08.93-3.445 1.303-.286 1.311-.618.03-1.101-.872-.33-.984-.527-.842-1.489.187-1.275.251-1.26-3.107-.706-2.31.382-2.432.45-2.236 1.229.114.454.049 1.28-.145 1.834l-.352 1.01 1.704-.164c1.514-.146 1.804-.056 2.608.812.557.6.905 1.387.905 2.043 0 .819.8 2.358 1.226 2.358.032 0-.292-1.072-.72-2.381zm19.437-6.64c1.811-1.06 3.84-3.25 5.084-5.484l.861-1.546-1.297 1.131c-1.693 1.476-3.702 1.998-6.732 1.748-3.11-.257-4.632-1.235-6.689-4.301l-1.545-2.304-.238 2.624-.238 2.624 1.423 2.031c.783 1.118 1.423 2.219 1.423 2.448 0 .228.283.672.63.985.345.313 1.244 1.766 1.996 3.228l1.368 2.659 1.19-2.46c.966-1.999 1.485-2.633 2.764-3.383zM42.5 47.34c.56-1.003.781-1.72.552-1.796-.955-.318-1.476-2.223-1.231-4.503.28-2.628-.323-3.189-.674-.626-.377 2.747-.159 8.594.32 8.594.055 0 .52-.75 1.033-1.669zm1.95-.887c0-.197-.234-.158-.53.087-.29.241-.528.598-.528.792 0 .196.234.158.529-.087.291-.241.53-.598.53-.792zm2.244-.09c-.111-.29-.364-.529-.561-.529-.206 0-.172.224.08.53.242.29.495.528.562.528.067 0 .031-.238-.08-.529zm-2.096-1.449c.793-.304.705-.73-.565-2.708-1.08-1.683-1.135-1.718-1.435-.913-.352.944-.106 2.647.486 3.36.44.53.698.574 1.514.261zm12.072-5.609c3.026-1.508 5.479-5.741 6.202-10.706.322-2.205.319-3.955-.013-7.713-.236-2.674-.452-6.529-.48-8.566-.027-2.037-.114-3.188-.192-2.557-.174 1.401-.53 1.455-1.17.176-1.253-2.505-1.77-2.631-5.454-1.329-2.195.776-3.05.874-7.673.88l-5.204.008v1.83c0 1.005-.256 2.849-.568 4.096-.34 1.354-.509 3.104-.419 4.344.083 1.142.06 2.08-.049 2.082-.109.003-.4.134-.648.291-.35.222-.248.727.453 2.259.497 1.085 1.184 3.455 1.527 5.266.543 2.867.855 3.636 2.413 5.938 2.753 4.07 3.447 4.5 7.364 4.555 1.616.023 2.568-.185 3.911-.854zm-14.009-4.73c.034-3.043-.183-2.616-.431.852-.123 1.71-.083 2.544.102 2.117.168-.388.316-1.724.33-2.97zm-.69-6.449c-.46-1.938-1.929-5.575-2.253-5.575-.219 0-.237-.063 1.229 4.322 1.23 3.683 1.748 4.317 1.023 1.253zm-2.483-3.243c-1.125-3.783-1.042-5.75.374-8.859 1.386-3.041 1.342-9.701-.064-9.701-.81 0-1.797.856-2.257 1.957-.684 1.637-.597 5.803.184 8.801l.643 2.469-.84.778c-1.07.992-1.116 3.167-.113 5.377.939 2.07 1.322 2.49 2.267 2.49h.79zm1.438-5.772c.002-1.31.24-3.16.53-4.113.288-.952.513-2.064.5-2.47-.014-.405-.31.216-.658 1.38-.348 1.164-.893 2.707-1.21 3.428-.68 1.547-.746 3.14-.153 3.733.797.797.987.42.991-1.958zm2.299-10.319c.834 0 .581-.196-.627-.486-.882-.212-.97-.144-.959.744.01.888.054.92.48.36.258-.34.755-.618 1.106-.618zm12.018-.882c3.074-1.031 4.256-1.1 5.143-.298.41.371.645.43.645.163 0-.622-1.28-3.02-1.874-3.514-.423-.35-.553-.273-.731.436-.402 1.6-4.082 3.203-8.546 3.72l-2.431.283 2.583.046c1.915.034 3.265-.182 5.211-.835zm-3.234-.567c3.833-.706 6.714-2.763 5.529-3.948-.615-.615-.452-1.052.318-.85 1.342.35.346-.391-1.324-.986-2.57-.916-7.96-1.102-10.517-.364-2.499.721-4.29 1.993-4.92 3.493-.702 1.669.044 2.507 2.826 3.176.895.216 5.808-.1 8.088-.52zm8.316-3.27c0-.073-.278-.351-.617-.617-.56-.44-.572-.427-.133.133.46.588.75.774.75.484z"/>
</svg>
