<svg xmlns="http://www.w3.org/2000/svg" viewBox="0 0 163.33905 92.399734">
  <path fill="#463E43" d="M.002149 92.046955c.141362-.22873 7.52959-.35278 21.011099-.35278h20.79307l-.01771-9.96597-.01771-9.96597-2.079146-.98464c-3.300039-1.56283-3.52988-2.15427-3.52988-9.08339 0-4.73547.09801-5.85971.554813-6.36448.504568-.55754.504568-.71023 0-1.68595-.417759-.80786-.554813-2.16226-.554813-5.48277 0-2.42543-.172953-5.21633-.384345-6.20201-.380178-1.77272-2.577938-5.32661-7.780778-12.58194-4.181952-5.8317-5.416182-10.00119-4.434902-14.98203.726088-3.68553 1.96634-6.18631 4.339121-8.7492C33.104629.025256 42.912913-1.669124 50.204591 1.792876c4.106647 1.94979 7.36032 6.217129 8.533257 11.191769.577399 2.44884.28515 6.93213-.642267 9.85282-.64208 2.02209-3.995932 8.26334-7.012919 13.05049-1.688899 2.67982-2.209102 5.34383-2.217544 11.35622-.004 2.81341-.172508 5.71059-.374572 6.4382l-.367394 1.32291h-1.923694c-1.058033 0-1.923697.15875-1.923697.35278 0 .19403.595313.35366 1.322917.35475.727604.001 1.906587.16407 2.619961.36221l1.297047.36025.116135 5.19404c.06387 2.85671-.0062 5.69159-.155829 6.29973-.371024 1.50846-1.41 2.74631-2.89758 3.45221l-1.244318.59047V91.694175h58.893069c38.88151 0 58.96716.11987 59.1111.35278.14503.23465-19.69309.35278-59.24585.35278H44.628541v-21.02493l1.217263-.44017c.669498-.24209 1.621998-.92116 2.116667-1.50905l.899403-1.06888v-5.59655c0-3.70316-.131808-5.67802-.389604-5.83735-.214281-.13243-1.404906-.32228-2.645833-.42189-2.107534-.16918-2.25623-.23787-2.25623-1.04235 0-.7806-.123856-.85039-1.322916-.74545l-1.322917.11578-.180813-8.81944c-.128824-6.28361-.317126-9.12374-.654904-9.87778-1.016994-2.27029-6.04345-16.54355-6.04345-17.16114 0-.35977.156619-.65413.348043-.65413.191425 0 .56877-.52828.838543-1.17394.851238-2.03729 5.235391-3.36109 9.557974-2.88602 3.555708.39078 5.130441 1.4 5.130441 3.28801 0 .37706.22322.87081.496048 1.09723.417294.34633-.03076 1.98471-2.822223 10.31994l-3.31827 9.90825v14.99479l.79375.21272c.436563.11699 1.209541.21488 1.717732.21753.794886.004.954532-.18002 1.142643-1.3181.120266-.7276.220412-3.5225.222547-6.21088.0052-6.58349.383709-7.86682 4.311992-14.62092 4.193897-7.21079 4.676391-8.22483 5.354095-11.25242 1.004429-4.48722.669128-7.66498-1.228256-11.64058-3.056823-6.404999-10.020601-9.518279-18.204051-8.138449-4.108411.69273-6.658197 1.86858-9.138359 4.214219-2.998525 2.83588-4.369363 5.53892-5.086879 10.03039-.437837 2.74075.174288 6.15225 1.614853 8.99993.949829 1.8776 6.727558 10.57623 8.678169 13.06537 1.917732 2.44719 2.181962 3.53797 2.393597 9.88113.186941 5.60307.236615 5.92423 1.05016 6.78958.469667.49958.787167.94864.705555.99791-.08161.0493-.465882.26542-.853937.48034-.653115.36172-.712372.80746-.797239 5.99722-.08177 5.00037-.01877 5.72521.582891 6.70484.587573.95671 2.323451 2.0432 4.359487 2.7286.569644.19176.617361 1.02668.617361 10.80223v10.59441H21.147997c-14.152752 0-21.290284-.11908-21.145848-.35278zm43.568058-45.69985v-7.59984l3.217246-9.70282c1.769484-5.33655 3.148076-9.77198 3.06354-9.85652-.08454-.0845-.646444.0323-1.248685.25961-1.158653.43734-2.209878-.0114-2.209878-.94327 0-.7899 1.217034-1.58368 2.081516-1.35761.735654.19238.781057.14042.437765-.50102-.475706-.88887-1.079016-1.13342-3.754003-1.52168-3.555934-.51612-8.569344.51385-9.088678 1.86722-.120252.31337.124375.46126.751.45402.850314-.01.929344.10885.929344 1.39554 0 1.73375-.860517 2.05979-2.191957.83051l-.894292-.82568.270263.88195c.148643.48507 1.676489 4.76957 3.395208 9.52111l3.124945 8.63916v16.05917h2.116666zm-6.35-27.50154c0-.53271-.201295-.88194-.508346-.88194-.744347 0-1.027599.65923-.537164 1.25017.636379.76679 1.04551.62269 1.04551-.36823zm11.553639-.44097c.08521-.25591-.15288-.44097-.567309-.44097-.771494 0-1.235816.4607-.851581.84493.354954.35496 1.251154.0998 1.41889-.40396z"/>
</svg>
