<svg xmlns="http://www.w3.org/2000/svg" viewBox="0 0 168.099 58.921">
  <path fill="#463E43" d="M41.72 58.045c-1.016-.473-2.662-1.622-3.659-2.554-1.92-1.794-4.04-4.611-3.716-4.935.106-.107 1.034.524 2.062 1.4 3.74 3.19 7.448 4.476 11.013 3.817 1.817-.336 5.135-1.75 4.187-1.784-1.248-.045-4.47-1.633-5.94-2.927-2.652-2.335-3.685-3.978-3.692-5.872l-.006-1.623-.735 1.146c-.403.63-.856 1.147-1.005 1.147-.149 0-.783-1.627-1.408-3.616-1.876-5.96-5.753-13.781-10.165-20.502-2.364-3.602-2.433-4.085-.58-4.099 1.222-.009 1.241-.4.086-1.716-2.177-2.479-3.824-7.737-3.3-10.534.194-1.036 1.715-2.572 2.547-2.572.172 0 .337 1.15.366 2.558.101 4.848 2.252 9.343 5.02 10.489 2.274.942 4.247-.982 4.247-4.142 0-3.155-2.305-8.875-4.166-10.339-.58-.456-1.42-.683-2.535-.683-1.505 0-2.01.247-5.228 2.558-4.653 3.34-4.833 3.72-4.813 10.134.017 5.395.593 8.138 3.002 14.296 1.637 4.185 5.798 12.72 8.578 17.596 1.093 1.916 1.987 3.544 1.987 3.616 0 .072-7.62.13-16.934.13C5.88 49.035 0 48.913 0 48.683c0-.23 5.692-.353 16.37-.353h16.371l-2.32-4.145c-4.48-8.01-8.313-16.743-10.024-22.842-.65-2.317-.794-3.739-.805-7.938-.017-6.66.138-6.988 5.028-10.671C28.068.135 28.34-.001 30.088 0c2.636.002 3.85.866 5.31 3.78 3.046 6.076 3.1 11.14.139 12.671-.883.457-1.305.477-2.564.125-2.994-.838-5.185-4.435-5.884-9.658-.342-2.558-.481-2.956-.91-2.6-.39.323-.47 1.104-.352 3.43.185 3.645 1.32 6.332 3.51 8.31 1.577 1.426 1.482 1.728-.674 2.143-.63.121-1.146.267-1.146.323 0 .056 1.206 1.983 2.68 4.282 3.313 5.168 7.132 12.829 8.9 17.853l1.335 3.796.774-1.047.775-1.047V20.46h20.108c11.06 0 20.108.066 20.108.146 0 .324-16.613 12.936-17.469 13.262-1.535.584-4.464.42-5.638-.316-.582-.365-3.674-2.984-6.871-5.82-4.15-3.68-6.063-5.156-6.686-5.156-.5 0-.729.126-.536.296l6.645 5.883 6.31 5.586-3.752 3.672c-2.064 2.02-3.753 3.738-3.753 3.819 0 .71 1.46-.42 4.549-3.52 3.529-3.54 3.692-3.655 4.754-3.35 1.715.491 4.313.371 5.639-.261l1.207-.576 5.89 5.25c5.907 5.265 6.893 6.056 6.885 5.532-.002-.155-2.694-2.663-5.98-5.574-3.288-2.91-5.945-5.484-5.905-5.719.104-.626 14.134-11.377 14.451-11.074.148.142.228 5.724.177 12.406l-.093 12.149-11.894.092c-10.354.081-11.867.161-11.692.618.177.46 6.813.524 54.824.524 36.034 0 54.696.12 54.84.353.145.235-18.22.353-54.827.353H58.226l-.538-1.041c-.296-.572-.538-1.128-.538-1.235 0-.106 5.379-.194 11.953-.194 11.1 0 11.963-.044 12.083-.617.071-.34.05-5.472-.047-11.405l-.176-10.788-6.243 4.79c-3.433 2.636-6.25 4.906-6.261 5.045-.011.14 2.831 2.824 6.316 5.966 3.485 3.14 6.253 5.844 6.153 6.007-.101.163-.654.297-1.228.297-.84 0-2.035-.881-6.065-4.469-2.76-2.457-5.506-4.92-6.1-5.473l-1.082-1.006-1.16.58c-.895.446-1.777.535-3.858.391l-2.697-.187-3.768 3.728-3.767 3.728-.952-.624-.952-.624 3.786-3.797 3.785-3.797-6.74-5.954c-3.706-3.275-6.738-6.074-6.738-6.22 0-.146.754-.263 1.675-.262l1.676.004 4.586 4.09c8.58 7.65 8.432 7.545 10.527 7.545 1.09 0 2.349-.26 3.069-.634.671-.348 4.452-3.126 8.4-6.173l7.18-5.54H42.686V41.923l1.284-.355c1.767-.488 3.378-.116 6.485 1.498 3.882 2.016 6.695 4.97 6.69 7.028-.003 1.331-1.867 4.31-3.715 5.937-3.282 2.889-8.065 3.712-11.71 2.015zm8.918-.986c3.297-1.68 6.102-5.524 5.622-7.708-.488-2.222-5.675-6.1-9.404-7.031-1.262-.315-1.947-.314-2.91.004l-1.26.416.004 2c.003 1.732.161 2.2 1.171 3.47 2.235 2.811 4.99 4.549 7.83 4.938.88.12 1.677.346 1.774.502.28.455-2.654 2.002-4.957 2.613-2.884.765-5.59.429-8.59-1.068l-2.346-1.171 1.678 1.534c2.22 2.029 4.025 2.666 7.141 2.521 1.787-.083 2.96-.365 4.247-1.02z"/>
</svg>
