<svg xmlns="http://www.w3.org/2000/svg" style="isolation:isolate" viewBox="234.975 24 24.005 24">
  <path fill="rgb(70,62,67)" d="M246.98 29.847c-3.406 0-6.153 2.747-6.153 6.153 0 3.406 2.747 6.153 6.153 6.153 3.406 0 6.154-2.747 6.154-6.153 0-3.406-2.748-6.153-6.154-6.153zm0 10.153c-2.201 0-4-1.794-4-4s1.794-4 4-4c2.207 0 4.001 1.794 4.001 4s-1.8 4-4.001 4zm7.841-10.405c0 .798-.643 1.435-1.436 1.435-.798 0-1.435-.642-1.435-1.435s.643-1.435 1.435-1.435c.793 0 1.436.642 1.436 1.435zm4.075 1.457c-.091-1.923-.53-3.626-1.939-5.029-1.403-1.403-3.106-1.842-5.028-1.939-1.982-.112-7.921-.112-9.902 0-1.918.091-3.621.531-5.029 1.934s-1.842 3.106-1.939 5.028c-.112 1.982-.112 7.921 0 9.902.091 1.923.531 3.626 1.939 5.029s3.106 1.842 5.029 1.939c1.981.112 7.92.112 9.902 0 1.922-.091 3.625-.531 5.028-1.939 1.403-1.403 1.843-3.106 1.939-5.029.112-1.981.112-7.915 0-9.896zm-2.56 12.022c-.418 1.05-1.226 1.859-2.281 2.282-1.58.626-5.329.482-7.075.482-1.745 0-5.5.139-7.074-.482-1.05-.418-1.858-1.227-2.281-2.282-.627-1.579-.482-5.328-.482-7.074 0-1.746-.14-5.5.482-7.074.417-1.05 1.226-1.859 2.281-2.282 1.58-.626 5.329-.482 7.074-.482 1.746 0 5.5-.139 7.075.482 1.049.418 1.858 1.227 2.281 2.282.627 1.579.482 5.328.482 7.074 0 1.746.145 5.5-.482 7.074z"/>
</svg>
