<svg xmlns="http://www.w3.org/2000/svg" style="isolation:isolate" viewBox="271.975 24 24.005 24">
  <path fill="rgb(70,62,67)" d="M277.348 48h-4.977V31.977h4.977V48zm-2.491-18.209c-1.591 0-2.882-1.318-2.882-2.909 0-1.591 1.291-2.882 2.882-2.882 1.591 0 2.882 1.291 2.882 2.882 0 1.591-1.291 2.909-2.882 2.909zM295.975 48h-4.966v-7.8c0-1.859-.038-4.243-2.588-4.243-2.587 0-2.983 2.02-2.983 4.109V48h-4.972V31.977h4.773v2.185h.07c.664-1.258 2.287-2.587 4.709-2.587 5.036 0 5.962 3.316 5.962 7.623V48h-.005z"/>
</svg>
