<svg xmlns="http://www.w3.org/2000/svg" style="isolation:isolate" viewBox="20 296.718 209.804 119.916">
  <path d="M123.124 356.774q0 13.039-3.951 24.003-3.951 10.965-10.866 18.966-6.914 8.001-16.298 12.446-9.384 4.445-20.447 4.445-11.063 0-20.546-4.445-9.483-4.445-16.397-12.446-6.914-8.001-10.767-18.966Q20 369.813 20 356.774q0-13.038 3.852-24.003 3.853-10.964 10.767-18.965t16.397-12.545q9.483-4.543 20.546-4.543 11.063 0 20.447 4.543 9.384 4.544 16.298 12.545 6.915 8.001 10.866 18.965 3.951 10.965 3.951 24.003zm-31.807 0q0-13.829-5.531-22.422-5.532-8.594-14.224-8.594-9.088 0-14.52 8.594-5.433 8.593-5.433 22.422t5.433 22.324q5.432 8.495 14.52 8.495 8.692 0 14.224-8.495 5.531-8.495 5.531-22.324zm113.397 29.436h25.09v28.448H144.46V386.21h28.053v-50.376q-1.778 2.37-5.532 4.84-3.753 2.469-8.396 4.543-4.643 2.075-9.483 3.359-4.84 1.284-8.593 1.284v-29.238q3.161 0 8.198-2.173 5.038-2.173 9.977-5.236 4.939-3.062 8.89-6.223 3.951-3.16 4.939-5.136h32.201v84.356z" fill="rgb(246,245,245)"/>
</svg>
