<svg xmlns="http://www.w3.org/2000/svg" style="isolation:isolate" viewBox="20 1382.225 217.536 147">
  <path d="M123.137 1442.289q0 13.041-3.952 24.007-3.951 10.965-10.866 18.967-6.916 8.002-16.301 12.448-9.385 4.445-20.449 4.445-11.065 0-20.549-4.445-9.484-4.446-16.399-12.448-6.915-8.002-10.768-18.967Q20 1455.33 20 1442.289q0-13.04 3.853-24.006 3.853-10.965 10.768-18.967 6.915-8.002 16.399-12.547 9.484-4.544 20.549-4.544 11.064 0 20.449 4.544 9.385 4.545 16.301 12.547 6.915 8.002 10.866 18.967 3.952 10.966 3.952 24.006zm-31.81 0q0-13.83-5.533-22.425-5.532-8.595-14.225-8.595-9.089 0-14.523 8.595-5.433 8.595-5.433 22.425 0 13.831 5.433 22.327 5.434 8.496 14.523 8.496 8.693 0 14.225-8.496 5.533-8.496 5.533-22.327zm118.548 11.065q6.125 1.186 11.262 4.248 5.137 3.062 8.792 7.705 3.656 4.644 5.631 10.67 1.976 6.026 1.976 12.941 0 9.287-3.754 16.696-3.754 7.41-10.768 12.645-7.014 5.236-16.893 8.101-9.879 2.865-22.129 2.865-30.032 0-47.024-17.585l16.992-22.524q5.334 5.532 12.151 8.397 6.816 2.865 16.3 2.865 22.327 0 22.327-16.399 0-8.892-6.619-13.436-6.619-4.544-20.845-4.544h-5.927v-22.721h6.52q11.064 0 17.288-4.545 6.224-4.544 6.224-12.052 0-6.521-4.544-9.88-4.545-3.358-12.053-3.358-8.101 0-14.719 3.853-6.619 3.852-11.164 10.965l-19.955-22.919q3.161-4.15 8.298-7.706 5.137-3.556 11.657-6.026 6.52-2.47 14.028-3.853 7.508-1.383 15.412-1.383 10.471 0 19.165 2.47 8.694 2.47 14.819 7.113 6.125 4.643 9.483 11.064 3.359 6.422 3.359 14.325 0 5.927-1.877 11.262-1.877 5.335-5.236 9.681-3.358 4.347-8.002 7.212-4.643 2.865-10.175 3.853z" fill="rgb(246,245,245)"/>
</svg>
