<svg xmlns="http://www.w3.org/2000/svg" style="isolation:isolate" viewBox="20.5 1926.225 219.02 142.986">
  <path d="M123.592 1986.264q0 13.034-3.95 23.995t-10.862 18.96q-6.913 7.998-16.294 12.441-9.381 4.444-20.44 4.444-11.06 0-20.54-4.444-9.479-4.443-16.391-12.441-6.913-7.999-10.764-18.96-3.851-10.961-3.851-23.995 0-13.035 3.851-23.996 3.851-10.961 10.764-18.96 6.912-7.998 16.391-12.54 9.48-4.543 20.54-4.543 11.059 0 20.44 4.543 9.381 4.542 16.294 12.54 6.912 7.999 10.862 18.96 3.95 10.961 3.95 23.996zm-31.797 0q0-13.825-5.53-22.416-5.529-8.591-14.219-8.591-9.085 0-14.516 8.591-5.431 8.591-5.431 22.416 0 13.824 5.431 22.317 5.431 8.491 14.516 8.491 8.69 0 14.219-8.491 5.53-8.493 5.53-22.317zm130.346 82.947h-31.599v-27.057h-54.311v-28.241l64.383-82.553h21.527v82.355h17.379v28.439h-17.379v27.057zm-27.847-90.452l-26.859 34.956h26.859v-34.956z" fill="rgb(246,245,245)"/>
</svg>
