<svg xmlns="http://www.w3.org/2000/svg" style="isolation:isolate" viewBox="20 824.105 218.269 119.9">
  <path d="M123.11 884.154q0 13.037-3.951 23.999-3.95 10.964-10.864 18.963-6.913 8-16.296 12.444-9.382 4.445-20.444 4.445t-20.543-4.445q-9.481-4.444-16.395-12.444-6.913-7.999-10.765-18.963Q20 897.191 20 884.154q0-13.037 3.852-24t10.765-18.963q6.914-8 16.395-12.543 9.481-4.543 20.543-4.543t20.444 4.543q9.383 4.543 16.296 12.543 6.914 8 10.864 18.963 3.951 10.963 3.951 24zm-31.802 0q0-13.827-5.531-22.42-5.531-8.592-14.222-8.592-9.086 0-14.518 8.592-5.432 8.593-5.432 22.42 0 13.827 5.432 22.32 5.432 8.494 14.518 8.494 8.691 0 14.222-8.494 5.531-8.493 5.531-22.32zm146.961 57.876H139.9q0-9.284 1.383-16.593 1.382-7.308 4.74-13.333 3.358-6.024 9.087-11.16 5.728-5.136 14.419-10.075 9.284-5.135 15.506-8.493 6.222-3.358 9.877-5.926 3.654-2.568 5.234-4.642 1.581-2.074 1.581-4.839 0-5.531-3.951-8.889-3.951-3.358-11.259-3.358-8.296 0-14.42 4.049-6.123 4.05-11.852 10.568l-20.147-23.309q3.16-3.555 8.493-6.913 5.334-3.358 12.05-6.024 6.715-2.667 14.715-4.247t16.692-1.58q21.333 0 32.691 9.284 11.358 9.283 11.358 25.085 0 6.519-2.075 11.655-2.074 5.135-5.432 9.185-3.358 4.049-7.506 7.111-4.148 3.062-8.493 5.629-2.963 1.778-7.111 4.149-4.149 2.37-8.198 4.839-4.049 2.469-7.506 4.938t-5.234 4.444h53.727v28.445z" fill="rgb(246,245,245)"/>
</svg>
