<svg xmlns="http://www.w3.org/2000/svg" style="isolation:isolate" viewBox="20 2501.644 216.633 147.32">
  <path d="M123.084 2561.678q0 13.033-3.95 23.993-3.95 10.961-10.861 18.959-6.912 7.997-16.292 12.44-9.38 4.443-20.439 4.443t-20.538-4.443q-9.479-4.443-16.391-12.44-6.911-7.998-10.762-18.959Q20 2574.711 20 2561.678q0-13.034 3.851-23.994 3.851-10.96 10.762-18.958 6.912-7.998 16.391-12.54 9.479-4.542 20.538-4.542 11.059 0 20.439 4.542t16.292 12.54q6.911 7.998 10.861 18.958 3.95 10.96 3.95 23.994zm-31.794 0q0-13.824-5.53-22.414-5.529-8.591-14.218-8.591-9.084 0-14.515 8.591-5.431 8.59-5.431 22.414 0 13.823 5.431 22.315 5.431 8.491 14.515 8.491 8.689 0 14.218-8.491 5.53-8.492 5.53-22.315zm98.936-5.727q10.072 0 18.563 3.358 8.492 3.356 14.712 9.28 6.221 5.925 9.677 14.219 3.455 8.294 3.455 18.365 0 10.664-3.949 19.452-3.95 8.787-10.96 15.107-7.011 6.32-16.687 9.775-9.676 3.457-21.328 3.457-15.403 0-27.647-6.123-12.243-6.122-18.563-17.18l17.576-19.55q5.727 6.912 13.33 11.058 7.603 4.147 15.502 4.147 9.281 0 14.811-5.332 5.529-5.332 5.529-14.218 0-8.492-5.134-13.626-5.135-5.135-13.429-5.135-5.332 0-9.874 2.37-4.542 2.369-7.306 6.714h-27.45q0-.197.79-4.049.79-3.85 1.876-9.971 1.086-6.122 2.567-13.725t3.061-15.503q3.555-18.562 8.097-42.063h69.71v28.833h-46.803l-3.949 23.894q1.185-1.382 4.64-2.468 3.456-1.086 9.183-1.086z" fill="rgb(246,245,245)"/>
</svg>
