<svg xmlns="http://www.w3.org/2000/svg" style="isolation:isolate" viewBox="192.475 24 29.55 24">
  <path fill="rgb(70,62,67)" d="M218.988 29.981c.018.263.018.525.018.788 0 8.006-6.093 17.231-17.231 17.231-3.431 0-6.619-.994-9.3-2.719.488.056.956.075 1.462.075 2.832 0 5.438-.956 7.519-2.587-2.662-.056-4.894-1.8-5.662-4.2.375.056.75.093 1.144.093.543 0 1.087-.075 1.593-.206-2.775-.562-4.856-3-4.856-5.944v-.074c.806.45 1.744.731 2.737.768-1.631-1.087-2.7-2.944-2.7-5.044 0-1.125.3-2.156.825-3.056 2.982 3.675 7.463 6.075 12.488 6.338-.094-.45-.15-.919-.15-1.388 0-3.337 2.7-6.056 6.056-6.056 1.744 0 3.319.731 4.425 1.912 1.369-.262 2.681-.768 3.844-1.462-.45 1.406-1.406 2.588-2.663 3.337 1.219-.131 2.4-.468 3.488-.937-.825 1.2-1.856 2.269-3.037 3.131z"/>
</svg>
