<svg xmlns="http://www.w3.org/2000/svg" style="isolation:isolate" viewBox="298.92 239 209.08 211">
<style>

    @-webkit-keyframes moveIn {
        from { opacity: 0; -webkit-transform: translateX(-10px); transform: translateX(-10px); }
        to { opacity: 1; -webkit-transform: translate(0); transform: translate(0); }
    }

    @keyframes moveIn {
        from { opacity: 0; -webkit-transform: translateX(-10px); transform: translateX(-10px); }
        to { opacity: 1; -webkit-transform: translate(0); transform: translate(0); }
    }

    @-webkit-keyframes draw1 {
        from { stroke-dashoffset: 1000 }
        to { stroke-dashoffset: 0 }
    }

    @keyframes draw1 {
        from { stroke-dashoffset: 1000 }
        to { stroke-dashoffset: 0 }
    }

    .background_green,
    .articles_pen,
    .social_group01,
    .social_group02 {
        opacity: 0;
        transfrom: translateX(-10px);
    }

    .background_green {
        -webkit-animation: moveIn 1s cubic-bezier(.17,.67,.83,.67) forwards;
                animation: moveIn 1s cubic-bezier(.17,.67,.83,.67) forwards;
    }

    .articles_pen {
        -webkit-animation: moveIn 200ms cubic-bezier(.17,.67,.83,.67) forwards;
                animation: moveIn 200ms cubic-bezier(.17,.67,.83,.67) forwards;
    }

    .background_green:hover {
        fill: #fefcad;
    }

    .articles_path01 {
        stroke-dasharray: 1000;
        stroke-dashoffset: 1000;
        -webkit-animation: draw1 2s cubic-bezier(.17,.67,.83,.67) forwards;
                animation: draw1 2s cubic-bezier(.17,.67,.83,.67) forwards;
    }

    .articles_path02,
    .articles_path03,
    .articles_path04,
    .articles_path05,
    .articles_path06,
    .articles_path07 {
        stroke-dasharray: 1000;
        stroke-dashoffset: 1000;
        -webkit-animation: draw1 12s cubic-bezier(.17,.67,.83,.67) forwards;
                animation: draw1 12s cubic-bezier(.17,.67,.83,.67) forwards;
    }

    .articles_path02 { -webkit-animation-delay: 200ms; animation-delay: 200ms; }
    .articles_path03 { -webkit-animation-delay: 300ms; animation-delay: 300ms; }
    .articles_path04 { -webkit-animation-delay: 400ms; animation-delay: 400ms; }
    .articles_path05 { -webkit-animation-delay: 500ms; animation-delay: 500ms; }
    .articles_path06 { -webkit-animation-delay: 600ms; animation-delay: 600ms; }
    .articles_path07 { -webkit-animation-delay: 700ms; animation-delay: 700ms; }
    .articles_pen { -webkit-animation-delay: 1000ms; animation-delay: 1000ms; }

</style>
<path class="background_green" d="M 320.137 251 L 450.699 251 C 455.258 251 458.96 254.701 458.96 259.26 L 458.96 441.74 C 458.96 446.299 455.258 450 450.699 450 L 320.137 450 C 315.579 450 311.877 446.299 311.877 441.74 L 311.877 259.26 C 311.877 254.701 315.579 251 320.137 251 Z" fill="#B4EBCA"/>
<path class="articles_path01" d="M 309.18 241 L 439.742 241 C 444.301 241 448.002 244.701 448.002 249.26 L 448.002 431.74 C 448.002 436.299 444.301 440 439.742 440 L 309.18 440 C 304.621 440 300.92 436.299 300.92 431.74 L 300.92 249.26 C 300.92 244.701 304.621 241 309.18 241 Z" fill="none" stroke="#463E43" stroke-width="4" stroke-linecap="square" stroke-miterlimit="2"/>
<path class="articles_path02" stroke-width="4" stroke="rgb(70,62,67)" stroke-linecap="square" stroke-miterlimit="3" d="M332.211 273L388.711 273"/>
<path class="articles_path03" stroke-width="4" stroke="rgb(70,62,67)" stroke-linecap="square" stroke-miterlimit="3" d="M332.211 300L388.711 300"/>
<path class="articles_path04" stroke-width="4" stroke="rgb(70,62,67)" stroke-linecap="square" stroke-miterlimit="3" d="M332.211 327L416.711 327"/>
<path class="articles_path05" stroke-width="4" stroke="rgb(70,62,67)" stroke-linecap="square" stroke-miterlimit="3" d="M332.211 354L388.711 354"/>
<path class="articles_path06" stroke-width="4" stroke="rgb(70,62,67)" stroke-linecap="square" stroke-miterlimit="3" d="M332.211 381L377.711 381"/>
<path class="articles_path07" stroke-width="4" stroke="rgb(70,62,67)" stroke-linecap="square" stroke-miterlimit="3" d="M332.211 408L365.711 408"/>
<g class="articles_pen">
<path d=" M 498.168 293.666 L 492.339 287.838 C 489.164 284.662 482.944 285.706 478.487 290.163 L 398.213 370.437 C 398.143 370.551 398.021 370.673 397.973 370.808 L 390.438 385.128 L 385.336 394.798 L 380.246 403.932 C 379.91 404.573 379.923 405.257 380.292 405.626 C 380.684 406.018 381.367 406.03 381.986 405.672 L 391.06 400.644 L 400.782 395.533 L 415.102 387.998 C 415.215 387.928 415.329 387.859 415.472 387.758 L 495.747 307.484 C 500.299 303.062 501.343 296.842 498.168 293.666 L 498.168 293.666 Z " fill="rgb(255,255,255)" stroke-width="4" stroke="rgb(70,62,67)"/>
<clipPath id="a">
<path d=" M 498.168 293.666 L 492.339 287.838 C 489.164 284.662 482.944 285.706 478.487 290.163 L 398.213 370.437 C 398.143 370.551 398.021 370.673 397.973 370.808 L 390.438 385.128 L 385.336 394.798 L 380.246 403.932 C 379.91 404.573 379.923 405.257 380.292 405.626 C 380.684 406.018 381.367 406.03 381.986 405.672 L 391.06 400.644 L 400.782 395.533 L 415.102 387.998 C 415.215 387.928 415.329 387.859 415.472 387.758 L 495.747 307.484 C 500.299 303.062 501.343 296.842 498.168 293.666 L 498.168 293.666 Z " fill="rgb(255,255,255)" stroke-width="4" stroke="rgb(70,62,67)"/>
</clipPath>
<g clip-path="url(#a)">
<path d=" M 401.946 370.022 Q 403.43 372.518 405.468 373.966 C 407.873 375.676 410.982 375.228 413.468 376.966 Q 415.8 378.597 418.788 382.974" fill="none" stroke-width="4" stroke="rgb(70,62,67)" stroke-linecap="square" stroke-miterlimit="3"/>
</g>
<path d=" M 498.168 293.666 L 492.339 287.838 C 489.164 284.662 482.944 285.706 478.487 290.163 L 398.213 370.437 C 398.143 370.551 398.021 370.673 397.973 370.808 L 390.438 385.128 L 385.336 394.798 L 380.246 403.932 C 379.91 404.573 379.923 405.257 380.292 405.626 C 380.684 406.018 381.367 406.03 381.986 405.672 L 391.06 400.644 L 400.782 395.533 L 415.102 387.998 C 415.215 387.928 415.329 387.859 415.472 387.758 L 495.747 307.484 C 500.299 303.062 501.343 296.842 498.168 293.666 L 498.168 293.666 Z " fill="transparent" stroke-width="4" stroke="rgb(70,62,67)"/>
</g>
</svg>