<?xml version="1.0" standalone="no"?><!-- Generator: Gravit.io --><svg xmlns="http://www.w3.org/2000/svg" xmlns:xlink="http://www.w3.org/1999/xlink" style="isolation:isolate" viewBox="-475.729 -348.405 455.333 365.498" preserveAspectRatio="xMaxYMax meet">
<style>

    @-webkit-keyframes fadeBulb {
        from { opacity: 0 }
        to { opacity: 1 }
    }

    @keyframes fadeBulb {
        from { opacity: 0 }
        to { opacity: 1 }
    }

    .bulb_element01--01,
    .bulb_element02--01,
    .bulb_element03--01,
    .bulb_element04--01,
    .bulb_element05--01,
    .bulb_element06--01,
    .bulb_element07--01,
    .bulb_element01--02,
    .bulb_element02--02,
    .bulb_element03--02,
    .bulb_element04--02,
    .bulb_element05--02,
    .bulb_element06--02,
    .bulb_element01--03,
    .bulb_element02--03,
    .bulb_element03--03,
    .bulb_element04--03,
    .bulb_element05--03,
    .bulb_element06--03,
    .bulb_element07--03,
    .bulb_element08--03,
    .bulb_element01--04,
    .bulb_element02--04,
    .bulb_element03--04,
    .bulb_element04--04,
    .bulb_element05--04,
    .bulb_element06--04,
    .bulb_element07--04,
    .bulb_element01--05,
    .bulb_element02--05,
    .bulb_element03--05,
    .bulb_element04--05,
    .bulb_element05--05,
    .bulb_element06--05,
    .bulb_element07--05,
    .bulb_element08--05,
    .bulb_bg--yellow,
    .bulb_bg--green {
        opacity: 0;
        -webkit-animation: fadeBulb 1200ms cubic-bezier(0.215, 0.610, 0.355, 1) forwards;
                animation: fadeBulb 1200ms cubic-bezier(0.215, 0.610, 0.355, 1) forwards;
    }

    .bulb_element01--01 { -webkit-animation-delay: 0ms; animation-delay: 0ms; }
    .bulb_element02--01 { -webkit-animation-delay: 200ms; animation-delay: 200ms; }
    .bulb_element03--01 { -webkit-animation-delay: 300ms; animation-delay: 300ms; }
    .bulb_element04--01 { -webkit-animation-delay: 400ms; animation-delay: 400ms; }
    .bulb_element05--01 { -webkit-animation-delay: 500ms; animation-delay: 500ms; }
    .bulb_element06--01 { -webkit-animation-delay: 600ms; animation-delay: 600ms; }
    .bulb_element07--01 { -webkit-animation-delay: 700ms; animation-delay: 700ms; }

    .bulb_element01--02 { -webkit-animation-delay: 50ms; animation-delay: 50ms; }
    .bulb_element02--02 { -webkit-animation-delay: 250ms; animation-delay: 250ms; }
    .bulb_element03--02 { -webkit-animation-delay: 350ms; animation-delay: 350ms; }
    .bulb_element04--02 { -webkit-animation-delay: 450ms; animation-delay: 450ms; }
    .bulb_element05--02 { -webkit-animation-delay: 550ms; animation-delay: 550ms; }
    .bulb_element06--02 { -webkit-animation-delay: 650ms; animation-delay: 650ms; }

    .bulb_element01--03 { -webkit-animation-delay: 100ms; animation-delay: 100ms; }
    .bulb_element02--03 { -webkit-animation-delay: 300ms; animation-delay: 300ms; }
    .bulb_element03--03 { -webkit-animation-delay: 400ms; animation-delay: 400ms; }
    .bulb_element04--03 { -webkit-animation-delay: 500ms; animation-delay: 500ms; }
    .bulb_element05--03 { -webkit-animation-delay: 600ms; animation-delay: 600ms; }
    .bulb_element06--03 { -webkit-animation-delay: 700ms; animation-delay: 700ms; }
    .bulb_element07--03 { -webkit-animation-delay: 800ms; animation-delay: 800ms; }
    .bulb_element08--03 { -webkit-animation-delay: 900ms; animation-delay: 900ms; }

    .bulb_element01--04 { -webkit-animation-delay: 150ms; animation-delay: 150ms; }
    .bulb_element02--04 { -webkit-animation-delay: 350ms; animation-delay: 350ms; }
    .bulb_element03--04 { -webkit-animation-delay: 450ms; animation-delay: 450ms; }
    .bulb_element04--04 { -webkit-animation-delay: 550ms; animation-delay: 550ms; }
    .bulb_element05--04 { -webkit-animation-delay: 650ms; animation-delay: 650ms; }
    .bulb_element06--04 { -webkit-animation-delay: 750ms; animation-delay: 750ms; }
    .bulb_element07--04 { -webkit-animation-delay: 850ms; animation-delay: 850ms; }

    .bulb_element01--05 { -webkit-animation-delay: 200ms; animation-delay: 200ms; }
    .bulb_element02--05 { -webkit-animation-delay: 400ms; animation-delay: 400ms; }
    .bulb_element03--05 { -webkit-animation-delay: 500ms; animation-delay: 500ms; }
    .bulb_element04--05 { -webkit-animation-delay: 600ms; animation-delay: 600ms; }
    .bulb_element05--05 { -webkit-animation-delay: 700ms; animation-delay: 700ms; }
    .bulb_element06--05 { -webkit-animation-delay: 800ms; animation-delay: 800ms; }
    .bulb_element07--05 { -webkit-animation-delay: 900ms; animation-delay: 900ms; }
    .bulb_element08--05 { -webkit-animation-delay: 1000ms; animation-delay: 1000ms; }

    .bulb_bg--yellow { -webkit-animation-delay: 1400ms; animation-delay: 1400ms; }
    .bulb_bg--green { -webkit-animation-delay: 1800ms; animation-delay: 1800ms; }

</style>
<path class="bulb_bg--yellow" d=" M -156.825 -161.361 C -143.277 -160.893 -129.602 -166.961 -118.237 -175.623 C -107.228 -184.013 -97.565 -195.68 -92.332 -209.651 C -87.337 -222.99 -87.208 -237.584 -91.723 -250.68 C -95.987 -263.046 -103.729 -273.506 -112.837 -281.541 C -114.489 -283.802 -116.395 -285.801 -118.705 -287.337 C -124.706 -291.324 -131.942 -292.026 -138.838 -292.421 C -145.625 -292.81 -152.463 -293.144 -159.283 -292.507 C -172.885 -291.235 -185.26 -284.869 -193.186 -271.426 C -201.367 -257.551 -203.133 -240.685 -201.407 -224.778 C -198.324 -196.372 -185.637 -162.356 -156.825 -161.361" fill="rgb(254,252,173)"/>
<path class="bulb_bg--green" d=" M -360.75 -102.332 C -350.343 -98.842 -338.573 -99.985 -328.09 -103.516 C -317.937 -106.936 -308.192 -113.007 -301.435 -121.754 C -294.983 -130.104 -292.06 -140.485 -293.025 -150.877 C -293.936 -160.692 -297.912 -169.956 -303.414 -177.808 C -304.257 -179.806 -305.347 -181.676 -306.84 -183.309 C -310.716 -187.55 -316.188 -189.737 -321.455 -191.625 C -326.639 -193.484 -331.873 -195.315 -337.281 -196.449 C -348.065 -198.709 -358.886 -197.05 -367.628 -189.309 C -376.652 -181.317 -381.284 -169.697 -383.023 -157.95 C -386.131 -136.97 -382.881 -109.751 -360.75 -102.332" fill="rgb(180,235,202)"/>
<g>
<path class="bulb_element08--05" d=" M -87.935 -97.8 C -104.22 -99.911 -116.055 -118.577 -116.467 -134.029 C -116.889 -149.869 -106.372 -166.648 -93.841 -175.737 C -80.433 -185.463 -61.555 -187.726 -47.264 -178.511 C -33.25 -169.48 -22.149 -152.73 -22.733 -135.743 C -23.381 -116.758 -37.245 -101.005 -55.681 -97.148 C -57.173 -96.837 -56.541 -94.553 -55.057 -94.864 C -37.813 -98.47 -23.957 -112.207 -20.988 -129.698 C -17.775 -148.67 -28.007 -166.614 -42.661 -178.115 C -56.746 -189.172 -76.461 -189.18 -91.574 -180.078 C -105.976 -171.404 -117.384 -154.408 -118.748 -137.492 C -120.194 -119.558 -106.591 -97.851 -87.935 -95.431 C -86.428 -95.236 -86.443 -97.607 -87.935 -97.8" fill="rgb(70,62,67)"/>
<path class="bulb_element07--05" d=" M -75.95 -127.871 C -78.705 -127.15 -81.491 -126.606 -84.338 -126.421 C -86.247 -126.297 -88.093 -126.14 -89.789 -127.592 C -90.173 -128.08 -90.557 -128.568 -90.941 -129.055 C -92.838 -132.052 -91.763 -133.977 -87.715 -134.828 C -86.751 -134.287 -85.805 -135.177 -85.976 -136.166 C -86.674 -140.237 -84.658 -144.962 -80.428 -146.217 C -76.18 -147.475 -71.919 -144.444 -71.095 -140.29 C -70.93 -139.455 -69.67 -139.099 -69.116 -139.768 C -65.013 -144.712 -57.094 -141.689 -58.223 -135.016 C -58.389 -134.035 -57.441 -133.129 -56.486 -133.68 C -53.004 -132.864 -52.207 -131.532 -54.101 -129.683 C -55.278 -129.513 -56.446 -129.364 -57.631 -129.235 C -59.62 -128.997 -61.618 -128.78 -63.615 -128.589 C -67.61 -128.205 -71.616 -127.965 -75.635 -127.914 C -77.158 -127.894 -77.163 -125.525 -75.635 -125.545 C -70.613 -125.609 -65.621 -125.988 -60.623 -126.527 C -58.199 -126.789 -53.265 -126.416 -51.393 -128.482 C -48.251 -131.947 -53.675 -138.019 -57.678 -135.725 C -57.102 -135.278 -56.518 -134.833 -55.941 -134.387 C -54.457 -143.127 -64.942 -148.492 -70.791 -141.442 C -70.131 -141.268 -69.471 -141.093 -68.811 -140.92 C -69.888 -146.35 -75.627 -150.053 -81.058 -148.5 C -86.595 -146.917 -89.171 -140.842 -88.259 -135.536 C -87.68 -135.983 -87.1 -136.428 -86.519 -136.874 C -91.684 -139.776 -95.369 -133.755 -93.594 -129.137 C -90.697 -121.6 -81.339 -124.013 -75.321 -125.588 C -73.847 -125.972 -74.472 -128.258 -75.95 -127.871" fill="rgb(70,62,67)"/>
<path class="bulb_element06--05" d=" M -70.053 -84.935 C -71.137 -98.445 -72.262 -111.951 -73.425 -125.454 C -73.554 -126.961 -75.924 -126.975 -75.793 -125.454 C -74.63 -111.951 -73.506 -98.445 -72.422 -84.935 C -72.3 -83.426 -69.931 -83.414 -70.053 -84.935 Z " fill="rgb(70,62,67)"/>
<path class="bulb_element05--05" d=" M -88.427 -95.571 C -87.305 -92.026 -86.591 -88.467 -86.611 -84.734 C -86.619 -83.434 -84.547 -83.077 -84.285 -84.418 C -83.719 -87.323 -75.391 -87.345 -73.144 -87.381 C -70.145 -87.43 -67.097 -86.995 -64.16 -86.425 C -62.494 -86.103 -60.055 -85.824 -58.665 -84.779 C -55.981 -82.759 -59.699 -81.498 -61.555 -80.92 C -64.776 -79.916 -68.187 -79.664 -71.549 -79.889 C -75.077 -80.126 -83.145 -80.804 -84.285 -85.048 C -84.681 -86.518 -86.967 -85.895 -86.57 -84.418 C -85.416 -80.126 -80.875 -79.107 -76.997 -78.28 C -72.302 -77.279 -67.326 -77.081 -62.628 -78.173 C -59.834 -78.822 -55.373 -79.658 -55.341 -83.014 C -55.317 -84.992 -55.941 -85.994 -57.733 -86.956 C -61.91 -89.203 -67.942 -89.75 -72.649 -89.76 C -76.205 -89.768 -85.657 -89.734 -86.57 -85.048 C -85.794 -84.943 -85.019 -84.838 -84.243 -84.734 C -84.222 -88.665 -84.96 -92.46 -86.144 -96.201 C -86.602 -97.649 -88.889 -97.03 -88.427 -95.571" fill="rgb(70,62,67)"/>
<path class="bulb_element04--05" d=" M -54.867 -84.509 C -54.749 -88.206 -54.559 -91.899 -54.496 -95.596 C -54.473 -97.121 -56.841 -97.122 -56.865 -95.596 C -56.928 -91.899 -57.118 -88.206 -57.236 -84.509 C -57.283 -82.985 -54.915 -82.987 -54.867 -84.509 Z " fill="rgb(70,62,67)"/>
<path class="bulb_element03--05" d=" M -86.23 -82.649 C -84.825 -78.378 -86.037 -75.657 -81.393 -73.434 C -77.138 -71.399 -72.267 -71.098 -67.626 -71.316 C -64.137 -71.481 -59.328 -71.336 -56.652 -74.001 C -53.762 -76.882 -54.402 -81.169 -55.112 -84.782 C -55.412 -86.277 -57.694 -85.643 -57.402 -84.152 C -56.604 -80.122 -56.162 -75.635 -61.192 -74.307 C -63.955 -73.578 -67.397 -73.609 -70.229 -73.624 C -73.276 -73.64 -76.302 -73.982 -79.159 -75.084 C -83.237 -76.658 -82.834 -79.9 -83.946 -83.278 C -84.42 -84.72 -86.708 -84.102 -86.23 -82.649" fill="rgb(70,62,67)"/>
<path class="bulb_element02--05" d=" M -83.831 -75.335 C -84.036 -71.755 -82.413 -68.709 -79.733 -66.39 C -77.069 -64.085 -72.989 -61.47 -69.411 -61.047 C -62.518 -60.232 -56.336 -68.904 -55.381 -74.862 C -55.144 -76.352 -57.425 -76.994 -57.662 -75.492 C -58.46 -70.553 -63.86 -62.247 -69.866 -63.529 C -75.093 -64.643 -81.787 -69.643 -81.462 -75.335 C -81.376 -76.858 -83.745 -76.853 -83.831 -75.335 Z " fill="rgb(70,62,67)"/>
<path class="bulb_element01--05" d=" M -66.726 -61.668 C -64.934 -49.083 -63.142 -36.5 -61.357 -23.916 C -59.47 -10.687 -57.599 2.552 -57.662 15.944 C -57.662 17.469 -55.294 17.471 -55.294 15.944 C -55.231 2.852 -57.015 -10.102 -58.855 -23.036 C -60.718 -36.123 -62.581 -49.21 -64.437 -62.298 C -64.65 -63.8 -66.939 -63.161 -66.726 -61.668" fill="rgb(70,62,67)"/>
</g>
<g>
<path class="bulb_element07--04" d=" M -150.617 -127.121 C -154.69 -127.179 -158.776 -127.012 -162.846 -127.2 C -166.617 -127.373 -171.292 -127.524 -174.514 -129.807 C -178.055 -132.316 -177.464 -135.477 -177.295 -139.217 C -177.099 -143.569 -177.024 -147.94 -176.94 -152.297 C -176.813 -158.8 -178.652 -163.047 -183.797 -167.124 C -189.16 -171.373 -194.527 -175.102 -198.964 -180.403 C -219.043 -204.394 -217.578 -240.092 -196.794 -263.186 C -176.832 -285.368 -137.506 -294.721 -113.117 -274.269 C -90.32 -255.154 -86.285 -219.454 -98.882 -193.575 C -106.407 -178.117 -119.156 -167.604 -135.053 -161.632 C -137.469 -160.725 -140.061 -159.541 -141.198 -157.049 C -142.647 -153.874 -141.458 -149.635 -141.174 -146.326 C -140.793 -141.891 -140.04 -137.132 -140.437 -132.681 C -140.977 -126.65 -145.988 -127.021 -150.617 -127.121 C -152.141 -127.154 -152.141 -124.786 -150.617 -124.752 C -145.512 -124.642 -139.854 -124.519 -138.393 -130.497 C -137.462 -134.311 -138.217 -138.673 -138.501 -142.533 C -138.83 -146.975 -141.398 -155.606 -136.675 -158.361 C -133.687 -160.101 -130.058 -160.846 -126.913 -162.318 C -123.223 -164.048 -119.721 -166.177 -116.46 -168.617 C -110.572 -173.023 -105.468 -178.412 -101.362 -184.512 C -84.297 -209.864 -85.358 -247.241 -105.818 -270.438 C -127.265 -294.754 -165.788 -291.506 -189.843 -272.842 C -214.406 -253.784 -222.971 -219.003 -208.836 -191.119 C -204.951 -183.454 -199.515 -176.51 -192.9 -171.013 C -189.811 -168.445 -186.267 -166.404 -183.349 -163.639 C -179.093 -159.61 -179.239 -154.843 -179.387 -149.39 C -179.515 -144.668 -179.957 -139.881 -179.922 -135.166 C -179.901 -132.288 -178.702 -130.162 -176.475 -128.351 C -169.867 -122.979 -158.431 -124.865 -150.617 -124.752 C -149.091 -124.731 -149.091 -127.1 -150.617 -127.121" fill="rgb(70,62,67)"/>
<path class="bulb_element06--04" d=" M -161.774 -156.072 C -158.421 -165.152 -155.408 -174.349 -152.265 -183.503 C -149.138 -192.609 -145.205 -201.584 -142.944 -210.959 C -141.806 -215.678 -139.584 -224.521 -145.708 -226.954 C -152.725 -229.741 -156.322 -221.133 -157.554 -216.02 C -156.832 -216.114 -156.11 -216.208 -155.389 -216.302 C -157.945 -220.221 -161.317 -227.45 -167.383 -224.888 C -173.109 -222.468 -168.834 -213.779 -167.235 -210.039 C -159.72 -192.468 -154.094 -174.492 -151.107 -155.585 C -150.87 -154.084 -148.587 -154.721 -148.823 -156.215 C -150.888 -169.283 -154.084 -182.146 -158.515 -194.616 C -160.648 -200.62 -163.245 -206.395 -165.635 -212.293 C -166.645 -214.786 -170.414 -224.154 -164.01 -222.787 C -160.634 -222.066 -159.115 -217.685 -157.434 -215.108 C -156.902 -214.292 -155.519 -214.353 -155.269 -215.39 C -154.438 -218.844 -153.217 -224.068 -149.015 -224.851 C -142.573 -226.051 -143.957 -217.865 -144.604 -214.446 C -145.876 -207.731 -148.388 -201.341 -150.73 -194.948 C -155.375 -182.271 -159.381 -169.369 -164.058 -156.702 C -164.586 -155.27 -162.298 -154.652 -161.774 -156.072" fill="rgb(70,62,67)"/>
<path class="bulb_element05--04" d=" M -177.547 -153.939 C -165.546 -155.776 -153.456 -155.22 -141.663 -152.343 C -140.183 -151.982 -139.551 -154.265 -141.033 -154.627 C -153.257 -157.608 -165.741 -158.126 -178.177 -156.223 C -179.679 -155.994 -179.041 -153.711 -177.547 -153.939" fill="rgb(70,62,67)"/>
<path class="bulb_element04--04" d=" M -177.88 -145.793 C -165.256 -144.565 -152.594 -143.973 -139.909 -144.018 C -138.385 -144.023 -138.382 -146.391 -139.909 -146.386 C -152.594 -146.341 -165.256 -146.934 -177.88 -148.161 C -179.396 -148.308 -179.386 -145.939 -177.88 -145.793 Z " fill="rgb(70,62,67)"/>
<path class="bulb_element03--04" d=" M -176.899 -136.854 C -164.392 -135.923 -151.863 -135.638 -139.327 -136.002 C -137.807 -136.047 -137.8 -138.415 -139.327 -138.37 C -151.863 -138.007 -164.392 -138.291 -176.899 -139.222 C -178.419 -139.336 -178.412 -136.966 -176.899 -136.854 Z " fill="rgb(70,62,67)"/>
<path class="bulb_element02--04" d=" M -169.817 -125.573 C -168.963 -122.796 -169.224 -119.246 -167.282 -116.9 C -165.429 -114.659 -162.378 -114.909 -159.745 -114.816 C -156.981 -114.717 -153.092 -113.918 -150.557 -115.482 C -147.602 -117.305 -147.385 -121.778 -146.952 -124.799 C -146.739 -126.29 -149.02 -126.934 -149.237 -125.429 C -149.636 -122.639 -149.592 -119.162 -152.322 -117.779 C -154.636 -116.608 -157.194 -117.088 -159.745 -117.185 C -162.557 -117.29 -165.419 -117.176 -166.351 -120.482 C -166.882 -122.362 -166.957 -124.329 -167.534 -126.203 C -167.98 -127.655 -170.268 -127.036 -169.817 -125.573 Z " fill="rgb(70,62,67)"/>
<path class="bulb_element01--04" d=" M -160.112 -115.327 C -163.31 -103.719 -164.904 -91.729 -164.681 -79.684 C -164.454 -67.438 -161.936 -55.869 -158.954 -44.053 C -156.391 -33.897 -154.77 -23.169 -155.301 -12.666 C -155.786 -3.075 -157.869 6.439 -159.144 15.944 C -159.345 17.45 -156.975 17.436 -156.775 15.944 C -155.54 6.733 -153.567 -2.461 -152.985 -11.749 C -152.388 -21.259 -153.589 -31.094 -155.637 -40.375 C -158.381 -52.815 -161.788 -64.655 -162.255 -77.497 C -162.712 -90.066 -161.166 -102.578 -157.829 -114.698 C -157.423 -116.169 -159.707 -116.797 -160.112 -115.327 Z " fill="rgb(70,62,67)"/>
</g>
<g>
<path class="bulb_element08--03" d=" M -268.282 -187.462 C -266.079 -193.464 -270.504 -198.998 -275.905 -201.218 C -282.593 -203.966 -290.201 -203.933 -297.057 -206.404 C -313.241 -212.236 -324.888 -224.547 -329.395 -241.184 C -337.625 -271.561 -327.709 -306.531 -303.657 -327.106 C -280.105 -347.256 -244.588 -352.537 -217.163 -337.273 C -204.412 -330.177 -193.821 -319.245 -187.141 -306.271 C -178.991 -290.444 -178.375 -272.972 -181.361 -255.684 C -184.525 -237.362 -190.95 -217.205 -208.011 -207.27 C -212.147 -204.862 -216.56 -203.456 -221.27 -202.727 C -225.706 -202.041 -230.355 -201.757 -234.473 -199.803 C -239.879 -197.239 -244.215 -191.068 -241.775 -185.056 C -241.209 -183.662 -238.917 -184.272 -239.49 -185.686 C -241.393 -190.371 -238.321 -194.987 -234.22 -197.282 C -229.929 -199.685 -224.679 -199.754 -219.946 -200.548 C -212.716 -201.759 -206.216 -204.906 -200.629 -209.639 C -187.705 -220.587 -182.294 -237.426 -179.345 -253.549 C -176.344 -269.954 -176.13 -286.746 -182.701 -302.33 C -188.237 -315.458 -197.599 -326.867 -209.227 -335.073 C -234.04 -352.582 -267.364 -352.344 -293.313 -337.299 C -319.919 -321.874 -335.126 -291.742 -334.575 -261.316 C -334.263 -244.06 -329.315 -225.984 -315.756 -214.448 C -309.521 -209.143 -302.098 -205.32 -294.263 -202.997 C -287.216 -200.907 -266.037 -200.434 -270.566 -188.091 C -271.092 -186.658 -268.803 -186.04 -268.282 -187.462" fill="rgb(70,62,67)"/>
<path class="bulb_element07--03" d=" M -258.395 -185.446 C -259.924 -198.276 -262.288 -210.977 -265.649 -223.458 C -267.417 -230.022 -269.44 -236.517 -271.67 -242.94 C -273.109 -247.084 -274.538 -251.921 -278.178 -254.718 C -285.085 -260.021 -294.258 -253.19 -289.193 -245.375 C -286.846 -241.755 -282.366 -240.56 -278.349 -239.998 C -272.84 -239.226 -266.829 -239.035 -261.572 -241.14 C -255.397 -243.615 -246.791 -253.699 -253.741 -260.009 C -256.358 -262.383 -260.43 -261.797 -262.795 -259.351 C -265.504 -256.546 -265.422 -252.12 -263.955 -248.749 C -260.46 -240.708 -250.474 -238.246 -242.48 -238.746 C -238.443 -238.999 -233.621 -239.878 -231.341 -243.629 C -229.69 -246.347 -229.803 -250.097 -232.556 -252.027 C -235.662 -254.205 -240.059 -252.78 -242.355 -250.107 C -246.165 -245.67 -245.739 -238.086 -246.269 -232.657 C -247.839 -216.578 -249.411 -200.498 -250.981 -184.418 C -251.129 -182.902 -248.759 -182.912 -248.612 -184.418 C -247.017 -200.753 -245.422 -217.088 -243.825 -233.423 C -243.469 -237.075 -243.41 -240.968 -242.452 -244.521 C -241.925 -246.48 -241.03 -248.565 -239.262 -249.749 C -238.48 -250.274 -237.166 -250.718 -236.171 -250.711 C -233.419 -250.692 -231.992 -247.016 -233.387 -244.823 C -236.889 -239.32 -247.866 -240.629 -253.067 -242.403 C -256.042 -243.419 -258.912 -245.132 -260.732 -247.762 C -261.838 -249.361 -262.597 -251.322 -262.62 -253.281 C -262.668 -257.112 -258.174 -261.699 -255.072 -257.468 C -252.48 -253.932 -254.542 -249.377 -257.375 -246.59 C -260.395 -243.617 -264.577 -242.287 -268.721 -241.949 C -272.484 -241.642 -276.507 -241.902 -280.201 -242.696 C -284.006 -243.513 -290.655 -247.276 -287.823 -252.26 C -284.597 -257.938 -278.038 -251.865 -276.343 -248.496 C -274.592 -245.015 -273.512 -241.109 -272.3 -237.419 C -266.742 -220.504 -262.871 -203.126 -260.763 -185.446 C -260.584 -183.952 -258.214 -183.933 -258.395 -185.446" fill="rgb(70,62,67)"/>
<path class="bulb_element06--03" d=" M -269.718 -184.89 C -264.363 -182.941 -258.791 -182.441 -253.12 -182.734 C -250.32 -182.877 -247.532 -183.193 -244.753 -183.549 C -243.138 -183.756 -241.11 -183.619 -240.02 -184.981 C -239.076 -186.159 -240.742 -187.845 -241.694 -186.655 C -242.602 -185.524 -246.64 -185.674 -248.233 -185.504 C -250.551 -185.258 -252.877 -185.074 -255.209 -185.03 C -259.979 -184.943 -264.595 -185.539 -269.089 -187.174 C -270.524 -187.696 -271.142 -185.408 -269.718 -184.89" fill="rgb(70,62,67)"/>
<path class="bulb_element05--03" d=" M -271.262 -187.606 C -273.151 -180.851 -273.136 -173.389 -270.35 -166.857 C -267.955 -161.239 -260.303 -161.796 -255.073 -161.687 C -250.113 -161.585 -242.047 -160.83 -239.517 -166.265 C -236.555 -172.631 -237.223 -181.238 -238.678 -187.869 C -239.004 -189.357 -241.288 -188.727 -240.962 -187.239 C -239.745 -181.691 -239.573 -176.019 -240.764 -170.444 C -241.51 -166.948 -242.953 -164.905 -246.67 -164.418 C -249.441 -164.055 -252.284 -163.998 -255.073 -164.055 C -258.024 -164.118 -260.983 -164.355 -263.893 -164.846 C -267.245 -165.412 -268.32 -167.692 -269.162 -170.726 C -270.655 -176.103 -270.473 -181.631 -268.978 -186.976 C -268.567 -188.446 -270.852 -189.073 -271.262 -187.606" fill="rgb(70,62,67)"/>
<path class="bulb_element04--03" d=" M -270.896 -177.273 C -260.27 -174.979 -249.892 -174.994 -239.271 -177.316 C -237.783 -177.641 -238.413 -179.926 -239.901 -179.6 C -250.126 -177.364 -260.034 -177.349 -270.266 -179.556 C -271.753 -179.877 -272.388 -177.594 -270.896 -177.273" fill="rgb(70,62,67)"/>
<path class="bulb_element03--03" d=" M -270.84 -169.934 C -260.125 -167.026 -248.97 -165.788 -238.615 -170.609 C -237.234 -171.252 -238.436 -173.295 -239.811 -172.654 C -249.543 -168.124 -260.176 -169.495 -270.21 -172.217 C -271.683 -172.617 -272.312 -170.333 -270.84 -169.934 Z " fill="rgb(70,62,67)"/>
<path class="bulb_element02--03" d=" M -264.203 -161.164 C -262.995 -157.283 -262.255 -152.519 -260.279 -148.957 C -258.789 -146.273 -255.934 -145.936 -253.103 -146.401 C -245.226 -147.695 -244.853 -156.342 -244.058 -162.877 C -243.874 -164.387 -246.245 -164.374 -246.426 -162.877 C -247.045 -157.794 -247.505 -148.675 -254.369 -148.607 C -259.692 -148.556 -260.679 -157.809 -261.919 -161.793 C -262.371 -163.245 -264.658 -162.626 -264.203 -161.164" fill="rgb(70,62,67)"/>
<path class="bulb_element01--03" d=" M -255.367 -147.489 C -258.897 -136.48 -262.385 -125.384 -264.063 -113.914 C -265.354 -105.082 -266.577 -94.095 -262.793 -85.675 C -260.35 -80.24 -254.375 -76.055 -248.298 -78.369 C -242.494 -80.578 -242.041 -87.95 -245.855 -92.22 C -250.591 -97.524 -258.91 -95.774 -263.662 -91.476 C -270.167 -85.59 -272.72 -75.443 -273.631 -67.076 C -274.832 -56.058 -269.938 -44.94 -275.046 -34.558 C -277.071 -30.441 -280.124 -25.57 -284.847 -24.283 C -287.859 -23.462 -292.309 -25.01 -293.008 -28.454 C -294.159 -34.133 -286.698 -34.463 -283.385 -32.516 C -273.952 -26.971 -270.694 -15.989 -268.073 -6.181 C -266.096 1.219 -265.76 8.318 -265.758 15.944 C -265.758 17.469 -263.389 17.471 -263.389 15.944 C -263.391 9.819 -263.373 3.748 -264.672 -2.267 C -266.274 -9.689 -268.046 -18.199 -272.384 -24.552 C -275.841 -29.616 -281.831 -36.933 -288.704 -36.144 C -294.917 -35.432 -297.694 -28.51 -292.968 -24.14 C -287.46 -19.047 -280.374 -22.743 -276.444 -27.778 C -270.942 -34.826 -269.387 -42.674 -270.708 -51.346 C -272.38 -62.335 -271.643 -74.119 -266.292 -84.102 C -263.708 -88.922 -259.211 -93.41 -253.316 -93.156 C -247.473 -92.902 -241.889 -84.134 -248.626 -80.781 C -255.68 -77.27 -260.819 -85.324 -261.98 -91.027 C -263.172 -96.883 -262.879 -103.226 -262.286 -109.142 C -260.995 -122.063 -257.03 -134.55 -253.082 -146.859 C -252.615 -148.314 -254.902 -148.937 -255.367 -147.489" fill="rgb(70,62,67)"/>
</g>
<g>
<path class="bulb_element06--02" d=" M -352.013 -99.423 C -358.344 -101.771 -364.346 -104.353 -369.297 -109.095 C -373.592 -113.209 -376.793 -118.336 -379.26 -123.716 C -384.208 -134.509 -385.02 -145.943 -380.554 -157.066 C -371.437 -179.782 -345.543 -195.016 -321.355 -192.787 C -299.772 -190.799 -279.365 -174.503 -274.85 -152.935 C -270.481 -132.058 -282.463 -108.749 -302.482 -100.993 C -306.513 -99.432 -311.026 -98.154 -314.066 -94.887 C -315.357 -93.499 -316.199 -91.818 -316.511 -89.946 C -316.804 -88.184 -316.402 -85.726 -318.358 -84.67 C -319.555 -84.022 -321.586 -84.221 -322.902 -84.139 C -326.982 -83.884 -331.072 -83.715 -335.16 -83.685 C -336.666 -83.674 -338.334 -83.581 -339.786 -84.053 C -342.472 -84.93 -343.278 -87.135 -343.818 -89.594 C -344.968 -94.835 -346.964 -97.372 -352.013 -99.423 C -353.424 -99.996 -354.038 -97.706 -352.642 -97.139 C -348.498 -95.456 -347.03 -93.236 -346.102 -88.964 C -345.587 -86.597 -344.882 -84.383 -342.832 -82.914 C -338.318 -79.678 -330.314 -81.365 -325.198 -81.637 C -321.61 -81.828 -315.63 -81.264 -314.431 -85.728 C -313.897 -87.716 -314.521 -89.738 -313.503 -91.661 C -312.748 -93.087 -311.497 -94.175 -310.172 -95.053 C -307.88 -96.571 -305.229 -97.442 -302.677 -98.403 C -282.068 -106.154 -269.12 -128.417 -272.005 -150.228 C -275.004 -172.906 -295.081 -190.889 -317.146 -194.607 C -342.034 -198.798 -368.869 -184.83 -380.577 -162.6 C -386.812 -150.76 -387.626 -137.455 -382.434 -125.093 C -379.781 -118.777 -376.314 -112.714 -371.417 -107.862 C -366.092 -102.586 -359.558 -99.704 -352.642 -97.139 C -351.211 -96.609 -350.594 -98.897 -352.013 -99.423" fill="rgb(70,62,67)"/>
<path class="bulb_element05--02" d=" M -331.281 -83.569 C -336.32 -100.757 -340.458 -118.179 -343.687 -135.796 C -344.266 -135.351 -344.847 -134.906 -345.426 -134.459 C -342.277 -132.27 -339.329 -129.895 -336.512 -127.296 C -335.967 -126.793 -335.034 -126.845 -334.653 -127.535 C -332.955 -130.607 -331.726 -133.738 -330.904 -137.154 C -331.626 -137.059 -332.347 -136.965 -333.068 -136.871 C -331.627 -134.757 -330.193 -132.641 -328.745 -130.532 C -328.16 -129.68 -327.58 -128.43 -326.48 -128.136 C -323.978 -127.466 -320.725 -132.715 -319.326 -134.217 C -320 -134.496 -320.673 -134.775 -321.348 -135.054 C -319.781 -117.557 -328.005 -100.844 -325.941 -83.331 C -325.765 -81.836 -323.394 -81.817 -323.573 -83.331 C -325.635 -100.832 -317.412 -117.549 -318.979 -135.054 C -319.064 -136.01 -320.247 -136.7 -321.001 -135.892 C -322.167 -134.64 -324.671 -130.624 -326.7 -131.727 C -327.317 -132.063 -328.025 -133.67 -328.43 -134.263 C -329.293 -135.53 -330.158 -136.798 -331.023 -138.066 C -331.567 -138.862 -332.935 -138.834 -333.187 -137.783 C -333.959 -134.582 -335.102 -131.617 -336.697 -128.731 C -336.077 -128.811 -335.457 -128.89 -334.838 -128.971 C -337.801 -131.705 -340.922 -134.203 -344.231 -136.505 C -345.159 -137.15 -346.139 -136.088 -345.971 -135.167 C -342.743 -117.55 -338.604 -100.127 -333.566 -82.94 C -333.138 -81.48 -330.85 -82.102 -331.281 -83.569" fill="rgb(70,62,67)"/>
<path class="bulb_element04--02" d=" M -342.503 -84.457 C -344.381 -82.479 -344.938 -79.526 -342.581 -77.567 C -341.129 -76.362 -339.261 -76.381 -337.472 -76.235 C -334.253 -75.97 -331.012 -75.849 -327.783 -75.901 C -324.18 -75.958 -318.069 -75.456 -315.421 -78.571 C -313.649 -80.658 -313.964 -83.476 -316.5 -84.709 C -317.866 -85.373 -319.067 -83.33 -317.696 -82.664 C -317.577 -79.829 -318.708 -78.497 -321.092 -78.67 C -322.079 -78.562 -323.07 -78.477 -324.061 -78.413 C -325.797 -78.299 -327.535 -78.257 -329.275 -78.259 C -331.015 -78.262 -332.755 -78.316 -334.493 -78.408 C -335.335 -78.453 -344.764 -78.635 -340.829 -82.782 C -339.779 -83.888 -341.452 -85.565 -342.503 -84.457" fill="rgb(70,62,67)"/>
<path class="bulb_element03--02" d=" M -341.727 -78.49 C -343.368 -76.374 -345.206 -73.356 -342.874 -70.977 C -340.266 -68.315 -334.601 -69.012 -331.362 -69.197 C -326.241 -69.49 -309.283 -69.407 -315.923 -78.289 C -316.825 -79.496 -318.883 -78.317 -317.969 -77.094 C -317.358 -76.277 -316.705 -74.319 -317.701 -73.468 C -318.246 -73.001 -320.245 -72.991 -320.974 -72.869 C -323.659 -72.419 -326.351 -71.992 -329.061 -71.738 C -331.1 -71.546 -333.15 -71.439 -335.197 -71.476 C -336.388 -71.497 -338.064 -71.286 -339.133 -71.812 C -341.186 -72.823 -341.489 -74.961 -340.051 -76.815 C -339.129 -78.006 -340.793 -79.694 -341.727 -78.49" fill="rgb(70,62,67)"/>
<path class="bulb_element02--02" d=" M -338.703 -68.768 C -338.049 -66.412 -337.414 -64.05 -336.742 -61.698 C -336.512 -60.892 -336.335 -59.611 -335.625 -59.031 C -333.51 -57.303 -328.329 -58.154 -325.85 -58.349 C -324.068 -58.489 -320.107 -58.323 -318.913 -59.926 C -317.173 -62.261 -317.506 -68.238 -317.416 -70.971 C -317.366 -72.495 -319.735 -72.494 -319.784 -70.971 C -319.861 -68.632 -319.528 -64.703 -320.609 -62.704 C -320.704 -62.234 -320.797 -61.763 -320.89 -61.292 C -321.698 -61.244 -322.502 -61.152 -323.301 -61.016 C -324.611 -60.857 -325.891 -60.694 -327.211 -60.631 C -329.348 -60.529 -331.906 -60.113 -333.56 -61.518 C -335.353 -63.042 -335.8 -67.163 -336.42 -69.397 C -336.826 -70.864 -339.112 -70.241 -338.703 -68.768" fill="rgb(70,62,67)"/>
<path class="bulb_element01--02" d=" M -329.218 -59.527 C -332.257 -34.299 -324.379 -9.292 -326.999 15.944 C -327.156 17.46 -324.786 17.448 -324.63 15.944 C -322.011 -9.292 -329.889 -34.298 -326.85 -59.527 C -326.667 -61.036 -329.038 -61.023 -329.218 -59.527 Z " fill="rgb(70,62,67)"/>
</g>
<g>
<path class="bulb_element07--01" d=" M -445.896 -39.667 C -446.255 -46.09 -449.477 -51.695 -454.502 -55.666 C -457.726 -58.215 -461.12 -60.302 -463.928 -63.368 C -466.937 -66.655 -469.352 -70.525 -470.958 -74.687 C -477.222 -90.925 -470.223 -111.054 -458.842 -123.448 C -452.405 -130.46 -442.908 -133.305 -433.677 -134.14 C -425.004 -134.923 -415.486 -134.098 -407.889 -129.501 C -392.246 -120.034 -386.27 -98.428 -393.841 -82.106 C -397.817 -73.535 -404.355 -66.418 -411.177 -60.015 C -414.032 -57.335 -418.682 -54.618 -420.4 -51.007 C -421.826 -48.01 -420.41 -44.195 -419.462 -41.294 C -418.99 -39.851 -416.701 -40.469 -417.177 -41.923 C -417.819 -43.885 -418.874 -46.366 -418.604 -48.481 C -418.228 -51.408 -415.009 -53.359 -413.01 -55.141 C -409.327 -58.42 -405.746 -61.825 -402.442 -65.49 C -396.963 -71.568 -392.106 -78.462 -389.689 -86.36 C -384.895 -102.022 -391.274 -120.494 -404.541 -130.108 C -417.707 -139.651 -439.609 -138.825 -453.345 -130.878 C -460.72 -126.611 -465.551 -119.239 -469.329 -111.802 C -473.28 -104.022 -475.938 -95.411 -475.716 -86.615 C -475.503 -78.22 -472.449 -70.03 -467.163 -63.51 C -460.511 -55.306 -448.936 -51.686 -448.265 -39.667 C -448.18 -38.151 -445.812 -38.141 -445.896 -39.667 Z " fill="rgb(70,62,67)"/>
<path class="bulb_element06--01" d=" M -435.485 -40.59 C -436.402 -50.04 -438.335 -59.334 -441.415 -68.321 C -442.762 -72.247 -445.108 -81.756 -451.097 -80.69 C -452.94 -80.362 -454.696 -78.535 -455.111 -76.72 C -455.774 -73.825 -452.861 -71.692 -450.6 -70.558 C -445.188 -67.841 -437.833 -68.629 -433.63 -73.181 C -431.337 -75.664 -429.269 -82.381 -434.078 -83.561 C -439.27 -84.835 -441.156 -79.855 -438.7 -76.035 C -435.368 -70.852 -427.194 -70.396 -421.723 -71.375 C -417.403 -72.148 -415.428 -76.086 -418.494 -79.81 C -423.674 -86.101 -428.655 -76.711 -429.387 -72.357 C -431.121 -62.037 -431.119 -51.144 -431.129 -40.706 C -431.131 -39.182 -428.762 -39.179 -428.761 -40.706 C -428.755 -46.454 -428.608 -52.2 -428.276 -57.939 C -427.978 -63.081 -428.049 -68.734 -426.699 -73.733 C -426.093 -75.972 -421.787 -83.173 -419.749 -77.201 C -418.502 -73.545 -423.15 -73.532 -425.284 -73.528 C -427.529 -73.524 -429.97 -73.45 -432.117 -74.131 C -433.78 -74.659 -435.666 -75.726 -436.655 -77.23 C -437.437 -78.42 -438.869 -81.889 -435.233 -81.285 C -431.653 -80.692 -434.387 -75.779 -435.669 -74.496 C -437.666 -72.499 -440.562 -71.448 -443.358 -71.366 C -445.886 -71.291 -450.094 -71.99 -451.799 -74.195 C -453.874 -76.88 -450.897 -78.718 -448.848 -77.856 C -447.632 -77.344 -446.649 -75.263 -446.134 -74.153 C -441.34 -63.821 -438.946 -51.854 -437.854 -40.59 C -437.709 -39.087 -435.338 -39.073 -435.485 -40.59" fill="rgb(70,62,67)"/>
<path class="bulb_element05--01" d=" M -446.759 -39.888 C -448.827 -39.047 -450.686 -37.482 -448.898 -35.235 C -447.246 -33.161 -443.881 -33.022 -441.483 -32.767 C -433.519 -31.925 -424.46 -31.394 -416.68 -33.859 C -414.904 -34.421 -412.464 -35.368 -412.079 -37.468 C -411.649 -39.806 -413.834 -41.469 -415.845 -41.995 C -420.385 -43.185 -426.373 -41.719 -431.01 -41.399 C -436.223 -41.039 -441.631 -40.929 -446.759 -39.888 C -448.251 -39.585 -447.62 -37.301 -446.129 -37.603 C -440.251 -38.797 -434.001 -38.824 -428.03 -39.233 C -425.306 -39.419 -422.565 -39.728 -419.837 -39.818 C -418.22 -39.872 -413.23 -39.508 -415.909 -36.694 C -416.458 -36.116 -417.889 -35.972 -418.63 -35.792 C -423.014 -34.729 -427.743 -34.546 -432.23 -34.528 C -434.87 -34.518 -437.463 -34.731 -440.087 -35.002 C -440.991 -35.096 -441.898 -35.165 -442.799 -35.292 C -442.805 -35.293 -448.313 -36.716 -446.129 -37.603 C -444.735 -38.17 -445.346 -40.462 -446.759 -39.888" fill="rgb(70,62,67)"/>
<path class="bulb_element04--01" d=" M -446.999 -35.311 C -450.335 -33.838 -452.213 -30.279 -447.776 -28.771 C -444.653 -27.709 -440.703 -27.947 -437.45 -27.814 C -433.158 -27.638 -428.867 -27.649 -424.574 -27.8 C -420.936 -27.928 -415.095 -27.179 -411.96 -29.487 C -408.639 -31.931 -411.551 -35.388 -414.103 -36.986 C -415.399 -37.797 -416.589 -35.75 -415.299 -34.94 C -413.327 -33.705 -412.263 -31.51 -414.984 -30.796 C -416.13 -30.495 -417.339 -30.453 -418.516 -30.384 C -421.21 -30.226 -423.924 -30.172 -426.622 -30.101 C -430.476 -30.001 -434.334 -30.036 -438.185 -30.212 C -440.133 -30.301 -442.084 -30.416 -444.026 -30.596 C -445.088 -30.622 -446.127 -30.775 -447.146 -31.054 C -447.347 -32.332 -446.9 -33.069 -445.805 -33.266 C -444.413 -33.88 -445.617 -35.922 -446.999 -35.311" fill="rgb(70,62,67)"/>
<path class="bulb_element03--01" d=" M -447.236 -29.981 C -450.177 -27.411 -448.082 -24.289 -444.813 -23.435 C -439.157 -21.959 -432.583 -23.163 -426.856 -23.359 C -422.241 -23.516 -415.426 -22.237 -411.162 -24.628 C -408.038 -26.38 -407.791 -29.663 -410.817 -31.466 C -412.13 -32.247 -413.322 -30.2 -412.013 -29.421 C -411.593 -27.451 -412.128 -26.402 -413.614 -26.277 C -414.484 -26.091 -415.36 -25.972 -416.244 -25.917 C -417.227 -25.837 -418.22 -25.825 -419.204 -25.803 C -422.215 -25.736 -425.227 -25.824 -428.235 -25.664 C -431.207 -25.506 -434.153 -25.234 -437.131 -25.284 C -438.17 -25.3 -439.21 -25.342 -440.249 -25.394 C -440.558 -25.41 -448.274 -25.936 -445.561 -28.307 C -444.412 -29.312 -446.093 -30.981 -447.236 -29.981" fill="rgb(70,62,67)"/>
<path class="bulb_element02--01" d=" M -444.914 -25.106 C -447.834 -23.801 -447.878 -19.492 -445.273 -17.847 C -443.285 -16.592 -440.801 -16.852 -438.583 -16.901 C -434.46 -16.991 -430.339 -17.201 -426.218 -17.389 C -422.121 -17.574 -417.877 -17.364 -413.805 -17.781 C -412.132 -17.951 -409.988 -18.197 -408.707 -19.37 C -406.471 -21.417 -407.85 -25.099 -410.291 -26.268 C -411.66 -26.922 -412.863 -24.881 -411.487 -24.222 C -409.34 -23.195 -410.605 -21.097 -412.087 -20.463 C -413.426 -19.893 -415.512 -20.132 -416.934 -20.102 C -419.773 -20.04 -422.611 -19.92 -425.448 -19.792 C -428.274 -19.665 -431.101 -19.523 -433.928 -19.415 C -435.48 -19.356 -437.031 -19.303 -438.583 -19.269 C -439.104 -19.259 -439.625 -19.25 -440.145 -19.24 C -442.392 -18.749 -443.583 -20.023 -443.719 -23.061 C -442.329 -23.682 -443.533 -25.723 -444.914 -25.106" fill="rgb(70,62,67)"/>
<path class="bulb_element01--01" d=" M -430.738 -18.635 C -431.474 -13.136 -430.491 -8.375 -428.608 -3.214 C -426.023 3.867 -429.028 9.399 -432.838 15.347 C -433.663 16.635 -431.613 17.824 -430.793 16.543 C -427.727 11.758 -424.322 6.377 -425.128 0.421 C -425.498 -2.314 -426.801 -4.79 -427.596 -7.405 C -428.719 -11.101 -428.878 -14.828 -428.369 -18.635 C -428.168 -20.14 -430.539 -20.126 -430.738 -18.635" fill="rgb(70,62,67)"/>
</g>
</svg>
