<?xml version="1.0" standalone="no"?><!-- Generator: Gravit.io --><svg xmlns="http://www.w3.org/2000/svg" xmlns:xlink="http://www.w3.org/1999/xlink" style="isolation:isolate" viewBox="185 401 208.049 367" width="208.049px" height="367px"><g><path d=" M 357.111 554.776 C 371.539 541.133 380.609 521.868 385.106 502.815 C 389.463 484.36 389.673 464.547 383.356 447.387 C 377.324 431.006 365.196 418.61 349.515 412.285 C 334.708 406.314 317.899 405.547 301.712 408.233 C 298.101 408.044 294.447 408.339 290.763 409.442 C 281.197 412.309 273.11 419.216 265.633 426.028 C 258.275 432.734 250.91 439.538 244.379 447.139 C 231.357 462.299 223.884 480.469 226.966 499.975 C 230.149 520.107 242.488 536.108 257.641 547.684 C 284.701 568.355 326.425 583.79 357.111 554.776" fill="rgb(180,235,202)"/><path d=" M 244.405 569.442 C 242.677 568.614 240.887 568.518 239.286 569.697 C 237.59 570.945 236.814 573.457 235.957 575.292 C 233.46 580.642 231.49 586.237 230.125 591.982 C 229.591 594.228 228.9 596.586 230.302 598.652 C 231.631 600.61 233.93 602.147 235.783 603.573 C 240.197 606.97 245.04 609.765 250.182 611.904 C 255.598 614.158 261.37 615.15 266.851 617.182 C 269.349 618.108 272.079 619.259 274.708 618.119 C 276.71 617.251 277.792 615.292 278.644 613.391 C 281.233 607.619 283.709 601.792 286.24 595.993 C 287.151 593.906 288.3 591.591 286.799 589.491 C 285.456 587.614 282.787 586.658 280.823 585.629 C 274.986 582.569 269.024 579.896 262.815 577.682 C 256.457 575.415 250.033 573.266 244.405 569.442 C 244.101 570.162 243.798 570.882 243.495 571.601 C 243.85 571.672 244.206 571.741 244.561 571.811 C 244.944 571.887 245.445 571.844 245.711 571.508 C 256.073 558.393 252.263 539.31 247.795 524.664 C 242.398 506.971 234.242 489.902 234.731 470.994 C 235.161 454.413 240.604 437.433 252.27 425.311 C 265.26 411.814 284.648 404.505 303.117 403.481 C 331.515 401.908 361.458 415.088 378.101 438.44 C 386.735 450.554 391.26 465.13 390.679 480.021 C 390.056 496.021 383.82 511.423 374.528 524.329 C 365.098 537.425 352.272 548.282 337.553 554.966 C 328.704 558.985 319.147 560.829 309.948 563.824 C 301.57 566.552 294.272 570.945 288.31 577.503 C 285.635 580.447 283.294 583.712 281.648 587.343 C 282.187 587.201 282.726 587.061 283.264 586.919 C 279.655 585.114 276.046 583.309 272.437 581.504 C 272.578 582.043 272.72 582.582 272.861 583.121 C 281.001 565.838 289.441 548.271 300.939 532.927 C 303.905 528.968 307.305 525.459 310.471 521.677 C 311.804 520.084 312.96 518.355 314.295 516.76 C 315.32 515.535 316.528 513.466 318.347 513.502 C 320.049 513.536 321.91 515.287 322.783 516.612 C 324.182 518.732 323.299 520.389 321.025 521.229 C 319.419 521.823 317.679 522.032 315.994 522.275 C 313.386 522.652 310.767 523.029 308.129 523.091 C 303.884 523.191 299.556 522.321 296.331 519.372 C 294.971 518.128 293.895 516.595 293.385 514.811 C 292.758 512.619 292.039 510.173 291.887 507.895 C 291.682 504.824 293.372 501.829 296.744 503.131 C 297.979 503.607 299.223 504.557 299.246 506.006 C 299.278 508.097 297.388 510.176 296.145 511.685 C 294.706 513.434 293.129 515.145 291.386 516.598 C 289.163 518.452 286.675 518.817 283.913 517.976 C 279.938 516.766 276.644 513.823 274.83 510.108 C 273.926 508.256 273.111 506.355 274.258 504.398 C 274.692 503.656 275.83 502.425 276.809 502.498 C 277.821 502.574 279.005 504.066 279.515 504.831 C 281.5 507.808 280.981 512.079 280.791 515.454 C 280.196 526.021 277.408 536.296 273.859 546.219 C 270.098 556.731 265.569 566.949 260.359 576.823 C 259.65 578.167 261.689 579.362 262.399 578.016 C 268.16 567.097 273.097 555.75 277.109 544.075 C 280.875 533.115 283.742 521.231 283.223 509.556 C 283.07 506.104 281.399 501.188 277.552 500.224 C 273.379 499.177 270.595 504.938 271.531 508.26 C 272.785 512.715 276.038 516.704 280.084 518.906 C 282.198 520.056 284.66 520.89 287.09 520.821 C 289.617 520.75 291.674 519.51 293.512 517.87 C 295.576 516.029 297.426 513.937 299.096 511.736 C 300.392 510.026 301.714 507.973 301.59 505.732 C 301.418 502.618 298.157 500.511 295.243 500.442 C 285.558 500.213 290.248 516.511 294.085 520.48 C 297.362 523.87 302.016 525.344 306.635 525.456 C 309.736 525.532 312.821 525.096 315.882 524.66 C 318.114 524.342 320.433 524.099 322.51 523.167 C 326.475 521.388 326.675 517.418 323.996 514.331 C 321.182 511.088 317.133 509.969 314.043 513.378 C 312.468 515.117 311.062 517.004 309.664 518.884 C 307.764 521.437 305.431 523.67 303.368 526.092 C 299.422 530.724 295.865 535.719 292.581 540.837 C 285.891 551.263 280.251 562.39 274.84 573.518 C 273.481 576.313 272.144 579.118 270.821 581.928 C 270.563 582.475 270.634 583.239 271.244 583.545 C 274.853 585.349 278.463 587.154 282.072 588.959 C 282.597 589.222 283.411 589.146 283.688 588.535 C 287.362 580.428 294.498 573.643 302.271 569.455 C 311.153 564.669 321.651 563.282 331.129 560.035 C 346.529 554.758 360.236 544.969 370.878 532.715 C 381.48 520.507 389.33 505.562 392.04 489.537 C 394.579 474.522 392.33 459.074 385.255 445.56 C 371.796 419.855 343.435 403.752 315.006 401.309 C 297.344 399.792 279.118 403.879 263.964 413.133 C 256.499 417.691 249.908 423.449 244.863 430.622 C 240.129 437.353 236.815 445.057 234.803 453.02 C 232.697 461.35 231.872 470.139 232.577 478.707 C 233.343 488.015 235.921 497.007 238.911 505.815 C 244.514 522.325 252.675 540.531 249.096 558.363 C 248.263 562.515 246.68 566.496 244.04 569.837 C 244.423 569.736 244.806 569.634 245.189 569.533 C 244.834 569.463 244.478 569.393 244.123 569.323 C 242.802 569.063 242.084 570.716 243.212 571.482 C 250.957 576.744 260.154 578.866 268.692 582.433 C 273.537 584.456 278.276 586.833 282.861 589.388 C 283.721 589.867 284.849 590.378 285.156 591.407 C 285.548 592.717 284.225 594.744 283.742 595.85 C 282.674 598.298 281.605 600.746 280.536 603.194 C 279.57 605.409 278.603 607.624 277.636 609.839 C 276.745 611.879 275.836 615.309 273.457 616.088 C 271.111 616.855 268.292 615.15 266.121 614.419 C 263.729 613.615 261.27 613.029 258.838 612.363 C 249.723 609.865 241.224 605.423 234.121 599.166 C 233.086 598.255 231.853 597.349 231.795 595.846 C 231.742 594.486 232.326 592.888 232.656 591.575 C 233.318 588.934 234.108 586.325 235.02 583.759 C 235.977 581.065 237.07 578.422 238.3 575.842 C 239.248 573.856 240.263 570.068 243.212 571.482 C 244.577 572.136 245.777 570.099 244.405 569.442 L 244.405 569.442" fill="rgb(70,62,67)"/><path d=" M 232.383 590.431 C 237.383 593.524 242.516 596.422 247.715 599.168 C 254.145 602.564 260.841 605.053 267.708 607.409 C 269.41 607.993 271.112 608.58 272.803 609.195 C 274.264 609.726 275.782 610.491 277.361 610.573 C 279.108 610.664 280.193 609.981 280.819 608.46 C 281.965 605.676 283.104 602.889 284.247 600.104 C 284.493 599.503 283.975 598.814 283.421 598.65 C 275.071 596.168 266.847 592.688 258.852 589.244 C 251.078 585.895 243.51 582.066 236.526 577.263 C 235.27 576.399 234.087 578.446 235.334 579.303 C 242.513 584.24 250.309 588.145 258.309 591.562 C 266.291 594.973 274.468 598.454 282.794 600.929 C 282.518 600.444 282.244 599.96 281.968 599.475 C 280.941 601.979 279.914 604.483 278.887 606.987 C 278.747 607.329 278.592 608.123 278.316 608.379 C 278.348 608.349 277.51 608.225 277.112 608.171 C 276.542 608.093 275.993 607.858 275.454 607.668 C 272.172 606.51 268.9 605.33 265.61 604.195 C 254.256 600.278 243.775 594.698 233.575 588.391 C 232.278 587.589 231.091 589.632 232.383 590.431 L 232.383 590.431" fill="rgb(70,62,67)"/><path d=" M 270.35 616.492 C 268.514 617.953 266.497 619.343 264.545 620.696 C 263.386 621.5 262.22 622.304 261.009 623.028 C 259.371 624.009 258.2 623.417 256.372 622.832 C 251.376 621.232 246.585 619.04 242.099 616.322 C 239.975 615.036 236.296 613.409 236.28 610.662 C 236.263 607.708 236.286 604.753 236.288 601.799 C 236.29 600.279 233.927 600.276 233.925 601.799 C 233.924 603.597 233.922 605.396 233.92 607.194 C 233.919 608.841 233.697 610.679 234.008 612.298 C 234.457 614.636 237.013 615.864 238.842 617.062 C 243.882 620.364 249.363 622.998 255.081 624.895 C 256.925 625.506 259.18 626.551 261.083 625.687 C 262.358 625.108 263.535 624.238 264.689 623.456 C 267.178 621.769 269.667 620.036 272.021 618.163 C 273.211 617.217 271.529 615.554 270.35 616.492 L 270.35 616.492" fill="rgb(70,62,67)"/><path d=" M 186.994 767.629 C 193.404 760.674 200.09 753.944 205.922 746.482 C 208.693 742.938 211.338 739.248 213.506 735.298 C 215.874 730.986 217.676 726.398 219.649 721.897 C 220.495 719.967 221.369 718.049 222.334 716.179 C 223.419 714.072 224.599 711.386 226.474 709.85 C 230.398 706.641 235.422 711.335 236.123 715.241 C 236.87 719.412 233.585 723.141 229.521 723.681 C 227.549 723.941 225.005 723.377 223.931 721.519 C 222.756 719.483 223.453 715.974 223.675 713.745 C 224.624 704.219 228.065 695.15 231.287 686.212 C 232.921 681.676 234.598 677.121 235.832 672.455 C 236.88 668.489 237.417 664.163 235.422 660.397 C 233.831 657.395 230.717 655.31 227.248 655.766 C 223.633 656.24 220.683 659.105 219.769 662.581 C 218.214 668.488 222.833 679.505 230.487 675.981 C 234.013 674.359 235.684 670.367 237.023 666.985 C 238.915 662.204 240.556 657.327 241.982 652.388 C 244.957 642.087 246.999 631.547 248.861 620.997 C 249.123 619.51 246.847 618.871 246.582 620.369 C 244.934 629.712 243.145 639.043 240.69 648.213 C 239.508 652.626 238.172 656.998 236.641 661.302 C 235.315 665.036 234.108 669.727 231.205 672.598 C 227.37 676.39 223.251 672.432 222.149 668.338 C 220.966 663.942 223.078 657.78 228.524 658.056 C 233.781 658.323 234.855 664.88 234.204 668.908 C 233.451 673.572 231.65 678.161 230.077 682.598 C 226.931 691.478 223.39 700.32 221.855 709.661 C 221.52 711.701 221.271 713.753 221.147 715.816 C 221.025 717.864 220.757 720.27 221.636 722.196 C 223.048 725.287 226.837 726.469 229.993 725.996 C 236.867 724.964 240.719 717.502 237.185 711.426 C 235.524 708.57 232.444 706.472 229.07 706.511 C 224.873 706.562 222.712 710.496 220.949 713.745 C 218.376 718.482 216.469 723.535 214.254 728.442 C 212.082 733.254 209.462 737.739 206.359 742.012 C 200.103 750.625 192.519 758.154 185.323 765.959 C 184.294 767.074 185.961 768.751 186.994 767.629 L 186.994 767.629 Z " fill="rgb(70,62,67)"/></g></svg>