<svg xmlns="http://www.w3.org/2000/svg" style="isolation:isolate" viewBox="57.129 -7.698 15.871 21.286">
<style>
  #light {
    opacity: 0;
    -webkit-transition: 400ms cubic-bezier(0.215, 0.610, 0.355, 1) 0.0001s;
    -o-transition: 400ms cubic-bezier(0.215, 0.610, 0.355, 1) 0.0001s;
    transition: opacity 400ms cubic-bezier(0.215, 0.610, 0.355, 1) 0.0001s;
  }

  #light:hover {
    opacity: 1;
    -webkit-transition: opacity 800ms cubic-bezier(0.215, 0.610, 0.355, 1) 0.0001s;
    -o-transition: opacity 800ms cubic-bezier(0.215, 0.610, 0.355, 1) 0.0001s;
    transition: opacity 800ms cubic-bezier(0.215, 0.610, 0.355, 1) 0.0001s;
  }
</style>
  <path d="M66.557-7.697c-1.201.014-2.375.281-3.511.647-.356.115-.693.266-1.039.4-.329.154-.666.297-.986.463-1.21.633-2.506 1.502-3.19 2.583-.183.291-.292.611-.438.917-.077.344-.193.684-.231 1.033-.184 1.709.433 3.427 1.243 4.969.228.434.498.851.746 1.276 1.194 1.858 2.675 3.566 4.193 5.239l.356-.093c-1.521-1.67-3.006-3.375-4.2-5.231-.248-.425-.517-.841-.744-1.274-.808-1.538-1.419-3.25-1.228-4.953.038-.348.156-.685.234-1.028.147-.303.257-.622.441-.911.687-1.076 1.982-1.94 3.191-2.568.32-.166.658-.307.986-.461.3-.114 1.337-.53 1.753-.63 1.43-.343 2.903-.346 4.323.03.849.326 1.102.367 1.827.877 1.099.773 1.711 1.843 2.046 2.998.066.307.151.612.199.921.283 1.819-.017 3.662-.526 5.43-.133.373-.252.75-.399 1.119-.599 1.504-1.419 2.951-2.42 4.291-.39.472-.789.947-1.252 1.371.05-.001.1-.004.15-.004.06 0 .12.003.18.005.483-.441.898-.935 1.303-1.429.993-1.344 1.806-2.793 2.402-4.296.146-.37.265-.747.397-1.121.508-1.773.81-3.62.53-5.443-.048-.31-.133-.616-.2-.924-.335-1.162-.948-2.238-2.049-3.017-.726-.515-.984-.557-1.833-.888-.348-.074-.69-.172-1.043-.222-.407-.058-.81-.081-1.211-.076zM64.245 10.385l-.318.23h.496l.875-.001h.973c.289-.012.578.024.855.108.165.063.297.14.307.326-.013.194-.11.353-.238.492l-.044.035c-.071.03-.118.045-.2.072-.252.079-.513.12-.774.157-.028.004-.055.005-.084.009-.086-.093-.185-.173-.309-.22-.144-.052-.286-.097-.439-.061-.192.04-.46.116-.512.31.035.107.169.144.262.185.226.067.458.047.689.018.027.031.059.057.083.093.03.048.033.109.006.16-.039.015-.077.027-.103.038-.378.172-.481.2-.223.323.149.083.302.153.446.245.116.085.242.181.246.335.024.004.013.023-.009.046-.079.026-.159.048-.24.066l-.311.238c.094-.021.19-.041.282-.073.227-.082.557-.198.627-.458-.017-.165-.135-.272-.265-.366-.143-.094-.299-.164-.448-.249-.01-.006-.014-.006-.024-.01.107-.044.21-.098.304-.192.079-.074.103-.163.067-.259.142-.024.283-.054.42-.095.332-.105.654-.264.914-.499.127-.15.221-.319.226-.52-.022-.2-.152-.296-.333-.366-.279-.09-.571-.129-.863-.116h-.972l-.874-.001h-.495z" fill="rgb(70,62,67)"/>
  <path id="light" d="M63.834 9c-1.373-1.506-2.712-3.044-3.789-4.718-.223-.383-.466-.758-.671-1.148-.728-1.388-1.279-2.932-1.107-4.468.035-.314.141-.618.211-.927.133-.274.232-.561.398-.822.619-.97 1.788-1.749 2.878-2.316.289-.15.593-.277.889-.416.271-.103 1.206-.478 1.582-.568 1.289-.309 2.618-.312 3.898.027.766.295.994.331 1.648.791.991.697 1.543 1.662 1.845 2.704.06.277.137.552.18.831.255 1.64-.015 3.302-.475 4.897-.12.337-.227.677-.359 1.01-.541 1.356-1.28 2.661-2.183 3.87-.352.426-.711.854-1.129 1.236q.045-.001-3.816.017z" fill="rgb(254,252,173)"/>
</svg>
