<?xml version="1.0" standalone="no"?><!-- Generator: Gravit.io --><svg xmlns="http://www.w3.org/2000/svg" xmlns:xlink="http://www.w3.org/1999/xlink" style="isolation:isolate" viewBox="917.951 0 208.049 367" width="208.049px" height="367px"><g><path d=" M 1090.062 213.224 C 1104.49 226.867 1113.56 246.132 1118.057 265.185 C 1122.414 283.64 1122.624 303.453 1116.307 320.613 C 1110.275 336.994 1098.147 349.39 1082.466 355.715 C 1067.659 361.686 1050.85 362.453 1034.663 359.767 C 1031.052 359.956 1027.398 359.661 1023.714 358.558 C 1014.148 355.691 1006.061 348.784 998.585 341.972 C 991.226 335.266 983.861 328.462 977.33 320.861 C 964.308 305.701 956.835 287.531 959.917 268.025 C 963.1 247.893 975.439 231.892 990.593 220.316 C 1017.652 199.645 1059.376 184.21 1090.062 213.224" fill="rgb(180,235,202)"/><path d=" M 977.356 198.558 C 975.629 199.386 973.838 199.482 972.237 198.303 C 970.541 197.055 969.765 194.543 968.908 192.708 C 966.411 187.358 964.441 181.763 963.076 176.018 C 962.542 173.772 961.851 171.414 963.253 169.348 C 964.582 167.39 966.881 165.853 968.734 164.427 C 973.148 161.03 977.991 158.235 983.133 156.096 C 988.549 153.842 994.321 152.85 999.802 150.818 C 1002.3 149.892 1005.03 148.741 1007.659 149.881 C 1009.661 150.749 1010.743 152.708 1011.595 154.609 C 1014.184 160.381 1016.66 166.208 1019.191 172.007 C 1020.103 174.094 1021.251 176.409 1019.75 178.509 C 1018.407 180.386 1015.738 181.342 1013.775 182.371 C 1007.937 185.431 1001.975 188.104 995.766 190.318 C 989.408 192.585 982.984 194.734 977.356 198.558 C 977.053 197.838 976.749 197.118 976.446 196.399 C 976.801 196.328 977.157 196.259 977.512 196.189 C 977.895 196.113 978.396 196.156 978.662 196.492 C 989.024 209.607 985.214 228.69 980.746 243.336 C 975.349 261.029 967.193 278.098 967.682 297.006 C 968.112 313.587 973.555 330.567 985.221 342.689 C 998.211 356.186 1017.6 363.495 1036.068 364.519 C 1064.466 366.092 1094.409 352.912 1111.052 329.56 C 1119.686 317.446 1124.211 302.87 1123.63 287.979 C 1123.007 271.979 1116.772 256.577 1107.479 243.671 C 1098.049 230.575 1085.223 219.718 1070.504 213.034 C 1061.655 209.015 1052.098 207.171 1042.899 204.176 C 1034.521 201.448 1027.223 197.055 1021.262 190.497 C 1018.586 187.553 1016.245 184.288 1014.599 180.657 C 1015.138 180.799 1015.677 180.939 1016.215 181.081 C 1012.606 182.886 1008.997 184.691 1005.388 186.496 C 1005.53 185.957 1005.671 185.418 1005.812 184.879 C 1013.952 202.162 1022.393 219.729 1033.89 235.074 C 1036.856 239.032 1040.257 242.541 1043.422 246.323 C 1044.755 247.916 1045.912 249.645 1047.246 251.24 C 1048.271 252.465 1049.479 254.534 1051.298 254.498 C 1053 254.464 1054.861 252.713 1055.735 251.388 C 1057.133 249.268 1056.25 247.611 1053.976 246.771 C 1052.37 246.177 1050.63 245.968 1048.945 245.725 C 1046.337 245.348 1043.718 244.971 1041.08 244.909 C 1036.835 244.809 1032.507 245.679 1029.282 248.628 C 1027.922 249.872 1026.846 251.405 1026.336 253.189 C 1025.709 255.381 1024.99 257.827 1024.838 260.105 C 1024.633 263.176 1026.323 266.171 1029.695 264.869 C 1030.93 264.393 1032.174 263.443 1032.197 261.994 C 1032.229 259.903 1030.339 257.824 1029.096 256.315 C 1027.657 254.566 1026.08 252.855 1024.338 251.402 C 1022.114 249.548 1019.626 249.183 1016.864 250.024 C 1012.889 251.234 1009.595 254.177 1007.781 257.892 C 1006.877 259.744 1006.062 261.645 1007.209 263.602 C 1007.643 264.344 1008.782 265.575 1009.76 265.502 C 1010.772 265.426 1011.956 263.934 1012.466 263.169 C 1014.451 260.192 1013.932 255.921 1013.742 252.546 C 1013.147 241.979 1010.359 231.704 1006.81 221.781 C 1003.049 211.269 998.52 201.051 993.31 191.177 C 992.601 189.833 994.64 188.638 995.35 189.984 C 1001.111 200.903 1006.048 212.25 1010.06 223.925 C 1013.827 234.885 1016.693 246.769 1016.174 258.444 C 1016.021 261.896 1014.35 266.812 1010.503 267.776 C 1006.33 268.823 1003.546 263.062 1004.482 259.74 C 1005.736 255.285 1008.989 251.296 1013.035 249.094 C 1015.149 247.944 1017.611 247.11 1020.042 247.179 C 1022.569 247.25 1024.625 248.49 1026.463 250.13 C 1028.527 251.971 1030.377 254.063 1032.047 256.264 C 1033.343 257.974 1034.665 260.027 1034.541 262.268 C 1034.369 265.382 1031.108 267.489 1028.194 267.558 C 1018.509 267.787 1023.199 251.489 1027.036 247.52 C 1030.313 244.13 1034.967 242.656 1039.586 242.544 C 1042.687 242.468 1045.772 242.904 1048.834 243.34 C 1051.065 243.658 1053.384 243.901 1055.461 244.833 C 1059.426 246.611 1059.626 250.582 1056.947 253.669 C 1054.133 256.912 1050.084 258.031 1046.995 254.622 C 1045.419 252.883 1044.013 250.996 1042.615 249.116 C 1040.715 246.563 1038.382 244.33 1036.319 241.908 C 1032.373 237.276 1028.816 232.281 1025.532 227.163 C 1018.842 216.737 1013.202 205.61 1007.791 194.482 C 1006.432 191.687 1005.096 188.882 1003.772 186.072 C 1003.514 185.525 1003.585 184.761 1004.195 184.455 C 1007.805 182.651 1011.414 180.846 1015.023 179.041 C 1015.548 178.778 1016.362 178.854 1016.639 179.465 C 1020.313 187.572 1027.449 194.357 1035.222 198.545 C 1044.104 203.331 1054.602 204.718 1064.08 207.965 C 1079.48 213.242 1093.187 223.031 1103.829 235.285 C 1114.431 247.493 1122.281 262.438 1124.991 278.463 C 1127.53 293.478 1125.281 308.926 1118.206 322.44 C 1104.748 348.145 1076.386 364.248 1047.957 366.691 C 1030.295 368.208 1012.069 364.121 996.915 354.867 C 989.45 350.309 982.859 344.551 977.814 337.378 C 973.08 330.647 969.766 322.943 967.754 314.98 C 965.648 306.65 964.823 297.861 965.528 289.293 C 966.294 279.985 968.872 270.993 971.862 262.185 C 977.465 245.675 985.626 227.469 982.047 209.637 C 981.214 205.485 979.631 201.504 976.991 198.163 C 977.374 198.264 977.757 198.366 978.14 198.467 C 977.785 198.537 977.429 198.607 977.074 198.677 C 975.753 198.937 975.035 197.284 976.163 196.518 C 983.908 191.256 993.105 189.134 1001.643 185.567 C 1006.488 183.544 1011.227 181.167 1015.812 178.612 C 1016.672 178.133 1017.8 177.622 1018.108 176.593 C 1018.499 175.283 1017.176 173.256 1016.693 172.15 C 1015.625 169.702 1014.556 167.254 1013.487 164.806 C 1012.521 162.591 1011.554 160.376 1010.587 158.161 C 1009.696 156.121 1008.787 152.691 1006.408 151.912 C 1004.062 151.145 1001.243 152.85 999.072 153.581 C 996.68 154.385 994.221 154.971 991.789 155.637 C 982.674 158.135 974.175 162.577 967.072 168.834 C 966.037 169.745 964.804 170.651 964.746 172.154 C 964.693 173.514 965.277 175.112 965.607 176.425 C 966.269 179.066 967.059 181.675 967.971 184.241 C 968.928 186.935 970.021 189.578 971.251 192.158 C 972.199 194.144 973.215 197.932 976.163 196.518 C 977.528 195.864 978.728 197.901 977.356 198.558 L 977.356 198.558" fill="rgb(70,62,67)"/><path d=" M 965.334 177.569 C 970.334 174.476 975.467 171.578 980.666 168.832 C 987.096 165.436 993.792 162.947 1000.659 160.591 C 1002.361 160.007 1004.063 159.42 1005.754 158.805 C 1007.215 158.274 1008.733 157.509 1010.312 157.427 C 1012.06 157.336 1013.144 158.019 1013.77 159.54 C 1014.916 162.324 1016.055 165.111 1017.198 167.896 C 1017.444 168.497 1016.926 169.186 1016.372 169.35 C 1008.022 171.832 999.798 175.312 991.803 178.756 C 984.03 182.105 976.461 185.934 969.477 190.737 C 968.221 191.601 967.038 189.554 968.285 188.697 C 975.464 183.76 983.26 179.855 991.26 176.438 C 999.242 173.027 1007.419 169.546 1015.745 167.071 C 1015.469 167.556 1015.195 168.04 1014.919 168.525 C 1013.892 166.021 1012.865 163.517 1011.838 161.013 C 1011.698 160.671 1011.543 159.877 1011.267 159.621 C 1011.3 159.651 1010.461 159.775 1010.063 159.829 C 1009.493 159.907 1008.944 160.142 1008.405 160.332 C 1005.123 161.49 1001.851 162.67 998.561 163.805 C 987.207 167.722 976.726 173.302 966.526 179.609 C 965.229 180.411 964.042 178.368 965.334 177.569 L 965.334 177.569" fill="rgb(70,62,67)"/><path d=" M 1003.301 151.508 C 1001.465 150.047 999.448 148.657 997.496 147.304 C 996.337 146.5 995.171 145.696 993.96 144.972 C 992.322 143.991 991.151 144.583 989.323 145.168 C 984.327 146.768 979.536 148.96 975.05 151.678 C 972.926 152.964 969.247 154.591 969.231 157.338 C 969.214 160.292 969.237 163.247 969.239 166.201 C 969.241 167.721 966.878 167.724 966.876 166.201 C 966.875 164.403 966.873 162.604 966.872 160.806 C 966.87 159.159 966.648 157.321 966.959 155.702 C 967.408 153.364 969.964 152.136 971.793 150.938 C 976.834 147.636 982.314 145.002 988.033 143.105 C 989.876 142.494 992.131 141.449 994.034 142.313 C 995.31 142.892 996.486 143.762 997.64 144.544 C 1000.129 146.231 1002.618 147.964 1004.972 149.837 C 1006.162 150.783 1004.48 152.446 1003.301 151.508 L 1003.301 151.508" fill="rgb(70,62,67)"/><path d=" M 919.945 0.371 C 926.355 7.326 933.042 14.056 938.873 21.518 C 941.644 25.062 944.289 28.752 946.457 32.702 C 948.825 37.014 950.627 41.602 952.601 46.103 C 953.446 48.033 954.32 49.951 955.285 51.821 C 956.37 53.928 957.55 56.614 959.425 58.15 C 963.349 61.359 968.374 56.665 969.074 52.759 C 969.821 48.588 966.536 44.859 962.472 44.319 C 960.5 44.059 957.956 44.623 956.882 46.481 C 955.707 48.517 956.404 52.026 956.627 54.255 C 957.576 63.781 961.016 72.85 964.238 81.788 C 965.872 86.324 967.549 90.879 968.783 95.545 C 969.831 99.511 970.368 103.837 968.373 107.603 C 966.783 110.605 963.668 112.69 960.199 112.234 C 956.584 111.76 953.634 108.895 952.72 105.419 C 951.165 99.512 955.784 88.495 963.438 92.019 C 966.964 93.641 968.635 97.633 969.974 101.015 C 971.866 105.796 973.507 110.673 974.933 115.612 C 977.908 125.913 979.95 136.453 981.812 147.003 C 982.074 148.49 979.798 149.129 979.533 147.631 C 977.885 138.288 976.096 128.957 973.641 119.787 C 972.459 115.374 971.123 111.002 969.592 106.698 C 968.266 102.964 967.059 98.273 964.156 95.402 C 960.321 91.61 956.202 95.568 955.1 99.662 C 953.917 104.058 956.029 110.22 961.475 109.944 C 966.732 109.677 967.806 103.12 967.155 99.092 C 966.402 94.428 964.601 89.839 963.028 85.402 C 959.882 76.522 956.341 67.68 954.806 58.339 C 954.471 56.299 954.222 54.247 954.098 52.184 C 953.976 50.136 953.708 47.73 954.588 45.804 C 955.999 42.713 959.788 41.531 962.945 42.004 C 969.818 43.036 973.67 50.498 970.136 56.574 C 968.476 59.43 965.395 61.528 962.021 61.489 C 957.824 61.438 955.663 57.504 953.9 54.255 C 951.327 49.518 949.42 44.465 947.205 39.558 C 945.033 34.746 942.414 30.261 939.31 25.988 C 933.054 17.375 925.47 9.846 918.274 2.041 C 917.245 0.926 918.912 -0.751 919.945 0.371 L 919.945 0.371 Z " fill="rgb(70,62,67)"/></g></svg>