<svg xmlns="http://www.w3.org/2000/svg" style="isolation:isolate" viewBox="774.791 239 158.209 211"><path d="M 794.509 251.475 L 924.759 251.475 C 929.308 251.475 933 255.167 933 259.716 L 933 441.759 C 933 446.308 929.308 450 924.759 450 L 794.509 450 C 789.961 450 786.268 446.308 786.268 441.759 L 786.268 259.716 C 786.268 255.167 789.961 251.475 794.509 251.475 Z" fill="#B4EBCA"/><path d="M 785.032 241 L 915.282 241 C 919.83 241 923.523 244.692 923.523 249.241 L 923.523 431.284 C 923.523 435.833 919.83 439.525 915.282 439.525 L 785.032 439.525 C 780.484 439.525 776.791 435.833 776.791 431.284 L 776.791 249.241 C 776.791 244.692 780.484 241 785.032 241 Z" fill="none" stroke="#463E43" stroke-width="4" stroke-linecap="square" stroke-miterlimit="2"/><path d="M 798.684 258.957 L 901.63 258.957 C 905.099 258.957 907.914 261.773 907.914 265.241 L 907.914 399.322 C 907.914 402.79 905.099 405.606 901.63 405.606 L 798.684 405.606 C 795.215 405.606 792.399 402.79 792.399 399.322 L 792.399 265.241 C 792.399 261.773 795.215 258.957 798.684 258.957 Z" fill="none" stroke="#463E43" stroke-width="2" stroke-linecap="square" stroke-miterlimit="2"/><circle vector-effect="non-scaling-stroke" cx="850.157" cy="422.815" r="6.235" fill="none" stroke-width="4" stroke="rgb(70,62,67)" stroke-linecap="square" stroke-miterlimit="3"/><path vector-effect="non-scaling-stroke" stroke-width="4" stroke="rgb(70,62,67)" stroke-linecap="square" stroke-miterlimit="3" d="M811.624 291.878L888.69 291.878"/><path vector-effect="non-scaling-stroke" stroke-width="4" stroke="rgb(70,62,67)" stroke-linecap="square" stroke-miterlimit="3" d="M811.624 318.814L867.989 318.814"/><path vector-effect="non-scaling-stroke" stroke-width="4" stroke="rgb(70,62,67)" stroke-linecap="square" stroke-miterlimit="3" d="M811.624 345.749L879.711 345.749"/><path vector-effect="non-scaling-stroke" stroke-width="4" stroke="rgb(70,62,67)" stroke-linecap="square" stroke-miterlimit="3" d="M811.624 372.685L888.69 372.685"/></svg>