<svg xmlns="http://www.w3.org/2000/svg" style="isolation:isolate" viewBox="774.791 239 158.209 211">
<style>

    @-webkit-keyframes moveIn {
        from { opacity: 0; -webkit-transform: translateX(-10px); transform: translateX(-10px); }
        to { opacity: 1; -webkit-transform: translate(0); transform: translate(0); }
    }

    @keyframes moveIn {
        from { opacity: 0; -webkit-transform: translateX(-10px); transform: translateX(-10px); }
        to { opacity: 1; -webkit-transform: translate(0); transform: translate(0); }
    }

    @-webkit-keyframes draw1 {
        from { stroke-dashoffset: 1000 }
        to { stroke-dashoffset: 0 }
    }

    @keyframes draw1 {
        from { stroke-dashoffset: 1000 }
        to { stroke-dashoffset: 0 }
    }

    .background_green {
        opacity: 0;
        transfrom: translateX(-10px);
    }

    .background_green {
        -webkit-animation: moveIn 1s cubic-bezier(.17,.67,.83,.67) forwards;
                animation: moveIn 1s cubic-bezier(.17,.67,.83,.67) forwards;
    }

    .background_green:hover {
        fill: #fefcad;
    }

    .ebook_path01 {
        stroke-dasharray: 1000;
        stroke-dashoffset: 1000;
        -webkit-animation: draw1 2s cubic-bezier(.17,.67,.83,.67) forwards;
                animation: draw1 2s cubic-bezier(.17,.67,.83,.67) forwards;
    }

    .ebook_path02 {
        stroke-dasharray: 1000;
        stroke-dashoffset: 1000;
        -webkit-animation: draw1 4s cubic-bezier(.17,.67,.83,.67) forwards;
                animation: draw1 4s cubic-bezier(.17,.67,.83,.67) forwards;
    }

    .ebook_path03,
    .ebook_path04,
    .ebook_path05,
    .ebook_path06,
    .ebook_path07 {
        stroke-dasharray: 1000;
        stroke-dashoffset: 1000;
        -webkit-animation: draw1 12s cubic-bezier(.17,.67,.83,.67) forwards;
                animation: draw1 12s cubic-bezier(.17,.67,.83,.67) forwards;
    }

    .ebook_path02 { -webkit-animation-delay: 100ms; animation-delay: 100ms; }
    .ebook_path03 { -webkit-animation-delay: 200ms; animation-delay: 200ms; }
    .ebook_path04 { -webkit-animation-delay: 300ms; animation-delay: 300ms; }
    .ebook_path05 { -webkit-animation-delay: 400ms; animation-delay: 400ms; }
    .ebook_path06 { -webkit-animation-delay: 500ms; animation-delay: 500ms; }
    .ebook_path07 { -webkit-animation-delay: 600ms; animation-delay: 600ms; }

</style>
<path class="background_green" d="M 794.509 251.475 L 924.759 251.475 C 929.308 251.475 933 255.167 933 259.716 L 933 441.759 C 933 446.308 929.308 450 924.759 450 L 794.509 450 C 789.961 450 786.268 446.308 786.268 441.759 L 786.268 259.716 C 786.268 255.167 789.961 251.475 794.509 251.475 Z" fill="#B4EBCA"/>
<path class="ebook_path01" d="M 785.032 241 L 915.282 241 C 919.83 241 923.523 244.692 923.523 249.241 L 923.523 431.284 C 923.523 435.833 919.83 439.525 915.282 439.525 L 785.032 439.525 C 780.484 439.525 776.791 435.833 776.791 431.284 L 776.791 249.241 C 776.791 244.692 780.484 241 785.032 241 Z" fill="none" stroke="#463E43" stroke-width="4" stroke-linecap="square" stroke-miterlimit="2"/>
<path class="ebook_path02" d="M 798.684 258.957 L 901.63 258.957 C 905.099 258.957 907.914 261.773 907.914 265.241 L 907.914 399.322 C 907.914 402.79 905.099 405.606 901.63 405.606 L 798.684 405.606 C 795.215 405.606 792.399 402.79 792.399 399.322 L 792.399 265.241 C 792.399 261.773 795.215 258.957 798.684 258.957 Z" fill="none" stroke="#463E43" stroke-width="2" stroke-linecap="square" stroke-miterlimit="2"/>
<circle class="ebook_path03" cx="850.157" cy="422.815" r="6.235" fill="none" stroke-width="4" stroke="rgb(70,62,67)" stroke-linecap="square" stroke-miterlimit="3"/>
<path class="ebook_path04" stroke-width="4" stroke="rgb(70,62,67)" stroke-linecap="square" stroke-miterlimit="3" d="M811.624 291.878L888.69 291.878"/>
<path class="ebook_path05" stroke-width="4" stroke="rgb(70,62,67)" stroke-linecap="square" stroke-miterlimit="3" d="M811.624 318.814L867.989 318.814"/>
<path class="ebook_path06" stroke-width="4" stroke="rgb(70,62,67)" stroke-linecap="square" stroke-miterlimit="3" d="M811.624 345.749L879.711 345.749"/>
<path class="ebook_path07" stroke-width="4" stroke="rgb(70,62,67)" stroke-linecap="square" stroke-miterlimit="3" d="M811.624 372.685L888.69 372.685"/>
</svg>