<svg xmlns="http://www.w3.org/2000/svg" style="isolation:isolate" viewBox="552.656 233 150.344 217"><path d=" M 603.513 276.777 L 578.7 276.777 C 573.272 276.777 568.834 281.362 568.834 287.01 L 568.834 450 L 703 450 L 703 287.01 C 703 281.362 698.599 276.777 693.134 276.777 L 668.321 276.777" fill="rgb(180,235,202)"/><path d=" M 595.336 267.782 L 570.523 267.782 C 565.094 267.782 560.656 272.366 560.656 278.015 L 560.656 441.005 L 694.822 441.005 L 694.822 278.015 C 694.822 272.366 690.421 267.782 684.956 267.782 L 660.143 267.782" fill="none" vector-effect="non-scaling-stroke" stroke-width="4" stroke="rgb(70,62,67)"/><path d=" M 627.739 241 C 642.563 241 654.521 252.958 654.521 267.782 C 654.521 282.605 642.563 294.563 627.739 294.563 C 612.916 294.563 600.958 282.605 600.958 267.782 C 600.958 252.958 612.916 241 627.739 241 Z " fill="rgb(255,255,255)" vector-effect="non-scaling-stroke" stroke-width="4" stroke="rgb(70,62,67)"/><path d=" M 625.59 250.585 L 625.59 255.121 C 624.948 255.239 624.318 255.419 623.709 255.658 C 621.609 256.511 619.141 258.803 619.141 262.397 C 619.144 264.64 620.265 266.734 622.129 267.981 C 623.759 269.056 625.547 269.493 627.159 269.946 C 628.765 270.398 630.175 270.862 630.964 271.399 C 631.744 271.928 632.039 272.246 632.039 273.555 L 632.039 273.615 C 632.039 273.615 632.048 274.211 631.62 274.892 C 631.19 275.563 630.493 276.378 627.74 276.378 C 625.154 276.378 624.507 275.436 623.978 274.361 C 623.449 273.28 623.441 272.121 623.441 272.121 L 619.141 272.036 C 619.141 272.036 619.066 274.101 620.115 276.242 C 620.964 277.973 622.819 279.778 625.59 280.417 L 625.59 284.978 L 629.889 284.978 L 629.889 280.477 C 632.527 279.982 634.33 278.639 635.246 277.194 C 636.387 275.389 636.329 273.551 636.329 273.525 C 636.326 271.267 635.227 269.152 633.382 267.85 C 631.753 266.733 629.939 266.27 628.32 265.808 C 626.708 265.357 625.272 264.901 624.481 264.389 C 623.701 263.878 623.441 263.624 623.441 262.399 C 623.441 260.486 624.197 260.099 625.322 259.645 C 626.066 259.364 626.852 259.21 627.647 259.192 C 627.69 259.192 628.83 259.293 629.956 259.888 C 631.106 260.501 632.039 261.223 632.039 263.482 L 636.338 263.482 C 636.369 260.399 634.688 257.553 631.972 256.092 C 631.31 255.747 630.612 255.477 629.889 255.288 L 629.889 250.585 L 625.59 250.585 Z " fill="rgb(70,62,67)"/><g><path vector-effect="non-scaling-stroke" stroke-width="4" stroke="rgb(70,62,67)" stroke-linecap="square" stroke-miterlimit="3" d="M577.496 307.07L618 307.07"/><path vector-effect="non-scaling-stroke" stroke-width="4" stroke="rgb(70,62,67)" stroke-linecap="square" stroke-miterlimit="3" d="M578.059 327.868L606.186 327.868"/><path vector-effect="non-scaling-stroke" stroke-width="4" stroke="rgb(70,62,67)" stroke-linecap="square" stroke-miterlimit="3" d="M577.496 348.665L618 348.665"/><path vector-effect="non-scaling-stroke" stroke-width="4" stroke="rgb(70,62,67)" stroke-linecap="square" stroke-miterlimit="3" d="M578.059 369.462L606.186 369.462"/><g><path vector-effect="non-scaling-stroke" stroke-width="4" stroke="rgb(70,62,67)" stroke-linecap="square" stroke-miterlimit="3" d="M577.496 391.354L618 391.354"/><path vector-effect="non-scaling-stroke" stroke-width="4" stroke="rgb(70,62,67)" stroke-linecap="square" stroke-miterlimit="3" d="M578.059 412.152L606.186 412.152"/></g></g><g><path vector-effect="non-scaling-stroke" stroke-width="4" stroke="rgb(70,62,67)" stroke-linecap="square" stroke-miterlimit="3" d="M681.72 412.152L652.28 412.152"/><path vector-effect="non-scaling-stroke" stroke-width="4" stroke="rgb(70,62,67)" stroke-linecap="square" stroke-miterlimit="3" d="M681.311 427.689L660.867 427.689"/></g></svg>