<svg xmlns="http://www.w3.org/2000/svg" id="ecopywriting_svg" xmlns:xlink="http://www.w3.org/1999/xlink" style="isolation:isolate;" viewBox="8 11.168 212 51.664">
<style>
    @keyframes fadeIn {
        from { opacity: 0; }
        to { opacity: 1; }
    }

    .ecopywriting {
        opacity: 0;
        animation: fadeIn 600ms cubic-bezier(.17,.67,.83,.67) forwards;
    }

    .ecopywriting_svg,
    .ecopywriting_l01,
    .ecopywriting_l02,
    .ecopywriting_l03,
    .ecopywriting_l04,
    .ecopywriting_l05,
    .ecopywriting_l06,
    .ecopywriting_l07,
    .ecopywriting_l08,
    .ecopywriting_l09,
    .ecopywriting_l10,
    .ecopywriting_l11,
    .ecopywriting_l12,
    .ecopywriting_l13,
    .ecopywriting_l14,
    .ecopywriting_l15,
    .ecopywriting_l16,
    .ecopywriting_l17,
    .ecopywriting_l18,
    .ecopywriting_l19 {
        opacity: 0;
        animation: fadeIn 200ms cubic-bezier(.17,.67,.83,.67) forwards;
    }

    .ecopywriting_l01 { animation-delay: 150ms; }
    .ecopywriting_l02 { animation-delay: 200ms; }
    .ecopywriting_l03 { animation-delay: 250ms; }
    .ecopywriting_l04 { animation-delay: 300ms; }
    .ecopywriting_l05 { animation-delay: 350ms; }
    .ecopywriting_l06 { animation-delay: 400ms; }
    .ecopywriting_l07 { animation-delay: 450ms; }
    .ecopywriting_l08 { animation-delay: 500ms; }
    .ecopywriting_l09 { animation-delay: 550ms; }
    .ecopywriting_l10 { animation-delay: 600ms; }
    .ecopywriting_l11 { animation-delay: 650ms; }
    .ecopywriting_l12 { animation-delay: 700ms; }
    .ecopywriting_l13 { animation-delay: 750ms; }
    .ecopywriting_l14 { animation-delay: 800ms; }
    .ecopywriting_l15 { animation-delay: 850ms; }
    .ecopywriting_l16 { animation-delay: 900ms; }
    .ecopywriting_l17 { animation-delay: 950ms; }
    .ecopywriting_l18 { animation-delay: 1000ms; }
    .ecopywriting_l19 { animation-delay: 1050ms; }
    .ecopywriting { animation-delay: 1100ms; }
</style>
<g>
<g>
<path class="ecopywriting_l01" d=" M 56.449 46.398 C 55.602 46.398 53.664 46.571 52.834 46.571 C 52.021 46.571 51.104 46.484 51.104 46.484 L 51.017 47.782 L 52.142 47.989 C 52.142 47.989 52.297 49.045 52.297 49.909 L 52.297 55.947 C 52.297 56.293 52.142 57.435 52.142 57.435 L 51 57.642 L 51.086 58.853 C 51.086 58.853 52.003 58.767 52.816 58.767 C 53.854 58.767 55.359 58.87 56.449 58.87 C 60.463 58.87 62.538 56.327 62.538 52.677 C 62.538 48.958 60.463 46.398 56.449 46.398 L 56.449 46.398 Z  M 56.207 47.834 C 58.75 47.834 59.65 50.013 59.65 52.643 C 59.65 55.324 58.767 57.435 56.172 57.435 C 55.705 57.435 55.238 57.4 55.048 57.383 C 55.031 57.175 54.979 56.189 54.979 55.428 L 54.979 49.391 C 54.979 49.114 55.031 48.266 55.048 47.972 C 55.446 47.903 55.861 47.834 56.207 47.834 Z " fill="#463E43"/>
<path class="ecopywriting_l02" d=" M 71.971 54.546 C 71.971 51.657 70.449 50.065 67.698 50.065 C 64.948 50.065 63.426 51.657 63.426 54.546 C 63.426 57.417 64.948 59.026 67.698 59.026 C 70.449 59.026 71.971 57.417 71.971 54.546 Z  M 69.221 54.546 C 69.221 56.673 68.771 57.556 67.698 57.556 C 66.626 57.556 66.176 56.673 66.176 54.546 C 66.176 52.418 66.626 51.536 67.698 51.536 C 68.771 51.536 69.221 52.418 69.221 54.546 Z " fill="#463E43"/>
<path class="ecopywriting_l03" d=" M 76.226 50.065 C 74.288 50.065 72.991 50.878 72.991 52.643 C 72.991 55.947 77.16 55.462 77.16 56.829 C 77.16 57.313 76.658 57.573 76.053 57.573 C 75.568 57.573 74.997 57.383 74.53 57.192 C 74.53 57.21 74.375 56.639 74.375 56.552 L 74.375 55.774 L 73.146 55.687 L 72.939 58.542 C 72.939 58.542 74.738 58.94 76.001 58.94 C 78.025 58.94 79.374 58.005 79.374 56.241 C 79.374 52.971 75.049 53.387 75.049 52.106 C 75.049 51.76 75.361 51.449 76.174 51.449 C 76.71 51.449 77.073 51.587 77.385 51.726 C 77.471 51.899 77.627 52.297 77.627 52.383 L 77.627 53.127 L 78.786 53.214 L 78.993 50.48 C 78.284 50.255 77.454 50.065 76.226 50.065 Z " fill="#463E43"/>
<path class="ecopywriting_l04" d=" M 85.51 57.037 C 85.51 57.037 85.025 57.383 84.576 57.383 C 84.005 57.383 83.676 56.864 83.676 56.293 L 83.676 51.518 L 85.579 51.518 L 85.735 50.221 L 83.676 50.221 L 83.676 48.266 L 82.725 48.197 C 82.725 48.197 81.998 49.408 81.773 49.702 C 81.687 49.823 80.579 50.238 80.095 50.428 L 80.147 51.518 L 81.254 51.518 L 81.254 56.068 C 81.254 57.971 81.963 58.94 83.849 58.94 C 84.887 58.94 85.579 58.473 86.15 58.023 L 85.51 57.037 Z " fill="#463E43"/>
<path class="ecopywriting_l05" d=" M 91.589 58.767 C 93.924 58.767 94.772 58.853 94.772 58.853 L 94.876 57.538 L 93.838 57.435 C 93.838 57.435 93.682 56.293 93.682 55.428 L 93.682 53.179 C 93.682 51.207 92.35 50.065 90.067 50.065 C 89.305 50.065 87.939 50.273 86.901 50.532 L 87.16 53.456 L 88.458 53.404 L 88.441 52.66 L 88.562 51.968 C 88.959 51.778 89.548 51.639 89.963 51.639 C 90.897 51.639 91.26 52.072 91.26 53.196 L 91.26 53.698 L 88.804 54.096 C 87.281 54.338 86.52 55.134 86.52 56.483 C 86.52 58.005 87.489 58.94 89.063 58.94 C 90.153 58.94 90.914 58.49 91.451 57.521 L 91.589 58.767 Z  M 91.26 54.822 L 91.26 56.051 C 91.087 56.743 90.62 57.158 90.015 57.158 C 89.375 57.158 89.081 56.812 89.081 56.103 C 89.081 55.462 89.34 55.151 89.98 55.03 L 91.26 54.822 Z " fill="#463E43"/>
<path class="ecopywriting_l06" d=" M 98.758 50.515 L 98.395 50.186 L 97.565 50.221 C 96.838 50.221 95.541 50.048 95.541 50.048 L 95.385 51.345 L 96.682 51.639 C 96.682 51.639 96.855 52.798 96.855 53.144 L 96.855 55.947 C 96.855 56.293 96.7 57.435 96.7 57.435 L 95.523 57.642 L 95.61 58.853 C 95.61 58.853 96.7 58.767 97.513 58.767 C 99.468 58.767 100.782 58.853 100.782 58.853 L 100.869 57.538 L 99.433 57.435 C 99.433 57.435 99.277 56.293 99.277 55.428 L 99.277 54.182 C 99.277 52.625 100.125 51.795 100.99 51.795 C 101.024 51.795 101.059 51.795 101.094 51.812 C 101.128 52.02 101.232 52.574 101.232 52.712 L 101.232 53.663 L 102.512 53.715 L 102.772 50.238 C 102.772 50.238 101.976 50.065 101.353 50.065 C 100.315 50.065 99.519 50.705 98.914 51.657 L 98.758 50.515 Z " fill="#463E43"/>
<path class="ecopywriting_l07" d=" M 107.533 50.065 C 104.903 50.065 103.294 51.76 103.294 54.528 C 103.294 57.452 104.799 59.026 107.619 59.026 C 108.726 59.026 109.868 58.576 110.75 57.798 L 110.145 56.794 C 110.145 56.794 109.315 57.348 108.121 57.348 C 106.737 57.348 106.045 56.414 106.045 54.528 C 106.045 52.401 106.564 51.432 107.688 51.432 C 108.052 51.432 108.501 51.605 108.813 51.882 C 108.847 52.106 108.865 52.331 108.882 52.556 L 108.865 53.49 L 110.335 53.542 L 110.595 50.48 C 110.595 50.48 109.055 50.065 107.533 50.065 L 107.533 50.065 Z " fill="#463E43"/>
<path class="ecopywriting_l08" d=" M 111.421 50.515 L 111.335 53.456 L 112.65 53.508 L 112.719 52.522 C 112.719 52.401 112.875 51.951 112.944 51.795 C 113.324 51.743 113.964 51.605 114.068 51.605 L 115.435 51.605 C 115.227 52.055 114.985 52.504 114.864 52.677 L 112.754 55.86 C 112.511 56.241 111.3 57.556 111.3 57.556 L 111.543 58.767 L 116.577 58.767 C 116.923 58.767 118.203 58.818 118.203 58.818 L 118.549 58.473 L 118.739 55.808 L 117.545 55.705 C 117.545 55.722 117.442 56.397 117.424 56.466 C 117.424 56.57 117.199 57.071 117.147 57.192 C 116.75 57.244 116.006 57.383 115.902 57.383 L 114.501 57.383 C 114.708 56.933 114.933 56.483 115.054 56.31 L 117.13 53.11 L 118.462 51.414 L 118.341 50.221 L 113.376 50.221 C 113.03 50.221 111.785 50.169 111.785 50.169 L 111.421 50.515 Z " fill="#463E43"/>
<path class="ecopywriting_l09" d=" M 124.464 58.767 C 126.799 58.767 127.647 58.853 127.647 58.853 L 127.751 57.538 L 126.713 57.435 C 126.713 57.435 126.557 56.293 126.557 55.428 L 126.557 53.179 C 126.557 51.207 125.225 50.065 122.942 50.065 C 122.18 50.065 120.814 50.273 119.776 50.532 L 120.035 53.456 L 121.333 53.404 L 121.315 52.66 L 121.437 51.968 C 121.834 51.778 122.423 51.639 122.838 51.639 C 123.772 51.639 124.135 52.072 124.135 53.196 L 124.135 53.698 L 121.679 54.096 C 120.156 54.338 119.395 55.134 119.395 56.483 C 119.395 58.005 120.364 58.94 121.938 58.94 C 123.028 58.94 123.789 58.49 124.325 57.521 L 124.464 58.767 Z  M 124.135 54.822 L 124.135 56.051 C 123.962 56.743 123.495 57.158 122.89 57.158 C 122.25 57.158 121.956 56.812 121.956 56.103 C 121.956 55.462 122.215 55.151 122.855 55.03 L 124.135 54.822 Z " fill="#463E43"/>
<path class="ecopywriting_l10" d=" M 134.539 50.065 C 133.294 50.065 132.464 50.74 131.806 51.726 L 131.633 50.515 L 131.27 50.186 L 130.44 50.221 C 129.713 50.221 128.416 50.065 128.416 50.065 L 128.26 51.345 L 129.557 51.639 C 129.557 51.639 129.73 52.798 129.73 53.144 L 129.73 55.947 C 129.73 56.293 129.575 57.435 129.575 57.435 L 128.433 57.642 L 128.519 58.853 C 128.519 58.853 129.436 58.767 130.249 58.767 C 132.204 58.767 133.346 58.853 133.346 58.853 L 133.432 57.538 L 132.308 57.435 C 132.308 57.435 132.152 56.293 132.152 55.428 L 132.152 54.182 C 132.152 52.625 132.931 51.795 133.726 51.795 C 134.539 51.795 134.868 52.487 134.868 53.387 L 134.868 55.947 C 134.868 56.12 134.816 56.812 134.782 57.435 L 133.813 57.642 L 133.899 58.853 C 133.899 58.853 134.574 58.767 135.387 58.767 C 137.342 58.767 138.484 58.853 138.484 58.853 L 138.57 57.538 L 137.446 57.435 C 137.446 57.435 137.29 56.293 137.29 55.428 L 137.29 54.182 C 137.29 52.625 138.069 51.795 138.864 51.795 C 139.677 51.795 140.006 52.487 140.006 53.387 L 140.006 55.947 C 140.006 56.12 139.954 56.812 139.919 57.435 L 138.951 57.642 L 139.037 58.853 C 139.037 58.853 139.712 58.767 140.525 58.767 C 142.48 58.767 143.621 58.853 143.621 58.853 L 143.708 57.538 L 142.584 57.435 C 142.584 57.435 142.428 56.293 142.428 55.428 L 142.428 53.144 C 142.428 51.138 141.476 50.065 139.677 50.065 C 138.501 50.065 137.671 50.671 137.031 51.587 C 136.633 50.601 135.785 50.065 134.539 50.065 L 134.539 50.065 Z " fill="#463E43"/>
<path class="ecopywriting_l11" d=" M 148.546 56.033 L 147.456 52.608 C 147.37 52.366 147.249 51.812 147.214 51.449 L 147.941 51.363 L 147.871 50.134 C 147.871 50.134 146.678 50.221 145.917 50.221 C 144.792 50.221 143.512 50.065 143.512 50.065 L 143.408 51.259 L 144.498 51.449 C 144.706 51.83 145.069 52.747 145.225 53.144 L 147.37 58.767 L 146.833 60.202 C 146.712 60.548 146.522 60.912 146.297 61.171 C 146.072 61.24 145.778 61.275 145.536 61.275 L 144.585 61.24 L 144.394 62.607 L 147.819 62.832 L 151.591 53.093 C 151.712 52.747 152.127 51.778 152.317 51.449 L 153.165 51.363 L 153.096 50.134 C 153.096 50.134 151.971 50.221 151.21 50.221 C 150.086 50.221 149.152 50.134 149.152 50.134 L 149.048 51.363 L 149.809 51.449 C 149.792 51.778 149.67 52.366 149.601 52.574 L 148.546 56.033 Z " fill="#463E43"/>
<path class="ecopywriting_l12" d=" M 160.984 50.065 C 158.355 50.065 156.746 51.76 156.746 54.528 C 156.746 57.452 158.251 59.026 161.071 59.026 C 162.178 59.026 163.319 58.576 164.202 57.798 L 163.596 56.794 C 163.596 56.794 162.766 57.348 161.572 57.348 C 160.188 57.348 159.496 56.414 159.496 54.528 C 159.496 52.401 160.015 51.432 161.14 51.432 C 161.503 51.432 161.953 51.605 162.264 51.882 C 162.299 52.106 162.316 52.331 162.333 52.556 L 162.316 53.49 L 163.786 53.542 L 164.046 50.48 C 164.046 50.48 162.506 50.065 160.984 50.065 L 160.984 50.065 Z " fill="#463E43"/>
<path class="ecopywriting_l13" d=" M 173.198 54.546 C 173.198 51.657 171.675 50.065 168.925 50.065 C 166.174 50.065 164.652 51.657 164.652 54.546 C 164.652 57.417 166.174 59.026 168.925 59.026 C 171.675 59.026 173.198 57.417 173.198 54.546 Z  M 170.447 54.546 C 170.447 56.673 169.997 57.556 168.925 57.556 C 167.852 57.556 167.403 56.673 167.403 54.546 C 167.403 52.418 167.852 51.536 168.925 51.536 C 169.997 51.536 170.447 52.418 170.447 54.546 Z " fill="#463E43"/>
<path class="ecopywriting_l14" d=" M 173.94 51.345 L 175.238 51.639 C 175.238 51.639 175.411 52.798 175.411 53.144 L 175.411 55.947 C 175.411 56.293 175.255 57.435 175.255 57.435 L 174.113 57.642 L 174.2 58.853 C 174.2 58.853 175.117 58.767 175.93 58.767 C 177.884 58.767 179.026 58.853 179.026 58.853 L 179.113 57.538 L 177.988 57.435 C 177.988 57.435 177.833 56.293 177.833 55.428 L 177.833 54.182 C 177.833 52.625 178.68 51.795 179.545 51.795 C 180.445 51.795 180.825 52.487 180.825 53.387 L 180.825 55.947 C 180.825 56.12 180.773 56.812 180.739 57.435 L 179.77 57.642 L 179.856 58.853 C 179.856 58.853 180.531 58.767 181.344 58.767 C 183.299 58.767 184.441 58.853 184.441 58.853 L 184.527 57.538 L 183.403 57.435 C 183.403 57.435 183.247 56.293 183.247 55.428 L 183.247 53.144 C 183.247 51.138 182.244 50.065 180.358 50.065 C 179.043 50.065 178.178 50.74 177.487 51.76 L 177.314 50.515 L 176.95 50.186 L 176.12 50.221 C 175.393 50.221 174.096 50.065 174.096 50.065 L 173.94 51.345 Z " fill="#463E43"/>
<path class="ecopywriting_l15" d=" M 190.318 57.037 C 190.318 57.037 189.833 57.383 189.383 57.383 C 188.813 57.383 188.484 56.864 188.484 56.293 L 188.484 51.518 L 190.387 51.518 L 190.542 50.221 L 188.484 50.221 L 188.484 48.266 L 187.532 48.197 C 187.532 48.197 186.806 49.408 186.581 49.702 C 186.494 49.823 185.387 50.238 184.903 50.428 L 184.955 51.518 L 186.062 51.518 L 186.062 56.068 C 186.062 57.971 186.771 58.94 188.657 58.94 C 189.695 58.94 190.387 58.473 190.958 58.023 L 190.318 57.037 Z " fill="#463E43"/>
<path class="ecopywriting_l16" d=" M 195.276 50.065 C 192.785 50.065 191.107 51.674 191.107 54.58 C 191.107 57.4 192.699 59.026 195.346 59.026 C 196.695 59.026 197.837 58.611 198.736 57.798 L 198.131 56.794 C 198.131 56.794 197.3 57.365 196.038 57.365 C 194.671 57.365 193.996 56.725 193.875 54.943 L 198.529 54.943 L 198.892 54.269 C 199.048 51.639 197.733 50.065 195.276 50.065 Z  M 195.086 51.432 C 195.83 51.432 196.176 52.089 196.176 53.404 C 196.176 53.438 196.159 53.542 196.159 53.542 L 193.858 53.681 C 193.927 52.366 194.187 51.432 195.086 51.432 L 195.086 51.432 Z " fill="#463E43"/>
<path class="ecopywriting_l17" d=" M 199.585 51.345 L 200.882 51.639 C 200.882 51.639 201.055 52.798 201.055 53.144 L 201.055 55.947 C 201.055 56.293 200.899 57.435 200.899 57.435 L 199.758 57.642 L 199.844 58.853 C 199.844 58.853 200.761 58.767 201.574 58.767 C 203.529 58.767 204.671 58.853 204.671 58.853 L 204.757 57.538 L 203.633 57.435 C 203.633 57.435 203.477 56.293 203.477 55.428 L 203.477 54.182 C 203.477 52.625 204.325 51.795 205.19 51.795 C 206.089 51.795 206.47 52.487 206.47 53.387 L 206.47 55.947 C 206.47 56.12 206.418 56.812 206.383 57.435 L 205.414 57.642 L 205.501 58.853 C 205.501 58.853 206.176 58.767 206.989 58.767 C 208.943 58.767 210.085 58.853 210.085 58.853 L 210.172 57.538 L 209.047 57.435 C 209.047 57.435 208.892 56.293 208.892 55.428 L 208.892 53.144 C 208.892 51.138 207.888 50.065 206.003 50.065 C 204.688 50.065 203.823 50.74 203.131 51.76 L 202.958 50.515 L 202.595 50.186 L 201.764 50.221 C 201.038 50.221 199.74 50.065 199.74 50.065 L 199.585 51.345 Z " fill="#463E43"/>
<path class="ecopywriting_l18" d=" M 215.962 57.037 C 215.962 57.037 215.478 57.383 215.028 57.383 C 214.457 57.383 214.128 56.864 214.128 56.293 L 214.128 51.518 L 216.031 51.518 L 216.187 50.221 L 214.128 50.221 L 214.128 48.266 L 213.177 48.197 C 213.177 48.197 212.45 49.408 212.225 49.702 C 212.139 49.823 211.032 50.238 210.547 50.428 L 210.599 51.518 L 211.706 51.518 L 211.706 56.068 C 211.706 57.971 212.416 58.94 214.301 58.94 C 215.339 58.94 216.031 58.473 216.602 58.023 L 215.962 57.037 Z " fill="#463E43"/>
<path class="ecopywriting_l19" d=" M 218.633 56.103 C 217.768 56.103 217.267 56.708 217.267 57.573 C 217.267 58.438 217.768 59.026 218.633 59.026 C 219.498 59.026 220 58.438 220 57.573 C 220 56.656 219.481 56.103 218.633 56.103 Z " fill="#463E43"/>
</g>
<g class="ecopywriting">
<path d=" M 16.172 19.035 C 11.289 19.035 8 22.189 8 27.886 C 8 33.414 11.12 36.601 16.308 36.601 C 18.953 36.601 21.191 35.787 22.955 34.193 L 21.768 32.227 C 21.768 32.227 20.14 33.346 17.665 33.346 C 14.986 33.346 13.663 32.091 13.426 28.598 L 22.548 28.598 L 23.26 27.276 C 23.565 22.121 20.988 19.035 16.172 19.035 Z  M 15.799 21.714 C 17.258 21.714 17.936 23.003 17.936 25.58 C 17.936 25.648 17.902 25.851 17.902 25.851 L 13.392 26.123 C 13.527 23.546 14.036 21.714 15.799 21.714 Z " fill="rgb(241,55,58)"/>
<path d=" M 44.184 29.616 L 41.641 29.683 C 41.641 29.683 41.573 30.904 41.539 31.277 C 41.539 31.548 41.064 32.701 40.997 32.939 C 39.471 33.278 38.25 33.447 36.792 33.447 C 32.621 33.447 31.061 29.31 31.061 24.122 C 31.061 18.934 32.655 14.83 36.826 14.83 C 38.148 14.83 39.233 15 40.624 15.305 C 40.793 15.746 41.031 16.492 41.031 16.696 L 41.132 18.764 L 43.743 18.9 L 44.15 12.83 C 41.946 12.287 39.742 11.677 36.826 11.677 C 28.958 11.677 24.957 16.763 24.957 24.156 C 24.957 31.548 28.958 36.601 36.826 36.601 C 39.708 36.601 42.251 35.991 44.456 35.448 L 44.184 29.616 Z " fill="#463E43"/>
<path d=" M 63.233 27.818 C 63.233 22.155 60.248 19.035 54.857 19.035 C 49.465 19.035 46.481 22.155 46.481 27.818 C 46.481 33.447 49.465 36.601 54.857 36.601 C 60.248 36.601 63.233 33.447 63.233 27.818 Z  M 57.841 27.818 C 57.841 31.989 56.959 33.719 54.857 33.719 C 52.754 33.719 51.872 31.989 51.872 27.818 C 51.872 23.647 52.754 21.918 54.857 21.918 C 56.959 21.918 57.841 23.647 57.841 27.818 Z " fill="#463E43"/>
<path d=" M 76.794 19.035 C 74.387 19.035 72.725 20.053 71.301 22.393 L 70.962 19.917 L 70.249 19.273 L 68.622 19.341 C 66.96 19.341 64.654 19.035 64.654 19.035 L 64.349 21.545 L 66.892 22.121 C 66.892 22.121 67.231 24.393 67.231 25.072 L 67.231 38.331 C 67.231 39.009 66.892 41.416 66.892 41.416 L 65.197 41.823 L 65.366 44.028 C 65.366 44.028 67.164 43.858 68.757 43.858 C 72.589 43.858 74.827 44.028 74.827 44.028 L 74.997 41.62 L 72.318 41.416 C 72.318 41.416 71.979 39.009 71.979 37.313 L 71.979 36.262 C 72.928 36.364 73.878 36.432 74.726 36.432 C 80.151 36.432 83.237 33.176 83.237 27.479 C 83.237 22.087 80.931 19.035 76.794 19.035 L 76.794 19.035 Z  M 74.963 22.867 C 76.93 22.867 77.845 24.461 77.845 27.92 C 77.845 31.65 76.794 33.21 74.319 33.21 C 73.674 33.21 72.894 33.041 71.979 32.735 L 71.979 27.276 C 72.148 24.393 73.166 22.867 74.963 22.867 L 74.963 22.867 Z " fill="#463E43"/>
<path d=" M 93.327 30.735 L 91.191 24.02 C 91.021 23.546 90.784 22.46 90.716 21.748 L 92.14 21.579 L 92.005 19.171 C 92.005 19.171 89.665 19.341 88.173 19.341 C 85.969 19.341 83.459 19.035 83.459 19.035 L 83.256 21.375 L 85.392 21.748 C 85.799 22.494 86.511 24.292 86.816 25.072 L 91.021 36.092 L 89.97 38.907 C 89.733 39.585 89.36 40.297 88.919 40.806 C 88.478 40.942 87.901 41.01 87.427 41.01 L 85.562 40.942 L 85.189 43.621 L 91.903 44.061 L 99.295 24.97 C 99.533 24.292 100.347 22.393 100.72 21.748 L 102.381 21.579 L 102.246 19.171 C 102.246 19.171 100.042 19.341 98.549 19.341 C 96.345 19.341 94.514 19.171 94.514 19.171 L 94.311 21.579 L 95.803 21.748 C 95.769 22.393 95.531 23.546 95.396 23.952 L 93.327 30.735 Z " fill="#463E43"/>
<path d=" M 130.538 21.579 L 130.368 19.171 C 130.368 19.171 128.808 19.341 127.452 19.341 C 125.078 19.341 122.637 19.171 122.637 19.171 L 122.467 21.579 L 124.434 21.714 C 124.23 22.596 123.959 23.647 123.824 24.054 L 121.619 31.074 L 118.466 19.341 L 115.481 19.341 L 111.887 31.074 L 109.988 24.122 C 109.886 23.715 109.717 22.766 109.513 21.714 L 111.751 21.579 L 111.582 19.171 C 111.582 19.171 108.767 19.341 107.411 19.341 C 105.037 19.341 102.697 19.035 102.697 19.035 L 102.528 21.375 L 104.393 21.748 C 104.867 22.8 105.274 23.986 105.41 24.427 C 105.681 25.173 109.479 36.092 109.479 36.092 L 113.854 36.092 L 116.601 27.92 L 119.11 36.092 L 123.518 36.092 L 127.486 25.275 C 127.655 24.8 128.435 23.139 129.08 21.782 L 130.538 21.579 Z " fill="#463E43"/>
<path d=" M 137.93 19.917 L 137.218 19.273 L 135.59 19.341 C 134.166 19.341 131.622 19.002 131.622 19.002 L 131.317 21.545 L 133.861 22.121 C 133.861 22.121 134.2 24.393 134.2 25.072 L 134.2 30.565 C 134.2 31.243 133.894 33.481 133.894 33.481 L 131.589 33.888 L 131.758 36.262 C 131.758 36.262 133.894 36.092 135.488 36.092 C 139.32 36.092 141.897 36.262 141.897 36.262 L 142.067 33.685 L 139.252 33.481 C 139.252 33.481 138.947 31.243 138.947 29.548 L 138.947 27.106 C 138.947 24.054 140.609 22.426 142.304 22.426 C 142.372 22.426 142.44 22.426 142.508 22.46 C 142.576 22.867 142.779 23.952 142.779 24.224 L 142.779 26.089 L 145.288 26.191 L 145.797 19.375 C 145.797 19.375 144.237 19.035 143.016 19.035 C 140.982 19.035 139.422 20.29 138.235 22.155 L 137.93 19.917 Z " fill="#463E43"/>
<path d=" M 157.021 33.685 L 154.817 33.481 C 154.817 33.481 154.512 31.243 154.512 29.548 L 154.512 26.089 C 154.512 24.393 154.851 19.917 154.851 19.917 L 154.139 19.273 L 151.154 19.341 C 149.73 19.341 147.187 19.035 147.187 19.035 L 146.882 21.545 L 149.425 22.121 C 149.425 22.121 149.764 24.393 149.764 25.072 L 149.764 30.565 C 149.764 31.243 149.459 33.481 149.459 33.481 L 147.221 33.888 L 147.39 36.262 C 147.39 36.262 149.188 36.092 150.781 36.092 C 154.613 36.092 156.851 36.262 156.851 36.262 L 157.021 33.685 Z  M 152.036 11.168 C 150.307 11.168 149.357 12.287 149.357 13.881 C 149.357 15.475 150.307 16.56 152.036 16.56 C 153.766 16.56 154.715 15.475 154.715 13.881 C 154.715 12.185 153.698 11.168 152.036 11.168 Z " fill="#463E43"/>
<path d=" M 168.653 32.701 C 168.653 32.701 167.704 33.38 166.822 33.38 C 165.703 33.38 165.059 32.362 165.059 31.243 L 165.059 21.884 L 168.789 21.884 L 169.094 19.341 L 165.059 19.341 L 165.059 15.509 L 163.194 15.373 C 163.194 15.373 161.77 17.747 161.329 18.323 C 161.159 18.561 158.989 19.375 158.039 19.748 L 158.141 21.884 L 160.311 21.884 L 160.311 30.802 C 160.311 34.533 161.702 36.432 165.398 36.432 C 167.433 36.432 168.789 35.516 169.908 34.634 L 168.653 32.701 Z " fill="#463E43"/>
<path d=" M 180.401 33.685 L 178.197 33.481 C 178.197 33.481 177.891 31.243 177.891 29.548 L 177.891 26.089 C 177.891 24.393 178.231 19.917 178.231 19.917 L 177.518 19.273 L 174.534 19.341 C 173.11 19.341 170.567 19.035 170.567 19.035 L 170.262 21.545 L 172.805 22.121 C 172.805 22.121 173.144 24.393 173.144 25.072 L 173.144 30.565 C 173.144 31.243 172.839 33.481 172.839 33.481 L 170.601 33.888 L 170.77 36.262 C 170.77 36.262 172.567 36.092 174.161 36.092 C 177.993 36.092 180.231 36.262 180.231 36.262 L 180.401 33.685 Z  M 175.416 11.168 C 173.686 11.168 172.737 12.287 172.737 13.881 C 172.737 15.475 173.686 16.56 175.416 16.56 C 177.145 16.56 178.095 15.475 178.095 13.881 C 178.095 12.185 177.078 11.168 175.416 11.168 Z " fill="#463E43"/>
<path d=" M 181.521 21.545 L 184.064 22.121 C 184.064 22.121 184.403 24.393 184.403 25.072 L 184.403 30.565 C 184.403 31.243 184.098 33.481 184.098 33.481 L 181.86 33.888 L 182.03 36.262 C 182.03 36.262 183.827 36.092 185.421 36.092 C 189.253 36.092 191.491 36.262 191.491 36.262 L 191.66 33.685 L 189.456 33.481 C 189.456 33.481 189.151 31.243 189.151 29.548 L 189.151 27.106 C 189.151 24.054 190.812 22.426 192.508 22.426 C 194.271 22.426 195.017 23.783 195.017 25.546 L 195.017 30.565 C 195.017 30.904 194.916 32.261 194.848 33.481 L 192.949 33.888 L 193.118 36.262 C 193.118 36.262 194.441 36.092 196.035 36.092 C 199.867 36.092 202.105 36.262 202.105 36.262 L 202.274 33.685 L 200.07 33.481 C 200.07 33.481 199.765 31.243 199.765 29.548 L 199.765 25.072 C 199.765 21.138 197.798 19.035 194.102 19.035 C 191.525 19.035 189.829 20.358 188.473 22.359 L 188.134 19.917 L 187.421 19.273 L 185.794 19.341 C 184.369 19.341 181.826 19.035 181.826 19.035 L 181.521 21.545 Z " fill="#463E43"/>
<path d=" M 219.661 21.918 L 219.525 19.002 L 215.083 19.748 C 214.032 19.273 212.777 19.035 211.387 19.035 C 207.012 19.035 204.096 21.511 204.096 25.241 C 204.096 27.547 205.249 29.378 207.182 30.395 C 205.791 31.752 205.113 32.634 205.113 33.108 C 205.113 34.567 205.554 35.516 206.571 36.228 C 204.74 37.279 203.452 38.466 203.452 39.212 C 203.452 42.4 205.961 44.061 210.912 44.061 C 215.999 44.061 220 41.145 220 37.415 C 220 35.753 219.39 34.702 218.237 34.261 C 217.389 33.956 215.931 33.753 211.285 33.244 C 209.25 33.041 208.47 32.701 208.47 31.955 C 208.47 31.752 208.606 31.447 208.945 31.04 C 209.623 31.209 210.403 31.311 211.251 31.311 C 215.626 31.311 218.542 28.836 218.542 25.105 C 218.542 23.715 218.271 22.833 217.66 21.918 L 219.661 21.918 Z  M 208.572 37.042 C 209.081 37.178 209.657 37.279 210.335 37.381 L 214.744 38.059 C 215.456 38.161 215.863 38.602 215.863 39.212 C 215.863 40.535 214.54 41.349 212.404 41.349 C 209.522 41.349 207.962 40.399 207.962 38.67 C 207.962 38.195 208.165 37.585 208.572 37.042 L 208.572 37.042 Z  M 211.387 21.274 C 212.743 21.274 213.387 22.494 213.387 25.038 C 213.387 27.784 212.709 29.073 211.285 29.073 C 209.929 29.073 209.25 27.852 209.25 25.309 C 209.25 22.562 209.962 21.274 211.387 21.274 Z " fill="#463E43"/>
</g>
</g>
</svg>