<svg xmlns="http://www.w3.org/2000/svg" xmlns:xlink="http://www.w3.org/1999/xlink" style="isolation:isolate" viewBox="16.096 15 222.904 111.8">
<style>
    @-webkit-keyframes fadeIn {
        from { opacity: 0; }
        to { opacity: 1; }
    }

    @keyframes fadeIn {
        from { opacity: 0; }
        to { opacity: 1; }
    }

    .ekotechnologia_l01,
    .ekotechnologia_l02,
    .ekotechnologia_l03,
    .ekotechnologia_l04,
    .ekotechnologia_l05,
    .ekotechnologia_l06,
    .ekotechnologia_l07,
    .ekotechnologia_l08,
    .ekotechnologia_l09,
    .ekotechnologia_l10,
    .ekotechnologia_l11 {
        opacity: 0;
        -webkit-animation: fadeIn 200ms cubic-bezier(.17,.67,.83,.67) forwards;
                animation: fadeIn 200ms cubic-bezier(.17,.67,.83,.67) forwards;
    }

    .ekotechnologia {
        opacity: 0;
        -webkit-animation: fadeIn 600ms cubic-bezier(.17,.67,.83,.67) forwards;
                animation: fadeIn 600ms cubic-bezier(.17,.67,.83,.67) forwards;
    }

    .ekotechnologia_l01 { -webkit-animation-delay: 50ms; animation-delay: 50ms; }
    .ekotechnologia_l02 { -webkit-animation-delay: 100ms; animation-delay: 100ms; }
    .ekotechnologia_l03 { -webkit-animation-delay: 150ms; animation-delay: 150ms; }
    .ekotechnologia_l04 { -webkit-animation-delay: 200ms; animation-delay: 200ms; }
    .ekotechnologia_l05 { -webkit-animation-delay: 250ms; animation-delay: 250ms; }
    .ekotechnologia_l06 { -webkit-animation-delay: 300ms; animation-delay: 300ms; }
    .ekotechnologia_l07 { -webkit-animation-delay: 350ms; animation-delay: 350ms; }
    .ekotechnologia_l08 { -webkit-animation-delay: 400ms; animation-delay: 400ms; }
    .ekotechnologia_l09 { -webkit-animation-delay: 450ms; animation-delay: 450ms; }
    .ekotechnologia_l10 { -webkit-animation-delay: 500ms; animation-delay: 500ms; }
    .ekotechnologia_l11 { -webkit-animation-delay: 550ms; animation-delay: 550ms; }
    .ekotechnologia { -webkit-animation-delay: 600ms; animation-delay: 600ms; }

</style>
<g>
<g class="ekotechnologia">
<g>
<path d=" M 68.9 92.8 L 51.3 92.8 C 32 92.8 15.8 77 16.1 57.7 C 16.4 39 31.8 23.8 50.6 23.8 C 69.6 23.8 85.1 39.3 85.1 58.3 C 85.1 62.4 81.7 65.8 77.6 65.8 L 50.9 65.8 C 46.8 65.8 43.2 62.6 43.1 58.5 C 43 54.3 46.4 50.8 50.6 50.8 L 63.7 50.8 C 66 50.8 67.4 48.1 66 46.2 C 62.4 41.7 56.9 38.8 50.7 38.8 C 40.4 38.8 31.8 47 31.2 57.2 C 30.6 68.4 39.6 77.8 50.7 77.8 L 68.7 77.8 C 72.8 77.8 76.4 81 76.5 85.1 C 76.6 89.4 73.1 92.8 68.9 92.8 Z " fill="rgb(134,134,134)"/>
</g>
<g>
<path d=" M 132.9 71 L 126.3 77.6 C 125.2 78.7 125.2 80.5 126.3 81.6 L 135.3 90.6 C 136.8 92.1 138.7 92.8 140.6 92.8 C 142.5 92.8 144.4 92.1 145.9 90.6 C 148.8 87.7 148.8 82.9 145.9 80 L 136.9 71 C 135.8 69.9 134 69.9 132.9 71 Z " fill="rgb(134,134,134)"/>
<path d=" M 124.3 58.4 L 124.3 58.4 L 145.7 36.9 C 148.6 34 148.9 29.2 146.1 26.2 C 143.2 23.1 138.3 23.1 135.3 26 L 116.9 44.4 C 115.1 46.2 112.1 44.9 112.1 42.4 L 112.1 31.7 C 112.1 27.6 108.9 24 104.8 23.9 C 100.6 23.8 97.1 27.2 97.1 31.4 L 97.1 85 C 97.1 89.1 100.3 92.7 104.4 92.8 C 108.6 92.9 112.1 89.5 112.1 85.3 L 112.1 70.6 L 124.3 58.4 L 124.3 58.4 Z " fill="rgb(134,134,134)"/>
</g>
<g>
<path d=" M 216.3 86.2 C 216.3 85.3 215.9 84.5 215.3 83.9 C 213.2 82.2 208.7 78.6 206.6 76.9 C 205.8 76.2 204.7 76.1 203.7 76.5 C 200.6 77.9 197 78.5 193.3 78 C 185 77 178.1 70.7 176.3 62.5 C 175.7 59.6 175.7 56.8 176.3 54.2 C 176.5 53.2 176.2 52.1 175.3 51.4 C 172.4 49 166 43.8 166 43.8 C 165.3 43.3 164.5 43 163.6 43.2 L 157.9 44.4 C 156.2 44.8 155.5 46.9 156.7 48.2 L 161.1 52.9 C 162.1 53.9 161.9 55.5 160.7 56.3 L 155.5 60 C 154.1 61 154.3 63.2 155.9 63.9 L 161.7 66.5 C 163 67.1 163.4 68.6 162.7 69.8 L 159.2 75.2 C 158.3 76.7 159.3 78.6 161 78.7 L 167.4 78.9 C 168.8 78.9 169.8 80.2 169.6 81.6 L 168.5 87.9 C 168.2 89.6 169.9 91 171.5 90.4 L 177.5 88.1 C 178.8 87.6 180.2 88.4 180.5 89.7 L 181.9 96 C 182.3 97.7 184.4 98.4 185.7 97.2 L 190.4 92.8 C 191.4 91.8 193 92 193.8 93.2 L 197.5 98.4 C 198.5 99.8 200.7 99.6 201.4 98 L 204 92.2 C 204.6 90.9 206.1 90.5 207.3 91.2 L 212.7 94.7 C 214.2 95.6 216.1 94.6 216.2 92.9 L 216.3 86.2 L 216.3 86.2 Z " fill="rgb(134,134,134)"/>
<path d=" M 239 54.2 L 227.1 48.9 L 234.1 37.9 L 221.1 37.5 L 223.4 24.7 L 211.2 29.4 L 208.4 16.7 L 198.9 25.7 L 191.4 15 L 186.1 26.9 L 175.1 19.9 L 174.8 30.5 C 174.8 31.4 175.2 32.2 175.8 32.8 C 175.8 32.8 181.8 37.6 184.6 39.9 C 185.4 40.6 186.5 40.7 187.5 40.3 C 190 39.2 192.9 38.6 195.8 38.6 C 206.2 38.8 214.9 47.3 215.3 57.7 C 215.4 59.4 215.2 61 214.9 62.5 C 214.7 63.5 215 64.6 215.9 65.3 C 218.8 67.6 225.1 72.8 225.1 72.8 C 225.8 73.3 226.7 73.6 227.5 73.4 L 237.2 71.2 L 228.2 61.7 L 239 54.2 L 239 54.2 Z " fill="rgb(248,177,51)"/>
</g>
</g>
<g>
<path class="ekotechnologia_l01" d=" M 35.748 108.8 L 45.448 108.8 L 45.448 111.1 L 41.748 111.1 L 41.748 122 L 39.248 122 L 39.248 111.1 L 35.648 111.1 L 35.648 108.8 L 35.748 108.8 Z " fill="rgb(134,134,134)"/>
<path class="ekotechnologia_l02" d=" M 56.748 112.3 C 59.548 112.3 60.848 112.6 60.848 115.8 C 60.848 117.5 59.948 118.2 58.148 118.2 L 55.148 118.2 C 55.148 119.9 55.748 120 57.148 120 C 58.648 120 59.348 120 60.648 119.8 L 60.648 121.5 C 59.248 122 57.248 122 55.748 122 C 53.348 122 52.548 120.6 52.548 117.1 C 52.648 113 53.748 112.3 56.748 112.3 Z  M 57.548 116.4 C 58.048 116.4 58.348 116.1 58.348 115.7 C 58.348 114.5 58.148 114.3 56.948 114.3 C 55.648 114.3 55.148 114.4 55.148 116.4 L 57.548 116.4 L 57.548 116.4 Z " fill="rgb(134,134,134)"/>
<path class="ekotechnologia_l03" d=" M 74.248 112.3 C 75.148 112.3 77.048 112.4 78.648 112.9 L 78.648 114.4 C 78.648 114.4 76.948 114.3 75.348 114.3 C 74.148 114.3 73.648 114.4 73.648 117.2 C 73.648 119.6 74.048 120 75.348 120 C 77.048 120 78.748 119.8 78.748 119.8 L 78.748 121.4 C 77.348 122.1 75.748 122 74.248 122 C 72.448 122 71.048 121.1 71.048 117.1 C 71.048 113.2 72.348 112.3 74.248 112.3 Z " fill="rgb(134,134,134)"/>
<path class="ekotechnologia_l04" d=" M 89.148 107.8 L 91.648 107.8 L 91.648 113.4 C 92.448 112.8 93.248 112.2 94.648 112.2 C 96.848 112.2 97.548 113.7 97.548 115.5 L 97.548 121.9 L 95.048 121.9 L 95.048 115.5 C 95.048 114.6 94.648 114.2 93.948 114.2 C 92.948 114.2 92.348 114.5 91.648 115 L 91.648 121.9 L 89.148 121.9 L 89.148 107.8 L 89.148 107.8 Z " fill="rgb(134,134,134)"/>
<path class="ekotechnologia_l05" d=" M 108.048 112.4 L 110.048 112.4 L 110.548 113.4 C 111.348 112.8 112.148 112.2 113.548 112.2 C 115.748 112.2 116.448 113.7 116.448 115.5 L 116.448 121.9 L 113.948 121.9 L 113.948 115.5 C 113.948 114.6 113.548 114.2 112.848 114.2 C 111.848 114.2 111.248 114.5 110.548 115 L 110.548 121.9 L 108.048 121.9 L 108.048 112.4 L 108.048 112.4 Z " fill="rgb(134,134,134)"/>
<path class="ekotechnologia_l06" d=" M 131.148 112.3 C 134.448 112.3 135.548 113.5 135.548 117.3 C 135.548 120.8 134.548 122 131.148 122 C 127.848 122 126.748 120.7 126.748 117.3 C 126.748 113.4 127.848 112.3 131.148 112.3 Z  M 131.148 120 C 132.548 120 132.948 119.8 132.948 117.3 C 132.948 114.6 132.648 114.3 131.148 114.3 C 129.648 114.3 129.348 114.6 129.348 117.3 C 129.248 119.8 129.748 120 131.148 120 Z " fill="rgb(134,134,134)"/>
<path class="ekotechnologia_l07" d=" M 145.948 107.8 L 148.448 107.8 L 148.448 118.1 C 148.448 119.5 148.748 119.8 149.248 120 C 149.248 120 150.348 120.4 150.448 120.4 L 150.448 121.9 L 148.348 121.9 C 146.748 121.9 145.848 121 145.848 118.5 L 145.848 107.8 L 145.948 107.8 Z " fill="rgb(134,134,134)"/>
<path class="ekotechnologia_l08" d=" M 164.448 112.3 C 167.748 112.3 168.848 113.5 168.848 117.3 C 168.848 120.8 167.848 122 164.448 122 C 161.148 122 160.048 120.7 160.048 117.3 C 160.148 113.4 161.248 112.3 164.448 112.3 Z  M 164.448 120 C 165.848 120 166.248 119.8 166.248 117.3 C 166.248 114.6 165.948 114.3 164.448 114.3 C 162.948 114.3 162.648 114.6 162.648 117.3 C 162.648 119.8 163.148 120 164.448 120 Z " fill="rgb(134,134,134)"/>
<path class="ekotechnologia_l09" d=" M 180.248 118.4 C 179.448 117.9 179.248 116.7 179.248 115.8 C 179.248 113.5 180.448 112.4 182.548 112.4 L 188.348 112.4 L 188.348 113.9 L 187.248 114.2 C 187.448 114.6 187.648 114.9 187.648 116.1 C 187.648 117.5 187.048 119.3 184.348 119.3 L 182.148 119.3 C 181.848 119.3 181.448 119.3 181.448 119.7 C 181.448 120.1 181.748 120.2 182.148 120.2 L 185.048 120.2 C 186.748 120.2 187.848 121.1 187.848 123 L 187.848 124 C 187.848 125.4 187.248 126.8 184.848 126.8 L 182.248 126.8 C 180.548 126.8 179.248 125.9 179.248 124 L 179.248 122.8 L 180.048 121.9 C 179.548 121.6 179.148 121 179.148 120.1 C 179.148 119.4 179.448 118.7 180.248 118.4 Z  M 182.848 117.2 L 183.848 117.2 C 184.848 117.2 185.048 116.6 185.048 115.7 C 185.048 114.7 184.748 114.3 183.848 114.3 L 182.848 114.3 C 181.848 114.3 181.648 114.9 181.648 115.7 C 181.748 116.6 182.048 117.2 182.848 117.2 Z  M 182.948 124.8 L 184.448 124.8 C 185.348 124.8 185.448 124.3 185.448 123.8 L 185.448 123.1 C 185.448 122.6 185.248 122.2 184.548 122.2 L 182.648 122.2 C 182.248 122.2 181.848 122.1 181.848 122.1 L 181.848 123.7 C 181.748 124.7 182.248 124.8 182.948 124.8 Z " fill="rgb(134,134,134)"/>
<path class="ekotechnologia_l10" d=" M 198.248 109.4 C 198.248 109.1 198.348 108.9 198.648 108.9 L 200.548 108.9 C 200.848 108.9 200.948 109.1 200.948 109.4 L 200.948 111 C 200.948 111.3 200.848 111.4 200.548 111.4 L 198.648 111.4 C 198.348 111.4 198.248 111.2 198.248 111 L 198.248 109.4 Z  M 198.348 112.4 L 200.848 112.4 L 200.848 122 L 198.348 122 L 198.348 112.4 Z " fill="rgb(134,134,134)"/>
<path class="ekotechnologia_l11" d=" M 211.248 118.6 C 211.248 117.2 212.048 116 214.048 116 C 214.048 116 216.848 116 216.848 116 C 216.848 116 216.848 115.4 216.848 115.4 C 216.848 114.4 216.348 114.2 215.548 114.2 C 214.748 114.2 212.348 114.3 211.548 114.4 L 211.548 112.8 C 212.848 112.3 214.148 112.2 215.948 112.2 C 218.048 112.2 219.448 112.9 219.448 115.3 L 219.448 122 L 217.448 122 L 216.948 121 C 216.848 121.2 215.448 122.2 214.048 122.2 C 212.248 122.1 211.348 120.9 211.348 119.7 L 211.348 118.6 L 211.248 118.6 Z  M 214.648 120 C 215.648 120 216.848 119.2 216.848 119.2 L 216.848 117.5 L 214.548 117.7 C 213.848 117.8 213.748 118.3 213.748 118.7 L 213.748 119.2 C 213.748 119.9 214.148 120 214.648 120 Z " fill="rgb(134,134,134)"/>
</g>
</g>
</svg>