<svg xmlns="http://www.w3.org/2000/svg" xmlns:xlink="http://www.w3.org/1999/xlink" style="isolation:isolate" viewBox="-352.639 -3 153.278 151"><g><path d=" M -333.921 21.485 C -311.976 -6.397 -222.133 -12.593 -206.901 36.201 C -196.128 70.711 -205.61 98.678 -223.94 133.015 C -233.493 151.861 -320.155 145.849 -333.921 133.015 C -357.524 111.008 -352.056 33.155 -333.921 21.485 C -304.232 2.381 -244.585 -6.023 -217.744 31.554 C -203.544 51.433 -210.516 98.678 -223.94 133.015" fill="none" stroke-width="2" stroke="rgb(182,235,203)"/><g><path d=" M -237.425 97.113 L -237.425 86.575 C -237.446 86.528 -237.467 86.481 -237.485 86.433 L -237.486 77.803 L -237.486 72.847 L -237.487 72.658 L -251.425 72.66 C -252.576 72.146 -253.126 70.679 -252.388 69.495 C -250.494 66.458 -250.063 62.703 -253.572 60.638 C -256.419 58.963 -260.325 60.038 -261.903 62.943 C -263.201 65.33 -262.138 67.433 -260.919 69.569 C -260.246 70.748 -260.803 72.159 -261.928 72.66 L -275.692 72.662 L -275.692 72.85 L -275.692 78.217 L -275.691 86.292 C -275.347 87.68 -273.708 88.427 -272.408 87.616 C -269.37 85.724 -265.614 85.293 -263.55 88.804 C -261.877 91.651 -263.116 95.492 -266.02 97.068 C -268.407 98.365 -270.323 97.32 -272.484 96.147 C -273.911 95.372 -275.377 95.964 -275.69 97.478 L -275.689 110.868 L -266.027 110.867 L -266.027 110.898 L -245.266 110.898 L -245.266 110.864 L -237.483 110.864 L -237.484 97.25 C -237.467 97.203 -237.446 97.159 -237.425 97.113 Z " fill="rgb(255,255,255)" stroke-width="0.5px" stroke="rgb(70,62,67)"/><path d=" M -276.31 58.923 C -276.623 57.408 -278.088 56.817 -279.516 57.591 C -281.677 58.764 -283.592 59.809 -285.98 58.512 C -288.885 56.935 -290.123 53.095 -288.45 50.248 C -286.386 46.737 -282.63 47.168 -279.592 49.06 C -278.291 49.871 -276.652 49.124 -276.309 47.736 L -276.308 39.662 L -276.308 34.294 L -276.307 34.106 L -280.654 34.106 L -312.868 34.106 L -312.868 34.102 L -314.513 34.101 L -314.513 34.29 L -314.514 39.246 L -314.515 47.876 C -314.532 47.926 -314.554 47.972 -314.574 48.019 L -314.574 58.558 C -314.555 58.603 -314.533 58.647 -314.516 58.694 L -314.518 72.308 L -314.518 72.413 L -314.325 72.413 L -300.739 72.413 C -299.476 72.854 -298.835 74.399 -299.606 75.639 C -301.498 78.677 -301.929 82.432 -298.418 84.495 C -295.571 86.168 -291.665 85.091 -290.088 82.186 C -288.791 79.799 -289.856 77.696 -291.075 75.561 C -291.778 74.332 -291.142 72.854 -289.921 72.413 L -276.307 72.413 L -276.307 66.817 L -276.311 66.817 L -276.31 58.923 Z " fill="rgb(255,255,255)" stroke-width="0.5px" stroke="rgb(70,62,67)"/><path d=" M -264.157 88.777 C -266.223 85.267 -269.978 85.7 -273.015 87.594 C -274.475 88.504 -276.368 87.454 -276.368 85.733 L -276.368 73.028 L -289.921 73.028 C -291.142 73.469 -291.778 74.946 -291.075 76.176 C -289.856 78.311 -288.791 80.414 -290.088 82.801 C -291.665 85.706 -295.571 86.784 -298.418 85.111 C -301.929 83.047 -301.498 79.291 -299.606 76.253 C -298.835 75.014 -299.476 73.469 -300.739 73.028 L -314.325 73.028 L -314.328 73.028 L -314.513 73.028 L -314.574 73.028 L -314.574 73.028 L -314.574 110.898 L -276.368 110.898 L -276.368 98.028 C -276.368 96.344 -274.55 95.29 -273.088 96.124 C -270.951 97.343 -268.849 98.406 -266.461 97.108 C -263.558 95.53 -262.483 91.623 -264.157 88.777 Z " fill="rgb(255,255,255)" stroke-width="0.5px" stroke="rgb(70,62,67)"/><path d=" M -237.425 71.636 L -237.425 34.211 L -275.632 34.211 L -275.632 47.252 C -275.632 48.974 -277.524 50.024 -278.985 49.113 C -282.022 47.219 -285.777 46.787 -287.842 50.297 C -289.518 53.143 -288.442 57.05 -285.539 58.628 C -283.151 59.926 -281.048 58.862 -278.912 57.644 C -277.45 56.81 -275.632 57.864 -275.632 59.547 L -275.632 72.418 L -262.243 72.418 C -260.907 72.063 -260.176 70.5 -260.911 69.212 C -262.132 67.077 -263.195 64.974 -261.899 62.586 C -260.323 59.682 -256.416 58.605 -253.569 60.278 C -250.058 62.341 -250.488 66.096 -252.38 69.134 C -253.191 70.435 -252.444 72.075 -251.056 72.418 L -237.425 72.418 L -237.425 71.636 Z " fill="rgb(255,255,255)" stroke-width="0.5px" stroke="rgb(70,62,67)"/></g></g></svg>