<svg xmlns="http://www.w3.org/2000/svg" xmlns:xlink="http://www.w3.org/1999/xlink" style="isolation:isolate" viewBox="358.138 -3 129.724 151"><g><path d=" M 361.138 0 Q 477.867 1.773 480.921 14.973 Q 484.832 31.878 480.921 145 L 362.714 133.179 L 365.866 3.94 Q 440.228 1.815 476.98 14.973 Q 484.959 17.829 484.861 140.272 L 368.23 129.239 L 361.138 0 Z " fill="none" stroke-width="2" stroke="rgb(182,235,203)"/><g><path d=" M 461.365 95.883 L 461.365 86.87 C 461.349 86.83 461.33 86.79 461.315 86.748 L 461.314 79.367 L 461.314 75.129 L 461.314 74.967 L 449.393 74.968 C 448.409 74.529 447.939 73.275 448.57 72.263 C 450.189 69.665 450.559 66.453 447.556 64.687 C 445.122 63.255 441.781 64.175 440.432 66.658 C 439.322 68.7 440.231 70.498 441.273 72.325 C 441.849 73.335 441.373 74.541 440.41 74.97 L 428.639 74.971 L 428.639 75.132 L 428.639 79.722 L 428.64 86.627 C 428.933 87.815 430.335 88.453 431.448 87.76 C 434.046 86.142 437.258 85.773 439.023 88.776 C 440.454 91.211 439.395 94.495 436.912 95.844 C 434.87 96.953 433.231 96.059 431.383 95.056 C 430.162 94.393 428.909 94.899 428.641 96.195 L 428.642 107.646 L 436.904 107.645 L 436.904 107.672 L 454.66 107.672 L 454.66 107.643 L 461.317 107.642 L 461.316 95.999 C 461.331 95.959 461.349 95.921 461.365 95.883 Z " fill="none" stroke-width="0.5px" stroke="rgb(70,62,67)"/><path d=" M 419.59 83.966 C 416.515 82.332 413.971 84.329 412.606 87.068 C 411.949 88.385 410.1 88.467 409.33 87.213 L 403.643 77.954 L 393.766 84.02 C 393.073 84.887 393.271 86.249 394.334 86.831 C 396.178 87.841 397.895 88.897 398.019 91.217 C 398.17 94.04 395.806 96.573 392.982 96.628 C 389.5 96.695 388.132 93.766 388.151 90.705 C 388.159 89.456 387 88.618 385.883 88.861 L 375.982 94.942 L 375.932 94.867 L 375.794 94.952 L 375.691 94.783 L 375.65 94.809 L 392.75 122.652 L 420.593 105.552 L 414.833 96.173 C 414.08 94.946 414.932 93.363 416.371 93.317 C 418.473 93.249 420.482 93.083 421.64 91.069 C 423.05 88.619 422.084 85.29 419.59 83.966 Z " fill="none" stroke-width="0.5px" stroke="rgb(70,62,67)"/><path d=" M 459.833 63.314 L 470.351 33.084 L 470.198 33.032 L 439.49 22.348 L 435.825 32.882 C 435.342 34.272 433.517 34.588 432.594 33.442 C 430.673 31.059 427.762 29.654 425.107 31.909 C 422.954 33.737 422.724 37.195 424.627 39.286 C 426.19 41.005 428.187 40.737 430.255 40.353 C 431.67 40.09 432.843 41.453 432.37 42.813 L 428.753 53.209 L 439.568 56.972 C 440.747 57.06 441.777 56.002 441.544 54.756 C 441.159 52.689 440.89 50.691 442.608 49.127 C 444.698 47.224 448.156 47.45 449.986 49.603 C 452.242 52.256 450.839 55.168 448.456 57.091 C 447.437 57.913 447.579 59.448 448.605 60.115 L 455.126 62.384 L 459.461 63.892 L 459.613 63.945 L 459.833 63.314 Z " fill="none" stroke-width="0.5px" stroke="rgb(70,62,67)"/><path d=" M 414.469 50.875 C 414.047 49.622 412.742 49.27 411.61 50.074 C 409.895 51.292 408.376 52.375 406.216 51.519 C 403.588 50.479 402.142 47.345 403.272 44.756 C 404.663 41.564 407.896 41.544 410.67 42.839 C 411.857 43.394 413.172 42.591 413.321 41.377 L 412.494 34.522 L 411.943 29.965 L 411.924 29.805 L 408.234 30.251 L 380.882 33.556 L 380.882 33.553 L 379.484 33.722 L 379.504 33.882 L 380.012 38.09 L 380.897 45.417 C 380.887 45.461 380.874 45.502 380.861 45.544 L 381.943 54.492 C 381.964 54.529 381.987 54.564 382.006 54.602 L 383.402 66.161 L 383.563 66.142 L 383.576 66.23 L 387.784 65.722 L 395.111 64.836 C 396.228 65.081 396.932 66.327 396.404 67.459 C 395.109 70.232 395.129 73.465 398.322 74.857 C 400.911 75.986 404.117 74.669 405.157 72.041 C 406.013 69.881 404.894 68.205 403.639 66.517 C 402.916 65.546 403.305 64.226 404.296 63.727 L 415.855 62.33 L 415.281 57.578 L 415.278 57.579 L 414.469 50.875 Z " fill="none" stroke-width="0.5px" stroke="rgb(70,62,67)"/></g></g></svg>