<svg xmlns="http://www.w3.org/2000/svg" xmlns:xlink="http://www.w3.org/1999/xlink" style="isolation:isolate" viewBox="-172 -6 133.535 157">
<style>
    @keyframes fadeIn {
        from { opacity: 0 }
        to { opacity: 1 }
    }

    @keyframes draw {
        from { stroke-dashoffset: 1000 }
        to { stroke-dashoffset: 0 }
    }

    .path01_scene02,
    .path02_scene02,
    .path03_scene02 {
        opacity: 0;
        animation: fadeIn 600ms cubic-bezier(.17,.67,.83,.67) forwards;
    }

    .line {
        stroke-dasharray: 1000;
        stroke-dashoffset: 1000;
        animation: draw 2s cubic-bezier(.17,.67,.83,.67) forwards;
    }

    .line { animation-delay: 400ms }
    .path01_scene02 { animation-delay: 200ms }
    .path02_scene02 { animation-delay: 400ms }
    .path03_scene02 { animation-delay: 600ms }
</style>
<g>
<path class="line" d=" M -124.089 124.172 Q -43.915 160.523 -44.469 73.868 C -45.031 -14.266 -170.234 -28.507 -165.89 58.256 C -164.772 80.581 -161.053 95.775 -152.882 112.841 C -141.467 136.684 -120.341 152.313 -99.109 141.518" fill="none" stroke-width="2" stroke="rgb(180,235,202)"/>
<g>
<path class="path02_scene02" d=" M -112.764 41.345 L -112.764 49.043 C -106.072 49.043 -100.004 51.766 -95.609 56.16 C -91.215 60.555 -88.493 66.623 -88.493 73.314 L -80.794 73.314 C -80.794 64.5 -84.38 56.508 -90.169 50.719 C -95.958 44.93 -103.95 41.345 -112.764 41.345 Z " fill="none" stroke-width="0.5px" stroke="rgb(70,62,67)"/>
<path class="path03_scene02" d=" M -78.531 39.081 C -87.301 30.311 -99.41 24.879 -112.764 24.879 L -112.764 32.578 C -101.532 32.578 -91.348 37.146 -83.972 44.522 C -76.596 51.899 -72.027 62.083 -72.027 73.314 L -64.329 73.314 C -64.329 59.961 -69.761 47.852 -78.531 39.081 Z " fill="none" stroke-width="0.5px" stroke="rgb(70,62,67)"/>
<path class="path01_scene02" d=" M -78.909 87.311 C -79.345 87.257 -83.196 86.705 -87.457 86.21 C -93.049 85.562 -99.347 85.015 -99.564 85.83 C -99.947 87.266 -101.299 89.729 -101.299 89.729 C -109.753 98.919 -116.59 92.082 -122.62 86.053 C -128.649 80.023 -133.464 71.9 -125.892 68.969 C -121.281 67.183 -120.724 63.225 -120.724 63.225 L -129.823 54.126 L -130.151 53.798 C -138.335 45.615 -140.16 43.905 -144.077 53.846 C -149.081 66.545 -143.39 74.473 -143.39 74.473 C -133.648 91.567 -120.415 100.514 -111.592 104.8 C -100.719 110.083 -86.949 110.283 -80.345 101.86 C -73.741 93.438 -78.909 87.311 -78.909 87.311 Z " fill="none" stroke-width="0.5px" stroke="rgb(70,62,67)"/>
</g>
</g>
</svg>