<svg xmlns="http://www.w3.org/2000/svg" xmlns:xlink="http://www.w3.org/1999/xlink" style="isolation:isolate" viewBox="-3 -3 123.96 160.5">
<style>
    @-webkit-keyframes fadeIn {
        from { opacity: 0 }
        to { opacity: 1 }
    }

    @keyframes fadeIn {
        from { opacity: 0 }
        to { opacity: 1 }
    }

    @-webkit-keyframes draw_1 {
        from { stroke-dashoffset: 1000 }
        to { stroke-dashoffset: 0 }
    }

    @keyframes draw_1 {
        from { stroke-dashoffset: 1000 }
        to { stroke-dashoffset: 0 }
    }

    @-webkit-keyframes draw_2 {
        from { stroke-dashoffset: 180 }
        to { stroke-dashoffset: 0 }
    }

    @keyframes draw_2 {
        from { stroke-dashoffset: 180 }
        to { stroke-dashoffset: 0 }
    }

    @-webkit-keyframes draw_3 {
        from { stroke-dashoffset: 100 }
        to { stroke-dashoffset: 0 }
    }

    @keyframes draw_3 {
        from { stroke-dashoffset: 100 }
        to { stroke-dashoffset: 0 }
    }

    .cloud_3 {
        stroke-dasharray: 1000;
        stroke-dashoffset: 1000;
        -webkit-animation: draw_1 2s cubic-bezier(.17,.67,.83,.67) forwards;
                animation: draw_1 2s cubic-bezier(.17,.67,.83,.67) forwards;
    }

    .cloud_2 {
        stroke-dasharray: 180;
        stroke-dashoffset: 180;
        -webkit-animation: draw_2 2s cubic-bezier(.17,.67,.83,.67) forwards;
                animation: draw_2 2s cubic-bezier(.17,.67,.83,.67) forwards;
    }

    .cloud_1 {
        stroke-dasharray: 100;
        stroke-dashoffset: 100;
        -webkit-animation: draw_3 2s cubic-bezier(.17,.67,.83,.67) forwards;
                animation: draw_3 2s cubic-bezier(.17,.67,.83,.67) forwards;
    }

    .path01_scene01,
    .path02_scene01
     {
        opacity: 0;
        -webkit-animation: fadeIn 600ms cubic-bezier(.17,.67,.83,.67) forwards;
                animation: fadeIn 600ms cubic-bezier(.17,.67,.83,.67) forwards;
    }

    .cloud_1 { -webkit-animation-delay: 100ms; animation-delay: 100ms }
    .cloud_2 { -webkit-animation-delay: 300ms; animation-delay: 300ms }
    .cloud_3 { -webkit-animation-delay: 500ms; animation-delay: 500ms }

    .path01_scene01 { -webkit-animation-delay: 200ms; animation-delay: 200ms }
    .path02_scene01 { -webkit-animation-delay: 400ms; animation-delay: 400ms }

</style>
<g>
<g>
<path class="cloud_3" d=" M 18.446 31.81 C 25.15 15.079 35.895 -15.781 89.624 18.519 C 141.042 51.345 105.273 116.195 61.328 123.784 C 16.867 131.462 5.792 89.014 3.754 69.555 C 1.279 45.905 3.827 33.074 27.815 22.385" fill="none" stroke-width="2" stroke="rgb(180,235,202)"/>
<path class="cloud_2" d=" M 80.358 133.558 C 80.236 128.158 87.826 123.802 93.938 127.615 C 104.65 134.297 87.435 146.595 80.726 142.117 C 74.545 137.992 75.289 134.494 82.932 131.617" fill="none" stroke-width="2" stroke="rgb(180,235,202)"/>
<path class="cloud_1" d=" M 100.448 146.571 C 100.469 146.21 100.336 145.675 100.448 145.543 C 101.429 144.371 106.49 140.919 108.388 147.255 C 110.443 154.119 100.933 154.264 99.138 150.673 C 97.719 147.837 100.357 148.097 100.448 146.571 Z " fill="none" stroke-width="2" stroke="rgb(180,235,202)"/>
</g>
<g>
<path class="path01_scene01" d=" M 52.953 88.715 C 50.912 88.751 49.168 89.502 47.773 90.946 C 46.376 92.391 45.686 94.158 45.721 96.201 C 45.757 98.244 46.508 99.988 47.952 101.382 C 49.397 102.777 51.165 103.467 53.207 103.432 C 54.016 103.418 54.779 103.292 55.492 103.054 C 56.575 102.692 57.545 102.073 58.388 101.202 C 59.783 99.757 60.473 97.989 60.438 95.947 C 60.403 93.907 59.653 92.165 58.207 90.766 C 56.761 89.37 54.993 88.68 52.953 88.715 Z " fill="none" stroke-width="0.5px" stroke="rgb(70,62,67)"/>
<path class="path02_scene01" d=" M 76.6 30.222 C 72.035 26.148 65.981 24.148 58.603 24.275 C 51.228 24.402 45.211 26.609 40.719 30.835 C 36.816 34.508 34.64 39.256 34.253 44.946 C 34.188 45.905 34.531 46.855 35.192 47.552 C 35.855 48.249 36.785 48.639 37.746 48.623 L 42.139 48.547 C 43.892 48.516 45.34 47.175 45.506 45.425 C 45.8 42.323 46.883 39.923 48.819 38.088 C 51.163 35.868 54.497 34.705 58.727 34.632 C 62.945 34.559 66.293 35.656 68.675 37.89 C 71.048 40.118 72.287 43.345 72.358 47.481 C 72.457 53.18 70.891 57.049 67.703 58.977 C 64.345 61.008 59.03 62.064 51.896 62.115 L 49.995 62.148 C 48.097 62.181 46.58 63.751 46.613 65.648 L 46.898 82.203 C 46.914 83.122 47.287 83.98 47.948 84.618 C 48.609 85.258 49.479 85.6 50.399 85.585 L 54.854 85.508 C 55.213 85.502 55.558 85.441 55.882 85.332 C 57.27 84.869 58.262 83.546 58.236 82.008 L 58.051 71.287 C 58.048 71.154 58.155 71.041 58.285 71.035 C 66.584 70.67 72.931 68.717 77.149 65.229 C 81.635 61.52 83.841 55.721 83.709 47.994 C 83.576 40.297 81.184 34.318 76.6 30.222 Z " fill="none" stroke-width="0.5px" stroke="rgb(70,62,67)"/>
</g>
</g>
</svg>