<?xml version="1.0" encoding="UTF-8" standalone="no"?><!-- Generator: Gravit.io --><svg xmlns="http://www.w3.org/2000/svg" xmlns:xlink="http://www.w3.org/1999/xlink" style="isolation:isolate" viewBox="82.885 80 154.23 187.564" width="154.23pt" height="187.564pt"><g><path d=" M 234.936 247.617 C 235.262 217.285 235.506 186.948 235.735 156.613 C 235.791 149.196 235.843 141.78 235.889 134.364 C 235.934 127.165 236.428 119.266 236.015 112.114 C 235.621 105.29 233.899 104.828 231.304 103.69 C 229.82 103.041 228.327 102.485 226.829 102 C 223.128 100.802 219.396 100.083 215.664 99.483 C 187.581 94.965 159.43 91.874 131.294 89.228 C 115.542 87.747 99.789 86.511 84.027 85.504 C 84.218 85.102 84.403 84.702 84.594 84.299 C 83.494 139.44 83.97 194.667 86.012 249.686 C 85.826 249.3 85.645 248.914 85.465 248.526 C 123.813 251.158 162.163 253.647 200.512 256.185 C 211.288 256.897 222.064 257.598 232.84 258.35 C 232.656 258.74 232.473 259.13 232.29 259.52 C 233.326 227.896 234.049 196.227 234.51 164.541 C 234.74 148.699 234.902 132.852 234.997 117.003 C 235.019 113.295 235.038 109.585 235.052 105.876 C 235.06 103.882 235.344 101.958 234.573 100.47 C 234.163 99.679 232.448 99.49 231.896 99.247 C 228.326 97.674 224.735 96.32 221.13 95.15 C 192.565 85.876 163.295 86.861 134.478 85.203 C 117.726 84.24 100.974 83.333 84.222 82.276 C 84.403 81.897 84.579 81.517 84.755 81.138 C 85.098 111.643 85.983 142.131 87.321 172.511 C 87.992 187.704 88.782 202.872 89.691 218.009 C 90.133 225.435 90.19 234.144 91.19 241.351 C 91.599 244.303 91.375 244.047 92.803 244.674 C 93.379 244.924 94.093 244.856 94.692 244.941 C 96.896 245.257 99.099 245.57 101.307 245.885 C 129.957 249.968 158.609 253.997 187.261 258.033 C 203.635 260.341 220.011 262.542 236.379 265.014 C 236.187 265.553 235.995 266.09 235.803 266.627 C 234.815 255.577 233.827 244.527 232.839 233.477 C 232.712 232.056 233.73 231.442 233.864 232.875 C 234.894 243.9 235.925 254.925 236.955 265.949 C 237.026 266.708 236.793 267.617 236.379 267.562 C 198.586 262.528 160.814 256.725 123.032 251.369 C 112.325 249.851 101.622 248.333 90.914 246.815 C 90.69 246.783 90.404 246.467 90.371 245.93 C 86.578 191.317 84.437 136.313 83.689 81.138 C 83.68 80.534 83.942 79.985 84.222 80 C 104.453 81.065 124.679 82.317 144.905 83.494 C 164.623 84.641 184.41 84.957 204.069 88.61 C 214.716 90.587 225.313 93.718 235.745 98.715 C 235.969 98.823 236.136 99.328 236.135 99.805 C 235.966 153.096 235.001 206.342 233.389 259.52 C 233.37 260.137 233.152 260.711 232.84 260.692 C 194.489 258.246 156.141 255.555 117.793 252.974 C 107.018 252.249 96.244 251.544 85.465 250.845 C 85.155 250.825 84.946 250.328 84.922 249.686 C 82.838 194.679 82.357 139.436 83.461 84.299 C 83.475 83.663 83.713 83.074 84.027 83.095 C 113.657 85 143.273 87.735 172.867 91.327 C 187.588 93.113 202.328 94.834 217.026 97.356 C 220.1 97.884 223.17 98.527 226.223 99.455 C 228.022 100.003 229.815 100.647 231.595 101.44 C 232.996 102.064 234.781 102.482 235.913 104.589 C 237.46 107.466 237.083 112.254 237.055 116.159 C 237 124.251 236.938 132.341 236.872 140.432 C 236.577 176.171 236.118 211.894 235.541 247.617 C 235.527 248.442 234.927 248.448 234.936 247.617 L 234.936 247.617" fill="rgb(180,235,202)"/><g><mask id="_mask_FnC4y78HHJ859hPj213kreyduSbLF5i3" x="-200%" y="-200%" width="400%" height="400%"><rect x="-200%" y="-200%" width="400%" height="400%" style="fill:white;"/><path d=" M 208.685 203.454 L 208.685 192.017 C 208.663 191.966 208.639 191.915 208.621 191.862 L 208.62 182.496 L 208.619 177.118 L 208.619 176.913 L 193.492 176.914 C 192.243 176.357 191.646 174.765 192.447 173.481 C 194.502 170.185 194.971 166.109 191.161 163.868 C 188.073 162.051 183.833 163.218 182.12 166.369 C 180.712 168.96 181.866 171.242 183.189 173.56 C 183.919 174.841 183.314 176.372 182.093 176.916 L 167.155 176.917 L 167.155 177.122 L 167.156 182.947 L 167.157 191.709 C 167.53 193.216 169.309 194.026 170.721 193.147 C 174.017 191.093 178.093 190.625 180.333 194.436 C 182.149 197.525 180.805 201.693 177.653 203.405 C 175.062 204.812 172.983 203.678 170.637 202.405 C 169.088 201.564 167.498 202.206 167.158 203.85 L 167.16 218.381 L 177.644 218.38 L 177.644 218.414 L 200.176 218.414 L 200.176 218.377 L 208.623 218.376 L 208.622 203.602 C 208.64 203.551 208.663 203.503 208.685 203.454" fill="black" stroke="none"/></mask><path d=" M 208.685 203.454 L 208.685 192.017 C 208.663 191.966 208.639 191.915 208.621 191.862 L 208.62 182.496 L 208.619 177.118 L 208.619 176.913 L 193.492 176.914 C 192.243 176.357 191.646 174.765 192.447 173.481 C 194.502 170.185 194.971 166.109 191.161 163.868 C 188.073 162.051 183.833 163.218 182.12 166.369 C 180.712 168.96 181.866 171.242 183.189 173.56 C 183.919 174.841 183.314 176.372 182.093 176.916 L 167.155 176.917 L 167.155 177.122 L 167.156 182.947 L 167.157 191.709 C 167.53 193.216 169.309 194.026 170.721 193.147 C 174.017 191.093 178.093 190.625 180.333 194.436 C 182.149 197.525 180.805 201.693 177.653 203.405 C 175.062 204.812 172.983 203.678 170.637 202.405 C 169.088 201.564 167.498 202.206 167.158 203.85 L 167.16 218.381 L 177.644 218.38 L 177.644 218.414 L 200.176 218.414 L 200.176 218.377 L 208.623 218.376 L 208.622 203.602 C 208.64 203.551 208.663 203.503 208.685 203.454" fill="none" mask="url(#_mask_FnC4y78HHJ859hPj213kreyduSbLF5i3)" vector-effect="non-scaling-stroke" stroke-width="2" stroke="rgb(70,62,67)" stroke-linejoin="miter" stroke-linecap="butt" stroke-miterlimit="4"/><path d=" M 208.685 203.454 L 208.685 192.017 C 208.663 191.966 208.639 191.915 208.621 191.862 L 208.62 182.496 L 208.619 177.118 L 208.619 176.913 L 193.492 176.914 C 192.243 176.357 191.646 174.765 192.447 173.481 C 194.502 170.185 194.971 166.109 191.161 163.868 C 188.073 162.051 183.833 163.218 182.12 166.369 C 180.712 168.96 181.866 171.242 183.189 173.56 C 183.919 174.841 183.314 176.372 182.093 176.916 L 167.155 176.917 L 167.155 177.122 L 167.156 182.947 L 167.157 191.709 C 167.53 193.216 169.309 194.026 170.721 193.147 C 174.017 191.093 178.093 190.625 180.333 194.436 C 182.149 197.525 180.805 201.693 177.653 203.405 C 175.062 204.812 172.983 203.678 170.637 202.405 C 169.088 201.564 167.498 202.206 167.158 203.85 L 167.16 218.381 L 177.644 218.38 L 177.644 218.414 L 200.176 218.414 L 200.176 218.377 L 208.623 218.376 L 208.622 203.602 C 208.64 203.551 208.663 203.503 208.685 203.454" fill="none"/><mask id="_mask_PP62fvnyzOAzI3ACpsUgmbwRwOonkSyi" x="-200%" y="-200%" width="400%" height="400%"><rect x="-200%" y="-200%" width="400%" height="400%" style="fill:white;"/><path d=" M 155.674 188.332 C 151.77 186.259 148.543 188.792 146.81 192.268 C 145.977 193.94 143.63 194.043 142.653 192.452 L 135.437 180.703 L 122.903 188.4 C 122.025 189.501 122.276 191.229 123.623 191.967 C 125.964 193.249 128.142 194.589 128.3 197.533 C 128.491 201.115 125.491 204.33 121.908 204.399 C 117.489 204.485 115.754 200.768 115.778 196.884 C 115.788 195.299 114.317 194.235 112.899 194.544 L 100.335 202.26 L 100.272 202.165 L 100.098 202.273 L 99.966 202.059 L 99.914 202.091 L 121.614 237.423 L 156.946 215.724 L 149.636 203.822 C 148.68 202.265 149.762 200.257 151.588 200.198 C 154.256 200.112 156.804 199.901 158.275 197.345 C 160.063 194.236 158.839 190.012 155.674 188.332" fill="black" stroke="none"/></mask><path d=" M 155.674 188.332 C 151.77 186.259 148.543 188.792 146.81 192.268 C 145.977 193.94 143.63 194.043 142.653 192.452 L 135.437 180.703 L 122.903 188.4 C 122.025 189.501 122.276 191.229 123.623 191.967 C 125.964 193.249 128.142 194.589 128.3 197.533 C 128.491 201.115 125.491 204.33 121.908 204.399 C 117.489 204.485 115.754 200.768 115.778 196.884 C 115.788 195.299 114.317 194.235 112.899 194.544 L 100.335 202.26 L 100.272 202.165 L 100.098 202.273 L 99.966 202.059 L 99.914 202.091 L 121.614 237.423 L 156.946 215.724 L 149.636 203.822 C 148.68 202.265 149.762 200.257 151.588 200.198 C 154.256 200.112 156.804 199.901 158.275 197.345 C 160.063 194.236 158.839 190.012 155.674 188.332" fill="none" mask="url(#_mask_PP62fvnyzOAzI3ACpsUgmbwRwOonkSyi)" vector-effect="non-scaling-stroke" stroke-width="2" stroke="rgb(70,62,67)" stroke-linejoin="miter" stroke-linecap="butt" stroke-miterlimit="4"/><path d=" M 155.674 188.332 C 151.77 186.259 148.543 188.792 146.81 192.268 C 145.977 193.94 143.63 194.043 142.653 192.452 L 135.437 180.703 L 122.903 188.4 C 122.025 189.501 122.276 191.229 123.623 191.967 C 125.964 193.249 128.142 194.589 128.3 197.533 C 128.491 201.115 125.491 204.33 121.908 204.399 C 117.489 204.485 115.754 200.768 115.778 196.884 C 115.788 195.299 114.317 194.235 112.899 194.544 L 100.335 202.26 L 100.272 202.165 L 100.098 202.273 L 99.966 202.059 L 99.914 202.091 L 121.614 237.423 L 156.946 215.724 L 149.636 203.822 C 148.68 202.265 149.762 200.257 151.588 200.198 C 154.256 200.112 156.804 199.901 158.275 197.345 C 160.063 194.236 158.839 190.012 155.674 188.332" fill="none"/><mask id="_mask_6jvpNL15RNUDKDxCn1du8GA8VvUYsk3q" x="-200%" y="-200%" width="400%" height="400%"><rect x="-200%" y="-200%" width="400%" height="400%" style="fill:white;"/><path d=" M 206.74 162.125 L 220.086 123.765 L 219.893 123.698 L 180.925 110.141 L 176.275 123.508 C 175.661 125.272 173.346 125.673 172.174 124.219 C 169.737 121.195 166.042 119.412 162.673 122.273 C 159.942 124.593 159.651 128.981 162.064 131.634 C 164.048 133.816 166.583 133.476 169.207 132.989 C 171.003 132.655 172.49 134.384 171.89 136.11 L 167.3 149.302 L 181.024 154.077 C 182.52 154.189 183.827 152.847 183.532 151.265 C 183.043 148.642 182.702 146.107 184.882 144.122 C 187.534 141.707 191.922 141.995 194.244 144.726 C 197.107 148.093 195.326 151.788 192.304 154.228 C 191.009 155.272 191.19 157.219 192.491 158.066 L 200.767 160.945 L 206.268 162.859 L 206.461 162.926 L 206.74 162.125" fill="black" stroke="none"/></mask><path d=" M 206.74 162.125 L 220.086 123.765 L 219.893 123.698 L 180.925 110.141 L 176.275 123.508 C 175.661 125.272 173.346 125.673 172.174 124.219 C 169.737 121.195 166.042 119.412 162.673 122.273 C 159.942 124.593 159.651 128.981 162.064 131.634 C 164.048 133.816 166.583 133.476 169.207 132.989 C 171.003 132.655 172.49 134.384 171.89 136.11 L 167.3 149.302 L 181.024 154.077 C 182.52 154.189 183.827 152.847 183.532 151.265 C 183.043 148.642 182.702 146.107 184.882 144.122 C 187.534 141.707 191.922 141.995 194.244 144.726 C 197.107 148.093 195.326 151.788 192.304 154.228 C 191.009 155.272 191.19 157.219 192.491 158.066 L 200.767 160.945 L 206.268 162.859 L 206.461 162.926 L 206.74 162.125" fill="none" mask="url(#_mask_6jvpNL15RNUDKDxCn1du8GA8VvUYsk3q)" vector-effect="non-scaling-stroke" stroke-width="2" stroke="rgb(70,62,67)" stroke-linejoin="miter" stroke-linecap="butt" stroke-miterlimit="4"/><path d=" M 206.74 162.125 L 220.086 123.765 L 219.893 123.698 L 180.925 110.141 L 176.275 123.508 C 175.661 125.272 173.346 125.673 172.174 124.219 C 169.737 121.195 166.042 119.412 162.673 122.273 C 159.942 124.593 159.651 128.981 162.064 131.634 C 164.048 133.816 166.583 133.476 169.207 132.989 C 171.003 132.655 172.49 134.384 171.89 136.11 L 167.3 149.302 L 181.024 154.077 C 182.52 154.189 183.827 152.847 183.532 151.265 C 183.043 148.642 182.702 146.107 184.882 144.122 C 187.534 141.707 191.922 141.995 194.244 144.726 C 197.107 148.093 195.326 151.788 192.304 154.228 C 191.009 155.272 191.19 157.219 192.491 158.066 L 200.767 160.945 L 206.268 162.859 L 206.461 162.926 L 206.74 162.125" fill="none"/><mask id="_mask_tyMrMPiouvxTBZJmAm73Jy1j8NEY33lH" x="-200%" y="-200%" width="400%" height="400%"><rect x="-200%" y="-200%" width="400%" height="400%" style="fill:white;"/><path d=" M 149.174 146.341 C 148.639 144.75 146.983 144.304 145.547 145.324 C 143.371 146.87 141.443 148.244 138.702 147.158 C 135.367 145.838 133.533 141.861 134.965 138.576 C 136.731 134.525 140.834 134.5 144.353 136.143 C 145.86 136.847 147.529 135.829 147.718 134.288 L 146.668 125.589 L 145.97 119.806 L 145.945 119.603 L 141.262 120.169 L 106.554 124.363 L 106.554 124.36 L 104.781 124.574 L 104.805 124.777 L 105.45 130.117 L 106.573 139.415 C 106.561 139.47 106.544 139.523 106.527 139.576 L 107.9 150.931 C 107.927 150.977 107.956 151.022 107.98 151.07 L 109.751 165.738 L 109.955 165.714 L 109.973 165.826 L 115.312 165.181 L 124.61 164.057 C 126.028 164.368 126.92 165.949 126.25 167.385 C 124.607 170.904 124.632 175.007 128.684 176.773 C 131.969 178.205 136.038 176.535 137.358 173.2 C 138.444 170.459 137.024 168.332 135.431 166.19 C 134.514 164.958 135.008 163.282 136.266 162.649 L 150.933 160.876 L 150.205 154.847 L 150.201 154.848 L 149.174 146.341" fill="black" stroke="none"/></mask><path d=" M 149.174 146.341 C 148.639 144.75 146.983 144.304 145.547 145.324 C 143.371 146.87 141.443 148.244 138.702 147.158 C 135.367 145.838 133.533 141.861 134.965 138.576 C 136.731 134.525 140.834 134.5 144.353 136.143 C 145.86 136.847 147.529 135.829 147.718 134.288 L 146.668 125.589 L 145.97 119.806 L 145.945 119.603 L 141.262 120.169 L 106.554 124.363 L 106.554 124.36 L 104.781 124.574 L 104.805 124.777 L 105.45 130.117 L 106.573 139.415 C 106.561 139.47 106.544 139.523 106.527 139.576 L 107.9 150.931 C 107.927 150.977 107.956 151.022 107.98 151.07 L 109.751 165.738 L 109.955 165.714 L 109.973 165.826 L 115.312 165.181 L 124.61 164.057 C 126.028 164.368 126.92 165.949 126.25 167.385 C 124.607 170.904 124.632 175.007 128.684 176.773 C 131.969 178.205 136.038 176.535 137.358 173.2 C 138.444 170.459 137.024 168.332 135.431 166.19 C 134.514 164.958 135.008 163.282 136.266 162.649 L 150.933 160.876 L 150.205 154.847 L 150.201 154.848 L 149.174 146.341" fill="none" mask="url(#_mask_tyMrMPiouvxTBZJmAm73Jy1j8NEY33lH)" vector-effect="non-scaling-stroke" stroke-width="2" stroke="rgb(70,62,67)" stroke-linejoin="miter" stroke-linecap="butt" stroke-miterlimit="4"/><path d=" M 149.174 146.341 C 148.639 144.75 146.983 144.304 145.547 145.324 C 143.371 146.87 141.443 148.244 138.702 147.158 C 135.367 145.838 133.533 141.861 134.965 138.576 C 136.731 134.525 140.834 134.5 144.353 136.143 C 145.86 136.847 147.529 135.829 147.718 134.288 L 146.668 125.589 L 145.97 119.806 L 145.945 119.603 L 141.262 120.169 L 106.554 124.363 L 106.554 124.36 L 104.781 124.574 L 104.805 124.777 L 105.45 130.117 L 106.573 139.415 C 106.561 139.47 106.544 139.523 106.527 139.576 L 107.9 150.931 C 107.927 150.977 107.956 151.022 107.98 151.07 L 109.751 165.738 L 109.955 165.714 L 109.973 165.826 L 115.312 165.181 L 124.61 164.057 C 126.028 164.368 126.92 165.949 126.25 167.385 C 124.607 170.904 124.632 175.007 128.684 176.773 C 131.969 178.205 136.038 176.535 137.358 173.2 C 138.444 170.459 137.024 168.332 135.431 166.19 C 134.514 164.958 135.008 163.282 136.266 162.649 L 150.933 160.876 L 150.205 154.847 L 150.201 154.848 L 149.174 146.341" fill="none"/></g></g></svg>