<?xml version="1.0" encoding="UTF-8" standalone="no"?><!-- Generator: Gravit.io --><svg xmlns="http://www.w3.org/2000/svg" xmlns:xlink="http://www.w3.org/1999/xlink" style="isolation:isolate" viewBox="94.82 93.441 130.359 174.123" width="130.359pt" height="174.123pt"><g><g><path d=" M 115.018 119.513 C 89.268 137.693 91.653 174.336 102.799 200.14 C 108.507 213.357 117.765 224.568 131.118 230.486 C 143.736 236.078 158.419 236.94 171.668 233.139 C 198.343 225.485 218.219 200.407 223.705 173.758 C 226.539 159.993 225.487 145.342 218.798 132.809 C 211.602 119.326 198.997 108.954 185.452 102.257 C 171.258 95.241 153.545 90.737 137.903 95.26 C 121.774 99.922 113.512 114.859 107.36 129.324 C 106.978 130.222 108.257 131.032 108.705 130.113 C 114.58 118.061 120.494 104.832 133.371 98.846 C 146.222 92.872 161.74 95.197 174.659 99.687 C 188.561 104.52 201.633 112.97 210.988 124.421 C 219.942 135.381 224.023 148.924 223.272 163.003 C 221.86 189.451 205.242 215.633 181.423 227.444 C 156.628 239.74 124.887 233.594 109.573 209.695 C 101.034 196.369 96.247 179.344 96.069 163.562 C 95.883 147.058 101.983 130.455 115.503 120.351 C 115.992 119.985 115.533 119.149 115.018 119.513 L 115.018 119.513" fill="rgb(180,235,202)"/><path d=" M 188.281 244.756 C 185.854 243.004 182.532 244.662 181.156 247.02 C 179.612 249.666 180.639 252.782 182.749 254.771 C 188.949 260.617 199.082 254.883 202.892 248.979 C 206.83 242.878 203.96 232.985 195.455 234.127 C 192.143 234.572 178.343 241.645 184.201 245.98 C 184.646 246.309 185.295 245.765 185.13 245.268 C 183.606 240.65 191.132 236.843 194.851 236.01 C 201.689 234.478 204.678 241.928 201.897 247.234 C 199.542 251.729 193.632 255.874 188.423 255.581 C 185.602 255.422 182.682 253.705 181.828 250.878 C 180.633 246.926 184.551 244.309 188.041 245.328 C 188.4 245.433 188.553 244.952 188.281 244.756 L 188.281 244.756" fill="rgb(180,235,202)"/><path d=" M 206.38 259.909 C 205.232 263.186 207.709 266.585 210.92 267.399 C 214.293 268.255 217.082 265.66 217.492 262.411 C 217.895 259.211 216.093 255.871 212.738 255.332 C 208.821 254.703 204.788 258.049 204.796 262.016 C 204.798 262.844 206.021 262.819 206.073 262.007 C 206.272 258.838 209.305 256.074 212.571 256.632 C 215.292 257.096 216.543 259.968 216.14 262.484 C 215.087 269.044 205.54 265.866 207.099 260.102 C 207.226 259.634 206.537 259.462 206.38 259.909 L 206.38 259.909" fill="rgb(180,235,202)"/></g><g><mask id="_mask_gREzGzD3jEG85XpckXyn3WAb88Nk56H4" x="-200%" y="-200%" width="400%" height="400%"><rect x="-200%" y="-200%" width="400%" height="400%" style="fill:white;"/><path d=" M 152.987 191.956 C 150.611 191.997 148.582 192.871 146.958 194.552 C 145.333 196.233 144.53 198.291 144.571 200.667 C 144.612 203.046 145.486 205.074 147.167 206.696 C 148.848 208.32 150.906 209.123 153.282 209.083 C 154.224 209.066 155.112 208.919 155.942 208.642 C 157.202 208.221 158.33 207.501 159.311 206.487 C 160.935 204.805 161.738 202.748 161.697 200.372 C 161.657 197.998 160.783 195.97 159.101 194.342 C 157.418 192.718 155.361 191.916 152.987 191.956" fill="black" stroke="none"/></mask><path d=" M 152.987 191.956 C 150.611 191.997 148.582 192.871 146.958 194.552 C 145.333 196.233 144.53 198.291 144.571 200.667 C 144.612 203.046 145.486 205.074 147.167 206.696 C 148.848 208.32 150.906 209.123 153.282 209.083 C 154.224 209.066 155.112 208.919 155.942 208.642 C 157.202 208.221 158.33 207.501 159.311 206.487 C 160.935 204.805 161.738 202.748 161.697 200.372 C 161.657 197.998 160.783 195.97 159.101 194.342 C 157.418 192.718 155.361 191.916 152.987 191.956" fill="none" mask="url(#_mask_gREzGzD3jEG85XpckXyn3WAb88Nk56H4)" vector-effect="non-scaling-stroke" stroke-width="2" stroke="rgb(70,62,67)" stroke-linejoin="miter" stroke-linecap="butt" stroke-miterlimit="4"/><path d=" M 152.987 191.956 C 150.611 191.997 148.582 192.871 146.958 194.552 C 145.333 196.233 144.53 198.291 144.571 200.667 C 144.612 203.046 145.486 205.074 147.167 206.696 C 148.848 208.32 150.906 209.123 153.282 209.083 C 154.224 209.066 155.112 208.919 155.942 208.642 C 157.202 208.221 158.33 207.501 159.311 206.487 C 160.935 204.805 161.738 202.748 161.697 200.372 C 161.657 197.998 160.783 195.97 159.101 194.342 C 157.418 192.718 155.361 191.916 152.987 191.956" fill="none"/><mask id="_mask_uko6xEzvuqeIvxCTkQuCzzBcTYJva8sE" x="-200%" y="-200%" width="400%" height="400%"><rect x="-200%" y="-200%" width="400%" height="400%" style="fill:white;"/><path d=" M 180.505 123.886 C 175.193 119.146 168.147 116.817 159.562 116.965 C 150.979 117.113 143.977 119.682 138.75 124.599 C 134.207 128.874 131.675 134.4 131.225 141.022 C 131.149 142.138 131.548 143.243 132.318 144.054 C 133.089 144.865 134.172 145.319 135.291 145.299 L 140.402 145.211 C 142.442 145.176 144.127 143.615 144.32 141.579 C 144.662 137.969 145.923 135.176 148.176 133.041 C 150.903 130.456 154.783 129.103 159.706 129.018 C 164.615 128.934 168.51 130.21 171.283 132.81 C 174.044 135.403 175.487 139.158 175.569 143.97 C 175.684 150.604 173.861 155.105 170.151 157.35 C 166.244 159.713 160.059 160.941 151.756 161.001 L 149.544 161.039 C 147.335 161.077 145.57 162.905 145.608 165.112 L 145.94 184.378 C 145.959 185.447 146.393 186.446 147.162 187.189 C 147.931 187.932 148.944 188.331 150.014 188.313 L 155.199 188.224 C 155.617 188.216 156.018 188.145 156.395 188.019 C 158.01 187.48 159.165 185.94 159.134 184.15 L 158.919 171.674 C 158.917 171.52 159.04 171.389 159.192 171.382 C 168.85 170.957 176.235 168.683 181.144 164.625 C 186.364 160.308 188.932 153.56 188.778 144.567 C 188.623 135.61 185.84 128.652 180.505 123.886" fill="black" stroke="none"/></mask><path d=" M 180.505 123.886 C 175.193 119.146 168.147 116.817 159.562 116.965 C 150.979 117.113 143.977 119.682 138.75 124.599 C 134.207 128.874 131.675 134.4 131.225 141.022 C 131.149 142.138 131.548 143.243 132.318 144.054 C 133.089 144.865 134.172 145.319 135.291 145.299 L 140.402 145.211 C 142.442 145.176 144.127 143.615 144.32 141.579 C 144.662 137.969 145.923 135.176 148.176 133.041 C 150.903 130.456 154.783 129.103 159.706 129.018 C 164.615 128.934 168.51 130.21 171.283 132.81 C 174.044 135.403 175.487 139.158 175.569 143.97 C 175.684 150.604 173.861 155.105 170.151 157.35 C 166.244 159.713 160.059 160.941 151.756 161.001 L 149.544 161.039 C 147.335 161.077 145.57 162.905 145.608 165.112 L 145.94 184.378 C 145.959 185.447 146.393 186.446 147.162 187.189 C 147.931 187.932 148.944 188.331 150.014 188.313 L 155.199 188.224 C 155.617 188.216 156.018 188.145 156.395 188.019 C 158.01 187.48 159.165 185.94 159.134 184.15 L 158.919 171.674 C 158.917 171.52 159.04 171.389 159.192 171.382 C 168.85 170.957 176.235 168.683 181.144 164.625 C 186.364 160.308 188.932 153.56 188.778 144.567 C 188.623 135.61 185.84 128.652 180.505 123.886" fill="none" mask="url(#_mask_uko6xEzvuqeIvxCTkQuCzzBcTYJva8sE)" vector-effect="non-scaling-stroke" stroke-width="2" stroke="rgb(70,62,67)" stroke-linejoin="miter" stroke-linecap="butt" stroke-miterlimit="4"/><path d=" M 180.505 123.886 C 175.193 119.146 168.147 116.817 159.562 116.965 C 150.979 117.113 143.977 119.682 138.75 124.599 C 134.207 128.874 131.675 134.4 131.225 141.022 C 131.149 142.138 131.548 143.243 132.318 144.054 C 133.089 144.865 134.172 145.319 135.291 145.299 L 140.402 145.211 C 142.442 145.176 144.127 143.615 144.32 141.579 C 144.662 137.969 145.923 135.176 148.176 133.041 C 150.903 130.456 154.783 129.103 159.706 129.018 C 164.615 128.934 168.51 130.21 171.283 132.81 C 174.044 135.403 175.487 139.158 175.569 143.97 C 175.684 150.604 173.861 155.105 170.151 157.35 C 166.244 159.713 160.059 160.941 151.756 161.001 L 149.544 161.039 C 147.335 161.077 145.57 162.905 145.608 165.112 L 145.94 184.378 C 145.959 185.447 146.393 186.446 147.162 187.189 C 147.931 187.932 148.944 188.331 150.014 188.313 L 155.199 188.224 C 155.617 188.216 156.018 188.145 156.395 188.019 C 158.01 187.48 159.165 185.94 159.134 184.15 L 158.919 171.674 C 158.917 171.52 159.04 171.389 159.192 171.382 C 168.85 170.957 176.235 168.683 181.144 164.625 C 186.364 160.308 188.932 153.56 188.778 144.567 C 188.623 135.61 185.84 128.652 180.505 123.886" fill="none"/></g></g></svg>