<?xml version="1.0" encoding="UTF-8" standalone="no"?><!-- Generator: Gravit.io --><svg xmlns="http://www.w3.org/2000/svg" xmlns:xlink="http://www.w3.org/1999/xlink" style="isolation:isolate" viewBox="87.023 93.441 145.953 174.123" width="145.953pt" height="174.123pt"><g><path d=" M 176.339 252.447 C 153.154 284.605 123.144 260.426 104.24 226.816 C 94.797 210.033 87.204 187.747 87.026 161.881 C 86.946 150.121 88.445 138.144 91.863 128.413 C 95.395 118.35 100.616 111.209 106.223 106.294 C 119.359 94.779 134.491 92.679 148.679 93.651 C 163.047 94.632 177.668 98.163 191.437 106.569 C 203.958 114.21 217.028 126.422 225.677 146.472 C 229.386 155.074 232.213 165.344 232.848 176.703 C 233.512 188.571 231.56 200.391 228.119 210.053 C 220.212 232.28 206.326 240.313 193.384 244.276 C 178.327 248.877 162.825 248.376 147.878 242.452 C 144.056 240.931 140.284 238.999 136.549 236.802 C 135.851 236.39 136.143 234.261 136.85 234.644 C 150.632 242.099 164.952 245.522 179.237 244.198 C 192.511 242.981 207.52 239.215 218.77 224.099 C 229.564 209.582 235.046 183.059 228.423 159.351 C 222.312 137.487 210.034 123.588 198.644 114.642 C 186.534 105.137 173.577 100.488 160.649 98.065 C 146.441 95.406 131.888 95.044 117.923 101.616 C 105.899 107.275 93.325 119.095 89.558 144.333 C 85.882 168.963 90.984 194.417 99.145 213.123 C 116.901 253.83 150.872 285.351 175.917 251.025 C 176.361 250.417 176.777 251.839 176.339 252.447 L 176.339 252.447 Z " fill="rgb(180,235,202)"/><g><mask id="_mask_SZdKG6ny45lGPslZaHjPvfwPVju6sgYv" x="-200%" y="-200%" width="400%" height="400%"><rect x="-200%" y="-200%" width="400%" height="400%" style="fill:white;"/><path d=" M 151.286 138.99 L 151.286 147.897 C 159.028 147.897 166.049 151.047 171.134 156.131 C 176.218 161.216 179.368 168.237 179.368 175.979 L 188.275 175.979 C 188.275 165.781 184.127 156.534 177.429 149.836 C 170.731 143.138 161.484 138.99 151.286 138.99" fill="black" stroke="none"/></mask><path d=" M 151.286 138.99 L 151.286 147.897 C 159.028 147.897 166.049 151.047 171.134 156.131 C 176.218 161.216 179.368 168.237 179.368 175.979 L 188.275 175.979 C 188.275 165.781 184.127 156.534 177.429 149.836 C 170.731 143.138 161.484 138.99 151.286 138.99" fill="none" mask="url(#_mask_SZdKG6ny45lGPslZaHjPvfwPVju6sgYv)" vector-effect="non-scaling-stroke" stroke-width="2" stroke="rgb(70,62,67)" stroke-linejoin="miter" stroke-linecap="butt" stroke-miterlimit="4"/><path d=" M 151.286 138.99 L 151.286 147.897 C 159.028 147.897 166.049 151.047 171.134 156.131 C 176.218 161.216 179.368 168.237 179.368 175.979 L 188.275 175.979 C 188.275 165.781 184.127 156.534 177.429 149.836 C 170.731 143.138 161.484 138.99 151.286 138.99" fill="none"/><mask id="_mask_WxenFibxeJmAACr1L1WngCqXJXz4s1ac" x="-200%" y="-200%" width="400%" height="400%"><rect x="-200%" y="-200%" width="400%" height="400%" style="fill:white;"/><path d=" M 190.894 136.371 C 180.747 126.223 166.737 119.938 151.286 119.938 L 151.286 128.846 C 164.281 128.846 176.064 134.132 184.598 142.666 C 193.133 151.201 198.419 162.984 198.419 175.979 L 207.326 175.979 C 207.326 160.529 201.041 146.519 190.894 136.371" fill="black" stroke="none"/></mask><path d=" M 190.894 136.371 C 180.747 126.223 166.737 119.938 151.286 119.938 L 151.286 128.846 C 164.281 128.846 176.064 134.132 184.598 142.666 C 193.133 151.201 198.419 162.984 198.419 175.979 L 207.326 175.979 C 207.326 160.529 201.041 146.519 190.894 136.371" fill="none" mask="url(#_mask_WxenFibxeJmAACr1L1WngCqXJXz4s1ac)" vector-effect="non-scaling-stroke" stroke-width="2" stroke="rgb(70,62,67)" stroke-linejoin="miter" stroke-linecap="butt" stroke-miterlimit="4"/><path d=" M 190.894 136.371 C 180.747 126.223 166.737 119.938 151.286 119.938 L 151.286 128.846 C 164.281 128.846 176.064 134.132 184.598 142.666 C 193.133 151.201 198.419 162.984 198.419 175.979 L 207.326 175.979 C 207.326 160.529 201.041 146.519 190.894 136.371" fill="none"/><mask id="_mask_4sV1PZmp56fxut6w0FD8pPdbxzqON1F6" x="-200%" y="-200%" width="400%" height="400%"><rect x="-200%" y="-200%" width="400%" height="400%" style="fill:white;"/><path d=" M 190.456 192.174 C 189.952 192.111 185.496 191.472 180.566 190.9 C 174.096 190.15 166.809 189.517 166.558 190.46 C 166.115 192.121 164.551 194.971 164.551 194.971 C 154.769 205.604 146.859 197.694 139.882 190.718 C 132.906 183.741 127.335 174.343 136.096 170.951 C 141.431 168.885 142.076 164.306 142.076 164.306 L 131.548 153.778 L 131.168 153.398 C 121.7 143.93 119.588 141.952 115.056 153.454 C 109.266 168.147 115.851 177.32 115.851 177.32 C 127.122 197.098 142.433 207.45 152.642 212.409 C 165.222 218.521 181.154 218.752 188.795 209.007 C 196.436 199.262 190.456 192.174 190.456 192.174" fill="black" stroke="none"/></mask><path d=" M 190.456 192.174 C 189.952 192.111 185.496 191.472 180.566 190.9 C 174.096 190.15 166.809 189.517 166.558 190.46 C 166.115 192.121 164.551 194.971 164.551 194.971 C 154.769 205.604 146.859 197.694 139.882 190.718 C 132.906 183.741 127.335 174.343 136.096 170.951 C 141.431 168.885 142.076 164.306 142.076 164.306 L 131.548 153.778 L 131.168 153.398 C 121.7 143.93 119.588 141.952 115.056 153.454 C 109.266 168.147 115.851 177.32 115.851 177.32 C 127.122 197.098 142.433 207.45 152.642 212.409 C 165.222 218.521 181.154 218.752 188.795 209.007 C 196.436 199.262 190.456 192.174 190.456 192.174" fill="none" mask="url(#_mask_4sV1PZmp56fxut6w0FD8pPdbxzqON1F6)" vector-effect="non-scaling-stroke" stroke-width="2" stroke="rgb(70,62,67)" stroke-linejoin="miter" stroke-linecap="butt" stroke-miterlimit="4"/><path d=" M 190.456 192.174 C 189.952 192.111 185.496 191.472 180.566 190.9 C 174.096 190.15 166.809 189.517 166.558 190.46 C 166.115 192.121 164.551 194.971 164.551 194.971 C 154.769 205.604 146.859 197.694 139.882 190.718 C 132.906 183.741 127.335 174.343 136.096 170.951 C 141.431 168.885 142.076 164.306 142.076 164.306 L 131.548 153.778 L 131.168 153.398 C 121.7 143.93 119.588 141.952 115.056 153.454 C 109.266 168.147 115.851 177.32 115.851 177.32 C 127.122 197.098 142.433 207.45 152.642 212.409 C 165.222 218.521 181.154 218.752 188.795 209.007 C 196.436 199.262 190.456 192.174 190.456 192.174" fill="none"/></g></g></svg>