<?xml version="1.0" encoding="UTF-8" standalone="no"?><!-- Generator: Gravit.io --><svg xmlns="http://www.w3.org/2000/svg" xmlns:xlink="http://www.w3.org/1999/xlink" style="isolation:isolate" viewBox="74.661 80 170.678 187.564" width="170.678pt" height="187.564pt"><g><path d=" M 199.093 264.518 C 187.886 264.206 136.318 261.115 127.091 260.516 C 117.764 259.909 107.444 260.046 98.366 257.703 C 87.246 254.832 86.902 242.944 85.153 233.369 C 83.303 223.245 81.794 213.059 80.642 202.832 C 78.498 183.77 77.562 164.57 77.826 145.39 C 77.96 135.63 78.407 125.877 79.164 116.147 C 79.528 111.467 79.572 106.31 80.801 101.764 C 82.303 96.203 85.77 92.604 90.713 89.86 C 106.988 80.823 127.451 83.325 145.241 84.631 C 164.944 86.079 184.59 88.313 204.112 91.348 C 209.989 92.261 216.969 92.702 223.044 94.686 C 234.1 103.765 236.605 118.795 237.445 132.472 C 238.552 150.453 239.152 168.605 238.904 186.617 C 238.645 205.415 237.402 224.766 232.47 242.986 C 228.563 257.421 213.551 263.175 199.093 264.518 Z  M 229.176 97.354 C 229.652 97.673 230.125 97.995 230.583 98.338 C 236.684 102.905 239.309 110.448 240.621 117.688 C 242.155 126.153 241.995 134.957 241.99 143.523 C 241.987 147.195 241.939 150.866 241.831 154.536 C 241.561 144.309 240.99 134.058 239.395 124.029 C 237.855 114.357 235.172 104.804 229.176 97.354 Z  M 236.776 241.174 C 237.875 238.31 239.022 234.315 239.365 230.987 C 240.528 219.693 241.632 208.39 242.598 197.076 C 244.55 174.175 246.086 150.996 244.953 128.008 C 244.28 114.347 241.019 98.07 226.698 92.589 C 225.493 92.128 224.261 91.714 223.028 91.303 C 222.822 91.135 222.604 90.975 222.384 90.817 C 221.86 90.442 221.34 90.526 220.951 90.818 C 212.555 88.588 203.317 87.977 194.949 86.8 C 184.122 85.279 173.263 83.992 162.379 82.947 C 142.551 81.042 120.506 77.583 100.905 82.592 C 93.277 84.541 84.481 88.157 80.159 95.145 C 75.523 102.647 76.164 113.725 75.616 122.19 C 74.138 145.029 74.378 167.971 76.319 190.775 C 77.359 202.986 78.887 215.158 80.886 227.25 C 81.873 233.223 82.939 239.195 84.21 245.114 C 85.164 249.559 86.362 254.121 89.935 257.213 C 96.68 263.052 108.849 262.281 117.109 262.945 C 129.125 263.911 179.16 266.613 184.816 266.516 C 184.829 266.526 184.847 266.53 184.866 266.533 L 184.866 266.533 C 198.386 269.014 213.761 267.172 225.365 259.318 C 231.676 255.048 234.94 248.44 236.776 241.174 Z " fill-rule="evenodd" fill="rgb(180,235,202)"/><g><mask id="_mask_H1P7rGCEysMKqvNtiNVdxmbgs1WEtHcB" x="-200%" y="-200%" width="400%" height="400%"><rect x="-200%" y="-200%" width="400%" height="400%" style="fill:white;"/><path d=" M 205.954 203.105 L 205.954 190.55 C 205.93 190.494 205.904 190.439 205.883 190.38 L 205.883 180.099 L 205.882 174.195 L 205.882 173.97 L 189.277 173.972 C 187.906 173.36 187.25 171.613 188.129 170.202 C 190.385 166.584 190.9 162.111 186.718 159.65 C 183.327 157.655 178.673 158.937 176.793 162.396 C 175.248 165.24 176.514 167.746 177.966 170.29 C 178.768 171.695 178.104 173.376 176.764 173.973 L 160.366 173.975 L 160.366 174.199 L 160.367 180.593 L 160.368 190.212 C 160.777 191.866 162.73 192.756 164.28 191.79 C 167.899 189.536 172.373 189.023 174.831 193.205 C 176.825 196.597 175.35 201.172 171.89 203.051 C 169.045 204.595 166.763 203.351 164.188 201.953 C 162.488 201.03 160.743 201.735 160.369 203.539 L 160.371 219.49 L 171.88 219.489 L 171.88 219.526 L 196.614 219.526 L 196.614 219.487 L 205.887 219.486 L 205.885 203.267 C 205.905 203.211 205.93 203.159 205.954 203.105" fill="black" stroke="none"/></mask><path d=" M 205.954 203.105 L 205.954 190.55 C 205.93 190.494 205.904 190.439 205.883 190.38 L 205.883 180.099 L 205.882 174.195 L 205.882 173.97 L 189.277 173.972 C 187.906 173.36 187.25 171.613 188.129 170.202 C 190.385 166.584 190.9 162.111 186.718 159.65 C 183.327 157.655 178.673 158.937 176.793 162.396 C 175.248 165.24 176.514 167.746 177.966 170.29 C 178.768 171.695 178.104 173.376 176.764 173.973 L 160.366 173.975 L 160.366 174.199 L 160.367 180.593 L 160.368 190.212 C 160.777 191.866 162.73 192.756 164.28 191.79 C 167.899 189.536 172.373 189.023 174.831 193.205 C 176.825 196.597 175.35 201.172 171.89 203.051 C 169.045 204.595 166.763 203.351 164.188 201.953 C 162.488 201.03 160.743 201.735 160.369 203.539 L 160.371 219.49 L 171.88 219.489 L 171.88 219.526 L 196.614 219.526 L 196.614 219.487 L 205.887 219.486 L 205.885 203.267 C 205.905 203.211 205.93 203.159 205.954 203.105" fill="rgb(255,255,255)" mask="url(#_mask_H1P7rGCEysMKqvNtiNVdxmbgs1WEtHcB)" vector-effect="non-scaling-stroke" stroke-width="2" stroke="rgb(70,62,67)" stroke-linejoin="miter" stroke-linecap="butt" stroke-miterlimit="4"/><path d=" M 205.954 203.105 L 205.954 190.55 C 205.93 190.494 205.904 190.439 205.883 190.38 L 205.883 180.099 L 205.882 174.195 L 205.882 173.97 L 189.277 173.972 C 187.906 173.36 187.25 171.613 188.129 170.202 C 190.385 166.584 190.9 162.111 186.718 159.65 C 183.327 157.655 178.673 158.937 176.793 162.396 C 175.248 165.24 176.514 167.746 177.966 170.29 C 178.768 171.695 178.104 173.376 176.764 173.973 L 160.366 173.975 L 160.366 174.199 L 160.367 180.593 L 160.368 190.212 C 160.777 191.866 162.73 192.756 164.28 191.79 C 167.899 189.536 172.373 189.023 174.831 193.205 C 176.825 196.597 175.35 201.172 171.89 203.051 C 169.045 204.595 166.763 203.351 164.188 201.953 C 162.488 201.03 160.743 201.735 160.369 203.539 L 160.371 219.49 L 171.88 219.489 L 171.88 219.526 L 196.614 219.526 L 196.614 219.487 L 205.887 219.486 L 205.885 203.267 C 205.905 203.211 205.93 203.159 205.954 203.105" fill="rgb(255,255,255)"/><mask id="_mask_j6YjqGatwskdrxiW1uZfhV25wUsB1uF1" x="-200%" y="-200%" width="400%" height="400%"><rect x="-200%" y="-200%" width="400%" height="400%" style="fill:white;"/><path d=" M 159.631 157.607 C 159.258 155.803 157.512 155.098 155.812 156.021 C 153.237 157.418 150.955 158.663 148.11 157.118 C 144.65 155.239 143.175 150.665 145.169 147.273 C 147.628 143.09 152.101 143.603 155.72 145.858 C 157.27 146.824 159.223 145.934 159.632 144.28 L 159.633 134.661 L 159.634 128.267 L 159.634 128.042 L 154.456 128.042 L 116.079 128.042 L 116.079 128.038 L 114.118 128.038 L 114.118 128.263 L 114.118 134.166 L 114.117 144.448 C 114.096 144.506 114.07 144.561 114.046 144.617 L 114.046 157.172 C 114.07 157.226 114.095 157.279 114.115 157.335 L 114.114 173.553 L 114.114 173.678 L 114.343 173.678 L 130.528 173.678 C 132.032 174.204 132.797 176.044 131.877 177.521 C 129.623 181.14 129.11 185.614 133.293 188.072 C 136.685 190.065 141.338 188.782 143.217 185.321 C 144.761 182.477 143.494 179.972 142.04 177.428 C 141.203 175.964 141.961 174.203 143.416 173.678 L 159.634 173.678 L 159.634 167.013 L 159.63 167.013 L 159.631 157.607" fill="black" stroke="none"/></mask><path d=" M 159.631 157.607 C 159.258 155.803 157.512 155.098 155.812 156.021 C 153.237 157.418 150.955 158.663 148.11 157.118 C 144.65 155.239 143.175 150.665 145.169 147.273 C 147.628 143.09 152.101 143.603 155.72 145.858 C 157.27 146.824 159.223 145.934 159.632 144.28 L 159.633 134.661 L 159.634 128.267 L 159.634 128.042 L 154.456 128.042 L 116.079 128.042 L 116.079 128.038 L 114.118 128.038 L 114.118 128.263 L 114.118 134.166 L 114.117 144.448 C 114.096 144.506 114.07 144.561 114.046 144.617 L 114.046 157.172 C 114.07 157.226 114.095 157.279 114.115 157.335 L 114.114 173.553 L 114.114 173.678 L 114.343 173.678 L 130.528 173.678 C 132.032 174.204 132.797 176.044 131.877 177.521 C 129.623 181.14 129.11 185.614 133.293 188.072 C 136.685 190.065 141.338 188.782 143.217 185.321 C 144.761 182.477 143.494 179.972 142.04 177.428 C 141.203 175.964 141.961 174.203 143.416 173.678 L 159.634 173.678 L 159.634 167.013 L 159.63 167.013 L 159.631 157.607" fill="rgb(255,255,255)" mask="url(#_mask_j6YjqGatwskdrxiW1uZfhV25wUsB1uF1)" vector-effect="non-scaling-stroke" stroke-width="2" stroke="rgb(70,62,67)" stroke-linejoin="miter" stroke-linecap="butt" stroke-miterlimit="4"/><path d=" M 159.631 157.607 C 159.258 155.803 157.512 155.098 155.812 156.021 C 153.237 157.418 150.955 158.663 148.11 157.118 C 144.65 155.239 143.175 150.665 145.169 147.273 C 147.628 143.09 152.101 143.603 155.72 145.858 C 157.27 146.824 159.223 145.934 159.632 144.28 L 159.633 134.661 L 159.634 128.267 L 159.634 128.042 L 154.456 128.042 L 116.079 128.042 L 116.079 128.038 L 114.118 128.038 L 114.118 128.263 L 114.118 134.166 L 114.117 144.448 C 114.096 144.506 114.07 144.561 114.046 144.617 L 114.046 157.172 C 114.07 157.226 114.095 157.279 114.115 157.335 L 114.114 173.553 L 114.114 173.678 L 114.343 173.678 L 130.528 173.678 C 132.032 174.204 132.797 176.044 131.877 177.521 C 129.623 181.14 129.11 185.614 133.293 188.072 C 136.685 190.065 141.338 188.782 143.217 185.321 C 144.761 182.477 143.494 179.972 142.04 177.428 C 141.203 175.964 141.961 174.203 143.416 173.678 L 159.634 173.678 L 159.634 167.013 L 159.63 167.013 L 159.631 157.607" fill="rgb(255,255,255)"/><mask id="_mask_Rcf5K14duHtC6y783gLNH51k7btoe5XZ" x="-200%" y="-200%" width="400%" height="400%"><rect x="-200%" y="-200%" width="400%" height="400%" style="fill:white;"/><path d=" M 174.108 193.173 C 171.648 188.992 167.174 189.507 163.556 191.763 C 161.816 192.848 159.562 191.597 159.562 189.547 L 159.562 174.411 L 143.416 174.411 C 141.961 174.936 141.203 176.697 142.04 178.161 C 143.494 180.705 144.761 183.21 143.217 186.054 C 141.338 189.515 136.685 190.798 133.293 188.805 C 129.11 186.347 129.623 181.873 131.877 178.254 C 132.797 176.777 132.032 174.937 130.528 174.411 L 114.343 174.411 L 114.339 174.411 L 114.118 174.411 L 114.046 174.411 L 114.046 174.411 L 114.046 219.526 L 159.562 219.526 L 159.562 204.194 C 159.562 202.189 161.728 200.932 163.469 201.926 C 166.014 203.378 168.52 204.644 171.363 203.098 C 174.823 201.218 176.103 196.563 174.108 193.173" fill="black" stroke="none"/></mask><path d=" M 174.108 193.173 C 171.648 188.992 167.174 189.507 163.556 191.763 C 161.816 192.848 159.562 191.597 159.562 189.547 L 159.562 174.411 L 143.416 174.411 C 141.961 174.936 141.203 176.697 142.04 178.161 C 143.494 180.705 144.761 183.21 143.217 186.054 C 141.338 189.515 136.685 190.798 133.293 188.805 C 129.11 186.347 129.623 181.873 131.877 178.254 C 132.797 176.777 132.032 174.937 130.528 174.411 L 114.343 174.411 L 114.339 174.411 L 114.118 174.411 L 114.046 174.411 L 114.046 174.411 L 114.046 219.526 L 159.562 219.526 L 159.562 204.194 C 159.562 202.189 161.728 200.932 163.469 201.926 C 166.014 203.378 168.52 204.644 171.363 203.098 C 174.823 201.218 176.103 196.563 174.108 193.173" fill="rgb(255,255,255)" mask="url(#_mask_Rcf5K14duHtC6y783gLNH51k7btoe5XZ)" vector-effect="non-scaling-stroke" stroke-width="2" stroke="rgb(70,62,67)" stroke-linejoin="miter" stroke-linecap="butt" stroke-miterlimit="4"/><path d=" M 174.108 193.173 C 171.648 188.992 167.174 189.507 163.556 191.763 C 161.816 192.848 159.562 191.597 159.562 189.547 L 159.562 174.411 L 143.416 174.411 C 141.961 174.936 141.203 176.697 142.04 178.161 C 143.494 180.705 144.761 183.21 143.217 186.054 C 141.338 189.515 136.685 190.798 133.293 188.805 C 129.11 186.347 129.623 181.873 131.877 178.254 C 132.797 176.777 132.032 174.937 130.528 174.411 L 114.343 174.411 L 114.339 174.411 L 114.118 174.411 L 114.046 174.411 L 114.046 174.411 L 114.046 219.526 L 159.562 219.526 L 159.562 204.194 C 159.562 202.189 161.728 200.932 163.469 201.926 C 166.014 203.378 168.52 204.644 171.363 203.098 C 174.823 201.218 176.103 196.563 174.108 193.173" fill="rgb(255,255,255)"/><mask id="_mask_5EE4TFWrldVmIinFdsP33GLi66pG47hS" x="-200%" y="-200%" width="400%" height="400%"><rect x="-200%" y="-200%" width="400%" height="400%" style="fill:white;"/><path d=" M 205.954 172.752 L 205.954 128.169 L 160.438 128.169 L 160.438 143.705 C 160.438 145.755 158.184 147.006 156.444 145.921 C 152.826 143.665 148.353 143.149 145.892 147.331 C 143.897 150.721 145.178 155.376 148.637 157.256 C 151.481 158.802 153.986 157.536 156.531 156.084 C 158.272 155.09 160.438 156.346 160.438 158.352 L 160.438 173.684 L 176.389 173.684 C 177.981 173.262 178.852 171.399 177.975 169.865 C 176.522 167.321 175.254 164.816 176.798 161.971 C 178.677 158.511 183.33 157.228 186.722 159.221 C 190.905 161.679 190.392 166.153 188.138 169.773 C 187.173 171.323 188.062 173.275 189.716 173.684 L 205.954 173.684 L 205.954 172.752" fill="black" stroke="none"/></mask><path d=" M 205.954 172.752 L 205.954 128.169 L 160.438 128.169 L 160.438 143.705 C 160.438 145.755 158.184 147.006 156.444 145.921 C 152.826 143.665 148.353 143.149 145.892 147.331 C 143.897 150.721 145.178 155.376 148.637 157.256 C 151.481 158.802 153.986 157.536 156.531 156.084 C 158.272 155.09 160.438 156.346 160.438 158.352 L 160.438 173.684 L 176.389 173.684 C 177.981 173.262 178.852 171.399 177.975 169.865 C 176.522 167.321 175.254 164.816 176.798 161.971 C 178.677 158.511 183.33 157.228 186.722 159.221 C 190.905 161.679 190.392 166.153 188.138 169.773 C 187.173 171.323 188.062 173.275 189.716 173.684 L 205.954 173.684 L 205.954 172.752" fill="rgb(255,255,255)" mask="url(#_mask_5EE4TFWrldVmIinFdsP33GLi66pG47hS)" vector-effect="non-scaling-stroke" stroke-width="2" stroke="rgb(70,62,67)" stroke-linejoin="miter" stroke-linecap="butt" stroke-miterlimit="4"/><path d=" M 205.954 172.752 L 205.954 128.169 L 160.438 128.169 L 160.438 143.705 C 160.438 145.755 158.184 147.006 156.444 145.921 C 152.826 143.665 148.353 143.149 145.892 147.331 C 143.897 150.721 145.178 155.376 148.637 157.256 C 151.481 158.802 153.986 157.536 156.531 156.084 C 158.272 155.09 160.438 156.346 160.438 158.352 L 160.438 173.684 L 176.389 173.684 C 177.981 173.262 178.852 171.399 177.975 169.865 C 176.522 167.321 175.254 164.816 176.798 161.971 C 178.677 158.511 183.33 157.228 186.722 159.221 C 190.905 161.679 190.392 166.153 188.138 169.773 C 187.173 171.323 188.062 173.275 189.716 173.684 L 205.954 173.684 L 205.954 172.752" fill="rgb(255,255,255)"/></g></g></svg>