<?xml version="1.0" encoding="UTF-8" standalone="no"?><!-- Generator: Gravit.io --><svg xmlns="http://www.w3.org/2000/svg" xmlns:xlink="http://www.w3.org/1999/xlink" style="isolation:isolate" viewBox="68.5 80 183 187.564" width="183pt" height="187.564pt"><g><path d=" M 206.986 109.604 C 194.809 86.288 171.729 80.645 152.214 85.097 C 131.478 89.826 111.645 106.099 99.037 129.216 C 87.324 150.694 82.932 179.679 92.09 204.349 C 102.437 232.224 128.531 239.351 149.054 243.688 C 161.451 246.308 174.029 247.271 186.56 246.483 C 198.036 245.761 210.063 244.244 220.916 238.762 C 239.879 229.185 250.926 204.251 250.351 176.824 C 249.751 148.204 236.641 122.636 220.45 105.865 C 203.059 87.851 180.907 78.496 159.134 80.198 C 117.862 83.422 74.539 129.919 75.018 190.305 C 75.242 218.378 86.25 244.491 105.037 256.39 C 125.083 269.087 149.742 269.618 171.162 264.633 C 192.76 259.606 214.783 247.636 231.628 228.085 C 247.039 210.197 256.833 183.961 248.389 156.74 C 240.125 130.101 220.996 110.919 201.802 100.806 C 179.525 89.071 154.975 88.802 131.822 95.417 C 111.811 101.136 87.655 110.945 76.133 136.183 C 65.355 159.79 66.924 192.508 75.039 217.11 C 79.044 229.251 85.094 240.216 92.985 248.081 C 102.23 257.297 113.496 261.345 124.66 263.484 C 146.046 267.58 168.885 268.39 189.909 260.782 C 200.148 257.077 209.785 251.102 218.325 242.48 C 219.42 241.375 218.368 238.832 217.243 239.943 C 200.407 256.597 179.83 262.51 159.388 263.172 C 149.726 263.484 140.041 262.753 130.433 261.366 C 119.364 259.769 108.008 256.91 98.264 249.144 C 81.336 235.655 72.309 208.773 71.038 182.712 C 70.329 168.163 71.766 152.885 77.036 140.019 C 81.961 127.993 90.056 119.466 98.917 113.358 C 118.557 99.823 142.287 93.439 164.161 94.076 C 184.773 94.673 205.364 102.682 222.222 119.264 C 238.488 135.263 254.263 162.504 247.907 191.541 C 242.099 218.075 222.782 235.622 205.46 246.729 C 186.219 259.068 164.816 265.05 143.59 264.11 C 123.134 263.205 99.843 256.857 87.139 232.664 C 75.04 209.624 74.8 179.198 82.947 153.802 C 91.225 127.999 106.938 107.362 125.356 95.247 C 162.466 70.833 210.319 84.679 235.339 130.435 C 247.186 152.1 252.328 180.952 243.777 206.374 C 233.964 235.549 210.733 241.298 189.54 243.104 C 167.047 245.022 144.065 241.523 122.573 232.09 C 112.36 227.607 102.508 220.85 96.373 208.309 C 91.228 197.788 88.979 184.875 89.33 172.29 C 90.11 144.324 104.163 120.285 120.532 105.297 C 137.899 89.396 160.172 81.469 180.748 88.618 C 190.657 92.06 199.86 98.981 206.043 110.361 C 206.456 111.12 207.399 110.395 206.986 109.604 L 206.986 109.604" fill="rgb(180,235,202)"/><g><g><mask id="_mask_J8gnGyWa957aZGySiZqU1tcOIVdB3Sg8" x="-200%" y="-200%" width="400%" height="400%"><rect x="-200%" y="-200%" width="400%" height="400%" style="fill:white;"/><path d=" M 137.874 156.302 L 116.603 156.302 C 113.9 156.302 111.974 158.445 112.224 161.124 L 112 202.913 C 112 203.034 112.006 203.152 112.022 203.274 C 112.397 206.051 114.96 208.309 117.74 208.309 L 144.89 208.309 C 147.541 208.309 149.419 206.241 149.255 203.635 L 143.365 160.102 C 143.335 160.113 143.307 160.126 143.279 160.136 C 142.438 157.94 140.235 156.302 137.874 156.302 Z " fill="black" stroke="none"/></mask><path d=" M 137.874 156.302 L 116.603 156.302 C 113.9 156.302 111.974 158.445 112.224 161.124 L 112 202.913 C 112 203.034 112.006 203.152 112.022 203.274 C 112.397 206.051 114.96 208.309 117.74 208.309 L 144.89 208.309 C 147.541 208.309 149.419 206.241 149.255 203.635 L 143.365 160.102 C 143.335 160.113 143.307 160.126 143.279 160.136 C 142.438 157.94 140.235 156.302 137.874 156.302 Z " fill="none" mask="url(#_mask_J8gnGyWa957aZGySiZqU1tcOIVdB3Sg8)" vector-effect="non-scaling-stroke" stroke-width="2" stroke="rgb(70,62,67)" stroke-linejoin="miter" stroke-linecap="butt" stroke-miterlimit="4"/><path d=" M 137.874 156.302 L 116.603 156.302 C 113.9 156.302 111.974 158.445 112.224 161.124 L 112 202.913 C 112 203.034 112.006 203.152 112.022 203.274 C 112.397 206.051 114.96 208.309 117.74 208.309 L 144.89 208.309 C 147.541 208.309 149.419 206.241 149.255 203.635 L 143.365 160.102 C 143.335 160.113 143.307 160.126 143.279 160.136 C 142.438 157.94 140.235 156.302 137.874 156.302 Z " fill="none"/><mask id="_mask_l2knadDN86pgVs4TE8qBYuXcknb6bQMk" x="-200%" y="-200%" width="400%" height="400%"><rect x="-200%" y="-200%" width="400%" height="400%" style="fill:white;"/><path d=" M 212.068 174.34 C 211.8 171.181 210.201 168.862 208.117 167.205 C 209.687 166.089 210.622 164.465 210.822 162.418 C 211.09 159.679 210.373 155.383 207.489 152.273 C 206.03 150.705 203.414 148.836 199.252 148.836 L 179.892 148.836 C 179.854 146.033 179.854 141.639 180.055 137.737 C 180.352 132.105 177.201 125.237 174.085 121.635 C 172.446 119.736 170.785 118.673 169.143 118.471 C 168.616 118.405 168.072 118.372 167.518 118.372 C 163.948 118.372 159.729 119.798 158.905 122.928 C 158.542 124.288 158.879 125.725 159.241 127.24 C 159.713 129.257 160.313 131.765 159.688 135.268 C 158.631 141.215 149.649 155.589 146.741 158.228 L 152.799 203.008 C 156.788 204.556 166.005 207.923 170.848 207.923 L 195.065 207.923 C 196.713 207.923 202.222 207.564 203.879 202.932 C 204.673 200.701 204.371 198.596 203.598 196.801 C 203.59 196.627 203.583 196.477 203.579 196.377 C 203.579 196.34 203.573 196.296 203.572 196.252 C 206.596 195.444 208.554 193.432 209.073 190.452 C 209.698 186.854 208.617 184.364 207.531 182.863 C 210.734 181.373 212.407 178.382 212.068 174.34" fill="black" stroke="none"/></mask><path d=" M 212.068 174.34 C 211.8 171.181 210.201 168.862 208.117 167.205 C 209.687 166.089 210.622 164.465 210.822 162.418 C 211.09 159.679 210.373 155.383 207.489 152.273 C 206.03 150.705 203.414 148.836 199.252 148.836 L 179.892 148.836 C 179.854 146.033 179.854 141.639 180.055 137.737 C 180.352 132.105 177.201 125.237 174.085 121.635 C 172.446 119.736 170.785 118.673 169.143 118.471 C 168.616 118.405 168.072 118.372 167.518 118.372 C 163.948 118.372 159.729 119.798 158.905 122.928 C 158.542 124.288 158.879 125.725 159.241 127.24 C 159.713 129.257 160.313 131.765 159.688 135.268 C 158.631 141.215 149.649 155.589 146.741 158.228 L 152.799 203.008 C 156.788 204.556 166.005 207.923 170.848 207.923 L 195.065 207.923 C 196.713 207.923 202.222 207.564 203.879 202.932 C 204.673 200.701 204.371 198.596 203.598 196.801 C 203.59 196.627 203.583 196.477 203.579 196.377 C 203.579 196.34 203.573 196.296 203.572 196.252 C 206.596 195.444 208.554 193.432 209.073 190.452 C 209.698 186.854 208.617 184.364 207.531 182.863 C 210.734 181.373 212.407 178.382 212.068 174.34" fill="none" mask="url(#_mask_l2knadDN86pgVs4TE8qBYuXcknb6bQMk)" vector-effect="non-scaling-stroke" stroke-width="2" stroke="rgb(70,62,67)" stroke-linejoin="miter" stroke-linecap="butt" stroke-miterlimit="4"/><path d=" M 212.068 174.34 C 211.8 171.181 210.201 168.862 208.117 167.205 C 209.687 166.089 210.622 164.465 210.822 162.418 C 211.09 159.679 210.373 155.383 207.489 152.273 C 206.03 150.705 203.414 148.836 199.252 148.836 L 179.892 148.836 C 179.854 146.033 179.854 141.639 180.055 137.737 C 180.352 132.105 177.201 125.237 174.085 121.635 C 172.446 119.736 170.785 118.673 169.143 118.471 C 168.616 118.405 168.072 118.372 167.518 118.372 C 163.948 118.372 159.729 119.798 158.905 122.928 C 158.542 124.288 158.879 125.725 159.241 127.24 C 159.713 129.257 160.313 131.765 159.688 135.268 C 158.631 141.215 149.649 155.589 146.741 158.228 L 152.799 203.008 C 156.788 204.556 166.005 207.923 170.848 207.923 L 195.065 207.923 C 196.713 207.923 202.222 207.564 203.879 202.932 C 204.673 200.701 204.371 198.596 203.598 196.801 C 203.59 196.627 203.583 196.477 203.579 196.377 C 203.579 196.34 203.573 196.296 203.572 196.252 C 206.596 195.444 208.554 193.432 209.073 190.452 C 209.698 186.854 208.617 184.364 207.531 182.863 C 210.734 181.373 212.407 178.382 212.068 174.34" fill="none"/></g></g></g></svg>