<svg xmlns="http://www.w3.org/2000/svg" xmlns:xlink="http://www.w3.org/1999/xlink" style="isolation:isolate" viewBox="172.038 -3 147.924 151"><g><path d=" M 189.684 108.451 Q 155.558 15.467 245.666 4.922 C 335.774 -5.623 340.184 140.467 245.666 137.592 C 151.149 134.716 175.688 -5.814 245.666 4.922 C 315.644 15.658 361.465 112.668 245.666 131.457 C 129.867 150.245 176.264 -28.246 245.666 4.922 C 291.531 26.84 326.368 57.91 314.686 91.579 C 308.69 108.859 293.742 137.286 254.869 143.727 C 137.78 163.125 157.351 -46.409 262.538 9.523" fill="none" stroke-width="2" stroke="rgb(182,235,203)"/><g><path d=" M 227.455 59.341 L 211.143 59.341 C 209.071 59.341 207.593 60.984 207.786 63.039 L 207.613 95.086 C 207.613 95.179 207.618 95.268 207.63 95.363 C 207.918 97.492 209.883 99.224 212.016 99.224 L 232.836 99.224 C 234.869 99.224 236.309 97.638 236.184 95.639 L 231.667 62.255 C 231.644 62.263 231.622 62.274 231.6 62.281 C 230.955 60.596 229.267 59.341 227.455 59.341 Z " fill="none" stroke-width="0.5px" stroke="rgb(70,62,67)"/><path d=" M 284.354 73.174 C 284.149 70.751 282.922 68.973 281.323 67.702 C 282.527 66.846 283.244 65.601 283.398 64.031 C 283.603 61.93 283.053 58.636 280.842 56.251 C 279.723 55.049 277.717 53.616 274.525 53.616 L 259.678 53.616 C 259.649 51.465 259.649 48.097 259.803 45.104 C 260.031 40.785 257.614 35.518 255.225 32.756 C 253.968 31.299 252.694 30.484 251.436 30.328 C 251.031 30.279 250.613 30.253 250.189 30.253 C 247.451 30.253 244.216 31.347 243.584 33.746 C 243.305 34.79 243.564 35.892 243.842 37.054 C 244.203 38.6 244.663 40.524 244.184 43.21 C 243.374 47.771 236.485 58.794 234.256 60.817 L 238.901 95.159 C 241.96 96.345 249.029 98.928 252.743 98.928 L 271.314 98.928 C 272.578 98.928 276.803 98.653 278.074 95.1 C 278.682 93.389 278.45 91.775 277.858 90.399 C 277.852 90.265 277.847 90.15 277.843 90.073 C 277.843 90.045 277.839 90.011 277.838 89.978 C 280.157 89.358 281.659 87.815 282.057 85.529 C 282.536 82.77 281.707 80.86 280.874 79.71 C 283.331 78.567 284.613 76.273 284.354 73.174 Z " fill="none" stroke-width="0.5px" stroke="rgb(70,62,67)"/></g></g></svg>