<svg xmlns="http://www.w3.org/2000/svg" xmlns:xlink="http://www.w3.org/1999/xlink" style="isolation:isolate" viewBox="0 0 288.061 91.337">
<style>
    @keyframes fadeIn {
        from { opacity: 0; }
        to { opacity: 1; }
    }

    .jafi_03,
    .jafi_02,
    .jafi_01 {
        opacity: 0;
        animation: fadeIn 400ms cubic-bezier(.17,.67,.83,.67) forwards;
    }

    .jafi_01 { animation-delay: 200ms; }
    .jafi_02 { animation-delay: 400ms; }
    .jafi_03 { animation-delay: 600ms; }
</style>
<g>
<path class="jafi_02" d=" M 68.462 91.223 C 68.66 91.172 72.71 90.487 77.462 89.701 C 110.515 84.233 132.459 78.327 146.736 71.057 C 151.304 68.73 156.029 65.277 158.546 62.425 C 162.03 58.478 163.024 53.43 161.093 49.49 C 159.969 47.197 156.995 44.217 153.619 42.003 C 150.495 39.953 145.344 37.32 137.702 33.865 C 127.06 29.053 122.952 26.73 119.952 23.826 C 117.841 21.783 117.09 20.239 117.084 17.93 C 117.08 16.484 117.204 15.861 117.714 14.758 C 120.59 8.539 131.829 3.941 149.822 1.623 C 158.332 0.526 172.724 -0.48 169.502 0.247 C 169.172 0.321 163.243 1.417 156.325 2.681 C 149.408 3.945 143 5.24 142.085 5.558 C 137.225 7.248 133.461 11.232 132.783 15.404 C 132.236 18.773 133.821 23.214 136.569 26.006 C 137.831 27.289 141.554 29.934 143.744 31.105 C 144.747 31.64 144.906 31.659 146.125 31.386 C 146.843 31.226 147.754 31.165 148.149 31.252 C 148.714 31.376 149.024 31.277 149.603 30.79 C 150.008 30.449 150.628 30.115 150.981 30.047 C 151.334 29.979 152.324 29.743 153.182 29.523 C 154.04 29.303 155.514 29.062 156.458 28.987 C 157.602 28.896 158.327 28.711 158.636 28.43 C 158.892 28.199 159.288 28.01 159.517 28.01 C 160.338 28.01 160.829 27.515 161.239 26.273 C 161.803 24.564 162.13 24.074 163.948 22.2 C 165.233 20.875 165.437 20.561 165.097 20.431 C 164.466 20.188 162.869 20.519 161.623 21.149 C 161.007 21.461 160.036 21.856 159.465 22.026 C 158.645 22.272 158.33 22.528 157.961 23.253 C 157.703 23.757 157.057 24.459 156.523 24.811 C 155.728 25.337 155.438 25.412 154.911 25.227 C 154.046 24.923 153.997 24.406 154.73 23.325 C 155.067 22.829 155.342 22.262 155.342 22.065 C 155.342 21.04 156.397 20.004 160.476 17.025 C 160.887 16.726 161.816 16.241 162.542 15.949 C 163.737 15.468 164.239 15.421 167.822 15.457 C 170.412 15.482 172.433 15.631 173.662 15.886 L 175.541 16.278 L 177.66 15.544 C 180.866 14.434 182.665 14.612 183.88 16.157 C 184.156 16.507 184.489 17.195 184.621 17.686 C 185.005 19.112 184.585 19.9 182.805 21.096 C 181.958 21.665 181.267 22.292 181.269 22.49 C 181.271 22.688 181.479 23.305 181.731 23.86 C 182.493 25.539 182.566 26.759 182.002 28.432 C 181.388 30.254 181.388 30.365 181.982 32.69 C 182.246 33.723 182.464 34.901 182.466 35.309 C 182.469 35.73 182.78 36.507 183.186 37.106 C 183.58 37.687 183.902 38.235 183.902 38.325 C 183.902 38.414 183.63 38.742 183.297 39.055 C 182.733 39.585 182.632 39.602 181.797 39.306 C 180.528 38.857 180.302 38.617 180.302 37.717 C 180.302 36.622 179.944 35.778 178.884 34.371 C 178.386 33.711 177.835 32.792 177.66 32.33 C 177.056 30.741 176.202 29.188 175.859 29.056 C 175.671 28.984 175.227 29.152 174.873 29.43 C 174.519 29.709 173.814 30.003 173.306 30.084 C 172.798 30.165 172.382 30.283 172.382 30.347 C 172.382 30.409 172.652 30.782 172.982 31.174 C 173.446 31.726 173.582 32.158 173.582 33.081 C 173.582 35.39 172.435 36.576 169.308 37.501 C 168.16 37.84 166.574 38.353 165.782 38.641 C 164.99 38.929 163.964 39.166 163.502 39.167 C 162.834 39.17 162.647 39.273 162.59 39.671 C 162.551 39.947 162.686 40.311 162.89 40.481 C 163.095 40.65 163.262 41.146 163.262 41.582 C 163.262 42.322 163.424 42.481 165.699 43.971 C 169.119 46.212 170.37 46.886 172.374 47.568 C 174.36 48.243 174.782 48.522 174.782 49.157 C 174.782 49.756 173.232 50.405 172.192 50.241 L 171.402 50.117 L 171.898 50.764 C 174.397 54.023 174.87 55.207 174.888 58.25 C 174.9 60.346 174.838 60.665 174.11 62.202 C 172.36 65.899 166.953 70.132 158.531 74.399 C 143.256 82.139 131.225 85.12 101.702 88.479 C 88.739 89.954 66.129 91.82 68.462 91.222 L 68.462 91.223 Z " fill="rgb(33,148,211)"/>
<g class="jafi_03">
<path d=" M 215.529 71.1 C 209.461 69.833 206.621 65.668 206.606 58.01 C 206.6 54.479 207.112 52.296 208.635 49.384 C 210.704 45.427 213.305 42.795 216.248 41.68 C 221.138 39.829 228.15 39.767 232.025 41.541 C 233.678 42.298 235.39 43.885 236.132 45.348 C 237.35 47.752 237.449 53.08 236.357 57.368 C 234.131 66.1 228.275 71.037 219.782 71.342 C 218.085 71.403 216.566 71.316 215.529 71.1 L 215.529 71.1 Z  M 221.695 64.239 C 226.002 63.617 228.648 61.088 229.965 56.334 C 230.609 54.012 230.629 51.081 230.011 49.721 C 229.445 48.474 228.394 47.599 226.843 47.084 C 224.995 46.47 220.268 46.672 218.515 47.44 C 215.913 48.581 214.318 51.289 213.513 55.936 C 212.637 60.998 213.969 63.41 218.103 64.244 C 219.441 64.514 219.795 64.514 221.695 64.238 L 221.695 64.239 Z " fill-rule="evenodd" fill="rgb(33,148,211)"/>
<path d=" M 256.262 69.967 C 255.734 69.691 253.574 68.466 251.462 67.244 C 247.358 64.87 246.338 64.461 245.257 64.756 C 244.342 65.005 243.833 65.486 242.299 67.548 C 241.588 68.504 240.692 69.449 240.306 69.648 C 239.309 70.164 238.235 70.103 237.628 69.496 C 237.151 69.019 237.124 68.816 237.258 66.676 C 237.637 60.583 240.232 54.946 243.393 53.346 C 245.232 52.415 246.249 52.224 250.322 52.04 C 254.541 51.85 254.885 51.742 256.002 50.245 C 256.622 49.414 256.651 47.905 256.059 47.25 C 255.651 46.8 255.259 46.767 249.383 46.691 L 243.14 46.61 L 242.561 45.937 C 241.854 45.115 241.823 44.105 242.461 42.7 C 242.849 41.845 243.163 41.56 244.315 41.02 L 245.703 40.37 L 251.943 40.37 C 258.781 40.37 259.902 40.522 261.757 41.698 C 263.609 42.873 264.293 45.139 263.811 48.51 C 263.402 51.37 262.45 52.907 258.963 56.343 C 257.045 58.232 255.903 59.538 255.903 59.843 C 255.903 60.117 256.801 61.309 257.972 62.589 C 260.173 64.994 260.703 65.894 260.703 67.227 C 260.703 69.932 258.636 71.208 256.263 69.967 L 256.262 69.967 Z " fill="rgb(33,148,211)"/>
<path d=" M 270.277 69.984 C 269.61 69.737 269.101 68.883 269.105 68.018 C 269.107 67.727 269.862 63.709 270.784 59.089 C 271.707 54.469 272.462 50.239 272.462 49.688 C 272.462 48.343 271.65 47.41 269.559 46.358 C 267.778 45.461 267.422 45.032 267.422 43.78 C 267.422 42.709 268.226 41.849 270.004 41.015 C 271.354 40.382 271.494 40.368 276.862 40.289 C 284.213 40.182 287.457 40.632 287.913 41.82 C 288.202 42.571 288.056 43.737 287.575 44.526 C 286.977 45.506 285.82 46.03 282.703 46.728 C 280.076 47.318 278.921 48.068 278.279 49.603 C 278.086 50.066 277.135 54.382 276.166 59.195 C 274.961 65.182 274.263 68.134 273.958 68.543 C 272.984 69.848 271.488 70.434 270.277 69.984 L 270.277 69.984 Z " fill="rgb(33,148,211)"/>
<path d=" M 179.741 69.276 C 178.437 68.251 178.354 65.589 179.501 61.609 C 180.645 57.641 182.061 55.305 184.2 53.856 C 186.119 52.557 187.564 52.223 192.062 52.038 C 196.455 51.858 197.106 51.672 197.993 50.354 C 198.752 49.228 198.703 48.293 197.841 47.431 L 197.139 46.729 L 191.781 46.728 C 188.834 46.727 186.037 46.619 185.565 46.488 C 184.464 46.183 183.68 45.341 183.508 44.281 C 183.287 42.923 183.894 42.082 185.754 41.165 L 187.37 40.369 L 193.014 40.289 C 199.099 40.203 200.758 40.383 202.615 41.328 C 204.846 42.464 205.503 43.764 205.503 47.043 C 205.503 50.956 204.4 54.151 202.463 55.852 C 200.814 57.3 199.527 57.704 194.823 58.25 C 189.392 58.881 188.044 59.243 186.687 60.438 C 185.453 61.524 185.004 62.538 184.377 65.658 C 184.122 66.924 183.712 68.232 183.465 68.565 C 182.537 69.816 180.839 70.14 179.741 69.277 L 179.741 69.276 Z " fill="rgb(33,148,211)"/>
</g>
<g class="jafi_01">
<path d=" M 0.102 67.057 C -0.109 66.803 -0.006 65.418 0.532 61.227 C 0.92 58.203 1.243 55.702 1.25 55.669 C 1.257 55.636 7.141 55.609 14.325 55.609 C 25.295 55.609 27.443 55.554 27.729 55.268 C 28.034 54.963 28.622 51.151 28.622 49.481 L 28.622 48.889 L 25.517 48.889 C 23.808 48.889 22.354 48.797 22.285 48.685 C 22.167 48.495 23.48 38.089 23.705 37.429 C 23.829 37.067 30.82 37.01 32.325 37.359 C 33.915 37.728 35.134 38.775 36.042 40.554 C 37.248 42.917 37.302 45.33 36.315 52.729 C 35.901 55.831 35.401 59.071 35.202 59.929 C 34.429 63.277 32.773 65.644 30.477 66.682 L 29.222 67.249 L 14.8 67.32 C 2.731 67.379 0.333 67.337 0.102 67.057 L 0.102 67.057 Z  M 29.611 62.919 C 31.018 62.423 32.125 61.298 32.688 59.793 C 33.26 58.263 34.274 51.84 34.659 47.303 C 34.946 43.928 34.945 43.914 34.364 42.756 C 33.554 41.139 32.532 40.655 29.657 40.53 C 28.437 40.476 27.064 40.504 26.607 40.589 C 25.676 40.764 25.424 41.271 25.137 43.549 L 24.977 44.809 L 27.416 44.809 C 29.734 44.809 30.674 45.019 31.079 45.625 C 31.385 46.084 31.272 47.662 30.559 52.927 C 30.042 56.742 29.759 58.162 29.447 58.507 C 29.043 58.953 28.563 58.969 16.234 58.969 C 1.575 58.969 3.113 58.673 2.839 61.549 L 2.673 63.289 L 15.618 63.289 C 26.669 63.289 28.716 63.235 29.611 62.919 L 29.611 62.919 Z " fill-rule="evenodd" fill="rgb(33,148,211)"/>
<path d=" M 42.331 66.899 C 39.836 66.054 38.379 63.821 37.913 60.127 C 37.525 57.057 38.04 54.129 39.464 51.308 C 40.035 50.176 40.538 49.168 40.582 49.069 C 40.626 48.97 40.446 48.889 40.182 48.889 C 39.268 48.889 38.942 48.617 38.942 47.852 C 38.942 47.016 40.099 37.901 40.266 37.422 C 40.352 37.176 43.237 37.128 54.757 37.182 L 69.142 37.249 L 70.182 37.977 C 71.478 38.883 72.669 40.624 73.169 42.343 C 73.824 44.598 73.535 49.406 72.286 57.049 C 71.477 61.993 69.458 65.339 66.471 66.681 C 65.227 67.24 65.183 67.242 54.407 67.284 C 44.605 67.322 43.473 67.285 42.331 66.899 L 42.331 66.899 Z  M 65.44 63.266 C 66.782 62.894 68.739 60.864 69.357 59.202 C 69.824 57.949 70.919 50.846 71.251 46.914 C 71.447 44.595 71.084 43.191 70 42.075 C 68.703 40.739 68.114 40.689 54.701 40.774 L 42.74 40.849 L 42.31 41.38 C 41.867 41.927 41.432 44.371 41.7 44.805 C 41.799 44.965 45.995 45.049 53.921 45.049 C 62.08 45.049 66.236 45.135 66.748 45.313 C 67.242 45.485 67.558 45.787 67.657 46.182 C 67.855 46.971 67.627 49.827 67.009 54.273 C 66.527 57.744 66.282 58.655 65.727 59.025 C 65.581 59.122 60.69 59.203 54.856 59.205 L 44.25 59.208 L 43.876 58.675 C 43.181 57.682 43.558 55.132 44.472 54.643 C 44.736 54.502 48.578 54.408 54.137 54.408 C 61.53 54.408 63.416 54.345 63.629 54.088 C 63.775 53.913 63.923 52.967 63.958 51.988 L 64.022 50.208 L 54.564 50.145 C 45.308 50.084 45.083 50.093 44.039 50.599 C 42.747 51.224 41.09 53.359 40.487 55.176 C 40.259 55.862 40.066 57.13 40.059 57.995 C 40.033 60.925 40.938 62.776 42.637 63.269 C 43.74 63.588 64.286 63.585 65.44 63.266 L 65.44 63.266 Z " fill-rule="evenodd" fill="rgb(33,148,211)"/>
<path d=" M 76.775 67.182 C 76.712 67.08 76.768 66.099 76.901 65.002 C 77.033 63.906 77.07 62.937 76.983 62.849 C 76.895 62.761 76.103 62.635 75.223 62.569 L 73.622 62.449 L 73.634 61.609 C 73.645 60.778 74.624 52.605 74.83 51.617 C 74.924 51.172 75.139 51.093 76.503 51.006 C 77.478 50.944 78.208 50.767 78.438 50.537 C 78.666 50.309 78.935 49.213 79.142 47.669 C 79.565 44.515 79.984 43.139 81.07 41.329 C 82.188 39.468 82.857 38.782 84.38 37.938 L 85.622 37.249 L 100.207 37.182 C 112.807 37.124 114.81 37.162 114.926 37.465 C 115.087 37.883 113.878 47.574 113.568 48.349 L 113.353 48.889 L 100.262 48.889 L 87.171 48.889 L 86.93 49.521 C 86.453 50.776 86.78 51.049 88.759 51.049 L 90.542 51.049 L 90.542 51.858 C 90.542 52.92 89.376 62.081 89.206 62.356 C 89.133 62.473 88.274 62.569 87.297 62.569 C 85.184 62.569 85.084 62.676 84.81 65.243 C 84.7 66.278 84.498 67.011 84.286 67.145 C 83.867 67.41 76.937 67.445 76.775 67.183 L 76.775 67.182 Z  M 82.623 62.929 C 82.787 62.731 82.97 62.056 83.03 61.429 C 83.257 59.054 83.594 58.739 85.914 58.733 C 87.441 58.73 87.594 58.512 87.703 56.201 L 87.782 54.529 L 85.922 54.459 C 84.301 54.398 84.062 54.333 84.062 53.947 C 84.062 52.894 85.061 46.146 85.276 45.744 C 85.407 45.5 85.72 45.19 85.972 45.055 C 86.268 44.897 90.859 44.809 98.897 44.809 C 108.579 44.809 111.419 44.742 111.609 44.509 C 112.007 44.024 112.371 41.14 112.08 40.781 C 111.881 40.536 109.256 40.487 99.206 40.541 L 86.582 40.609 L 85.202 41.287 C 83.847 41.952 82.896 43.004 82.216 44.587 C 81.829 45.49 81.236 48.661 80.945 51.392 C 80.805 52.702 80.572 53.917 80.427 54.092 C 80.268 54.283 79.651 54.409 78.873 54.409 C 77.204 54.409 76.72 54.869 76.495 56.666 C 76.254 58.594 76.355 58.729 78.026 58.729 C 79.936 58.729 80.116 58.968 79.757 61.027 C 79.547 62.233 79.548 62.695 79.761 62.952 C 80.147 63.416 82.232 63.4 82.623 62.929 L 82.623 62.929 Z " fill-rule="evenodd" fill="rgb(33,148,211)"/>
<path d=" M 113.391 67.068 C 113.215 66.856 113.668 62.665 114.928 52.848 C 115.91 45.193 116.792 38.551 116.888 38.089 L 117.062 37.249 L 120.962 37.183 C 123.808 37.135 124.862 37.192 124.862 37.397 C 124.862 37.551 124.22 42.71 123.435 48.863 C 122.65 55.015 121.826 61.561 121.604 63.409 C 121.382 65.257 121.093 66.904 120.962 67.069 C 120.624 67.495 113.745 67.494 113.391 67.068 L 113.391 67.068 Z  M 119.397 62.329 C 119.579 61.457 121.714 44.464 121.926 42.203 C 122.066 40.704 121.881 40.498 120.38 40.493 C 119.216 40.49 118.622 40.956 118.622 41.878 C 118.622 42.226 118.023 47.041 117.291 52.577 C 116.558 58.113 116.017 62.793 116.088 62.977 C 116.183 63.226 116.604 63.294 117.719 63.241 L 119.222 63.169 L 119.397 62.329 Z " fill-rule="evenodd" fill="rgb(33,148,211)"/>
</g>
</g>
</svg>