<svg xmlns="http://www.w3.org/2000/svg" xmlns:xlink="http://www.w3.org/1999/xlink" style="isolation:isolate" viewBox="0 0 980.266 215.143">
<style>
    @-webkit-keyframes fadeIn {
        from { opacity: 0; }
        to { opacity: 1; }
    }

    @keyframes fadeIn {
        from { opacity: 0; }
        to { opacity: 1; }
    }

    .field01,
    .field02 {
        opacity: 0;
        -webkit-animation: fadeIn 200ms cubic-bezier(.17,.67,.83,.67) forwards;
                animation: fadeIn 200ms cubic-bezier(.17,.67,.83,.67) forwards;
    }

    .obstawiamy_info {
        opacity: 0;
        -webkit-animation: fadeIn 800ms cubic-bezier(.17,.67,.83,.67) forwards;
                animation: fadeIn 800ms cubic-bezier(.17,.67,.83,.67) forwards;
    }

    .field02 { -webkit-animation-delay: 200ms; animation-delay: 200ms; }
    .obstawiamy_info { -webkit-animation-delay: 600ms; animation-delay: 600ms; }

</style>
<g>
<path class="field01" d=" M 349.948 214.081 C 348.912 213.046 348.766 209.28 348.766 183.703 L 348.766 154.507 L 351.391 154.507 L 354.016 154.507 L 354.016 183.007 L 354.016 211.507 L 371.641 211.507 L 389.266 211.507 L 389.266 191.632 L 389.266 171.757 L 398.078 171.748 L 406.891 171.74 L 410.463 167.666 C 415.69 161.707 421.942 158.806 430.421 158.407 C 435.542 158.166 437.777 158.416 441.142 159.602 C 446.659 161.548 451.645 165.018 454.283 168.748 L 456.391 171.726 L 464.828 171.743 L 473.266 171.76 L 473.266 191.635 L 473.266 211.51 L 490.891 211.51 L 508.516 211.51 L 508.516 183.01 L 508.516 154.51 L 510.774 154.51 L 513.033 154.51 L 512.837 184.698 L 512.641 214.885 L 431.885 215.076 C 359.211 215.248 351.012 215.149 349.948 214.085 L 349.948 214.081 L 349.948 214.081 Z  M 403.516 203.257 L 403.516 195.007 L 431.266 195.007 L 459.016 195.007 L 459.016 203.257 L 459.016 211.507 L 463.516 211.507 L 468.016 211.507 L 468.016 193.882 L 468.016 176.257 L 431.266 176.257 L 394.516 176.257 L 394.516 193.882 L 394.516 211.507 L 399.016 211.507 L 403.516 211.507 L 403.516 203.257 L 403.516 203.257 Z  M 453.766 205.507 L 453.766 199.506 L 431.266 199.506 L 408.766 199.506 L 408.766 205.507 L 408.766 211.507 L 431.266 211.507 L 453.766 211.507 L 453.766 205.507 L 453.766 205.507 Z  M 450.016 171.084 C 450.016 169.958 444.882 165.826 441.926 164.573 C 440.394 163.923 436.762 163.205 433.854 162.977 C 426.371 162.391 420.882 164.096 416.358 168.413 L 412.891 171.722 L 431.453 171.739 C 441.911 171.747 450.016 171.463 450.016 171.084 L 450.016 171.084 L 450.016 171.084 Z " fill-rule="evenodd" fill="rgb(0,0,0)"/>
<path class="obstawiamy_info" d=" M 667.516 169.597 C 667.516 169.234 669.71 163.612 672.391 157.103 C 675.072 150.594 677.266 144.883 677.266 144.411 C 677.266 143.94 672.405 131.537 666.464 116.85 C 660.522 102.163 655.437 89.439 655.163 88.576 C 654.675 87.038 654.862 87.007 664.429 87.007 L 674.193 87.007 L 679.808 104.444 C 682.896 114.035 685.655 122.834 685.939 123.999 C 686.223 125.164 686.715 125.839 687.031 125.499 C 687.347 125.159 690.06 116.36 693.059 105.944 L 698.513 87.007 L 707.852 87.007 C 716.388 87.007 717.159 87.119 716.819 88.319 C 716.474 89.533 689.497 159.905 686.629 167.069 L 685.353 170.257 L 676.435 170.257 C 671.529 170.257 667.516 169.96 667.516 169.597 L 667.516 169.597 L 667.516 169.597 Z  M 693.141 169.535 C 693.278 169.138 705.035 140.451 719.266 105.786 L 745.141 42.758 L 844.171 42.757 C 953.322 42.756 946.788 42.484 956.99 47.464 C 963.631 50.706 972.317 59.391 975.559 66.032 C 980.14 75.417 980.266 76.636 980.266 111.419 C 980.266 128.797 980.044 149.145 979.773 156.636 L 979.279 170.256 L 836.085 170.256 C 744.719 170.256 692.981 169.995 693.141 169.535 L 693.141 169.535 L 693.141 169.535 Z  M 943.891 144.294 C 949.208 143.002 952.934 140.244 955.516 135.689 C 957.355 132.444 957.391 132.074 957.391 116.256 C 957.391 101.097 957.293 99.947 955.748 97.06 C 951.715 89.524 945.831 86.99 931.141 86.464 C 914.947 85.884 906.743 88.665 902.603 96.138 L 900.391 100.131 L 900.391 116.256 C 900.391 130.463 900.557 132.715 901.784 135.184 C 903.834 139.306 907.263 142.302 911.576 143.736 C 918.755 146.123 935.196 146.407 943.891 144.294 L 943.891 144.294 L 943.891 144.294 Z  M 923.641 135.437 C 923.228 135.272 921.941 134.927 920.779 134.67 C 917.217 133.882 916.516 130.853 916.516 116.256 C 916.516 97.754 917.25 96.587 928.891 96.587 C 940.515 96.587 941.266 97.772 941.266 116.12 C 941.266 129.511 940.738 132.539 938.116 134.176 C 936.604 135.12 925.312 136.104 923.641 135.437 Z  M 735.016 136.881 L 735.016 129.006 L 726.016 129.006 L 717.016 129.006 L 717.016 136.881 L 717.016 144.756 L 726.016 144.756 L 735.016 144.756 L 735.016 136.881 L 735.016 136.881 Z  M 767.266 115.881 L 767.266 87.006 L 758.641 87.006 L 750.016 87.006 L 750.016 115.881 L 750.016 144.756 L 758.641 144.756 L 767.266 144.756 L 767.266 115.881 L 767.266 115.881 Z  M 800.266 122.597 C 800.266 100.502 800.274 100.433 801.984 98.721 C 805.055 95.649 817.377 95.548 820.402 98.57 C 821.488 99.655 821.669 102.581 821.87 122.282 L 822.098 144.756 L 830.307 144.756 L 838.516 144.756 L 838.516 120.874 C 838.516 97.453 838.483 96.929 836.8 93.687 C 835.515 91.211 834.149 89.911 831.362 88.506 C 828.01 86.817 826.748 86.631 818.641 86.631 C 810.711 86.631 809.216 86.841 806.063 88.393 C 804.096 89.362 802 91.049 801.406 92.143 C 800.337 94.111 800.326 94.095 800.296 90.569 L 800.266 87.006 L 791.641 87.006 L 783.016 87.006 L 783.016 115.881 L 783.016 144.756 L 791.641 144.756 L 800.266 144.756 L 800.266 122.597 L 800.266 122.597 Z  M 876.016 121.131 L 876.016 97.506 L 883.891 97.506 L 891.766 97.506 L 891.766 92.256 L 891.766 87.006 L 883.891 87.006 L 876.016 87.006 L 876.016 80.597 C 876.016 74.698 876.171 74.033 877.963 72.241 C 879.854 70.35 880.11 70.307 886.963 70.715 L 894.016 71.136 L 894.016 66.372 C 894.016 60.576 894.224 60.68 882.593 60.622 C 864.445 60.531 859.801 64.259 858.956 79.599 L 858.548 87.006 L 853.407 87.006 L 848.266 87.006 L 848.266 92.256 L 848.266 97.506 L 853.516 97.506 L 858.766 97.506 L 858.766 121.131 L 858.766 144.756 L 867.391 144.756 L 876.016 144.756 L 876.016 121.131 L 876.016 121.131 Z  M 767.266 73.131 L 767.266 66.006 L 758.641 66.006 L 750.016 66.006 L 750.016 73.131 L 750.016 80.256 L 758.641 80.256 L 767.266 80.256 L 767.266 73.131 L 767.266 73.131 Z  M 45.418 152.966 C 24.252 149.675 6.708 133.93 1.495 113.549 C -0.497 105.759 -0.498 94.508 1.492 86.724 C 8.466 59.455 36.19 42.037 63.605 47.699 C 84.032 51.919 99.979 66.939 105.04 86.724 C 107.03 94.508 107.029 105.759 105.037 113.549 C 102.339 124.098 95.435 134.878 87.197 141.407 C 81.999 145.525 72.475 150.341 66.567 151.836 C 60.799 153.296 50.931 153.823 45.417 152.966 L 45.418 152.966 L 45.418 152.966 Z  M 64.516 141.15 C 66.539 140.29 64.795 140.373 52.141 141.745 L 46.141 142.395 L 54.391 142.171 C 58.928 142.047 63.485 141.588 64.516 141.149 L 64.516 141.15 L 64.516 141.15 Z  M 57.578 139.83 C 59.047 139.396 59.265 138.831 59.255 135.481 L 59.244 131.631 L 54.567 129.848 C 51.995 128.867 48.435 127.092 46.655 125.904 L 43.42 123.742 L 39.283 124.945 C 37.007 125.607 33.672 126.031 31.87 125.887 L 28.595 125.627 L 29.02 129.004 C 29.606 133.661 30.59 134.946 36.104 138.254 L 40.891 141.128 L 48.391 140.728 C 52.516 140.509 56.65 140.105 57.578 139.83 L 57.578 139.83 L 57.578 139.83 Z  M 28.167 129.328 C 27.778 126.22 26.901 124.089 24.741 121.005 C 23.145 118.726 21.294 115.222 20.628 113.219 C 19.806 110.743 18.894 109.414 17.78 109.068 C 16.878 108.788 15.211 107.905 14.075 107.105 C 12.22 105.798 11.962 105.774 11.544 106.864 C 10.877 108.602 13.934 117.391 16.893 122.245 C 19.963 127.28 26.128 133.293 28.415 133.484 C 28.565 133.495 28.454 131.626 28.167 129.328 L 28.167 129.328 L 28.167 129.328 Z  M 67.819 126.586 C 71.436 124.429 74.75 122.004 75.182 121.196 C 76.334 119.043 76.358 105.502 75.212 104.119 C 74.701 103.503 71.138 101.362 67.294 99.363 L 60.305 95.728 L 52.313 100.554 L 44.32 105.381 L 44.294 114.143 L 44.269 122.904 L 46.5 124.493 C 49.608 126.706 57.827 130.431 59.694 130.472 C 60.547 130.492 64.204 128.742 67.822 126.586 L 67.819 126.586 L 67.819 126.586 Z  M 90.653 120.671 C 91.622 118.969 92.044 117.805 91.59 118.086 C 90.39 118.827 90.54 118.318 92.828 113.881 C 94.405 110.823 94.872 108.898 94.812 105.703 C 94.663 97.816 94.126 96.48 90.364 94.653 C 88.501 93.747 86.703 93.006 86.371 93.006 C 86.038 93.006 84.526 94.805 83.012 97.004 C 81.498 99.203 79.457 101.755 78.477 102.675 C 76.869 104.187 76.767 104.653 77.427 107.49 C 77.828 109.218 77.987 113.026 77.778 115.952 L 77.399 121.272 L 80.732 122.891 C 84.533 124.738 85.236 125.906 84.038 128.385 C 82.729 131.096 88.647 124.194 90.653 120.671 Z  M 87.526 121.953 C 89.102 120.136 90.516 118.77 90.669 118.918 C 91.118 119.353 86.211 125.256 85.401 125.256 C 84.994 125.256 85.95 123.77 87.526 121.953 L 87.526 121.953 L 87.526 121.953 Z  M 24.752 99.77 C 27.637 96.885 27.816 96.464 27.406 93.529 C 27.164 91.798 27.284 88.019 27.673 85.131 C 28.366 79.984 28.34 79.848 26.385 78.178 C 23.813 75.981 21.292 75.344 19.863 76.53 C 19.24 77.047 18.551 77.292 18.333 77.074 C 18.115 76.856 18.716 76.048 19.668 75.279 C 20.62 74.51 22.006 72.869 22.749 71.631 C 23.704 70.04 23.091 70.454 20.658 73.044 C 18.765 75.058 17.387 76.877 17.595 77.086 C 17.803 77.294 17.143 78.453 16.126 79.66 C 13.052 83.314 10.99 91.471 11.485 98.019 C 11.949 104.156 12.511 105.198 16.462 107.247 L 19.141 108.636 L 20.4 105.75 C 21.092 104.162 23.051 101.471 24.752 99.77 L 24.752 99.77 L 24.752 99.77 Z  M 52.191 98.552 L 60.064 94.348 L 59.852 85.996 L 59.641 77.643 L 55.563 75.208 C 53.321 73.869 49.979 72.198 48.137 71.495 L 44.788 70.216 L 40.155 72.691 C 37.607 74.053 34.255 76.23 32.707 77.53 L 29.892 79.894 L 29.234 88.106 C 28.873 92.622 28.732 96.473 28.922 96.663 C 29.743 97.483 41.765 102.644 42.98 102.698 C 43.716 102.73 47.861 100.865 52.191 98.552 L 52.191 98.552 L 52.191 98.552 Z  M 94.377 90.844 C 94.161 87.858 93.258 84.806 91.584 81.406 C 88.939 76.034 81.761 67.92 78.953 67.13 C 77.337 66.675 77.266 66.847 77.266 71.191 C 77.266 75.326 77.531 76.074 80.273 79.679 C 81.926 81.853 83.904 85.319 84.668 87.381 C 85.839 90.545 86.631 91.441 89.724 93.108 C 91.741 94.195 93.685 95.124 94.044 95.171 C 94.403 95.218 94.553 93.271 94.377 90.844 L 94.377 90.844 L 94.377 90.844 Z  M 65.762 76.131 C 68.137 75.513 71.324 75.006 72.843 75.006 C 75.943 75.006 76.516 74.2 76.516 69.835 C 76.516 66.236 74.165 63.928 67.141 60.633 C 60.62 57.574 54.817 57.31 49.328 59.822 C 45.8 61.438 45.766 61.487 45.766 65.054 L 45.766 68.654 L 49.345 69.926 C 51.314 70.625 54.773 72.531 57.033 74.162 C 59.292 75.794 61.209 77.157 61.292 77.192 C 61.375 77.228 63.386 76.75 65.762 76.131 L 65.762 76.131 L 65.762 76.131 Z  M 47.641 59.225 L 51.391 57.694 L 47.221 58.09 C 44.928 58.308 41.722 58.973 40.096 59.568 L 37.141 60.651 L 40.516 60.703 C 42.372 60.731 45.578 60.066 47.641 59.225 L 47.641 59.225 L 47.641 59.225 Z  M 119.439 145.094 C 117.265 144.508 114.53 143.535 113.362 142.931 C 110.035 141.21 106.686 136.883 105.443 132.698 C 104.378 129.112 104.398 128.687 105.762 126.014 C 110.387 116.949 112.31 99.747 109.923 88.799 C 109.214 85.544 107.482 79.971 106.075 76.413 C 104.233 71.757 103.516 68.763 103.516 65.726 L 103.516 61.506 L 112.516 61.506 L 121.516 61.506 L 121.516 76.109 L 121.516 90.711 L 124.216 88.879 C 127.917 86.367 130.823 85.881 142.141 85.881 C 151.477 85.881 152.082 85.977 156.38 88.131 C 160.145 90.019 161.172 90.982 162.755 94.111 C 164.6 97.758 164.641 98.2 164.641 114.361 L 164.641 130.881 L 162.548 135.143 C 158.526 143.334 150.721 146.293 133.368 146.207 C 127.266 146.177 121.856 145.744 119.439 145.094 L 119.439 145.094 L 119.439 145.094 Z  M 140.968 134.27 C 142.38 133.865 143.807 133.106 144.139 132.583 C 144.471 132.059 144.748 124.484 144.754 115.747 C 144.764 102.861 144.561 99.658 143.679 98.776 C 140.909 96.006 127.34 96.441 123.885 99.41 L 121.891 101.123 L 121.69 115.252 C 121.465 131.117 121.802 132.572 126.036 134.027 C 129.243 135.128 137.505 135.263 140.968 134.27 L 140.968 134.27 L 140.968 134.27 Z  M 184.891 145.797 C 183.653 145.631 181.207 145.308 179.453 145.08 L 176.266 144.665 L 176.266 138.71 C 176.266 133.784 176.47 132.756 177.451 132.756 C 178.103 132.756 182.743 133.296 187.763 133.956 C 197.424 135.226 205.585 135.075 208.392 133.573 C 209.912 132.759 210.062 132.193 209.863 128.043 C 209.575 122.041 208.647 121.532 197.965 121.517 C 188.951 121.506 183.529 120.222 180.025 117.274 C 176.215 114.068 175.516 111.909 175.519 103.356 C 175.521 97.011 175.784 95.201 176.989 93.224 C 180.653 87.216 192.215 84.877 213.349 85.868 L 225.016 86.414 L 225.016 92.381 L 225.016 98.347 L 215.828 97.739 C 203.037 96.893 195.825 97.126 194.525 98.426 C 193.942 99.008 193.27 100.69 193.031 102.161 C 192.691 104.261 192.939 105.179 194.182 106.422 C 195.564 107.804 196.644 108.006 202.642 108.006 C 215.559 108.006 222.837 110.293 226.306 115.441 C 227.82 117.687 228.016 118.894 228.016 125.958 C 228.016 132.744 227.763 134.438 226.328 137.279 C 224.53 140.839 221.267 143.449 216.854 144.856 C 214.231 145.692 189.52 146.42 184.891 145.797 L 184.891 145.797 L 184.891 145.797 Z  M 256.663 144.833 C 254.475 144.078 251.706 142.521 250.509 141.375 C 246.58 137.61 246.016 134.347 246.016 115.373 L 246.016 98.256 L 240.016 98.256 L 234.016 98.256 L 234.016 92.631 L 234.016 87.006 L 240.016 87.006 L 246.016 87.006 L 246.016 78.381 L 246.016 69.756 L 255.016 69.756 L 264.016 69.756 L 264.016 78.381 L 264.016 87.006 L 271.891 87.006 L 279.766 87.006 L 279.766 92.631 L 279.766 98.256 L 271.85 98.256 L 263.935 98.256 L 264.163 114.737 C 264.384 130.745 264.44 131.267 266.101 132.925 C 267.594 134.414 268.571 134.631 273.789 134.631 L 279.766 134.631 L 279.766 140.444 L 279.766 146.256 L 270.203 146.231 C 262.931 146.211 259.689 145.877 256.663 144.832 L 256.663 144.833 L 256.663 144.833 Z  M 294.893 145.142 C 293.106 144.585 290.993 143.54 290.198 142.82 C 286.756 139.705 285.354 126.442 287.649 118.713 C 290.017 110.741 295.222 108.756 313.765 108.756 L 324.016 108.756 L 324.016 104.972 C 324.016 97.606 319.129 95.918 302.266 97.457 C 297.522 97.889 293.05 98.246 292.328 98.25 C 291.195 98.256 291.016 97.492 291.016 92.646 C 291.016 87.161 291.062 87.022 293.078 86.475 C 294.213 86.166 302.06 85.908 310.516 85.9 C 328.433 85.883 333.602 86.892 337.963 91.254 C 341.983 95.273 342.318 97.666 342.356 122.631 L 342.391 145.131 L 333.578 145.343 L 324.766 145.554 L 324.766 143.316 L 324.766 141.078 L 322.789 142.91 C 321.702 143.918 319.593 145.081 318.102 145.495 C 314.183 146.584 298.76 146.349 294.893 145.142 L 294.893 145.142 L 294.893 145.142 Z  M 322.777 133.602 C 323.759 132.787 324.016 131.189 324.016 125.915 L 324.016 119.256 L 315.933 119.256 C 305.119 119.256 304.516 119.672 304.516 127.131 C 304.516 134.572 305.323 135.185 314.715 134.864 C 319.09 134.715 321.983 134.262 322.777 133.602 Z  M 494.356 145.392 C 487.62 143.455 485.635 139.375 485.654 127.506 C 485.669 117.496 487.291 113.925 493.141 111.017 C 496.628 109.284 497.831 109.133 510.289 108.869 L 523.687 108.586 L 523.205 104.733 C 522.299 97.5 517.563 95.947 501.016 97.457 C 496.272 97.889 491.8 98.246 491.078 98.25 C 489.945 98.256 489.766 97.492 489.766 92.646 C 489.766 87.155 489.81 87.023 491.828 86.497 C 492.963 86.201 500.641 85.942 508.891 85.92 C 530.417 85.864 535.507 87.366 539.266 94.882 C 541.128 98.606 541.143 98.792 541.377 122.069 L 541.613 145.506 L 532.564 145.506 L 523.516 145.506 L 523.516 143.515 C 523.516 141.594 523.465 141.57 522.066 142.836 C 519.284 145.354 515.203 146.192 505.891 146.156 C 500.941 146.136 495.75 145.793 494.356 145.392 L 494.356 145.392 L 494.356 145.392 Z  M 520.281 134.546 C 522.476 133.957 523.516 130.675 523.516 124.332 L 523.516 119.131 L 514.454 119.381 C 503.69 119.678 503.266 119.972 503.266 127.131 C 503.266 131.684 504.092 133.709 506.266 134.486 C 507.817 135.04 518.271 135.085 520.281 134.546 L 520.281 134.546 L 520.281 134.546 Z  M 368.609 144.705 C 368.002 143.723 349.516 88.392 349.516 87.557 C 349.516 87.229 353.631 87.055 358.661 87.171 L 367.805 87.381 L 372.773 106.681 C 375.505 117.296 377.917 126.158 378.134 126.374 C 378.46 126.701 380.77 118.61 388.676 89.444 L 389.336 87.006 L 398.272 87.006 L 407.208 87.006 L 408.266 90.569 C 408.848 92.528 411.475 101.705 414.104 110.96 L 418.885 127.79 L 423.817 107.585 L 428.749 87.381 L 437.508 87.17 C 442.325 87.054 446.266 87.214 446.266 87.527 C 446.266 87.84 442.034 101.023 436.862 116.824 L 427.458 145.552 L 418.343 145.342 L 409.229 145.131 L 407.228 138.381 C 406.128 134.669 403.604 126.111 401.619 119.364 L 398.011 107.096 L 392.525 126.114 C 389.507 136.573 387.034 145.216 387.027 145.319 C 386.988 145.974 369.024 145.375 368.609 144.705 L 368.609 144.705 L 368.609 144.705 Z  M 455.266 116.256 L 455.266 87.006 L 464.266 87.006 L 473.266 87.006 L 473.266 116.256 L 473.266 145.506 L 464.266 145.506 L 455.266 145.506 L 455.266 116.256 L 455.266 116.256 Z  M 556.266 145.006 C 555.991 144.731 555.766 131.569 555.766 115.756 L 555.766 87.006 L 565.141 87.006 L 574.516 87.006 L 574.516 88.998 C 574.516 90.832 574.619 90.898 575.828 89.838 C 579.548 86.577 582.187 85.89 591.016 85.886 C 598.505 85.883 600.102 86.108 603.141 87.606 C 605.067 88.554 607.165 90.129 607.804 91.104 L 608.967 92.879 L 611.813 90.033 C 615.387 86.458 620.847 85.146 629.82 85.705 C 637.806 86.202 642.41 88.359 644.602 92.631 C 646.048 95.45 646.155 97.14 646.366 120.569 L 646.591 145.506 L 637.594 145.506 L 628.597 145.506 L 628.369 122.657 C 628.097 95.423 628.689 97.095 619.366 97.199 C 610.044 97.304 610.516 95.921 610.516 123.089 L 610.516 145.506 L 601.566 145.506 L 592.615 145.506 L 592.378 122.745 C 592.197 105.387 591.908 99.704 591.16 98.804 C 589.114 96.341 578.071 96.308 575.622 98.758 C 574.696 99.684 574.516 103.578 574.516 122.685 L 574.516 145.506 L 565.641 145.506 C 560.76 145.506 556.541 145.281 556.266 145.006 L 556.266 145.006 L 556.266 145.006 Z  M 455.266 73.131 L 455.266 66.006 L 464.266 66.006 L 473.266 66.006 L 473.266 73.131 L 473.266 80.256 L 464.266 80.256 L 455.266 80.256 L 455.266 73.131 L 455.266 73.131 Z " fill-rule="evenodd" fill="rgb(100,154,54)"/>
<path class="field02" d=" M 349.109 70.319 C 348.912 69.803 348.838 53.857 348.946 34.882 L 349.141 0.382 L 431.078 0.191 L 513.016 0 L 513.016 35.628 L 513.016 71.257 L 510.766 71.257 L 508.516 71.257 L 508.516 37.507 L 508.516 3.757 L 490.903 3.757 L 473.291 3.757 L 473.091 23.444 L 472.891 43.132 L 464.924 43.507 L 456.956 43.882 L 454.399 47.257 C 448.795 54.651 440.525 58.132 429.779 57.618 C 424.62 57.371 422.396 56.879 419.056 55.245 C 414.749 53.138 408.401 47.402 407.607 44.9 C 407.212 43.656 406.301 43.507 399.115 43.507 C 393.855 43.507 390.754 43.195 390.166 42.607 C 389.513 41.954 389.266 36.49 389.266 22.732 L 389.266 3.757 L 371.641 3.757 L 354.016 3.757 L 354.016 37.507 L 354.016 71.257 L 351.742 71.257 C 350.492 71.257 349.307 70.835 349.109 70.319 L 349.109 70.319 L 349.109 70.319 Z  M 441.804 51.242 C 445.305 49.684 450.766 45.38 450.766 44.179 C 450.766 43.799 442.362 43.519 431.453 43.535 L 412.141 43.564 L 415.977 47.143 C 418.226 49.243 421.328 51.246 423.477 51.988 C 428.355 53.673 437.147 53.315 441.804 51.242 L 441.804 51.242 L 441.804 51.242 Z  M 468.016 21.382 L 468.016 3.757 L 463.516 3.757 L 459.016 3.757 L 459.016 12.016 L 459.016 20.275 L 431.453 20.078 L 403.891 19.882 L 403.678 11.819 L 403.465 3.757 L 398.991 3.757 L 394.516 3.757 L 394.516 21.382 L 394.516 39.007 L 431.266 39.007 L 468.016 39.007 L 468.016 21.382 L 468.016 21.382 Z  M 453.766 9.757 L 453.766 3.757 L 431.266 3.757 L 408.766 3.757 L 408.766 9.757 L 408.766 15.757 L 431.266 15.757 L 453.766 15.757 L 453.766 9.757 L 453.766 9.757 Z " fill-rule="evenodd" fill="rgb(0,0,0)"/>
</g>
</svg>