<?xml version="1.0" standalone="no"?><!-- Generator: Gravit.io --><svg xmlns="http://www.w3.org/2000/svg" xmlns:xlink="http://www.w3.org/1999/xlink" style="isolation:isolate" viewBox="-296.546 -194.037 93.081 64.308" preserveAspectRatio="xMinYMax meet">
<style>

    @-webkit-keyframes fadeIn {
        from { opacity: 0 }
        to { opacity: 1 }
    }

    @keyframes fadeIn {
        from { opacity: 0 }
        to { opacity: 1 }
    }

    @-webkit-keyframes zoomIn {
        from { opacity: 0; -webkit-transform: translateX(5px); transform: translateX(5px); }
        to { opacity: 1; -webkit-transform: translateX(0px); transform: translateX(0px); }
    }

    @keyframes zoomIn {
        from { opacity: 0; -webkit-transform: translateX(5px); transform: translateX(5px); }
        to { opacity: 1; -webkit-transform: translateX(0px); transform: translateX(0px); }
    }

    .path, .icon--circle {
        opacity: 0;
        -webkit-animation: fadeIn 100ms cubic-bezier(0.215, 0.610, 0.355, 1) forwards;
                animation: fadeIn 100ms cubic-bezier(0.215, 0.610, 0.355, 1) forwards;
    }

    .group {
        opacity: 0;
        -webkit-animation: zoomIn 400ms cubic-bezier(0.215, 0.610, 0.355, 1) forwards;
                animation: zoomIn 400ms cubic-bezier(0.215, 0.610, 0.355, 1) forwards;
    }

    .path--02 { -webkit-animation-delay: 100ms; animation-delay: 100ms; }
    .path--03 { -webkit-animation-delay: 200ms; animation-delay: 200ms; }
    .path--04 { -webkit-animation-delay: 300ms; animation-delay: 300ms; }
    .group--01 { -webkit-animation-delay: 400ms; animation-delay: 400ms; }
    .group--02 { -webkit-animation-delay: 500ms; animation-delay: 700ms; }
    .path--05 { -webkit-animation-delay: 600ms; animation-delay: 600ms; }
    .path--06 { -webkit-animation-delay: 700ms; animation-delay: 700ms; }
    .group--03 { -webkit-animation-delay: 800ms; animation-delay: 800ms; }
    .group--04 { -webkit-animation-delay: 900ms; animation-delay: 1100ms; }
    .path--07 { -webkit-animation-delay: 1000ms; animation-delay: 1000ms; }
    .path--08 { -webkit-animation-delay: 1100ms; animation-delay: 1100ms; }
    .path--09 { -webkit-animation-delay: 1200ms; animation-delay: 1200ms; }
    .path--10 { -webkit-animation-delay: 1300ms; animation-delay: 1300ms; }
    .group--05 { -webkit-animation-delay: 1400ms; animation-delay: 1400ms; }
    .group--06 { -webkit-animation-delay: 1500ms; animation-delay: 1700ms; }
    .path--11 { -webkit-animation-delay: 1600ms; animation-delay: 1600ms; }
    .path--12 { -webkit-animation-delay: 1700ms; animation-delay: 1700ms; }
    .path--13 { -webkit-animation-delay: 1800ms; animation-delay: 1800ms; }
    .icon--circle01 { -webkit-animation-delay: 850ms; animation-delay: 800ms; }
    .icon--circle02 { -webkit-animation-delay: 1450ms; animation-delay: 1200ms; }
    .icon--circle03 { -webkit-animation-delay: 2350ms; animation-delay: 1800ms; }

</style>
<path class='path path--01' d=" M -295.735 -129.835 C -294.47 -131.158 -294.971 -130.751 -293.471 -132.079 C -293.079 -132.426 -293.643 -132.99 -294.052 -132.648 C -295.233 -131.44 -295.258 -131.415 -296.537 -129.835 C -296.642 -129.747 -295.768 -129.649 -295.735 -129.835 Z " fill="rgb(70,62,67)"/>
<path class='path path--02' d=" M -291.225 -133.705 C -290.579 -133.907 -289.988 -134.234 -289.381 -134.514 C -288.912 -134.729 -288.039 -135.295 -287.514 -135.148 C -287.247 -135.073 -286.961 -135.238 -286.946 -135.487 L -286.94 -135.579 C -286.926 -135.793 -287.08 -135.95 -287.289 -136.031 C -287.93 -136.283 -288.668 -135.738 -289.179 -135.461 C -289.944 -135.046 -290.806 -134.611 -291.405 -134.015 C -291.521 -133.9 -291.443 -133.637 -291.225 -133.705 Z " fill="rgb(70,62,67)"/>
<path class='path path--03' d=" M -284.185 -136.721 C -283.315 -136.82 -282.445 -136.918 -281.575 -137.02 C -280.888 -137.101 -279.845 -137.415 -279.193 -137.257 C -278.883 -137.181 -278.612 -137.351 -278.572 -137.627 L -278.557 -137.729 C -278.525 -137.956 -278.723 -138.15 -278.943 -138.23 C -279.613 -138.472 -280.573 -138.093 -281.233 -137.961 C -282.268 -137.753 -283.302 -137.542 -284.336 -137.331 C -284.786 -137.239 -284.633 -136.67 -284.185 -136.721 Z " fill="rgb(70,62,67)"/>
<path class='path path--04' d=" M -269.537 -139.897 C -270.407 -139.798 -271.278 -139.7 -272.147 -139.598 C -272.834 -139.517 -273.877 -139.202 -274.529 -139.361 C -274.839 -139.437 -275.111 -139.266 -275.15 -138.991 L -275.165 -138.888 C -275.197 -138.662 -274.999 -138.468 -274.779 -138.388 C -274.11 -138.146 -273.149 -138.525 -272.49 -138.657 C -271.455 -138.865 -270.42 -139.075 -269.386 -139.287 C -268.936 -139.379 -269.09 -139.947 -269.537 -139.897 Z " fill="rgb(70,62,67)"/>
<g class='group group--01'><path d=" M -261.214 -141.385 C -263.149 -141.398 -264.991 -141.75 -266.898 -142.362 C -267.396 -142.522 -267.594 -141.749 -267.091 -141.572 C -265.15 -140.889 -263.086 -140.698 -261.152 -140.914 C -260.908 -140.941 -260.96 -141.383 -261.214 -141.385 Z " fill="rgb(70,62,67)"/><path d=" M -265.801 -138.661 C -264.886 -140.367 -264.313 -142.153 -263.938 -144.12 C -263.839 -144.634 -263.066 -144.437 -263.151 -143.911 C -263.481 -141.88 -264.302 -139.976 -265.417 -138.381 C -265.557 -138.18 -265.92 -138.438 -265.801 -138.661 Z " fill="rgb(70,62,67)"/></g>
<path class='icon--circle icon--circle01' transform="scale(1)" fill="rgb(254,252,173)" d=" M -265.496 -145.267 C -262.326 -146.9 -261.323 -150.5 -262.439 -153.77 C -262.938 -155.233 -263.879 -156.585 -265.298 -157.273 C -266.899 -158.049 -268.87 -157.846 -270.54 -157.419 C -272.597 -156.892 -274.634 -155.893 -275.846 -154.084 C -276.052 -153.773 -276.227 -153.443 -276.37 -153.098 C -276.426 -152.573 -276.439 -152.052 -276.449 -151.598 C -276.488 -149.922 -276.41 -148.123 -275.248 -146.803 C -272.825 -144.051 -268.653 -143.641 -265.496 -145.267 Z " />
<g class='group group--02 group--hover'><path d=" M -270.882 -152.657 C -271.31 -151.32 -270.587 -150.038 -269.366 -149.438 C -268.82 -149.17 -268.182 -149.055 -267.595 -149.259 C -266.933 -149.489 -266.441 -150.094 -266.095 -150.678 C -265.669 -151.397 -265.38 -152.242 -265.546 -153.083 C -265.575 -153.227 -265.618 -153.368 -265.675 -153.504 C -265.805 -153.665 -265.947 -153.814 -266.07 -153.944 C -266.526 -154.421 -267.049 -154.9 -267.74 -154.944 C -269.18 -155.036 -270.456 -153.988 -270.882 -152.657 Z  M -268.095 -155.715 C -267.056 -155.793 -266.252 -155.253 -265.56 -154.532 C -265.08 -154.032 -264.704 -153.399 -264.788 -152.741 C -264.753 -152.281 -264.82 -151.81 -264.961 -151.36 C -265.501 -149.642 -266.987 -147.987 -268.945 -148.462 C -270.592 -148.863 -271.951 -150.41 -271.779 -152.15 C -271.591 -154.052 -269.982 -155.574 -268.095 -155.715 L -268.095 -155.715 Z " fill="rgb(70,62,67)"/><path d=" M -272.788 -148.329 C -272.453 -148.684 -272.069 -148.989 -271.74 -149.347 C -271.492 -149.617 -271.267 -149.937 -270.937 -150.113 C -270.782 -150.195 -270.627 -149.966 -270.784 -149.882 C -271.06 -149.736 -271.252 -149.479 -271.457 -149.25 C -271.679 -149.001 -271.933 -148.791 -272.174 -148.56 C -272.418 -148.326 -272.653 -148.082 -272.879 -147.83 C -273.102 -147.583 -273.539 -147.286 -273.278 -146.941 C -273.223 -146.868 -273.081 -146.718 -272.99 -146.691 C -272.846 -146.649 -272.84 -146.732 -272.741 -146.842 C -272.499 -147.108 -272.238 -147.359 -271.989 -147.618 C -271.419 -148.211 -270.869 -148.821 -270.312 -149.426 C -270.201 -149.546 -270.032 -149.378 -270.129 -149.266 L -270.128 -149.265 C -270.847 -148.394 -271.639 -147.584 -272.429 -146.776 C -272.561 -146.64 -272.703 -146.379 -272.919 -146.386 C -273.147 -146.395 -273.398 -146.672 -273.527 -146.828 C -273.677 -147.011 -273.736 -147.184 -273.615 -147.402 C -273.43 -147.738 -273.049 -148.052 -272.788 -148.329 Z " fill="rgb(70,62,67)"/><path d=" M -272.335 -148.502 C -272.211 -148.396 -272.105 -148.257 -271.992 -148.137 C -271.891 -148.029 -271.794 -147.924 -271.734 -147.787 C -271.694 -147.693 -271.828 -147.607 -271.899 -147.676 C -271.905 -147.681 -271.961 -147.685 -271.959 -147.685 C -271.984 -147.688 -271.992 -147.72 -271.977 -147.738 L -271.971 -147.745 C -272.058 -147.831 -272.141 -147.922 -272.23 -148.006 C -272.336 -148.105 -272.46 -148.204 -272.526 -148.334 C -272.587 -148.456 -272.454 -148.603 -272.335 -148.502 Z  M -273.178 -147.048 C -273.075 -146.998 -272.978 -146.959 -272.868 -146.929 C -272.777 -146.904 -272.655 -146.885 -272.582 -146.822 C -272.566 -146.807 -272.57 -146.779 -272.593 -146.775 C -272.642 -146.766 -272.691 -146.76 -272.74 -146.758 C -272.759 -146.757 -272.765 -146.783 -272.747 -146.789 C -272.815 -146.801 -272.885 -146.818 -272.947 -146.831 C -273.048 -146.852 -273.152 -146.876 -273.238 -146.936 C -273.295 -146.977 -273.244 -147.079 -273.178 -147.048 Z  M -273.277 -147.284 C -272.995 -147.15 -272.706 -147.111 -272.397 -147.113 C -272.374 -147.113 -272.378 -147.077 -272.401 -147.077 C -272.707 -147.075 -273.021 -147.091 -273.313 -147.19 C -273.375 -147.211 -273.335 -147.312 -273.277 -147.284 Z  M -273.185 -147.54 C -272.887 -147.467 -272.576 -147.397 -272.284 -147.303 C -272.242 -147.289 -272.267 -147.226 -272.308 -147.239 C -272.479 -147.292 -272.652 -147.323 -272.828 -147.35 C -272.956 -147.37 -273.107 -147.38 -273.224 -147.439 C -273.287 -147.471 -273.253 -147.556 -273.185 -147.54 Z  M -273.002 -147.774 C -272.692 -147.646 -272.364 -147.619 -272.05 -147.506 C -272 -147.488 -272.03 -147.417 -272.079 -147.43 C -272.387 -147.509 -272.808 -147.444 -273.072 -147.643 C -273.139 -147.692 -273.083 -147.807 -273.002 -147.774 Z " fill="rgb(70,62,67)"/><path d=" M -272.756 -148.057 C -272.492 -147.937 -272.234 -147.856 -271.947 -147.807 C -271.876 -147.795 -271.885 -147.686 -271.959 -147.694 C -272.245 -147.724 -272.583 -147.759 -272.831 -147.917 C -272.907 -147.965 -272.839 -148.094 -272.756 -148.057 Z  M -272.558 -148.331 C -272.358 -148.208 -272.146 -148.073 -271.911 -148.032 C -271.864 -148.024 -271.87 -147.953 -271.919 -147.957 C -272.168 -147.982 -272.4 -148.104 -272.619 -148.217 C -272.702 -148.26 -272.639 -148.38 -272.558 -148.331 Z " fill="rgb(70,62,67)"/></g>
<path class='path path--05' d=" M -256.509 -148.927 C -257.508 -147.27 -258.751 -145.866 -260.251 -144.539 C -260.643 -144.192 -260.079 -143.628 -259.67 -143.97 C -258.093 -145.29 -256.874 -146.967 -256.072 -148.74 C -255.971 -148.964 -256.378 -149.145 -256.509 -148.927 Z " fill="rgb(70,62,67)"/>
<path class='path path--06' d=" M -253.355 -155.171 C -253.667 -154.362 -254.027 -153.57 -254.462 -152.805 C -254.821 -152.176 -255.359 -151.575 -255.578 -150.899 C -255.676 -150.596 -255.248 -150.295 -254.964 -150.543 C -254.383 -151.055 -254.063 -151.839 -253.76 -152.504 C -253.385 -153.323 -253.09 -154.165 -252.849 -155.022 C -252.768 -155.312 -253.244 -155.461 -253.355 -155.171 Z " fill="rgb(70,62,67)"/>
<g class='group group--03'><path d=" M -249.528 -157.022 C -250.602 -158.632 -251.344 -160.355 -251.906 -162.277 C -252.053 -162.779 -252.804 -162.509 -252.669 -161.994 C -252.146 -160.004 -251.147 -158.188 -249.884 -156.707 C -249.725 -156.52 -249.388 -156.811 -249.528 -157.022 Z " fill="rgb(70,62,67)"/><path d=" M -254.355 -159.293 C -252.43 -159.492 -250.63 -160.019 -248.791 -160.811 C -248.31 -161.018 -248.04 -160.267 -248.523 -160.043 C -250.389 -159.177 -252.426 -158.789 -254.372 -158.818 C -254.617 -158.822 -254.607 -159.267 -254.355 -159.293 Z " fill="rgb(70,62,67)"/></g>
<path class='icon--circle icon--circle02' d=" M -242.526 -164.834 C -244.454 -161.835 -243.522 -158.216 -240.921 -155.942 C -239.758 -154.924 -238.267 -154.224 -236.694 -154.338 C -234.919 -154.466 -233.313 -155.627 -232.081 -156.832 C -230.563 -158.317 -229.299 -160.201 -229.154 -162.373 C -229.13 -162.745 -229.144 -163.119 -229.193 -163.489 C -229.407 -163.971 -229.656 -164.429 -229.874 -164.828 C -230.678 -166.298 -231.646 -167.818 -233.312 -168.38 C -236.786 -169.552 -240.605 -167.821 -242.526 -164.834 Z " fill="rgb(254,252,173)"/>
<g class='group group--04 group--hover'><path d=" M -240.388 -156.593 C -240.048 -156.845 -239.709 -157.081 -239.302 -157.216 C -239.118 -157.276 -239.209 -157.534 -239.393 -157.467 C -239.8 -157.318 -240.269 -157.071 -240.53 -156.712 C -240.592 -156.627 -240.464 -156.521 -240.388 -156.593 Z " fill="rgb(70,62,67)"/><path d=" M -240.45 -157.989 C -240.447 -157.511 -240.478 -157.095 -240.591 -156.628 C -240.611 -156.547 -240.501 -156.488 -240.454 -156.565 C -240.407 -156.641 -240.367 -156.719 -240.325 -156.798 C -240.315 -156.817 -240.325 -156.834 -240.339 -156.841 C -240.211 -157.212 -240.164 -157.639 -240.22 -158.01 C -240.239 -158.141 -240.451 -158.121 -240.45 -157.989 Z  M -236.984 -161.133 C -237.787 -159.882 -238.701 -158.668 -239.391 -157.35 C -239.464 -157.262 -239.309 -157.16 -239.238 -157.253 C -238.333 -158.434 -237.539 -159.723 -236.72 -160.965 C -235.901 -162.206 -235.091 -163.478 -234.441 -164.818 C -234.356 -164.992 -234.605 -165.161 -234.702 -164.983 C -235.417 -163.673 -236.178 -162.389 -236.984 -161.133 Z " fill="rgb(70,62,67)"/><path d=" M -236.264 -165.238 C -236.562 -164.77 -236.837 -164.286 -237.116 -163.806 C -237.658 -162.875 -238.19 -161.938 -238.726 -161.004 C -239.279 -160.039 -239.902 -159.099 -240.395 -158.103 C -240.439 -158.014 -240.307 -157.93 -240.264 -158.02 C -239.22 -159.35 -238.423 -160.925 -237.574 -162.383 C -237.163 -163.088 -236.751 -163.792 -236.332 -164.492 C -236.16 -164.782 -235.939 -165.454 -235.564 -165.468 C -235.247 -165.48 -234.687 -165.012 -234.494 -164.813 C -234.357 -164.672 -234.134 -164.872 -234.267 -165.018 C -234.558 -165.337 -235.317 -165.923 -235.81 -165.746 C -236.029 -165.667 -236.149 -165.419 -236.264 -165.238 L -236.264 -165.238 Z " fill="rgb(70,62,67)"/><path d=" M -236.101 -164.995 C -235.698 -164.71 -235.218 -164.547 -234.783 -164.319 C -234.664 -164.257 -234.551 -164.435 -234.671 -164.495 L -234.681 -164.516 C -234.687 -164.55 -234.723 -164.563 -234.751 -164.553 C -235.122 -164.821 -235.532 -165.037 -235.922 -165.276 C -236.106 -165.389 -236.277 -165.118 -236.101 -164.995 Z " fill="rgb(70,62,67)"/><path d=" M -235.673 -166.437 C -235.883 -166.031 -236.084 -165.631 -236.219 -165.192 C -236.248 -165.094 -236.102 -165.019 -236.05 -165.115 C -235.797 -165.586 -235.545 -166.058 -235.294 -166.531 C -235.207 -166.695 -235.104 -166.972 -234.945 -167.084 C -234.68 -167.272 -234.392 -167.116 -234.172 -166.96 C -233.965 -166.813 -233.756 -166.608 -233.827 -166.344 C -233.873 -166.174 -234.032 -166.021 -234.122 -165.87 C -234.358 -165.478 -234.587 -165.06 -234.75 -164.632 L -234.749 -164.631 C -234.778 -164.547 -234.647 -164.471 -234.592 -164.559 C -234.354 -164.944 -234.142 -165.348 -233.895 -165.726 C -233.768 -165.921 -233.57 -166.109 -233.505 -166.336 C -233.386 -166.752 -233.793 -167.094 -234.109 -167.287 C -234.494 -167.522 -234.904 -167.592 -235.227 -167.224 C -235.42 -167.004 -235.54 -166.695 -235.673 -166.437 L -235.673 -166.437 Z " fill="rgb(70,62,67)"/><path d=" M -234.89 -165.187 C -234.736 -165.242 -234.597 -165.349 -234.455 -165.429 C -234.381 -165.469 -234.307 -165.513 -234.229 -165.543 C -234.17 -165.566 -234.112 -165.558 -234.055 -165.574 C -234.016 -165.586 -234.007 -165.626 -234.029 -165.657 C -234.105 -165.764 -234.335 -165.655 -234.423 -165.618 C -234.609 -165.538 -234.79 -165.436 -234.97 -165.343 C -235.075 -165.29 -234.993 -165.149 -234.89 -165.187 Z " fill="rgb(70,62,67)"/><path d=" M -235.183 -165.367 C -234.963 -165.244 -234.697 -165.391 -234.5 -165.5 C -234.236 -165.646 -233.979 -165.833 -233.767 -166.049 C -233.709 -166.108 -233.791 -166.2 -233.854 -166.145 C -234.043 -165.981 -234.259 -165.85 -234.479 -165.734 C -234.666 -165.635 -234.912 -165.499 -235.133 -165.529 C -235.219 -165.541 -235.257 -165.408 -235.183 -165.367 L -235.183 -165.367 Z " fill="rgb(70,62,67)"/><path d=" M -235.248 -165.57 C -234.94 -165.627 -234.631 -165.771 -234.355 -165.914 C -234.111 -166.041 -233.846 -166.191 -233.712 -166.443 C -233.682 -166.5 -233.759 -166.55 -233.797 -166.497 C -234.124 -166.047 -234.829 -165.942 -235.311 -165.745 C -235.412 -165.703 -235.348 -165.552 -235.248 -165.57 L -235.248 -165.57 Z " fill="rgb(70,62,67)"/><path d=" M -235.649 -165.757 C -235.677 -165.678 -235.583 -165.605 -235.511 -165.643 C -234.93 -165.947 -234.344 -166.273 -233.825 -166.676 C -233.76 -166.726 -233.844 -166.815 -233.909 -166.769 C -234.351 -166.455 -234.839 -166.233 -235.312 -165.977 C -235.321 -166.035 -235.388 -166.078 -235.448 -166.03 C -235.552 -165.947 -235.604 -165.882 -235.649 -165.757 Z " fill="rgb(70,62,67)"/><path d=" M -235.645 -166.116 C -235.686 -166.04 -235.628 -165.965 -235.545 -165.974 C -234.997 -166.033 -234.471 -166.538 -234.068 -166.879 C -234.025 -166.912 -234.076 -166.986 -234.123 -166.957 C -234.536 -166.705 -234.93 -166.36 -235.397 -166.208 C -235.403 -166.234 -235.421 -166.256 -235.446 -166.266 C -235.472 -166.276 -235.5 -166.271 -235.522 -166.255 C -235.609 -166.193 -235.596 -166.209 -235.645 -166.116 Z  M -235.276 -166.447 C -235.131 -166.475 -235 -166.57 -234.881 -166.652 C -234.744 -166.748 -234.597 -166.844 -234.473 -166.954 C -234.423 -166.999 -234.48 -167.068 -234.536 -167.045 C -234.81 -166.933 -235.029 -166.726 -235.319 -166.64 C -235.44 -166.604 -235.403 -166.422 -235.276 -166.447 Z " fill="rgb(70,62,67)"/><path d=" M -235.212 -166.653 C -235.054 -166.797 -234.891 -166.936 -234.733 -167.081 C -234.699 -167.112 -234.746 -167.163 -234.781 -167.134 C -234.947 -166.998 -235.118 -166.869 -235.284 -166.733 C -235.338 -166.689 -235.263 -166.606 -235.212 -166.653 Z  M -240.281 -158.247 C -240.206 -158.259 -240.123 -158.27 -240.053 -158.302 C -239.991 -158.33 -239.953 -158.324 -239.971 -158.339 C -239.907 -158.285 -239.86 -158.065 -239.827 -157.994 C -239.792 -157.92 -239.706 -157.906 -239.637 -157.933 C -239.52 -157.979 -239.408 -158.039 -239.293 -158.089 C -239.317 -157.89 -239.35 -157.692 -239.338 -157.492 C -239.332 -157.386 -239.205 -157.394 -239.183 -157.467 L -239.179 -157.465 C -239.105 -157.729 -239.052 -158.002 -239.017 -158.274 C -239.006 -158.36 -239.099 -158.419 -239.174 -158.405 C -239.332 -158.375 -239.474 -158.307 -239.62 -158.243 C -239.664 -158.376 -239.713 -158.533 -239.822 -158.592 C -239.979 -158.677 -240.23 -158.561 -240.372 -158.498 C -240.518 -158.433 -240.425 -158.224 -240.281 -158.247 Z  M -240.373 -157.366 C -240.409 -157.28 -240.405 -157.173 -240.412 -157.08 C -240.423 -156.929 -240.234 -156.853 -240.125 -156.947 C -240.053 -157.009 -239.965 -157.045 -239.884 -157.095 C -239.873 -157.102 -239.863 -157.11 -239.854 -157.119 C -239.85 -157.117 -239.845 -157.116 -239.841 -157.114 C -239.738 -157.057 -239.599 -157.194 -239.698 -157.283 C -239.766 -157.343 -239.848 -157.378 -239.93 -157.416 C -239.968 -157.443 -240.006 -157.469 -240.054 -157.477 L -240.055 -157.473 C -240.085 -157.481 -240.116 -157.479 -240.145 -157.468 C -240.236 -157.499 -240.336 -157.455 -240.373 -157.366 Z  M -240.704 -156.59 C -241.072 -156.393 -241.349 -156.244 -241.772 -156.364 C -241.969 -156.42 -242.142 -156.545 -242.34 -156.595 C -242.732 -156.695 -242.908 -156.466 -243.24 -156.317 C -243.696 -156.111 -243.784 -156.291 -244.139 -156.435 C -244.253 -156.481 -244.349 -156.5 -244.475 -156.488 C -244.876 -156.451 -245.155 -156.049 -245.453 -155.831 C -245.511 -155.788 -245.461 -155.693 -245.395 -155.731 C -245.22 -155.832 -245.08 -155.961 -244.917 -156.076 C -244.52 -156.357 -244.301 -156.193 -243.911 -156.009 C -243.63 -155.875 -243.458 -155.845 -243.18 -156.02 C -242.818 -156.249 -242.644 -156.4 -242.209 -156.232 C -242.008 -156.155 -241.84 -156.043 -241.622 -156.008 C -241.224 -155.944 -240.891 -156.148 -240.565 -156.351 C -240.413 -156.446 -240.547 -156.674 -240.704 -156.59 Z " fill="rgb(70,62,67)"/></g>
<path class='path path--07' d=" M -249.171 -163.191 C -248.172 -164.848 -246.929 -166.252 -245.429 -167.579 C -245.037 -167.926 -245.601 -168.491 -246.01 -168.149 C -247.588 -166.829 -248.806 -165.151 -249.608 -163.378 C -249.709 -163.155 -249.302 -162.974 -249.171 -163.191 Z " fill="rgb(70,62,67)"/>
<path class='path path--08' d=" M -243.183 -169.206 C -242.537 -169.408 -241.946 -169.735 -241.339 -170.014 C -240.87 -170.23 -239.997 -170.796 -239.472 -170.649 C -239.205 -170.574 -238.919 -170.739 -238.903 -170.988 C -238.902 -171.018 -238.899 -171.049 -238.898 -171.08 C -238.884 -171.294 -239.037 -171.45 -239.247 -171.532 C -239.888 -171.784 -240.626 -171.239 -241.137 -170.962 C -241.902 -170.547 -242.764 -170.112 -243.363 -169.516 C -243.479 -169.401 -243.401 -169.137 -243.183 -169.206 Z " fill="rgb(70,62,67)"/>
<path class='path path--09' d=" M -236.143 -172.222 C -235.273 -172.321 -234.403 -172.419 -233.533 -172.52 C -232.846 -172.601 -231.803 -172.916 -231.151 -172.757 C -230.841 -172.682 -230.57 -172.852 -230.53 -173.128 L -230.515 -173.23 C -230.483 -173.457 -230.681 -173.65 -230.901 -173.73 C -231.571 -173.973 -232.531 -173.593 -233.191 -173.461 C -234.225 -173.254 -235.26 -173.044 -236.294 -172.831 C -236.744 -172.739 -236.591 -172.171 -236.143 -172.222 Z " fill="rgb(70,62,67)"/>
<path class='path path--10' d=" M -222.737 -175.013 C -223.607 -174.914 -224.477 -174.816 -225.347 -174.714 C -226.034 -174.633 -227.077 -174.318 -227.729 -174.477 C -228.039 -174.553 -228.31 -174.383 -228.35 -174.107 L -228.365 -174.004 C -228.397 -173.778 -228.199 -173.584 -227.979 -173.504 C -227.309 -173.262 -226.349 -173.641 -225.689 -173.773 C -224.654 -173.98 -223.62 -174.192 -222.586 -174.403 C -222.136 -174.495 -222.289 -175.064 -222.737 -175.013 Z " fill="rgb(70,62,67)"/>
<g class='group group--05'><path d=" M -217.741 -173.689 C -217.826 -175.623 -217.567 -177.48 -217.052 -179.416 C -216.918 -179.922 -217.7 -180.079 -217.851 -179.569 C -218.435 -177.596 -218.522 -175.525 -218.209 -173.604 C -218.169 -173.362 -217.73 -173.436 -217.741 -173.689 Z " fill="rgb(70,62,67)"/><path d=" M -220.693 -178.133 C -218.944 -177.305 -217.131 -176.824 -215.147 -176.548 C -214.629 -176.476 -214.787 -175.694 -215.316 -175.752 C -217.361 -175.979 -219.304 -176.702 -220.953 -177.735 C -221.161 -177.865 -220.922 -178.241 -220.693 -178.133 Z " fill="rgb(70,62,67)"/></g>
<path class='icon--circle icon--circle03' d=" M -227 -180.363 C -223.604 -179.276 -220.349 -181.113 -218.826 -184.215 C -218.144 -185.602 -217.854 -187.223 -218.37 -188.712 C -218.953 -190.393 -220.491 -191.644 -221.974 -192.523 C -223.801 -193.605 -225.948 -194.338 -228.083 -193.916 C -228.449 -193.842 -228.807 -193.733 -229.151 -193.59 C -229.562 -193.258 -229.94 -192.899 -230.268 -192.585 C -231.48 -191.428 -232.698 -190.1 -232.81 -188.345 C -233.042 -184.686 -230.382 -181.445 -227 -180.363 Z " fill="rgb(254,252,173)"/>
<g class='group group--06 group--hover'><path d=" M -222.241 -183.56 C -222.713 -183.056 -223.404 -182.876 -224.06 -182.75 C -224.722 -182.623 -225.379 -182.511 -226.047 -182.668 C -227.381 -182.982 -228.438 -184.106 -228.78 -185.418 C -229.161 -186.878 -228.534 -188.3 -227.423 -189.258 C -226.849 -189.752 -226.101 -190.189 -225.366 -190.377 C -224.503 -190.597 -223.728 -190.192 -222.885 -190.076 C -222.86 -190.072 -222.85 -190.11 -222.875 -190.114 C -223.562 -190.209 -224.116 -190.698 -224.838 -190.71 C -225.51 -190.721 -226.161 -190.434 -226.736 -190.114 C -227.823 -189.508 -228.756 -188.519 -229.086 -187.298 C -229.691 -185.061 -228.023 -182.55 -225.702 -182.307 C -225.064 -182.24 -224.408 -182.38 -223.788 -182.518 C -223.148 -182.66 -222.509 -182.879 -222.07 -183.389 C -221.969 -183.506 -222.133 -183.675 -222.241 -183.56 Z " fill="rgb(70,62,67)"/><path d=" M -221.09 -183.764 C -221.128 -183.47 -221.128 -183.174 -221.192 -182.887 C -221.315 -183.039 -221.432 -183.195 -221.563 -183.339 C -221.703 -183.492 -221.908 -183.702 -222.132 -183.668 C -222.226 -183.653 -222.228 -183.544 -222.175 -183.487 C -222.176 -183.487 -222.178 -183.487 -222.18 -183.486 C -222.106 -183.419 -222.016 -183.379 -221.942 -183.31 C -221.85 -183.225 -221.767 -183.127 -221.688 -183.029 C -221.537 -182.842 -221.406 -182.636 -221.237 -182.463 C -221.149 -182.373 -221.018 -182.426 -220.978 -182.531 C -220.827 -182.926 -220.851 -183.351 -220.804 -183.764 C -220.783 -183.948 -221.068 -183.945 -221.09 -183.764 Z " fill="rgb(70,62,67)"/><path d=" M -220.153 -188.139 C -220.572 -189.059 -221.283 -189.729 -222.21 -190.127 C -222.727 -190.349 -223.27 -190.483 -223.825 -190.567 C -224.435 -190.659 -225.023 -190.775 -225.611 -190.523 C -225.664 -190.5 -225.623 -190.425 -225.573 -190.435 C -224.97 -190.548 -224.302 -190.336 -223.704 -190.223 C -223.27 -190.14 -222.837 -190.03 -222.426 -189.864 C -221.54 -189.505 -220.863 -188.885 -220.458 -188.018 C -219.902 -186.824 -219.449 -184.61 -220.913 -183.886 C -220.946 -183.87 -220.917 -183.82 -220.884 -183.836 C -219.218 -184.66 -219.507 -186.717 -220.153 -188.139 Z " fill="rgb(70,62,67)"/><path d=" M -219.838 -185.905 C -219.899 -185.546 -219.948 -185.184 -220.074 -184.841 C -220.243 -184.38 -220.509 -184.189 -220.928 -183.964 C -220.953 -183.951 -220.972 -183.912 -220.961 -183.883 L -220.913 -183.76 C -220.909 -183.749 -220.892 -183.744 -220.886 -183.757 C -220.829 -183.867 -220.45 -183.91 -220.335 -183.992 C -220.168 -184.112 -220.047 -184.283 -219.965 -184.47 C -219.771 -184.91 -219.777 -185.42 -219.735 -185.891 C -219.729 -185.95 -219.828 -185.964 -219.838 -185.905 Z  M -226.989 -189.857 C -227.059 -189.827 -227.135 -189.815 -227.211 -189.82 C -227.131 -190.106 -227.359 -190.478 -227.537 -190.674 C -227.815 -190.981 -228.207 -191.174 -228.591 -191.31 C -229.402 -191.597 -230.421 -191.727 -231.268 -191.534 C -232.291 -191.301 -233.327 -190.462 -233.469 -189.372 C -233.534 -188.87 -233.396 -188.247 -233.019 -187.889 C -232.841 -187.72 -232.637 -187.735 -232.445 -187.613 C -232.045 -187.361 -232.417 -186.931 -232.474 -186.597 C -232.486 -186.525 -232.455 -186.462 -232.383 -186.438 C -231.827 -186.247 -231.147 -186.867 -230.766 -187.204 C -230.662 -187.296 -230.804 -187.485 -230.916 -187.399 C -231.216 -187.167 -231.756 -186.638 -232.192 -186.666 C -232.109 -186.949 -231.924 -187.275 -232.03 -187.548 C -232.076 -187.666 -232.147 -187.713 -232.256 -187.766 C -232.553 -187.913 -232.824 -187.914 -233.011 -188.242 C -233.7 -189.451 -232.626 -190.77 -231.506 -191.168 C -230.745 -191.438 -229.842 -191.34 -229.075 -191.138 C -228.7 -191.04 -228.316 -190.903 -228 -190.671 C -227.832 -190.547 -227.674 -190.391 -227.576 -190.204 C -227.493 -190.047 -227.493 -189.862 -227.386 -189.721 C -227.351 -189.676 -227.286 -189.668 -227.253 -189.721 C -227.174 -189.786 -227.085 -189.828 -226.986 -189.849 C -226.981 -189.85 -226.983 -189.859 -226.989 -189.857 Z " fill="rgb(70,62,67)"/><path d=" M -229.08 -186.93 C -229.587 -187.076 -230.14 -186.943 -230.578 -187.323 C -230.699 -187.427 -230.85 -187.271 -230.751 -187.15 C -230.564 -186.918 -230.287 -186.808 -230.001 -186.744 C -229.721 -186.682 -229.362 -186.613 -229.08 -186.688 C -228.959 -186.72 -228.963 -186.896 -229.08 -186.93 Z  M -226.345 -186.712 C -226.347 -186.723 -226.351 -186.733 -226.356 -186.742 C -226.354 -186.753 -226.353 -186.763 -226.352 -186.774 C -226.343 -186.83 -226.365 -186.895 -226.428 -186.909 C -226.671 -186.963 -226.938 -186.867 -226.966 -186.593 C -226.967 -186.587 -226.966 -186.582 -226.967 -186.577 C -226.985 -186.543 -226.998 -186.507 -227.003 -186.467 C -227.027 -186.29 -226.899 -186.156 -226.748 -186.086 C -226.736 -186.08 -226.723 -186.076 -226.71 -186.072 C -226.485 -185.957 -226.312 -186.184 -226.276 -186.396 C -226.257 -186.508 -226.272 -186.629 -226.345 -186.712 Z  M -224.06 -186.643 C -224.071 -186.679 -224.087 -186.714 -224.109 -186.745 C -224.116 -186.763 -224.124 -186.78 -224.132 -186.797 C -224.239 -186.996 -224.513 -187.079 -224.686 -186.913 C -224.853 -186.752 -224.88 -186.394 -224.686 -186.245 C -224.526 -186.121 -224.284 -186.174 -224.151 -186.315 C -224.069 -186.401 -224.025 -186.525 -224.06 -186.643 Z  M -222.206 -187.102 C -222.306 -187.151 -222.384 -187.167 -222.479 -187.096 C -222.561 -187.035 -222.622 -186.948 -222.652 -186.85 C -222.669 -186.796 -222.675 -186.74 -222.672 -186.685 C -222.677 -186.658 -222.676 -186.631 -222.669 -186.604 C -222.666 -186.593 -222.66 -186.584 -222.655 -186.574 C -222.628 -186.47 -222.569 -186.374 -222.485 -186.303 C -222.408 -186.24 -222.31 -186.234 -222.233 -186.303 C -222.138 -186.39 -222.079 -186.499 -222.062 -186.613 C -222.039 -186.635 -222.019 -186.661 -222.003 -186.69 C -221.909 -186.867 -222.054 -187.026 -222.206 -187.102 Z  M -228.946 -189.253 C -228.961 -189.278 -228.983 -189.298 -229.01 -189.309 C -229.072 -189.334 -229.158 -189.316 -229.19 -189.25 C -229.205 -189.221 -229.214 -189.189 -229.22 -189.157 C -229.224 -189.149 -229.228 -189.141 -229.231 -189.132 C -229.242 -189.107 -229.244 -189.08 -229.235 -189.054 C -229.273 -188.996 -229.246 -188.908 -229.194 -188.869 C -229.136 -188.825 -229.054 -188.829 -229.001 -188.881 C -228.948 -188.932 -228.901 -188.99 -228.85 -189.043 C -228.773 -189.122 -228.839 -189.265 -228.946 -189.253 L -228.946 -189.253 Z  M -230.155 -189.174 C -230.167 -189.218 -230.196 -189.244 -230.232 -189.261 C -230.246 -189.31 -230.283 -189.349 -230.332 -189.363 C -230.383 -189.377 -230.43 -189.36 -230.466 -189.327 C -230.489 -189.326 -230.511 -189.319 -230.531 -189.308 C -230.631 -189.25 -230.607 -189.138 -230.606 -189.043 C -230.604 -188.932 -230.48 -188.857 -230.382 -188.915 C -230.352 -188.933 -230.327 -188.955 -230.305 -188.98 C -230.265 -188.994 -230.223 -189.009 -230.193 -189.038 C -230.156 -189.073 -230.142 -189.126 -230.155 -189.174 Z  M -231.896 -189.21 C -231.898 -189.244 -231.911 -189.275 -231.932 -189.301 C -231.941 -189.311 -231.949 -189.322 -231.957 -189.333 C -231.958 -189.332 -231.958 -189.331 -231.959 -189.33 C -231.962 -189.336 -231.964 -189.342 -231.967 -189.347 C -231.988 -189.373 -232.018 -189.391 -232.052 -189.395 C -232.079 -189.413 -232.11 -189.426 -232.142 -189.432 C -232.172 -189.44 -232.204 -189.427 -232.221 -189.4 C -232.25 -189.355 -232.289 -189.316 -232.32 -189.272 C -232.332 -189.255 -232.336 -189.234 -232.332 -189.214 C -232.333 -189.208 -232.336 -189.202 -232.337 -189.195 C -232.344 -189.142 -232.321 -189.09 -232.277 -189.06 C -232.24 -189.025 -232.197 -189.003 -232.145 -188.996 C -232.131 -188.994 -232.118 -188.995 -232.105 -188.995 C -232.088 -188.99 -232.07 -188.988 -232.052 -188.99 C -231.922 -188.954 -231.825 -189.106 -231.896 -189.21 Z " fill="rgb(70,62,67)"/></g>
<path class='path path--11' d=" M -209.709 -184.044 C -210.708 -182.387 -211.951 -180.983 -213.451 -179.655 C -213.843 -179.308 -213.279 -178.744 -212.87 -179.086 C -211.292 -180.406 -210.074 -182.083 -209.272 -183.857 C -209.171 -184.08 -209.578 -184.261 -209.709 -184.044 Z " fill="rgb(70,62,67)"/>
<path class='path path--12' d=" M -206.555 -190.287 C -206.867 -189.478 -207.226 -188.686 -207.662 -187.921 C -208.021 -187.292 -208.559 -186.691 -208.778 -186.015 C -208.876 -185.713 -208.448 -185.411 -208.164 -185.659 C -207.582 -186.171 -207.263 -186.955 -206.959 -187.62 C -206.585 -188.439 -206.29 -189.281 -206.049 -190.138 C -205.968 -190.428 -206.443 -190.578 -206.555 -190.287 Z " fill="rgb(70,62,67)"/>
<path class='path path--13' d=" M -203.825 -188.14 L -203.829 -188.357 L -203.547 -188.312 C -203.821 -188.566 -203.858 -189.288 -203.971 -189.636 C -204.106 -190.053 -204.25 -190.467 -204.402 -190.878 C -204.59 -191.387 -204.82 -192.647 -205.47 -192.875 C -206.208 -193.133 -207.014 -192.231 -207.496 -191.88 L -208.864 -190.884 L -209.61 -190.341 L -209.859 -190.16 C -210.201 -190.02 -210.192 -189.926 -209.831 -189.876 L -209.717 -189.431 L -209.69 -189.544 L -210.077 -189.228 L -210.324 -189.343 C -210.141 -189.056 -209.625 -189.076 -209.514 -189.408 C -209.429 -189.666 -209.478 -189.812 -209.676 -190.017 C -209.794 -190.14 -210.005 -190.196 -210.181 -190.157 C -210.223 -190.148 -210.266 -190.139 -210.308 -190.129 C -210.478 -190.092 -210.659 -189.973 -210.696 -189.813 C -210.832 -189.225 -210.269 -188.803 -209.652 -189.117 C -209.118 -189.387 -208.643 -189.864 -208.171 -190.214 L -206.566 -191.403 C -206.33 -191.578 -206.093 -191.814 -205.826 -191.952 C -205.651 -192.035 -205.662 -192.074 -205.86 -192.068 C -205.53 -191.44 -205.218 -190.804 -204.925 -190.158 C -204.681 -189.617 -204.451 -189.07 -204.236 -188.517 C -204.137 -188.266 -204.1 -188.053 -203.79 -187.975 C -203.69 -187.951 -203.578 -187.985 -203.523 -188.063 C -203.446 -188.169 -203.451 -188.234 -203.505 -188.349 C -203.541 -188.425 -203.642 -188.448 -203.724 -188.439 L -203.767 -188.434 C -203.918 -188.416 -203.966 -188.2 -203.825 -188.14 Z " fill="rgb(70,62,67)"/></svg>
