<svg xmlns="http://www.w3.org/2000/svg" xmlns:xlink="http://www.w3.org/1999/xlink" style="isolation:isolate" viewBox="0 0 598.687 184.111">
<style>
    @-webkit-keyframes fadeIn {
        from { opacity: 0; }
        to { opacity: 1; }
    }

    @keyframes fadeIn {
        from { opacity: 0; }
        to { opacity: 1; }
    }

    .umk_circle03,
    .umk_circle02,
    .umk_circle01 {
        opacity: 0;
        -webkit-animation: fadeIn 200ms cubic-bezier(.17,.67,.83,.67) forwards;
                animation: fadeIn 200ms cubic-bezier(.17,.67,.83,.67) forwards;
    }

    .umk_name {
        opacity: 0;
        -webkit-animation: fadeIn 600ms cubic-bezier(.17,.67,.83,.67) forwards;
                animation: fadeIn 600ms cubic-bezier(.17,.67,.83,.67) forwards;
    }

    .umk_circle03 { -webkit-animation-delay: 200ms; animation-delay: 200ms; }
    .umk_circle02 { -webkit-animation-delay: 400ms; animation-delay: 400ms; }
    .umk_name { -webkit-animation-delay: 600ms; animation-delay: 600ms; }
</style>
<g>
<g>
<path class="umk_name" d=" M 408.119 131.124 C 408.119 132.031 407.999 132.847 407.76 133.572 C 407.524 134.297 407.177 134.915 406.724 135.425 C 406.271 135.933 405.715 136.328 405.059 136.605 C 404.401 136.883 403.659 137.023 402.831 137.023 C 401.992 137.023 401.245 136.883 400.588 136.605 C 399.929 136.328 399.373 135.933 398.921 135.425 C 398.468 134.915 398.123 134.297 397.884 133.572 C 397.647 132.847 397.528 132.031 397.528 131.124 L 397.528 116.435 L 392.427 116.435 L 392.427 131.124 C 392.427 132.619 392.668 133.993 393.149 135.247 C 393.632 136.497 394.319 137.579 395.215 138.485 C 396.111 139.391 397.201 140.099 398.487 140.609 C 399.773 141.119 401.221 141.375 402.831 141.375 C 404.44 141.375 405.885 141.119 407.167 140.609 C 408.447 140.099 409.536 139.391 410.429 138.485 C 411.325 137.579 412.015 136.497 412.496 135.247 C 412.979 133.993 413.217 132.619 413.217 131.124 L 413.217 116.435 L 408.119 116.435 L 408.119 131.124 Z  M 381.752 141.101 L 386.887 141.101 L 386.887 116.435 L 381.752 116.435 L 381.752 141.101 Z  M 371.399 130.545 C 371.399 130.908 371.409 131.293 371.432 131.701 C 371.456 132.109 371.489 132.529 371.535 132.96 L 359.159 117.235 C 359.023 117.064 358.897 116.929 358.784 116.825 C 358.671 116.724 358.552 116.643 358.427 116.58 C 358.303 116.517 358.164 116.479 358.011 116.461 C 357.859 116.444 357.673 116.435 357.459 116.435 L 354.772 116.435 L 354.772 141.101 L 359.277 141.101 L 359.277 126.84 C 359.277 126.511 359.268 126.156 359.253 125.777 C 359.235 125.397 359.209 125.009 359.176 124.612 L 371.467 140.236 C 371.727 140.552 371.993 140.776 372.265 140.907 C 372.537 141.037 372.871 141.101 373.268 141.101 L 375.904 141.101 L 375.904 116.435 L 371.399 116.435 L 371.399 130.545 Z  M 344.131 131.124 C 344.131 132.031 344.012 132.847 343.773 133.572 C 343.535 134.297 343.191 134.915 342.737 135.425 C 342.283 135.933 341.728 136.328 341.071 136.605 C 340.413 136.883 339.671 137.023 338.844 137.023 C 338.005 137.023 337.257 136.883 336.599 136.605 C 335.943 136.328 335.387 135.933 334.933 135.425 C 334.48 134.915 334.135 134.297 333.896 133.572 C 333.659 132.847 333.539 132.031 333.539 131.124 L 333.539 116.435 L 328.439 116.435 L 328.439 131.124 C 328.439 132.619 328.68 133.993 329.161 135.247 C 329.644 136.497 330.332 137.579 331.228 138.485 C 332.123 139.391 333.213 140.099 334.5 140.609 C 335.787 141.119 337.235 141.375 338.844 141.375 C 340.453 141.375 341.897 141.119 343.179 140.609 C 344.46 140.099 345.547 139.391 346.443 138.485 C 347.337 137.579 348.027 136.497 348.508 135.247 C 348.989 133.993 349.231 132.619 349.231 131.124 L 349.231 116.435 L 344.131 116.435 L 344.131 131.124 Z  M 317.543 126.932 C 317.156 127.301 316.664 127.591 316.063 127.8 C 315.463 128.009 314.749 128.115 313.923 128.115 L 311.304 128.115 L 311.304 120.312 L 313.956 120.312 C 315.541 120.312 316.724 120.635 317.5 121.28 C 318.276 121.927 318.664 122.833 318.664 124 C 318.664 124.591 318.573 125.135 318.392 125.633 C 318.211 126.132 317.927 126.565 317.543 126.932 Z  M 319.353 131.319 C 319.064 131.064 318.756 130.845 318.427 130.664 C 319.264 130.381 320.008 130.007 320.653 129.541 C 321.3 129.079 321.844 128.545 322.285 127.944 C 322.727 127.344 323.064 126.677 323.297 125.947 C 323.529 125.216 323.647 124.443 323.647 123.627 C 323.647 122.572 323.464 121.605 323.101 120.728 C 322.739 119.849 322.167 119.093 321.384 118.459 C 320.601 117.824 319.599 117.328 318.375 116.971 C 317.151 116.613 315.679 116.435 313.956 116.435 L 306.203 116.435 L 306.203 141.101 L 311.304 141.101 L 311.304 131.701 L 313.037 131.701 C 313.491 131.701 313.833 131.769 314.067 131.905 C 314.299 132.041 314.511 132.257 314.703 132.551 L 319.396 140.116 C 319.78 140.773 320.404 141.101 321.265 141.101 L 325.872 141.101 L 320.127 132.228 C 319.9 131.877 319.643 131.575 319.353 131.319 Z  M 296.055 132.255 C 295.715 133.28 295.224 134.151 294.584 134.864 C 293.944 135.577 293.168 136.124 292.256 136.504 C 291.343 136.883 290.309 137.073 289.152 137.073 C 287.997 137.073 286.96 136.883 286.041 136.504 C 285.124 136.124 284.344 135.577 283.704 134.864 C 283.064 134.151 282.573 133.28 282.233 132.255 C 281.893 131.228 281.724 130.064 281.724 128.761 C 281.724 127.469 281.893 126.311 282.233 125.284 C 282.573 124.259 283.064 123.385 283.704 122.665 C 284.344 121.947 285.124 121.396 286.041 121.017 C 286.96 120.637 287.997 120.447 289.152 120.447 C 290.309 120.447 291.343 120.637 292.256 121.017 C 293.168 121.396 293.944 121.947 294.584 122.665 C 295.224 123.385 295.715 124.259 296.055 125.284 C 296.395 126.311 296.564 127.469 296.564 128.761 C 296.564 130.064 296.395 131.228 296.055 132.255 Z  M 298.307 119.776 C 297.201 118.649 295.873 117.764 294.32 117.124 C 292.768 116.484 291.045 116.163 289.152 116.163 C 287.26 116.163 285.537 116.484 283.984 117.124 C 282.432 117.764 281.1 118.645 279.989 119.767 C 278.879 120.889 278.02 122.219 277.415 123.755 C 276.808 125.289 276.505 126.959 276.505 128.761 C 276.505 130.563 276.808 132.235 277.415 133.775 C 278.02 135.317 278.879 136.649 279.989 137.769 C 281.1 138.892 282.432 139.773 283.984 140.415 C 285.537 141.055 287.26 141.375 289.152 141.375 C 291.045 141.375 292.768 141.055 294.32 140.415 C 295.873 139.773 297.201 138.892 298.307 137.769 C 299.412 136.649 300.268 135.317 300.873 133.775 C 301.48 132.235 301.784 130.563 301.784 128.761 C 301.784 126.971 301.48 125.307 300.873 123.771 C 300.268 122.235 299.412 120.904 298.307 119.776 Z  M 256.055 120.549 L 263.261 120.549 L 263.261 141.101 L 268.379 141.101 L 268.379 120.549 L 275.587 120.549 L 275.587 116.435 L 256.055 116.435 L 256.055 120.549 Z  M 240.823 116.775 C 240.516 117.003 240.323 117.263 240.244 117.557 L 236.42 131.464 C 236.328 131.825 236.237 132.223 236.147 132.653 C 236.056 133.084 235.965 133.537 235.875 134.013 C 235.784 133.537 235.68 133.084 235.561 132.653 C 235.441 132.223 235.32 131.825 235.196 131.464 L 230.757 117.557 C 230.621 117.229 230.416 116.96 230.137 116.751 C 229.86 116.54 229.5 116.435 229.059 116.435 L 227.563 116.435 C 227.132 116.435 226.765 116.552 226.465 116.784 C 226.165 117.016 225.969 117.273 225.879 117.557 L 221.425 131.464 C 221.289 131.849 221.164 132.265 221.051 132.712 C 220.937 133.16 220.831 133.635 220.728 134.133 C 220.637 133.635 220.544 133.163 220.448 132.721 C 220.351 132.279 220.257 131.86 220.168 131.464 L 216.343 117.557 C 216.252 117.217 216.056 116.945 215.756 116.741 C 215.455 116.537 215.084 116.435 214.643 116.435 L 210.359 116.435 L 217.991 141.101 L 222.616 141.101 L 227.715 124.969 C 227.795 124.743 227.871 124.493 227.945 124.221 C 228.019 123.949 228.095 123.665 228.175 123.372 C 228.243 123.665 228.313 123.949 228.387 124.221 C 228.46 124.493 228.543 124.743 228.633 124.969 L 233.683 141.101 L 238.289 141.101 L 245.939 116.435 L 241.927 116.435 C 241.496 116.435 241.128 116.548 240.823 116.775 Z  M 582.775 87.336 L 585.444 79.821 C 585.601 79.425 585.765 78.957 585.936 78.419 C 586.107 77.88 586.271 77.3 586.429 76.677 C 586.599 77.289 586.772 77.861 586.948 78.393 C 587.124 78.927 587.291 79.391 587.449 79.788 L 590.119 87.336 L 582.775 87.336 Z  M 589.064 72.036 L 583.845 72.036 L 574.219 96.671 L 566.183 85.193 C 565.888 84.775 565.583 84.437 565.264 84.181 C 564.947 83.927 564.591 83.72 564.195 83.561 C 564.737 83.279 565.264 82.808 565.775 82.151 L 573.629 72.036 L 569.208 72.036 C 568.699 72.036 568.268 72.112 567.917 72.264 C 567.565 72.419 567.243 72.693 566.948 73.089 L 560.708 81.436 C 560.335 81.957 559.728 82.219 558.889 82.219 L 557.887 82.219 L 557.887 72.036 L 552.787 72.036 L 552.787 96.703 L 557.887 96.703 L 557.887 86.009 L 559.315 86.009 C 559.847 86.009 560.26 86.075 560.556 86.205 C 560.851 86.336 561.105 86.553 561.32 86.86 L 567.661 95.733 C 567.763 95.892 567.871 96.032 567.984 96.151 C 568.097 96.268 568.233 96.369 568.393 96.447 C 568.551 96.527 568.736 96.589 568.945 96.635 C 569.155 96.68 569.407 96.703 569.703 96.703 L 578.203 96.703 C 578.632 96.703 578.988 96.587 579.272 96.355 C 579.556 96.121 579.755 95.864 579.868 95.581 L 581.535 90.872 L 591.36 90.872 L 593.027 95.581 C 593.161 95.909 593.369 96.179 593.647 96.388 C 593.924 96.597 594.284 96.703 594.725 96.703 L 598.687 96.703 L 589.064 72.036 Z  M 541.805 96.703 L 546.94 96.703 L 546.94 72.036 L 541.805 72.036 L 541.805 96.703 Z  M 531.452 86.145 C 531.452 86.508 531.464 86.893 531.485 87.301 C 531.509 87.709 531.543 88.129 531.589 88.56 L 519.212 72.835 C 519.076 72.664 518.952 72.528 518.839 72.427 C 518.725 72.324 518.605 72.243 518.481 72.18 C 518.357 72.117 518.217 72.077 518.065 72.061 C 517.912 72.044 517.727 72.036 517.512 72.036 L 514.825 72.036 L 514.825 96.703 L 519.331 96.703 L 519.331 82.439 C 519.331 82.111 519.323 81.757 519.307 81.376 C 519.289 80.997 519.263 80.609 519.229 80.212 L 531.52 95.835 C 531.781 96.152 532.047 96.376 532.319 96.507 C 532.591 96.637 532.925 96.703 533.321 96.703 L 535.957 96.703 L 535.957 72.036 L 531.452 72.036 L 531.452 86.145 Z  M 503.403 82.533 C 503.017 82.901 502.524 83.191 501.924 83.4 C 501.323 83.609 500.608 83.715 499.781 83.715 L 497.163 83.715 L 497.163 75.911 L 499.815 75.911 C 501.403 75.911 502.584 76.235 503.36 76.88 C 504.136 77.527 504.525 78.433 504.525 79.6 C 504.525 80.189 504.433 80.735 504.253 81.233 C 504.071 81.732 503.788 82.165 503.403 82.533 Z  M 505.213 86.919 C 504.924 86.664 504.615 86.445 504.287 86.264 C 505.125 85.981 505.868 85.607 506.513 85.143 C 507.159 84.679 507.703 84.145 508.147 83.544 C 508.588 82.944 508.924 82.277 509.156 81.547 C 509.389 80.816 509.505 80.043 509.505 79.227 C 509.505 78.172 509.324 77.207 508.961 76.328 C 508.599 75.449 508.027 74.693 507.245 74.059 C 506.463 73.424 505.46 72.928 504.236 72.571 C 503.012 72.213 501.537 72.036 499.815 72.036 L 492.064 72.036 L 492.064 96.703 L 497.163 96.703 L 497.163 87.301 L 498.897 87.301 C 499.351 87.301 499.695 87.369 499.925 87.505 C 500.157 87.641 500.371 87.857 500.564 88.152 L 505.256 95.716 C 505.641 96.373 506.264 96.703 507.125 96.703 L 511.732 96.703 L 505.987 87.828 C 505.759 87.477 505.501 87.175 505.213 86.919 Z  M 471.868 96.703 L 487.576 96.703 L 487.576 92.707 L 477.001 92.707 L 477.001 86.231 L 485.229 86.231 L 485.229 82.372 L 477.001 82.372 L 477.001 76.031 L 487.576 76.031 L 487.576 72.036 L 471.868 72.036 L 471.868 96.703 Z  M 461.709 83.153 C 460.968 83.924 459.799 84.309 458.201 84.309 L 454.971 84.309 L 454.971 75.911 L 458.201 75.911 C 458.993 75.911 459.679 76.008 460.257 76.2 C 460.835 76.393 461.313 76.668 461.693 77.025 C 462.073 77.381 462.357 77.813 462.543 78.317 C 462.731 78.821 462.824 79.379 462.824 79.991 C 462.824 81.329 462.452 82.383 461.709 83.153 Z  M 465.612 74.288 C 464.819 73.58 463.808 73.028 462.577 72.631 C 461.348 72.235 459.888 72.036 458.201 72.036 L 449.869 72.036 L 449.869 96.703 L 454.971 96.703 L 454.971 88.22 L 458.201 88.22 C 459.843 88.22 461.277 88.019 462.501 87.616 C 463.725 87.213 464.74 86.651 465.544 85.925 C 466.349 85.2 466.949 84.332 467.347 83.323 C 467.743 82.315 467.941 81.204 467.941 79.991 C 467.941 78.847 467.752 77.788 467.371 76.813 C 466.991 75.837 466.405 74.996 465.612 74.288 Z  M 439.721 87.853 C 439.381 88.88 438.891 89.749 438.251 90.463 C 437.611 91.177 436.833 91.724 435.923 92.104 C 435.009 92.484 433.976 92.673 432.819 92.673 C 431.663 92.673 430.627 92.484 429.708 92.104 C 428.791 91.724 428.011 91.177 427.371 90.463 C 426.731 89.749 426.24 88.88 425.9 87.853 C 425.56 86.828 425.391 85.664 425.391 84.36 C 425.391 83.068 425.56 81.909 425.9 80.884 C 426.24 79.859 426.731 78.985 427.371 78.265 C 428.011 77.547 428.791 76.996 429.708 76.617 C 430.627 76.237 431.663 76.047 432.819 76.047 C 433.976 76.047 435.009 76.237 435.923 76.617 C 436.833 76.996 437.611 77.547 438.251 78.265 C 438.891 78.985 439.381 79.859 439.721 80.884 C 440.061 81.909 440.232 83.068 440.232 84.36 C 440.232 85.664 440.061 86.828 439.721 87.853 Z  M 441.975 75.376 C 440.869 74.248 439.539 73.364 437.987 72.724 C 436.435 72.084 434.711 71.763 432.819 71.763 C 430.925 71.763 429.203 72.084 427.651 72.724 C 426.099 73.364 424.767 74.245 423.656 75.368 C 422.545 76.489 421.687 77.819 421.081 79.353 C 420.475 80.889 420.171 82.559 420.171 84.36 C 420.171 86.163 420.475 87.835 421.081 89.375 C 421.687 90.917 422.545 92.248 423.656 93.371 C 424.767 94.492 426.099 95.373 427.651 96.013 C 429.203 96.653 430.925 96.975 432.819 96.975 C 434.711 96.975 436.435 96.653 437.987 96.013 C 439.539 95.373 440.869 94.492 441.975 93.371 C 443.079 92.248 443.935 90.917 444.54 89.375 C 445.147 87.835 445.451 86.163 445.451 84.36 C 445.451 82.569 445.147 80.907 444.54 79.371 C 443.935 77.836 443.079 76.504 441.975 75.376 Z  M 411.484 84.181 C 411.167 83.927 410.811 83.72 410.413 83.561 C 410.957 83.279 411.484 82.808 411.993 82.151 L 419.848 72.036 L 415.428 72.036 C 414.919 72.036 414.487 72.112 414.136 72.264 C 413.784 72.419 413.461 72.693 413.167 73.089 L 406.928 81.436 C 406.553 81.957 405.948 82.219 405.109 82.219 L 404.105 82.219 L 404.105 72.036 L 399.007 72.036 L 399.007 96.703 L 404.105 96.703 L 404.105 86.009 L 405.535 86.009 C 406.067 86.009 406.48 86.075 406.775 86.205 C 407.069 86.336 407.324 86.553 407.54 86.86 L 413.881 95.733 C 413.983 95.892 414.091 96.032 414.204 96.151 C 414.317 96.268 414.453 96.369 414.612 96.447 C 414.771 96.527 414.955 96.589 415.164 96.635 C 415.373 96.68 415.627 96.703 415.921 96.703 L 420.46 96.703 L 412.403 85.193 C 412.107 84.775 411.801 84.437 411.484 84.181 Z  M 371.517 87.336 L 374.187 79.821 C 374.345 79.425 374.509 78.957 374.68 78.419 C 374.849 77.88 375.015 77.3 375.172 76.677 C 375.343 77.289 375.516 77.861 375.692 78.393 C 375.868 78.927 376.035 79.391 376.193 79.788 L 378.863 87.336 L 371.517 87.336 Z  M 372.589 72.036 L 362.949 96.703 L 366.944 96.703 C 367.375 96.703 367.732 96.587 368.016 96.355 C 368.299 96.121 368.497 95.864 368.611 95.581 L 370.276 90.872 L 380.103 90.872 L 381.768 95.581 C 381.905 95.909 382.111 96.179 382.389 96.388 C 382.667 96.597 383.027 96.703 383.469 96.703 L 387.429 96.703 L 377.808 72.036 L 372.589 72.036 Z  M 358.572 94.485 C 359.257 93.685 359.771 92.728 360.111 91.611 C 360.451 90.495 360.62 89.245 360.62 87.863 L 360.62 72.036 L 355.521 72.036 L 355.521 87.981 C 355.521 88.865 355.444 89.616 355.291 90.235 C 355.139 90.852 354.909 91.353 354.603 91.739 C 354.297 92.124 353.917 92.401 353.464 92.571 C 353.011 92.741 352.479 92.827 351.867 92.827 C 351.424 92.827 351.052 92.792 350.752 92.724 C 350.452 92.656 350.204 92.623 350.013 92.623 C 349.672 92.623 349.412 92.705 349.231 92.869 C 349.049 93.033 348.941 93.252 348.908 93.524 L 348.636 96.516 C 349.304 96.675 349.941 96.791 350.548 96.864 C 351.153 96.937 351.769 96.975 352.392 96.975 C 353.763 96.975 354.965 96.76 355.996 96.328 C 357.028 95.897 357.885 95.283 358.572 94.485 Z  M 334.661 79.821 C 334.82 79.425 334.984 78.957 335.155 78.419 C 335.324 77.88 335.488 77.3 335.647 76.677 C 335.817 77.289 335.989 77.861 336.167 78.393 C 336.341 78.927 336.509 79.391 336.668 79.788 L 339.336 87.336 L 331.992 87.336 L 334.661 79.821 Z  M 329.087 95.581 L 330.752 90.872 L 340.579 90.872 L 342.244 95.581 C 342.38 95.909 342.587 96.179 342.865 96.388 C 343.143 96.597 343.501 96.703 343.944 96.703 L 347.905 96.703 L 338.283 72.036 L 333.064 72.036 L 323.424 96.703 L 327.42 96.703 C 327.851 96.703 328.207 96.587 328.491 96.355 C 328.773 96.121 328.973 95.864 329.087 95.581 Z  M 307.887 96.703 L 322.524 96.703 L 322.524 92.555 L 312.987 92.555 L 312.987 85.669 L 318.273 82.932 C 318.693 82.773 318.903 82.451 318.903 81.963 L 318.903 78.564 L 312.987 81.504 L 312.987 72.036 L 307.887 72.036 L 307.887 83.8 L 305.439 85.057 C 305.065 85.228 304.877 85.516 304.877 85.925 L 304.877 89.409 L 307.887 87.913 L 307.887 96.703 Z  M 297.143 87.853 C 296.803 88.88 296.313 89.749 295.672 90.463 C 295.032 91.177 294.256 91.724 293.343 92.104 C 292.431 92.484 291.396 92.673 290.24 92.673 C 289.085 92.673 288.048 92.484 287.129 92.104 C 286.212 91.724 285.432 91.177 284.792 90.463 C 284.152 89.749 283.661 88.88 283.321 87.853 C 282.981 86.828 282.812 85.664 282.812 84.36 C 282.812 83.068 282.981 81.909 283.321 80.884 C 283.661 79.859 284.152 78.985 284.792 78.265 C 285.432 77.547 286.212 76.996 287.129 76.617 C 288.048 76.237 289.085 76.047 290.24 76.047 C 291.396 76.047 292.431 76.237 293.343 76.617 C 294.256 76.996 295.032 77.547 295.672 78.265 C 296.313 78.985 296.803 79.859 297.143 80.884 C 297.483 81.909 297.652 83.068 297.652 84.36 C 297.652 85.664 297.483 86.828 297.143 87.853 Z  M 299.396 75.376 C 298.291 74.248 296.961 73.364 295.409 72.724 C 293.856 72.084 292.133 71.763 290.24 71.763 C 288.348 71.763 286.625 72.084 285.072 72.724 C 283.52 73.364 282.188 74.245 281.077 75.368 C 279.967 76.489 279.108 77.819 278.503 79.353 C 277.896 80.889 277.592 82.559 277.592 84.36 C 277.592 86.163 277.896 87.835 278.503 89.375 C 279.108 90.917 279.967 92.248 281.077 93.371 C 282.188 94.492 283.52 95.373 285.072 96.013 C 286.625 96.653 288.348 96.975 290.24 96.975 C 292.133 96.975 293.856 96.653 295.409 96.013 C 296.961 95.373 298.291 94.492 299.396 93.371 C 300.5 92.248 301.356 90.917 301.963 89.375 C 302.568 87.835 302.871 86.163 302.871 84.36 C 302.871 82.569 302.568 80.907 301.963 79.371 C 301.356 77.836 300.5 76.504 299.396 75.376 Z  M 256.427 72.036 L 256.427 96.703 L 261.528 96.703 L 261.528 86.009 L 262.955 86.009 C 263.488 86.009 263.901 86.075 264.197 86.205 C 264.491 86.336 264.747 86.553 264.961 86.86 L 271.303 95.733 C 271.404 95.892 271.512 96.032 271.625 96.151 C 271.739 96.268 271.875 96.369 272.033 96.447 C 272.192 96.527 272.376 96.589 272.587 96.635 C 272.796 96.68 273.048 96.703 273.343 96.703 L 277.881 96.703 L 269.824 85.193 C 269.529 84.775 269.223 84.437 268.905 84.181 C 268.588 83.927 268.231 83.72 267.835 83.561 C 268.379 83.279 268.905 82.808 269.416 82.151 L 277.269 72.036 L 272.849 72.036 C 272.34 72.036 271.909 72.112 271.557 72.264 C 271.205 72.419 270.883 72.693 270.589 73.089 L 264.349 81.436 C 263.976 81.957 263.369 82.219 262.531 82.219 L 261.528 82.219 L 261.528 72.036 L 256.427 72.036 Z  M 245.445 96.703 L 250.58 96.703 L 250.58 72.036 L 245.445 72.036 L 245.445 96.703 Z  M 216.92 81.556 C 216.92 81.239 216.908 80.896 216.887 80.527 C 216.864 80.159 216.835 79.783 216.801 79.396 L 223.891 92.809 C 224.071 93.172 224.315 93.447 224.621 93.635 C 224.927 93.82 225.279 93.915 225.675 93.915 L 226.389 93.915 C 227.193 93.915 227.788 93.545 228.175 92.809 L 235.212 79.431 C 235.177 79.816 235.152 80.189 235.136 80.552 C 235.119 80.915 235.111 81.249 235.111 81.556 L 235.111 96.703 L 239.615 96.703 L 239.615 72.036 L 235.739 72.036 C 235.512 72.036 235.316 72.041 235.152 72.052 C 234.988 72.064 234.841 72.095 234.711 72.147 C 234.58 72.197 234.459 72.276 234.345 72.384 C 234.231 72.492 234.124 72.641 234.023 72.835 L 227.172 85.941 C 226.956 86.339 226.752 86.752 226.559 87.183 C 226.367 87.613 226.185 88.055 226.015 88.509 C 225.845 88.067 225.667 87.636 225.48 87.216 C 225.292 86.797 225.097 86.389 224.893 85.992 L 217.991 72.835 C 217.889 72.641 217.784 72.492 217.676 72.384 C 217.568 72.276 217.451 72.197 217.32 72.147 C 217.189 72.095 217.039 72.064 216.869 72.052 C 216.7 72.041 216.507 72.036 216.291 72.036 L 212.415 72.036 L 212.415 96.703 L 216.92 96.703 L 216.92 81.556 Z  M 457.077 27.636 L 437.544 27.636 L 437.544 31.749 L 444.753 31.749 L 444.753 52.303 L 449.869 52.303 L 449.869 31.749 L 457.077 31.749 L 457.077 27.636 Z  M 435.131 48.308 L 424.556 48.308 L 424.556 41.831 L 432.784 41.831 L 432.784 37.972 L 424.556 37.972 L 424.556 31.631 L 435.131 31.631 L 435.131 27.636 L 419.423 27.636 L 419.423 52.303 L 435.131 52.303 L 435.131 48.308 Z  M 403.341 52.303 L 408.459 52.303 L 408.459 31.749 L 415.665 31.749 L 415.665 27.636 L 396.133 27.636 L 396.133 31.749 L 403.341 31.749 L 403.341 52.303 Z  M 381.207 52.303 L 386.308 52.303 L 386.308 42.833 L 395.265 27.636 L 390.745 27.636 C 390.313 27.636 389.963 27.755 389.691 27.992 C 389.419 28.231 389.213 28.485 389.079 28.757 L 385.067 36.527 C 384.535 37.536 384.108 38.476 383.792 39.348 C 383.633 38.896 383.443 38.441 383.221 37.988 C 383.001 37.536 382.755 37.048 382.481 36.527 L 378.436 28.757 C 378.277 28.429 378.065 28.16 377.8 27.951 C 377.533 27.74 377.179 27.636 376.737 27.636 L 372.249 27.636 L 381.207 42.833 L 381.207 52.303 Z  M 365.576 47.644 C 364.924 48.188 364.003 48.46 362.813 48.46 C 361.997 48.46 361.297 48.347 360.713 48.12 C 360.131 47.893 359.617 47.644 359.175 47.373 C 358.733 47.1 358.343 46.851 358.003 46.624 C 357.661 46.399 357.339 46.284 357.033 46.284 C 356.807 46.284 356.591 46.344 356.387 46.463 C 356.183 46.581 356.019 46.732 355.893 46.913 L 354.399 49.327 C 354.873 49.815 355.428 50.257 356.064 50.653 C 356.699 51.051 357.375 51.391 358.095 51.673 C 358.815 51.957 359.563 52.179 360.34 52.336 C 361.116 52.495 361.895 52.575 362.677 52.575 C 364.048 52.575 365.275 52.365 366.359 51.945 C 367.44 51.527 368.349 50.951 369.087 50.22 C 369.823 49.489 370.387 48.633 370.777 47.652 C 371.168 46.673 371.364 45.621 371.364 44.5 C 371.364 43.468 371.201 42.593 370.879 41.873 C 370.556 41.153 370.132 40.544 369.604 40.045 C 369.077 39.547 368.48 39.133 367.812 38.804 C 367.143 38.476 366.456 38.189 365.755 37.947 C 365.051 37.703 364.367 37.479 363.697 37.275 C 363.029 37.071 362.431 36.839 361.904 36.577 C 361.376 36.317 360.952 36.008 360.629 35.651 C 360.307 35.293 360.144 34.844 360.144 34.3 C 360.144 33.449 360.439 32.761 361.028 32.235 C 361.617 31.707 362.501 31.444 363.68 31.444 C 364.349 31.444 364.932 31.532 365.431 31.707 C 365.929 31.883 366.371 32.072 366.757 32.276 C 367.143 32.481 367.48 32.671 367.768 32.847 C 368.057 33.021 368.327 33.109 368.576 33.109 C 368.836 33.109 369.049 33.049 369.213 32.931 C 369.377 32.812 369.539 32.623 369.699 32.361 L 370.956 29.964 C 370.084 29.149 369.015 28.511 367.752 28.052 C 366.487 27.593 365.113 27.364 363.629 27.364 C 362.304 27.364 361.128 27.568 360.101 27.976 C 359.076 28.383 358.211 28.923 357.509 29.591 C 356.807 30.26 356.273 31.024 355.912 31.885 C 355.548 32.747 355.368 33.636 355.368 34.555 C 355.368 35.7 355.529 36.657 355.852 37.428 C 356.175 38.199 356.596 38.844 357.119 39.365 C 357.64 39.887 358.235 40.307 358.903 40.624 C 359.572 40.941 360.257 41.212 360.96 41.439 C 361.663 41.667 362.348 41.873 363.017 42.06 C 363.687 42.247 364.28 42.471 364.803 42.732 C 365.323 42.992 365.745 43.316 366.069 43.7 C 366.392 44.085 366.553 44.591 366.553 45.213 C 366.553 46.291 366.227 47.1 365.576 47.644 Z  M 338.673 31.512 L 341.325 31.512 C 342.912 31.512 344.093 31.835 344.869 32.481 C 345.647 33.127 346.035 34.033 346.035 35.2 C 346.035 35.791 345.943 36.333 345.763 36.832 C 345.581 37.331 345.297 37.764 344.913 38.133 C 344.528 38.501 344.035 38.791 343.433 39 C 342.832 39.209 342.119 39.315 341.292 39.315 L 338.673 39.315 L 338.673 31.512 Z  M 338.673 42.901 L 340.408 42.901 C 340.861 42.901 341.203 42.969 341.436 43.105 C 341.668 43.241 341.88 43.457 342.073 43.752 L 346.765 51.317 C 347.149 51.973 347.773 52.303 348.636 52.303 L 353.243 52.303 L 347.496 43.429 C 347.269 43.077 347.012 42.773 346.723 42.519 C 346.433 42.264 346.125 42.045 345.797 41.864 C 346.635 41.581 347.377 41.207 348.024 40.743 C 348.669 40.277 349.213 39.745 349.655 39.144 C 350.097 38.544 350.435 37.877 350.667 37.147 C 350.899 36.416 351.016 35.643 351.016 34.827 C 351.016 33.772 350.833 32.807 350.472 31.928 C 350.108 31.049 349.536 30.293 348.755 29.659 C 347.973 29.024 346.969 28.528 345.745 28.171 C 344.521 27.815 343.048 27.636 341.325 27.636 L 333.573 27.636 L 333.573 52.303 L 338.673 52.303 L 338.673 42.901 Z  M 329.087 48.308 L 318.512 48.308 L 318.512 41.831 L 326.74 41.831 L 326.74 37.972 L 318.512 37.972 L 318.512 31.631 L 329.087 31.631 L 329.087 27.636 L 313.377 27.636 L 313.377 52.303 L 329.087 52.303 L 329.087 48.308 Z  M 286.603 52.303 L 291.703 36.169 C 291.783 35.943 291.859 35.693 291.932 35.421 C 292.007 35.149 292.083 34.867 292.161 34.571 C 292.229 34.867 292.3 35.149 292.375 35.421 C 292.448 35.693 292.531 35.943 292.62 36.169 L 297.671 52.303 L 302.277 52.303 L 309.927 27.636 L 305.915 27.636 C 305.484 27.636 305.116 27.749 304.811 27.976 C 304.504 28.203 304.312 28.463 304.232 28.757 L 300.407 42.664 C 300.316 43.027 300.225 43.423 300.135 43.853 C 300.044 44.284 299.953 44.737 299.863 45.213 C 299.772 44.737 299.668 44.284 299.548 43.853 C 299.429 43.423 299.308 43.027 299.183 42.664 L 294.745 28.757 C 294.609 28.429 294.403 28.16 294.125 27.951 C 293.848 27.74 293.488 27.636 293.045 27.636 L 291.551 27.636 C 291.119 27.636 290.753 27.752 290.453 27.984 C 290.153 28.216 289.957 28.475 289.867 28.757 L 285.413 42.664 C 285.277 43.049 285.152 43.465 285.039 43.913 C 284.925 44.361 284.817 44.833 284.716 45.332 C 284.625 44.833 284.532 44.364 284.436 43.921 C 284.34 43.48 284.245 43.06 284.155 42.664 L 280.331 28.757 C 280.239 28.417 280.043 28.145 279.744 27.941 C 279.443 27.737 279.072 27.636 278.629 27.636 L 274.345 27.636 L 281.979 52.303 L 286.603 52.303 Z  M 270.895 27.636 L 265.761 27.636 L 265.761 52.303 L 270.895 52.303 L 270.895 27.636 Z  M 257.279 52.303 L 259.913 52.303 L 259.913 27.636 L 255.408 27.636 L 255.408 41.745 C 255.408 42.108 255.42 42.493 255.443 42.901 C 255.465 43.309 255.499 43.729 255.544 44.159 L 243.168 28.435 C 243.032 28.264 242.907 28.128 242.795 28.027 C 242.68 27.925 242.563 27.843 242.437 27.78 C 242.312 27.717 242.175 27.679 242.02 27.661 C 241.868 27.644 241.683 27.636 241.468 27.636 L 238.783 27.636 L 238.783 52.303 L 243.287 52.303 L 243.287 38.04 C 243.287 37.711 243.279 37.357 243.261 36.977 C 243.245 36.597 243.219 36.209 243.185 35.813 L 255.476 51.435 C 255.737 51.753 256.004 51.977 256.275 52.107 C 256.547 52.237 256.881 52.303 257.279 52.303 Z  M 215.237 49.684 C 216.132 50.592 217.224 51.3 218.509 51.809 C 219.796 52.319 221.244 52.575 222.853 52.575 C 224.463 52.575 225.907 52.319 227.188 51.809 C 228.469 51.3 229.557 50.592 230.452 49.684 C 231.347 48.777 232.036 47.699 232.517 46.447 C 233 45.193 233.24 43.819 233.24 42.323 L 233.24 27.636 L 228.14 27.636 L 228.14 42.323 C 228.14 43.231 228.021 44.045 227.784 44.771 C 227.545 45.497 227.2 46.115 226.747 46.624 C 226.292 47.135 225.737 47.528 225.08 47.805 C 224.423 48.084 223.68 48.223 222.853 48.223 C 222.015 48.223 221.267 48.084 220.609 47.805 C 219.952 47.528 219.396 47.135 218.944 46.624 C 218.489 46.115 218.144 45.497 217.907 44.771 C 217.668 44.045 217.549 43.231 217.549 42.323 L 217.549 27.636 L 212.449 27.636 L 212.449 42.323 C 212.449 43.819 212.691 45.193 213.172 46.447 C 213.653 47.699 214.341 48.777 215.237 49.684 Z " fill="rgb(0,68,148)"/>
</g>
<g>
<path class="umk_circle03" d=" M 84.935 0 C 38.027 0 0 38.021 0 84.934 C 0 122.09 23.859 153.673 57.09 165.201 C 59.314 151.784 70.967 141.556 85.014 141.556 C 99.042 141.556 110.683 151.758 112.927 165.15 C 146.08 153.58 169.866 122.036 169.866 84.934 C 169.866 38.021 131.843 0 84.935 0 Z " fill-rule="evenodd" fill="rgb(0,68,148)"/>
</g>
<g>
<path class="umk_circle02" d=" M 113.238 84.881 C 113.238 100.515 100.566 113.189 84.933 113.189 C 69.298 113.189 56.625 100.515 56.625 84.881 C 56.625 69.245 69.298 56.573 84.933 56.573 C 100.566 56.573 113.238 69.245 113.238 84.881 Z " fill-rule="evenodd" fill="rgb(255,204,0)"/>
</g>
<g>
<path class="umk_circle01" d=" M 99.085 169.957 C 99.085 177.773 92.749 184.111 84.932 184.111 C 77.115 184.111 70.779 177.773 70.779 169.957 C 70.779 162.139 77.115 155.803 84.932 155.803 C 92.749 155.803 99.085 162.139 99.085 169.957 Z " fill-rule="evenodd" fill="rgb(0,68,148)"/>
</g>
</g>
</svg>