<svg xmlns="http://www.w3.org/2000/svg" style="isolation:isolate" viewBox="310.09 519.5 178.74 211">
<style>

    @-webkit-keyframes moveIn {
        from { opacity: 0; -webkit-transform: translateX(-10px); transform: translateX(-10px); }
        to { opacity: 1; -webkit-transform: translate(0); transform: translate(0); }
    }

    @keyframes moveIn {
        from { opacity: 0; -webkit-transform: translateX(-10px); transform: translateX(-10px); }
        to { opacity: 1; -webkit-transform: translate(0); transform: translate(0); }
    }

    @-webkit-keyframes draw1 {
        from { stroke-dashoffset: 1000 }
        to { stroke-dashoffset: 0 }
    }

    @keyframes draw1 {
        from { stroke-dashoffset: 1000 }
        to { stroke-dashoffset: 0 }
    }

    .background_green,
    .www_group {
        opacity: 0;
        transfrom: translateX(-10px);
    }

    .background_green {
        -webkit-animation: moveIn 1s cubic-bezier(.17,.67,.83,.67) forwards;
                animation: moveIn 1s cubic-bezier(.17,.67,.83,.67) forwards;
    }

    .www_group {
        -webkit-animation: moveIn 200ms cubic-bezier(.17,.67,.83,.67) forwards;
                animation: moveIn 200ms cubic-bezier(.17,.67,.83,.67) forwards;
    }

    .background_green:hover {
        fill: #fefcad;
    }

    .www_path01 {
        stroke-dasharray: 1000;
        stroke-dashoffset: 1000;
        -webkit-animation: draw1 2s cubic-bezier(.17,.67,.83,.67) forwards;
                animation: draw1 2s cubic-bezier(.17,.67,.83,.67) forwards;
    }

    .www_path02,
    .www_path03,
    .www_path04 {
        stroke-dasharray: 1000;
        stroke-dashoffset: 1000;
        -webkit-animation: draw1 12s cubic-bezier(.17,.67,.83,.67) forwards;
                animation: draw1 12s cubic-bezier(.17,.67,.83,.67) forwards;
    }

    .www_path02 { -webkit-animation-delay: 200ms; animation-delay: 200ms; }
    .www_path03 { -webkit-animation-delay: 300ms; animation-delay: 300ms; }
    .www_path04 { -webkit-animation-delay: 400ms; animation-delay: 400ms; }
    .www_group { -webkit-animation-delay: 600ms; animation-delay: 600ms; }

</style>
<path class="background_green" d="M 330.066 531.452 L 450.927 531.452 C 454.932 531.452 458.184 534.704 458.184 538.709 L 458.184 691.036 C 458.184 695.041 454.932 698.292 450.927 698.292 L 330.066 698.292 C 326.061 698.292 322.81 695.041 322.81 691.036 L 322.81 538.709 C 322.81 534.704 326.061 531.452 330.066 531.452 Z" fill="#B4EBCA"/>
<path class="www_path01" d="M 319.346 521.5 L 440.207 521.5 C 444.212 521.5 447.463 524.751 447.463 528.756 L 447.463 681.084 C 447.463 685.088 444.212 688.34 440.207 688.34 L 319.346 688.34 C 315.341 688.34 312.09 685.088 312.09 681.084 L 312.09 528.756 C 312.09 524.751 315.341 521.5 319.346 521.5 Z" fill="none" stroke="#463E43" stroke-width="4" stroke-linecap="square" stroke-miterlimit="2"/>
<path class="www_path02" d=" M 400.03 592.906 C 400.831 592.995 401.501 593.556 401.729 594.329 L 406.033 608.668 L 409.954 598.204 C 410.248 597.421 410.997 596.902 411.833 596.902 C 412.67 596.902 413.419 597.421 413.713 598.204 L 417.634 608.668 L 421.937 594.331 C 422.256 593.27 423.373 592.668 424.434 592.984 C 425.489 593.305 426.087 594.416 425.772 595.473 L 419.762 615.509 C 419.519 616.338 418.776 616.911 417.906 616.941 C 417.015 617.011 416.263 616.448 415.965 615.643 L 411.833 604.615 L 407.7 615.643 C 407.403 616.424 406.652 616.941 405.823 616.941 L 405.761 616.941 C 404.897 616.915 404.149 616.337 403.905 615.509 L 397.894 595.473 C 397.581 594.414 398.183 593.301 399.241 592.984 C 399.507 592.904 399.772 592.874 400.03 592.904 L 400.03 592.906 Z " fill="rgb(70,62,67)"/>
<path class="www_path03" d=" M 367.973 592.906 C 368.774 592.995 369.444 593.556 369.672 594.329 L 373.976 608.668 L 377.899 598.204 C 378.194 597.422 378.942 596.905 379.777 596.905 C 380.612 596.905 381.361 597.422 381.655 598.204 L 385.576 608.668 L 389.88 594.331 C 390.239 593.329 391.318 592.782 392.339 593.085 C 393.359 593.389 393.963 594.438 393.715 595.473 L 387.704 615.509 C 387.462 616.338 386.719 616.911 385.849 616.941 C 384.987 617.011 384.214 616.448 383.909 615.643 L 379.776 604.615 L 375.643 615.643 C 375.346 616.424 374.595 616.941 373.765 616.941 L 373.703 616.941 C 372.84 616.915 372.091 616.337 371.848 615.509 L 365.837 595.473 C 365.524 594.414 366.126 593.301 367.184 592.984 C 367.45 592.904 367.715 592.874 367.973 592.904 L 367.973 592.906 Z " fill="rgb(70,62,67)"/>
<path class="www_path04" d=" M 335.916 592.906 C 336.717 592.995 337.386 593.556 337.615 594.329 L 341.918 608.668 L 345.841 598.204 C 346.137 597.423 346.884 596.907 347.719 596.907 C 348.553 596.907 349.301 597.423 349.596 598.204 L 353.519 608.668 L 357.823 594.331 C 358.181 593.329 359.261 592.782 360.281 593.085 C 361.301 593.389 361.906 594.438 361.658 595.473 L 355.647 615.509 C 355.405 616.338 354.661 616.911 353.792 616.941 C 352.884 617.011 352.149 616.448 351.852 615.643 L 347.719 604.615 L 343.585 615.643 C 343.289 616.424 342.538 616.941 341.708 616.941 L 341.646 616.941 C 340.783 616.915 340.034 616.337 339.791 615.509 L 333.78 595.473 C 333.466 594.414 334.068 593.301 335.126 592.984 C 335.393 592.904 335.657 592.874 335.916 592.904 L 335.916 592.906 Z " fill="rgb(70,62,67)"/>
<g class="www_group">
<path d=" M 447.612 648.17 C 469.807 648.17 487.694 666.54 487.694 689.335 C 487.694 712.13 469.807 730.5 447.612 730.5 C 425.417 730.5 407.53 712.13 407.53 689.335 C 407.53 666.54 425.417 648.17 447.612 648.17 Z " fill="rgb(255,255,255)"/>
<path d=" M 447.463 657.615 C 464.029 657.615 477.379 671.326 477.379 688.34 C 477.379 705.353 464.029 719.064 447.463 719.064 C 430.897 719.064 417.547 705.353 417.547 688.34 C 417.547 671.326 430.897 657.615 447.463 657.615 Z " fill="none" stroke-width="4" stroke="rgb(70,62,67)" stroke-linecap="square" stroke-miterlimit="3"/>
<path d=" M 482.897 727.946 L 483.81 728.842 L 488.83 723.453 L 487.917 722.556 L 473.772 708.658 L 472.859 707.761 L 467.839 713.151 L 468.752 714.048 L 482.897 727.946 Z " fill="rgb(70,62,67)"/>
</g>
</svg>